<?xml version="1.0" encoding="utf-8"?>
<!-- Generator: Adobe Illustrator 18.0.0, SVG Export Plug-In . SVG Version: 6.00 Build 0)  -->
<!DOCTYPE svg PUBLIC "-//W3C//DTD SVG 1.1//EN" "http://www.w3.org/Graphics/SVG/1.1/DTD/svg11.dtd">
<svg version="1.1" id="Calque_1" xmlns="http://www.w3.org/2000/svg" xmlns:xlink="http://www.w3.org/1999/xlink" x="0px" y="0px"
	 viewBox="0 0 960 560" enable-background="new 0 0 960 560" xml:space="preserve">
<path fill="#161027" d="M575.1,343.5c-10.6,1.4-21,1.7-31.1,1c-70-5.1-125.6-59.6-130-133.3c-3.6-60,46.6-197.7,171-132.7
	c-77.9-71.2-252-0.5-242.9,154.2c3.5,58.7,38.7,106.1,89.1,129.7c29.4,13.8,64,19.5,100.5,14.6c53.4-7.1,115.2-25.9,182.6-106.3
	C666.2,314.1,632.3,335.9,575.1,343.5z"/>
<path fill="#006388" d="M271.5,224.3c-1.1-42.8,16.7-88.2,48.9-124.5c5.4-6.1,11.1-11.8,17.1-17.2c-50.3,23.5-87.3,73-86.2,120.4
	c0.6,26.5,10.9,50.3,28.3,68.8C274.6,256.7,271.9,240.7,271.5,224.3z"/>
<path fill="#003253" d="M351,308.3c-0.5-0.9-1-1.7-1.5-2.6c-11.3-20.9-18.2-45-20.6-71.2C321.3,150,373.3,84.3,437,50.3
	c-63.4,9.6-119,57.1-142.8,113.1c-8.3,19.5-12.7,40-12.2,60.3c0.6,23.3,6.4,45,16.6,64.2c21.3,40.4,61.9,69.5,113.5,77
	C385.2,352.4,364.9,332.7,351,308.3z"/>
<rect x="265.1" y="412" fill="none" width="426.6" height="121.9"/>
<text transform="matrix(1 0 0 1 290.9502 463.3514)"><tspan x="0" y="0" fill="#161027" font-family="'GillSans'" font-size="75.2553" letter-spacing="2">ATLANTIC</tspan><tspan x="3.5" y="57.8" fill="#161027" font-family="'GillSans'" font-size="48.1634" letter-spacing="12">CROS GAME</tspan></text>
<line fill="none" stroke="#161027" stroke-miterlimit="10" x1="265.1" y1="394" x2="461.4" y2="394"/>
<line fill="none" stroke="#161027" stroke-miterlimit="10" x1="495.4" y1="394" x2="691.7" y2="394"/>
<line fill="none" stroke="#161027" stroke-miterlimit="10" x1="265.1" y1="540" x2="691.7" y2="540"/>
<path fill="#E54711" d="M650.6,291.4c0,0-24,20.1-62.9,23.6c0,0,7.8-86.4-15-161.1C572.6,153.9,638.5,224.5,650.6,291.4z"/>
<path fill="#110A1D" d="M714.3,300.2c0,0-167.1,121-283.4,0.8C430.9,300.9,534.2,451.8,714.3,300.2z"/>
<path fill="#201C3A" d="M584.9,78.5c0,0-81.8-74.7-191.3,19.4C393.6,97.8,503.1,21.8,584.9,78.5z"/>
<path fill="#004068" d="M437,50.3c0,0-122.5,15.1-152.8,146.3C284.2,196.6,318.3,93.2,437,50.3z"/>
<path fill="#00213C" d="M412.1,368.7c0,0-74.8-22.6-83.1-95C329,273.7,320,355.4,412.1,368.7z"/>
<path fill="#005272" d="M279.5,271.8c0,0-16.8-43.7-2-94.6C277.5,177.2,243.3,230.4,279.5,271.8z"/>
<path fill="#006F99" d="M337.4,82.7c0,0-39.2,15.9-66.2,56.9C271.2,139.5,307.2,102.9,337.4,82.7z"/>
<path fill="#CC3A17" d="M587.6,315c0,0,8.7-81.6-15-161.1C609.2,214.6,607.5,276.7,587.6,315z"/>
</svg>
