<?xml version="1.0" encoding="utf-8"?>
<!-- Generator: Adobe Illustrator 18.0.0, SVG Export Plug-In . SVG Version: 6.00 Build 0)  -->
<!DOCTYPE svg PUBLIC "-//W3C//DTD SVG 1.1//EN" "http://www.w3.org/Graphics/SVG/1.1/DTD/svg11.dtd">
<svg version="1.1" xmlns="http://www.w3.org/2000/svg" xmlns:xlink="http://www.w3.org/1999/xlink" x="0px" y="0px"
	 viewBox="0 0 1190.6 841.9" enable-background="new 0 0 1190.6 841.9" xml:space="preserve">
<g id="image" display="none">
</g>
<g id="quartiers">
</g>
<g id="lieux-_plein_air">
</g>
<g id="patinoire_et_piscine">
</g>
<g id="gymnases">
</g>
<g id="spéciaux">
</g>
<g id="stades">
	<polygon fill="#231F20" stroke="#414141" stroke-width="3" stroke-miterlimit="10" points="534.2,286.8 669.6,198.5 747.3,196.4 
		732.9,241.6 760,255.4 740.5,278.3 724.4,317.8 659.4,379.3 620.8,400.1 590.7,400.1 540.6,347.9 536.3,331.8 542.7,307.2 	"/>
	<polygon fill="#231F20" stroke="#414141" stroke-width="3" stroke-miterlimit="10" points="743.9,162.4 760,159 755.8,146.3 
		853,119.6 859.4,115.7 893.7,150.5 927.7,184.9 943.8,214.6 950.2,250.3 961.2,271.5 925.2,294.4 907.8,294.4 933.6,343.7 
		919.6,341.5 903.5,349.2 895.4,346.6 868.7,367.9 852.6,367.9 810.1,333.1 800.4,313.5 785.5,289.8 775.3,288.9 763.4,277.5 
		760,255.4 732.9,241.6 747.3,196.4 	"/>
	<polygon fill="#231F20" stroke="#414141" stroke-width="3" stroke-miterlimit="10" points="854.7,463.4 833.9,471.4 825,454.5 
		795.7,485 769.8,506.2 786.8,547 760,540.6 743.9,544.9 718.9,536 706.1,524.9 690,521.9 686.6,526.6 673,527 673,513.9 650.5,491 
		653.9,471.4 624.6,449.8 609.8,426 590.7,400.1 620.8,400.1 659.4,379.3 724.4,317.8 740.5,278.3 760,255.4 763.4,277.5 
		775.3,288.9 785.5,289.8 800.4,313.5 810.1,333.1 852.6,367.9 	"/>
	<polygon fill="#231F20" stroke="#414141" stroke-width="3" stroke-miterlimit="10" points="915.4,439.6 948.9,463.8 951.1,469.3 
		987.1,469.3 1004.1,461.7 1017.7,433.2 1056.7,401.2 1064.4,385.7 1087.3,401.2 1087.3,395.9 1109.4,382.7 1113.2,348.8 
		1052.9,333.1 1014.3,319.9 986.3,304.6 961.2,271.5 925.2,294.4 907.8,294.4 933.6,343.7 919.6,341.5 903.5,349.2 895.4,346.6 
		868.7,367.9 852.6,367.9 854.7,463.4 854.7,474.8 	"/>
	<polygon fill="#231F20" stroke="#414141" stroke-width="3" stroke-miterlimit="10" points="670.9,551.7 684.1,597.5 684.1,613.6 
		669.2,613.6 698.9,678.6 687,708.7 746.9,744.8 746.9,755 752.8,755 754.9,764.3 752,764.3 752.8,772 762.2,787.7 775.7,783.8 
		783.8,797 927.3,772.4 946.8,749.5 943.4,742.7 962.9,722.3 960.8,720.6 976.5,703.6 980.8,707.9 985.4,703.2 982.9,699 
		1003.7,674.3 1003.7,666.3 1008.4,651.8 1031.7,640.8 1038.5,648 1058.4,628.1 1064,629.3 1066.5,617.5 1066.5,614.1 1069.9,606 
		1075.4,607.7 1106,563.1 1101.3,519.4 1087.3,499.9 1086,493.1 1066.1,460.4 1087.3,401.2 1064.4,385.7 1056.7,401.2 1017.7,433.2 
		1004.1,461.7 987.1,469.3 951.1,469.3 948.9,463.8 915.4,439.6 854.7,474.8 854.7,463.4 833.9,471.4 825,454.5 795.7,485 
		769.8,506.2 786.8,547 760,540.6 743.9,544.9 718.9,536 706.1,524.9 690,521.9 686.6,526.6 673,527 	"/>
	<polygon fill="#231F20" stroke="#414141" stroke-width="3" stroke-miterlimit="10" points="534.2,286.8 532.5,271.5 541.4,240.1 
		541.4,214.2 528.7,196.4 521.1,183.6 475.6,170.1 564.4,133.1 611.9,128.9 716.3,147.1 755.8,146.3 760,159 743.9,162.4 
		747.3,196.4 669.6,198.5 	"/>
	<polygon fill="#231F20" stroke="#414141" stroke-width="3" stroke-miterlimit="10" points="319.9,136.1 330.5,136.1 433.6,105.1 
		459.1,87.3 481.2,87.3 503.2,95.8 501.5,78.8 575.3,66.5 584.3,70.3 590.7,68.6 680.2,74.6 712.9,74.6 722.7,78 736.3,76.7 
		747.7,80.1 753.3,78.8 777.9,79.7 816.9,83.9 820.7,104.7 834,124.8 755.8,146.3 716.3,147.1 611.9,128.9 564.4,133.1 518.8,152.1 
		510,142.1 499.8,148.4 488.8,128.9 475.6,146.7 453.2,168.4 408.6,185.3 309.7,185.3 322,139.5 	"/>
	<g>
		<g>
			<path fill="#42FF97" d="M420.4,130.8c9.7,0,9.7-15,0-15C410.8,115.8,410.8,130.8,420.4,130.8L420.4,130.8z"/>
		</g>
	</g>
	<g>
		<g>
			<path fill="#42FF97" d="M468.8,107.7c9.7,0,9.7-15,0-15S459.1,107.7,468.8,107.7L468.8,107.7z"/>
		</g>
	</g>
	<g>
		<g>
			<path fill="#42FF97" d="M582.7,182c9.7,0,9.7-15,0-15C573,167,573,182,582.7,182L582.7,182z"/>
		</g>
	</g>
	<g>
		<g>
			<path fill="#42FF97" d="M599.8,238.5c9.7,0,9.7-15,0-15C590.2,223.5,590.2,238.5,599.8,238.5L599.8,238.5z"/>
		</g>
	</g>
	<g>
		<g>
			<path fill="#42FF97" d="M652.8,162.7c9.7,0,9.7-15,0-15S643.2,162.7,652.8,162.7L652.8,162.7z"/>
		</g>
	</g>
	<g>
		<g>
			<path fill="#42FF97" d="M582.7,295.4c9.7,0,9.7-15,0-15C573,280.4,573,295.4,582.7,295.4L582.7,295.4z"/>
		</g>
	</g>
	<g>
		<g>
			<path fill="#42FF97" d="M659.7,272.6c9.7,0,9.7-15,0-15S650,272.6,659.7,272.6L659.7,272.6z"/>
		</g>
	</g>
	<g>
		<g>
			<path fill="#42FF97" d="M689.9,258.1c9.7,0,9.7-15,0-15S680.2,258.1,689.9,258.1L689.9,258.1z"/>
		</g>
	</g>
	<g>
		<g>
			<path fill="#42FF97" d="M709,257.4c9.7,0,9.7-15,0-15C699.4,242.4,699.4,257.4,709,257.4L709,257.4z"/>
		</g>
	</g>
	<g>
		<g>
			<path fill="#42FF97" d="M708.5,275.8c9.7,0,9.7-15,0-15C698.9,260.8,698.9,275.8,708.5,275.8L708.5,275.8z"/>
		</g>
	</g>
	<g>
		<g>
			<path fill="#42FF97" d="M751.7,192.3c9.7,0,9.7-15,0-15C742.1,177.3,742.1,192.3,751.7,192.3L751.7,192.3z"/>
		</g>
	</g>
	<g>
		<g>
			<path fill="#42FF97" d="M854.6,172.5c9.7,0,9.7-15,0-15C844.9,157.5,844.9,172.5,854.6,172.5L854.6,172.5z"/>
		</g>
	</g>
	<g>
		<g>
			<path fill="#42FF97" d="M872.5,138.8c9.7,0,9.7-15,0-15S862.8,138.8,872.5,138.8L872.5,138.8z"/>
		</g>
	</g>
	<g>
		<g>
			<path fill="#42FF97" d="M864.9,260.6c9.7,0,9.7-15,0-15S855.2,260.6,864.9,260.6L864.9,260.6z"/>
		</g>
	</g>
	<g>
		<g>
			<path fill="#42FF97" d="M793.2,285.1c9.7,0,9.7-15,0-15S783.5,285.1,793.2,285.1L793.2,285.1z"/>
		</g>
	</g>
	<g>
		<g>
			<path fill="#42FF97" d="M574.8,329.5c9.7,0,9.7-15,0-15S565.1,329.5,574.8,329.5L574.8,329.5z"/>
		</g>
	</g>
	<g>
		<g>
			<path fill="#42FF97" d="M695.5,321.2c9.7,0,9.7-15,0-15S685.9,321.2,695.5,321.2L695.5,321.2z"/>
		</g>
	</g>
	<g>
		<g>
			<path fill="#42FF97" d="M748.5,306.5c9.7,0,9.7-15,0-15C738.9,291.5,738.9,306.5,748.5,306.5L748.5,306.5z"/>
		</g>
	</g>
	<g>
		<g>
			<path fill="#42FF97" d="M787.8,372.7c9.7,0,9.7-15,0-15C778.1,357.7,778.1,372.7,787.8,372.7L787.8,372.7z"/>
		</g>
	</g>
	<g>
		<g>
			<path fill="#42FF97" d="M848.9,439.5c9.7,0,9.7-15,0-15S839.2,439.5,848.9,439.5L848.9,439.5z"/>
		</g>
	</g>
	<g>
		<g>
			<path fill="#42FF97" d="M876.9,458.8c9.7,0,9.7-15,0-15S867.2,458.8,876.9,458.8L876.9,458.8z"/>
		</g>
	</g>
	<g>
		<g>
			<path fill="#42FF97" d="M703.4,467.4c9.7,0,9.7-15,0-15C693.7,452.4,693.7,467.4,703.4,467.4L703.4,467.4z"/>
		</g>
	</g>
	<g>
		<g>
			<path fill="#42FF97" d="M812.3,531.7c9.7,0,9.7-15,0-15S802.7,531.7,812.3,531.7L812.3,531.7z"/>
		</g>
	</g>
	<g>
		<g>
			<path fill="#42FF97" d="M794.2,548.9c9.7,0,9.7-15,0-15C784.5,533.9,784.5,548.9,794.2,548.9L794.2,548.9z"/>
		</g>
	</g>
	<g>
		<g>
			<path fill="#42FF97" d="M706.8,579.3c9.7,0,9.7-15,0-15S697.1,579.3,706.8,579.3L706.8,579.3z"/>
		</g>
	</g>
	<g>
		<g>
			<path fill="#42FF97" d="M868.5,580.1c9.7,0,9.7-15,0-15C858.9,565.1,858.9,580.1,868.5,580.1L868.5,580.1z"/>
		</g>
	</g>
	<g>
		<g>
			<path fill="#42FF97" d="M980.4,628.9c9.7,0,9.7-15,0-15S970.8,628.9,980.4,628.9L980.4,628.9z"/>
		</g>
	</g>
	<g>
		<g>
			<path fill="#42FF97" d="M999.8,619.1c9.7,0,9.7-15,0-15C990.2,604.1,990.2,619.1,999.8,619.1L999.8,619.1z"/>
		</g>
	</g>
	<g>
		<g>
			<path fill="#42FF97" d="M1016,326.3c9.7,0,9.7-15,0-15C1006.4,311.3,1006.4,326.3,1016,326.3L1016,326.3z"/>
		</g>
	</g>
	<g>
		<g>
			<path fill="#42FF97" d="M1043.3,346c9.7,0,9.7-15,0-15S1033.6,346,1043.3,346L1043.3,346z"/>
		</g>
	</g>
	<g>
		<g>
			<path fill="#42FF97" d="M923,423.5c9.7,0,9.7-15,0-15C913.3,408.5,913.3,423.5,923,423.5L923,423.5z"/>
		</g>
	</g>
	<g>
		<g>
			<path fill="#42FF97" d="M967.4,401.7c9.7,0,9.7-15,0-15C957.8,386.7,957.8,401.7,967.4,401.7L967.4,401.7z"/>
		</g>
	</g>
	<g>
		<g>
			<path fill="#42FF97" d="M932.6,235.3c9.7,0,9.7-15,0-15C922.9,220.3,922.9,235.3,932.6,235.3L932.6,235.3z"/>
		</g>
	</g>
	<g>
		<g>
			<path fill="#FFFF00" d="M595.9,290.3c9.7,0,9.7-15,0-15S586.2,290.3,595.9,290.3L595.9,290.3z"/>
		</g>
	</g>
	<g>
		<g>
			<path fill="#FFFF00" d="M551.7,296.4c9.7,0,9.7-15,0-15C542.1,281.4,542.1,296.4,551.7,296.4L551.7,296.4z"/>
		</g>
	</g>
	<g>
		<g>
			<path fill="#FF3652" d="M575.5,167.8c9.7,0,9.7-15,0-15S565.9,167.8,575.5,167.8L575.5,167.8z"/>
		</g>
	</g>
	<g>
		<g>
			<path fill="#FF3652" d="M585.6,279.7c9.7,0,9.7-15,0-15S575.9,279.7,585.6,279.7L585.6,279.7z"/>
		</g>
	</g>
	<g>
		<g>
			<path fill="#FF3652" d="M719.3,260.8c9.7,0,9.7-15,0-15C709.7,245.8,709.7,260.8,719.3,260.8L719.3,260.8z"/>
		</g>
	</g>
	<g>
		<g>
			<path fill="#FF3652" d="M759.3,182c9.7,0,9.7-15,0-15C749.7,167,749.7,182,759.3,182L759.3,182z"/>
		</g>
	</g>
	<g>
		<g>
			<path fill="#FF3652" d="M694.8,335.2c9.7,0,9.7-15,0-15S685.1,335.2,694.8,335.2L694.8,335.2z"/>
		</g>
	</g>
	<g>
		<g>
			<path fill="#FF3652" d="M702.2,373.7c9.7,0,9.7-15,0-15C692.5,358.7,692.5,373.7,702.2,373.7L702.2,373.7z"/>
		</g>
	</g>
	<g>
		<g>
			<path fill="#FF3652" d="M557.4,342.5c9.7,0,9.7-15,0-15C547.7,327.5,547.7,342.5,557.4,342.5L557.4,342.5z"/>
		</g>
	</g>
	<g>
		<g>
			<path fill="#FF3652" d="M804.7,373c9.7,0,9.7-15,0-15S795.1,373,804.7,373L804.7,373z"/>
		</g>
	</g>
	<g>
		<g>
			<path fill="#FF3652" d="M810.9,283.1c9.7,0,9.7-15,0-15S801.2,283.1,810.9,283.1L810.9,283.1z"/>
		</g>
	</g>
	<g>
		<g>
			<path fill="#FF3652" d="M875.2,256.9c9.7,0,9.7-15,0-15S865.5,256.9,875.2,256.9L875.2,256.9z"/>
		</g>
	</g>
	<g>
		<g>
			<path fill="#FF3652" d="M921.1,408.8c9.7,0,9.7-15,0-15C911.4,393.8,911.4,408.8,921.1,408.8L921.1,408.8z"/>
		</g>
	</g>
	<g>
		<g>
			<path fill="#FF3652" d="M840.8,432.1c9.7,0,9.7-15,0-15S831.1,432.1,840.8,432.1L840.8,432.1z"/>
		</g>
	</g>
	<g>
		<g>
			<path fill="#FF3652" d="M836.4,573.7c9.7,0,9.7-15,0-15S826.7,573.7,836.4,573.7L836.4,573.7z"/>
		</g>
	</g>
	<g>
		<g>
			<path fill="#004CFF" d="M794.4,204.4c9.7,0,9.7-15,0-15S784.8,204.4,794.4,204.4L794.4,204.4z"/>
		</g>
	</g>
	<g>
		<g>
			<path fill="#004CFF" d="M607.7,313.8c9.7,0,9.7-15,0-15S598,313.8,607.7,313.8L607.7,313.8z"/>
		</g>
	</g>
	<g>
		<g>
			<path fill="#004CFF" d="M434.7,122.4c9.7,0,9.7-15,0-15C425,107.4,425,122.4,434.7,122.4L434.7,122.4z"/>
		</g>
	</g>
	<g>
		<g>
			<path fill="#004CFF" d="M980,587.5c9.7,0,9.7-15,0-15S970.3,587.5,980,587.5L980,587.5z"/>
		</g>
	</g>
	<g>
		<g>
			<path fill="#004CFF" d="M1012.5,602c9.7,0,9.7-15,0-15S1002.8,602,1012.5,602L1012.5,602z"/>
		</g>
	</g>
	<g>
		<g>
			<path fill="#FF3E00" d="M569.5,293c9.7,0,9.7-15,0-15S559.8,293,569.5,293L569.5,293z"/>
		</g>
	</g>
	<g>
		<g>
			<path fill="#FF3E00" d="M958,593.5c9.7,0,9.7-15,0-15S948.3,593.5,958,593.5L958,593.5z"/>
		</g>
	</g>
</g>
</svg>
