<?xml version="1.0" encoding="utf-8"?>
<!-- Generator: Adobe Illustrator 19.2.1, SVG Export Plug-In . SVG Version: 6.00 Build 0)  -->
<svg version="1.1" id="Calque_1" xmlns="http://www.w3.org/2000/svg" xmlns:xlink="http://www.w3.org/1999/xlink" x="0px" y="0px"
	 viewBox="0 0 200 200" style="enable-background:new 0 0 200 200;" xml:space="preserve">
<style type="text/css">
	.st0{fill:#00AF9B;}
</style>
<g>
	<g>
		<path class="st0" d="M100,195.1c-52.4,0-95-42.5-95-94.6C5,48.2,47.6,5.8,100,5.8c52.4,0,95,42.5,95,94.6
			C195,152.6,152.4,195.1,100,195.1z M100,21c-44,0-79.7,35.6-79.7,79.4c0,43.8,35.8,79.4,79.7,79.4c44,0,79.7-35.6,79.7-79.4
			C179.7,56.6,144,21,100,21z"/>
		<path class="st0" d="M100,5.8c52.3,0,94.8,42.3,95,94.3c0-0.1,0-0.2,0-0.4c0-52.2-42.6-94.6-95-94.6c-17.8,0-34.3,5-48.6,13.4
			C28.8,32,12.2,54.6,6.8,81.2C5.7,87.2,5,93.4,5,99.7c0,0.1,0,0.2,0,0.4C5.2,48,47.7,5.8,100,5.8z"/>
		<path class="st0" d="M100,180.6c10.6,0,20.7-2.1,29.9-5.8c-10.5-1.9-18.5-11-18.5-22c0-12.4,10.1-22.4,22.5-22.4
			c12.4,0,22.5,10,22.5,22.4c0,1.8-0.3,3.6-0.7,5.3c15.2-14.6,24.7-35,24.7-57.7c0-44.2-36.1-80.2-80.5-80.2
			c-10.5,0-20.5,2.1-29.8,5.7c11.3,7.9,18.7,21,18.7,35.8c0,24.2-19.7,43.8-43.9,43.8c-9.4,0-18.2-3-25.3-8c0,1-0.2,1.9-0.2,2.9
			C19.5,144.6,55.6,180.6,100,180.6z M86,161.4c-10.4,0-18.8-8.4-18.8-18.8c0-10.4,8.4-18.8,18.8-18.8c10.4,0,18.8,8.4,18.8,18.8
			C104.8,153,96.4,161.4,86,161.4z M158.1,98.2c9,0,16.4,7.3,16.4,16.3s-7.3,16.3-16.4,16.3c-9,0-16.4-7.3-16.4-16.3
			S149.1,98.2,158.1,98.2z M111.5,73.2c15,0,27.2,12.2,27.2,27.1s-12.2,27.1-27.2,27.1c-15,0-27.2-12.2-27.2-27.1
			S96.4,73.2,111.5,73.2z M71.6,103.6c4.8,0,8.7,3.9,8.7,8.7c0,4.8-3.9,8.7-8.7,8.7c-4.8,0-8.7-3.9-8.7-8.7
			C62.8,107.5,66.7,103.6,71.6,103.6z"/>
		<path class="st0" d="M100,194.4c-52.3,0-94.8-42.3-95-94.3c0,0.1,0,0.2,0,0.4c0,52.2,42.6,94.6,95,94.6c52.4,0,95-42.5,95-94.6
			c0-0.1,0-0.2,0-0.4C194.8,152.1,152.3,194.4,100,194.4z"/>
	</g>
</g>
</svg>
