<?xml version="1.0" encoding="utf-8"?>
<!-- Generator: Adobe Illustrator 19.2.1, SVG Export Plug-In . SVG Version: 6.00 Build 0)  -->
<svg version="1.1" id="Calque_1" xmlns="http://www.w3.org/2000/svg" xmlns:xlink="http://www.w3.org/1999/xlink" x="0px" y="0px"
	 viewBox="0 0 200 200" style="enable-background:new 0 0 200 200;" xml:space="preserve">
<style type="text/css">
	.st0{fill:#E6E6E6;}
</style>
<path class="st0" d="M100,5C47.6,5,5,47.6,5,100s42.6,95,95,95s95-42.6,95-95S152.4,5,100,5z M100,20.3c37.6,0,69.2,26.3,77.5,61.4
	c-2.5-1.3-5.2-2.1-8.2-2.1c-4.2,0-8,1.4-11,3.9l-20.9-13.4c0.7-1.9,1-4,1-6.1c0-10.2-8.1-18.4-18.1-18.4s-18.1,8.2-18.1,18.4
	c0,5.1,2.1,9.8,5.4,13.1l-29.2,48.8c-1.6-0.4-3.2-0.7-4.9-0.7c-4.5,0-8.6,1.7-11.8,4.4l-13.3-7.4c0.2-1.1,0.3-2.2,0.3-3.3
	c0-10.2-8.1-18.4-18.1-18.4c-3.8,0-7.3,1.2-10.2,3.3c-0.1-1.3-0.2-2.5-0.2-3.8C20.3,56,56,20.3,100,20.3z M100,179.7
	c-30.5,0-57-17.2-70.4-42.5c0.4,0,0.8,0.1,1.2,0.1c5.2,0,9.9-2.3,13.2-5.8l12.3,6.9c-0.5,1.7-0.8,3.4-0.8,5.2
	c0,10.2,8.1,18.4,18.1,18.4c10,0,18.1-8.2,18.1-18.4c0-4.7-1.7-8.9-4.5-12.2L116.6,82c1.2,0.3,2.4,0.4,3.7,0.4c4.2,0,8-1.5,11.1-3.9
	l20.9,13.4c-0.7,1.9-1,4-1,6.1c0,10.2,8.1,18.4,18.1,18.4c3.4,0,6.5-1,9.2-2.6C171.9,151.2,139.2,179.7,100,179.7z"/>
</svg>
