<?xml version="1.0" encoding="utf-8"?>
<!-- Generator: Adobe Illustrator 19.2.1, SVG Export Plug-In . SVG Version: 6.00 Build 0)  -->
<svg version="1.1" id="Calque_1" xmlns="http://www.w3.org/2000/svg" xmlns:xlink="http://www.w3.org/1999/xlink" x="0px" y="0px"
	 viewBox="0 0 200 200" style="enable-background:new 0 0 200 200;" xml:space="preserve">
<style type="text/css">
	.st0{fill:#00AF9B;}
</style>
<g>
	<path class="st0" d="M100,5C47.6,5,5,47.6,5,100c0,52.4,42.6,95,95,95c52.4,0,95-42.6,95-95C195,47.6,152.4,5,100,5z M169.3,116.4
		c-10,0-18.1-8.2-18.1-18.4c0-2.1,0.4-4.2,1-6.1l-20.9-13.4c-3.1,2.4-6.9,3.9-11.1,3.9c-1.3,0-2.5-0.1-3.7-0.4l-29.5,49.4
		c2.8,3.2,4.5,7.5,4.5,12.2c0,10.2-8.1,18.4-18.1,18.4c-10,0-18.1-8.2-18.1-18.4c0-1.8,0.3-3.6,0.8-5.2l-12.3-6.9
		c-3.3,3.6-8,5.8-13.2,5.8c-0.4,0-0.8-0.1-1.2-0.1c-5.3-10.1-8.5-21.4-9.1-33.5c2.9-2,6.4-3.3,10.2-3.3c10,0,18.1,8.2,18.1,18.4
		c0,1.1-0.1,2.2-0.3,3.3l13.3,7.4c3.2-2.8,7.3-4.4,11.8-4.4c1.7,0,3.3,0.3,4.9,0.7l29.2-48.8c-3.3-3.3-5.4-8-5.4-13.1
		c0-10.2,8.1-18.4,18.1-18.4s18.1,8.2,18.1,18.4c0,2.1-0.4,4.2-1,6.1l20.9,13.4c3.1-2.4,6.9-3.9,11-3.9c3,0,5.7,0.8,8.2,2.1
		c1.4,5.9,2.2,12,2.2,18.3c0,4.7-0.5,9.3-1.3,13.8C175.7,115.4,172.6,116.4,169.3,116.4z"/>
</g>
</svg>
