<?xml version="1.0" encoding="utf-8"?>
<!-- Generator: Adobe Illustrator 19.2.1, SVG Export Plug-In . SVG Version: 6.00 Build 0)  -->
<svg version="1.1" id="Calque_1" xmlns="http://www.w3.org/2000/svg" xmlns:xlink="http://www.w3.org/1999/xlink" x="0px" y="0px"
	 viewBox="0 0 200 200" style="enable-background:new 0 0 200 200;" xml:space="preserve">
<style type="text/css">
	.st0{fill:#E6E6E6;}
</style>
<g>
	<g>
		<g>
			<circle class="st0" cx="157.5" cy="114.1" r="16.2"/>
			<circle class="st0" cx="111.3" cy="100" r="27"/>
			<circle class="st0" cx="71.8" cy="111.8" r="8.6"/>
			<circle class="st0" cx="86.1" cy="142" r="18.6"/>
			<path class="st0" d="M100,5c-17.8,0-34.3,5-48.6,13.5c-22.7,13.6-39.3,36.2-44.6,63C5.7,87.5,5,93.7,5,100c0,52.4,42.6,95,95,95
				c52.4,0,95-42.6,95-95C195,47.6,152.4,5,100,5z M155.3,157.3c0.4-1.7,0.7-3.4,0.7-5.3c0-12.3-10-22.3-22.3-22.3
				c-12.3,0-22.3,10-22.3,22.3c0,10.9,7.9,20,18.3,21.9c-9.2,3.7-19.2,5.8-29.6,5.8c-44,0-79.7-35.8-79.7-79.7c0-1,0.1-1.9,0.1-2.9
				c7.1,5,15.7,8,25.1,8c24,0,43.5-19.5,43.5-43.5c0-14.7-7.3-27.7-18.5-35.5c9.1-3.6,19-5.7,29.5-5.7c44,0,79.7,35.8,79.7,79.7
				C179.7,122.5,170.3,142.8,155.3,157.3z"/>
		</g>
	</g>
</g>
</svg>
