<?xml version="1.0" encoding="utf-8"?>
<!-- Generator: Adobe Illustrator 19.2.1, SVG Export Plug-In . SVG Version: 6.00 Build 0)  -->
<svg version="1.1" id="Calque_1" xmlns="http://www.w3.org/2000/svg" xmlns:xlink="http://www.w3.org/1999/xlink" x="0px" y="0px"
	 viewBox="0 0 200 200" style="enable-background:new 0 0 200 200;" xml:space="preserve">
<style type="text/css">
	.st0{fill:#00AF9B;}
</style>
<path class="st0" d="M144.9,16.2c-2.2-1.2-4.5-2.3-6.8-3.3c-0.7-0.3-1.4-0.6-2.2-0.9c-2.4-1-4.8-1.9-7.2-2.7
	c-0.5-0.2-1.1-0.3-1.6-0.5c-2.3-0.7-4.5-1.3-6.9-1.8c-0.5-0.1-1.1-0.3-1.6-0.4c-2.7-0.5-5.4-0.9-8.1-1.2c-0.6-0.1-1.2-0.1-1.8-0.2
	c-2.9-0.3-5.7-0.4-8.7-0.4c-52.4,0-95,42.6-95,95s42.6,95,95,95c3.1,0,6.1-0.2,9.1-0.5c1-0.1,2-0.3,3-0.4c2-0.3,3.9-0.5,5.9-0.9
	c1.2-0.2,2.3-0.5,3.4-0.8c1.7-0.4,3.4-0.8,5.1-1.3c1.2-0.3,2.4-0.7,3.6-1.1c1.6-0.5,3.1-1.1,4.7-1.7c1.2-0.5,2.4-0.9,3.6-1.5
	c1.4-0.6,2.9-1.3,4.3-2.1c1.2-0.6,2.4-1.2,3.5-1.8c1.3-0.7,2.5-1.5,3.8-2.3c2.7-1.7,5.3-3.5,7.8-5.4c0.6-0.5,1.3-0.9,1.9-1.4
	c1.5-1.2,2.8-2.4,4.2-3.7c0.7-0.6,1.3-1.2,2-1.8c1.4-1.3,2.7-2.7,4-4.1c0.6-0.6,1.1-1.2,1.7-1.8c1.3-1.5,2.6-3,3.8-4.6
	c0.4-0.5,0.8-1.1,1.2-1.6c1.3-1.7,2.5-3.5,3.6-5.3c0.2-0.3,0.4-0.7,0.6-1c9-14.5,14.3-31.6,14.3-49.9
	C195,63.7,174.7,32.3,144.9,16.2z M101,53.9c1-1,2.5-1.6,3.5-2.7c1.2-1.4,1-1.8,3.1-1.8c0.8,0,1.4,0.4,2-0.2c0.4-0.4,0-1,0.8-1.6
	c0.6-0.4,1.6,0,2.3-0.8c0.2-0.4,0-0.8,0.2-1c0.6-0.6,1.2-1,1.6-1.4c0.4-0.2,0.6-0.8,1-1.2c0.2-0.2,0-0.6,0.4-0.8
	c0.6-0.4,1.4,0.2,2-0.2c1-0.6,1.4-2.9,2-3.9c1-1.6,2.5-2.3,2.9-4.3c0.2-1,0-1.4,0.6-2.1c0.6-0.8,1.8-1.8,2.5-2.3
	c0.8-0.6,1.4-1,2-1.8c0.7-1.1,0.7-1.5,1.7-2c7.4,3,14.3,7,20.5,11.9c-2.3,0.8-4.3,2.5-4,4.5c0.4,2.1,0.6,1.8-1.2,3.1
	c-1.4,1-2.5,1.6-3.9,2.5c-2,1.6-4.3,2.5-5.3,5.1c-0.4,1.2-1.6,3.3-1.2,4.7c0.4,1.6,1.8,2.5,2.9,3.3c0.4,0.4,1,1,1.6,1.2
	c0.8,0.2,1.6,0,0.8,1.2c-0.6,0.8-1,2.1-2,2.7c-0.8,0.6-2,0.6-2.7,1.2c-2,1.4-2.3,3.3-2.7,5.5c-0.4,2.1,0.6,5.7-2.3,5.9
	c-1,0.2-1.8-0.8-2.7-0.2c-1.8,0.8-0.2,1.8-1,2.7c-1.6,1.8-4.9-1-4.9-2.9c0-0.6,0.6-0.8,0.4-1.8c0-1.2-1.4-2.1-2-3.1
	c-1.2-2.1-1.2-4.5-2.9-6.2c-2.1-2-3.7,0-5.5,1.8c-2,2-6.1,2.1-8.2,0.2c-1-1-1.2-1.6-1-2.9c0-0.8,1.4-2.9-1-2.1c0-2,1.4-1.2-0.2-2.9
	c-0.4-0.4-0.8,0-1-0.6c-0.2-0.8,1-1,1-1.8c0-1-1.4-1.4-1.4-2.5C99.6,55.2,100.4,54.6,101,53.9z M71.5,69.9c0.2-0.4,0.8-0.8,1-1.2
	c0.2-0.4,0-0.6,0-1.2c0-1.6,0-2,1.2-2.9c1-1,5.5-1.8,5.7-0.2c0.2,1.2-2.3,2-0.4,2.9c0,0,0.8-0.2,1-0.2c0.6,0.2,1.6,0.4,2,0.8
	c0.4,0.4,1,1.2,0.8,1.8c-0.2,1.6-2.1,1.6-2.5,3.3c-0.2,0.6-0.2,2,0,2.3c0.4,0.6,1.4,0.6,1.8,0.8c0.4,0.4,1,1.8,1.2,2.1
	c0.4,0.8,0,1.8,0.4,2.3c0.8,1.4,2.9,1.8,3.5,3.3c0.4,1.4,0.2,3.7,0,5.1c1.4,0.2,2.9-0.2,4.3,0.8c1,3.1-2.9,2.9-2,5.7
	c1.8-0.2,1,1.6,0.4,2.1c-1,0.8-2.1,1-3.3,1c-1.4,0-6.2-0.2-6.4,1.2c-1.6,0-1.6-0.2-2.5,0.8c-0.4,0.4,0.2,1-0.6,1.2
	c-0.6,0.2-0.8-0.6-1.2-0.8c-0.8-0.6-1.4-1.2-2.3-0.6c-0.8,0.4-0.6,2-2,1.8c-2.7-0.4,0.6-2.7,1-3.1c0.6-0.8,0.4-1.8,1-2.3
	c0.8-1,1.8-0.8,2.7-1c-0.2-1.8-5.5-0.6-3.3-3.7c0.4-0.6,1.6-0.6,2-1.2c0.8-1.4-0.6-0.8-0.6-2s1.6-1.8,2.3-2c1.4-0.4,1.6,0,1.8-1.4
	c0-0.8,0-2.1-0.4-2.7c-0.4-1.2-0.8-1-2-1.2c-1-0.2-2-0.4-2.1-1.4c-0.4-1.4,1.2-2,0.6-3.1c0.2,0.8-1.6,0.8-1.8-0.2c0-0.4,0.8-2,1-2.5
	C70.9,75.1,70.9,71.6,71.5,69.9z M58.6,90.9c0-1,1-2.1,1.8-2.7c0.6-0.6,1.4-0.6,1.2-1.6c-0.2-0.8-0.8-0.6-1.2-1.2
	c-1.2-1.2,0.8-1.2,0.4-2.5c-0.6-0.2-0.6-1-0.2-1.4c0.2-0.4,0.8-0.2,1.2-0.2c0.6,0,2.1,0.4,2.7,0c0.4-0.2,0.8-1.8,1.2-2.1
	c0.8-1.2,0.8-1.8,2.3-1.8c2.1,0,4.7,2,5.1,3.5c0.8,2.3-1.8,2.1-2.3,3.7c-0.2,0.6,0.4,1.6,0.4,2.1c0,1.2,0.2,2.5-0.6,3.5
	c-0.4,0.4-1.8,1.4-2.1,1.6c-0.8,0.4-1.8,0-2.5,0.4c-2.1,1-2.7,2.1-5.3,1.4C60.8,92.3,58.4,92.5,58.6,90.9z M113.9,137
	c-0.2,0.6-0.6,2-0.8,2.1c-0.2,0.4-2,0.2-2.3,0c-0.6-0.2-0.8-1.6-1-2.1c-0.4-1-0.2-0.8,0-1.8c0.2-0.6-0.2-1.2,0-2
	c0.4-1.8,2.5-2,3.9-2c0.2-0.2,0.8,2.5,0.8,3.9C114.2,136,114.2,136.2,113.9,137z M113.9,126.5c0,0.4-0.2,1.4-0.2,1.8
	c-0.2,1.4-0.6,2.9-2.3,2.1c-1-0.4-1.6-2-1.2-2.9c0.4-0.8,2.5-2,3.3-2.7C112.9,125.9,113.7,125.7,113.9,126.5z M126.3,147.1
	c-0.6-0.2-1.2-1-1.8-1.4c-0.8-0.4-1.6-0.8-2.3-1c-0.8-0.4-1.8-0.4-2-1.4c0-0.8,0.6-1.6,1.2-1.8c0.8-0.2,1.8,0.4,2.5,0.4
	c1.2,0,2.7-0.2,3.9-0.4c1,0,0,1.6,0.2,2.1c0.4,0.8,1.2,0.8,1.2,1.8C129.7,147.3,127.5,147.7,126.3,147.1z M157.2,152
	c-0.2,0.2-0.4,0.8-0.8,0.8c-0.6,0-0.6-0.6-1-0.8c-1-0.6-1.4-0.4-2.3-0.6c-1-0.2-2.9-1.8-1.2-2.3c1.4-0.2,2.3,1.4,3.7,0.8
	c1-0.4,4.5-0.4,4.9,0.6C161.1,152.2,157.8,151.8,157.2,152z M177.4,118.7c-0.2-0.4-0.6-0.7-1.1-0.8c4.7-3.7-2.1-1.6-2.5-4.3
	c-3.7-1-3.5,3.1-4.9,5.1c-0.6,1-1.2,1-2,1.6c-1.4,1.2-1.4,0.4-1.8,2.9c-0.2,1.4-0.4,2.7-0.4,4.1c-2.1,0-1.6,2.7-2.9,3.9
	c-0.4,0.4-1.4-0.2-2,0.2c-0.6,0.4-1.2,2.1-1.4,2.9c-1.4-0.2-3.7-2-5.3-1c-1,0.6-1.4,4.3-3.1,2.1c0,1.8-1.6,2.1-0.8,3.9
	c0.6,1.6,2.9,2.1,2.9,4.5c-0.6,0.2-1.4,0.2-2.1,0c0,0.4-0.2,1.2,0,1.6c-0.4,0.2-0.6,0.2-1,0c-0.2-0.4-0.2-0.4-0.4-0.6
	c-0.4,1-0.2,2.1-0.2,3.3c-2.5-1-5.1-3.3-4.3-6.4c0.4,0,1,0,1.4,0.2c0.6-1-2.7-3.7-3.7-4.9c-0.8-0.8-2.3-1.6-2.7-2.7
	c-0.4-1.2,0.8-2.5,0.4-3.7c-1.4-4.3-6.1-3.7-8.4-5.5c-2-1.2-5.5-6.8-7.2-6.2c0,0.6-0.2,0.6-0.2,1c-0.8-0.6-1.2-0.6-1.2-1.6
	c-0.6-0.4-1.6-0.6-2.1-0.6c-0.6,1.6-0.8,4.1,0.2,5.5c0.4,0.6,1.4,1,2,1.4c0.6,0.4,1.2,0.8,1.8,1.4c0.4,0.4,0.6,1.4,0.8,1.6
	c1.4,1.2,3.5,0.2,4.7,1c1,0.8,0,1.8,0.6,2.7c1.2,1.8,7.4,3.1,6.4,6.2c-1.8,0.4-1.4-1.6-2.9-2c-2.7-0.6-1.2,2-1,3.1
	c0.4,2.1,0.2,2-1.6,3.3c-0.8,0.8-1.8,1.8-2.5,2c-1.4-2.5,2.3-3.9-0.2-6.6c-1.6-1.6-4.1-3.7-6.2-4.5c-2.9-1.2-6.4-1.8-7.4-5.3
	c-0.8-3.5-1.8-5.5-6-4.3c-3.3,1-5.1,3.9-9,3.7c-2.3,0-6.2-2.1-7.6,0.6c-0.6,1.2,0.2,3.1-0.6,4.3c-1.2,1.8-2.9,1-4.1,2
	c-0.6,0.4-1.8,2-2,2.7c-0.4,1.4,0,2.1-0.2,3.7c-0.4,1.8-0.4,0.8-1.4,2c-0.4,0.6-0.8,1-1.4,1.8c-0.2,0.4,0,1.2-0.4,1.6
	c-0.4,0.2-1.2-0.2-1.4,0l-1,0.6c-1,0.6,0.2,0.8-1.4,1.4c-1.8,0.6-3.9-0.4-5.7-0.2c-1.6,0-3.3,2-4.1,1.8c-0.8-0.4-1-2-1.6-2.5
	c-0.8-0.8-2-1-2.9-1.2c-1.6-0.2-2.3,1.2-3.3-0.8c-0.2-0.8,0.2-1.8,0-2.5c-0.2-0.6-0.8-0.8-1-1.4c-0.6-2-0.2-2.5,0.2-4.3
	c0.8-2.7,1-6.2,0.2-8.8c-0.2-0.6-1.8-1-0.8-2.3c0.6-1,2-0.4,2.7-0.6c0.4,0,1.2-1,1.4-1c2-0.4,3.5,0.6,5.5,0.6c2-0.2,3.3-0.8,5.3-0.6
	c1.4,0.2,3.9,1.2,5.5,0.8c1.8-0.4,2-1.4,2.3-3.5c0.8-3.7-0.4-5.5-2.5-8c-1.2-1.4-1.6-2.3-3.9-3.1c-1.2-0.4-1.4,0.4-2.1-0.6
	c-1.4-1.4-0.4-2.5,1-3.1c2.1-0.8,7.6,1,6.2-2.9c1.4-0.2,2.5,0,3.9,0c2.1,0,1.8-1,2.9-1.8c1.4-1,3.9-1,3.3-3.5
	c2.1-0.4,4.3,0.2,5.9-1.4c1.6-1.6,1.6-4.7,2.7-6.4c0.4,1,0.4,2,1.8,2.1c1.6,0,1.4-1.6,2-2.1c0.2-0.2,0-0.6,0.2-0.8
	c0.4-0.2,1.2,0.2,1.4,0c0.6-0.4,1.4,0,1.8-1.2c0.4,0.2,0.8,0.4,1.2,0.6c3.1-4.3-0.2-6.4-0.2-10.7c0-3.1,0.4-2.3,2.7-3.7
	c1-0.6,1.6-1.4,2.3-2c1-0.6,1.4,0,1.2,0.8c-0.2,1-1,2.3-0.4,3.3c0.4,0.6,1.8,0.6,2.1,1.4c0.2,0.6-0.2,0.4-0.6,0.8
	c-0.6,0.4-1,1.2-1,2c0.6,0.4,2.7,3.3,1,3.1c-0.6,0-0.8-0.6-1.4-0.4c-0.8,0.2-1.2,1.2-1.2,2c1.8,1,5.5,0.8,7.4,0.4
	c0.8-0.2,1.4-1,2.1-1c1.6,0,1.4,0.8,2.7,1.4c1.8,0.8,4.1,0,6.1-0.2c0.8,0,4.3,0.4,5.3-0.2c0.4-0.2,0.6-1.2,0.8-1.2
	c0.4-0.2,0.6-0.6,1.2-0.8c1-0.4,1.8,0.8,3.3,0c2-1,2.9-2.5,3.1-4.7c0.2-2.5-1-4.1,1.4-5.9c2.7-2.1,3.1,1,5.7,1
	c1.4,0,2.3-1.4,2.3-2.7c1.2-2.1-2-1.6-2.7-2.7c-1.6-2.1,1.4-3.5,2.9-4.1c2-0.8,5.1-0.4,6.6-1.4c0.2-0.2,0.2-1,0.6-1.2
	c0.4-0.2,0.8,0,1-0.2c0.6-0.4,1.8-0.4,1.6-1.4c0-1.2-0.8-0.4-1.4-0.4c-2,0-4.7,0.2-6.4,1.2c-1,0.6-2,1.4-3.1,1.6
	c-2,0.4-3.9-0.8-5.7-1.8c-1.2-0.8-1.8-1.6-1.4-3.3c0.2-0.8,0.8-1.2,0.8-2c-0.2-1-1-1.8-1.4-2.5c-0.8-2-0.8-3.5,1-4.9
	c0.6-0.6,1.6-1,2.5-1.4c1.6-0.8,1.8-1.2,2.9-2.1c0.6-0.6,1.4-1.2,2-2c0.2-0.3,0.3-0.7,0.5-1c15.6,14.6,25.4,35.2,25.4,58.2
	C179.7,106.4,178.8,112.7,177.4,118.7z"/>
</svg>
