<svg id="Calque_1" data-name="Calque 1" xmlns="http://www.w3.org/2000/svg" viewBox="0 0 168 138"><defs><style>.cls-1{fill:#fff;}.cls-2{fill:#231f20;}.cls-3{fill:none;}</style></defs><title>illu_1e_page_cycliste2</title><g id="Calque_9" data-name="Calque 9"><circle class="cls-1" cx="110.8" cy="24.1" r="9.6"/><path class="cls-1" d="M598.5,760.6a13.66,13.66,0,0,0,2.1-1.5c2.8-2.6,8.2-7.5,10.9-9.2,1.4-.9,7.2-3,12.1-4.4a10.31,10.31,0,0,0,3-1.4l4.6,12.5a4,4,0,0,0,3.8,2.6h23a4,4,0,0,0,0-8H637.8l-7-19a10.47,10.47,0,0,0-12.8-6.9c-2.9.8-12.8,3.8-17.8,7.1-5.2,3.4-13,10.8-13.9,11.6a10.48,10.48,0,0,0-1,14.1,1,1,0,0,0,.4.5l21.9,23.2-3.2,24.7a4,4,0,0,0,3.5,4.5h0.5a4.08,4.08,0,0,0,4-3.5l3.4-26.5a3.76,3.76,0,0,0-1.1-3.3Z" transform="translate(-526 -695)"/><path class="cls-2" d="M648.3,767.4a28.5,28.5,0,1,0,28.5,28.5A28.55,28.55,0,0,0,648.3,767.4Zm0,49a20.5,20.5,0,1,1,20.5-20.5A20.53,20.53,0,0,1,648.3,816.4Z" transform="translate(-526 -695)"/><path class="cls-2" d="M570.9,767.4a28.5,28.5,0,1,0,28.5,28.5A28.55,28.55,0,0,0,570.9,767.4Zm0,49a20.5,20.5,0,1,1,20.5-20.5A20.53,20.53,0,0,1,570.9,816.4Z" transform="translate(-526 -695)"/></g><rect id="_Tranche_" data-name="&lt;Tranche&gt;" class="cls-3" width="168" height="138"/></svg>