<?xml version="1.0" encoding="utf-8"?>
<!-- Generator: Adobe Illustrator 18.0.0, SVG Export Plug-In . SVG Version: 6.00 Build 0)  -->
<!DOCTYPE svg PUBLIC "-//W3C//DTD SVG 1.1//EN" "http://www.w3.org/Graphics/SVG/1.1/DTD/svg11.dtd">
<svg version="1.1" xmlns="http://www.w3.org/2000/svg" xmlns:xlink="http://www.w3.org/1999/xlink" x="0px" y="0px"
	 viewBox="0 0 1190.6 937" enable-background="new 0 0 1190.6 937" xml:space="preserve">
<g id="Layer_2" display="none">
	<rect x="-11.3" y="-16.2" display="inline" fill="#ADD0E1" width="1213.2" height="409"/>
	<g display="inline">
		<line fill="none" stroke="#BD3B26" stroke-width="5" stroke-miterlimit="10" x1="753.5" y1="351.5" x2="753.5" y2="395.5"/>
		<g>
			<line fill="none" stroke="#BD3B26" stroke-miterlimit="10" x1="843.4" y1="255.8" x2="843.4" y2="396"/>
			<line fill="none" stroke="#BD3B26" stroke-miterlimit="10" x1="829.5" y1="303.5" x2="843.4" y2="303.5"/>
			<line fill="none" stroke="#BD3B26" stroke-miterlimit="10" x1="829.9" y1="274.6" x2="843.4" y2="274.6"/>
			<rect x="754" y="189" fill="#773B29" width="72.5" height="43.8"/>
			<polygon fill="#9C3725" points="825.5,189 847.8,189 847.8,251.8 828.5,277.5 828.5,236.6 825.5,232.8 			"/>
			<rect x="751" y="236.5" fill="#BD3B26" width="78.5" height="115.5"/>
			<polygon fill="#808285" points="754,189 772.7,167 808.8,167 825.5,189 			"/>
			<line fill="none" stroke="#BD3B26" stroke-width="5" stroke-miterlimit="10" x1="827.1" y1="352" x2="827.1" y2="396"/>
			<rect x="754.8" y="277.5" fill="#99929A" width="70.8" height="13.5"/>
			<rect x="754.8" y="312" fill="#99929A" width="70.8" height="14.2"/>
			<rect x="803.5" y="197.5" fill="#A56A4E" width="19" height="10"/>
			<rect x="787.2" y="207.8" fill="#99929A" width="22.6" height="10"/>
			<rect x="809.8" y="217.8" fill="#9C3725" width="13.8" height="11.3"/>
			<polyline fill="#A56A4E" points="751,236.5 754,232.8 825.5,232.8 829.4,236.6 			"/>
		</g>
	</g>
	<rect x="-11.3" y="391" display="inline" fill="#46724B" width="1213.2" height="91"/>
	<rect x="-11.3" y="482" display="inline" fill="#0084C5" width="1213.2" height="91"/>
	<rect x="-11.3" y="573" display="inline" fill="#616264" width="1213.2" height="91"/>
	<rect x="-11.3" y="664" display="inline" fill="#E64925" width="1213.2" height="91"/>
	<rect x="-11.3" y="755" display="inline" fill="#81878C" width="1213.2" height="91"/>
	<rect x="-11.3" y="846" display="inline" fill="#C5C7C9" width="1213.2" height="91"/>
	
		<line display="inline" fill="none" stroke="#FFFFFF" stroke-width="2" stroke-miterlimit="10" x1="-14.3" y1="684" x2="1208" y2="684"/>
	
		<line display="inline" fill="none" stroke="#FFFFFF" stroke-width="2" stroke-miterlimit="10" x1="-14.3" y1="709.5" x2="1208" y2="709.5"/>
	
		<line display="inline" fill="none" stroke="#FFFFFF" stroke-width="2" stroke-miterlimit="10" x1="-14.3" y1="735" x2="1208" y2="735"/>
	<g display="inline">
		<g>
			<line fill="none" stroke="#FFFFFF" stroke-width="4" stroke-miterlimit="10" x1="-14.3" y1="795.9" x2="-6.8" y2="795.9"/>
			
				<line fill="none" stroke="#FFFFFF" stroke-width="4" stroke-miterlimit="10" stroke-dasharray="15.0041,15.0041" x1="8.2" y1="795.9" x2="1231" y2="795.9"/>
			<line fill="none" stroke="#FFFFFF" stroke-width="4" stroke-miterlimit="10" x1="1238.5" y1="795.9" x2="1246" y2="795.9"/>
		</g>
	</g>
	<path display="inline" fill="#46724B" d="M233,310.8c-5.3-8.4,14.4-17.5,9.2-25.8c-2-3.1-6.6-3.7-8.5-6.9
		c-3.4-5.5,3.7-14.2-1.1-18.5c5.2-1.9,8.2-8.5,6.1-13.7c3.3-0.4,6.5-0.8,9.8-1.2c2-10.7,10.2-20.1,20.6-23.5c1,1.6,1.9,3.1,2.9,4.7
		c4-0.6,7.5-3.3,9.3-6.9c0.4,1.8,1.6,3.4,3.3,4.3c3.7-7.2,14.5-9.4,20.8-4.3c5.1,4.1,6.5,11.3,5.9,17.9c-0.3,3-0.8,6.2,0.8,8.7
		c3.8,5.9,14.4,1.3,19.4,6.3c4.6,4.6,0.4,12.2-3.8,17.1c-4.3,11.6-3.9,24.9,1.1,36.2c1.3,3,2.7,6.8,0.4,9c-0.9,0.9-2.2,1.3-3.2,2
		c-3,2.2-2.8,6.5-3.3,10.2c-1.7,12.3-13.9,19.8-24.8,25.7c-0.7-2.7-1.3-5.4-2-8.2c-4.1-2.3-6.6,6.9-11.3,6.7c-2-0.1-3.4-1.9-5.2-2.7
		c-3.6-1.7-7.7,0.6-11.7,1.3c-9.5,1.5-18.4-10.4-13.4-18.6c-6.8,0.8-13.7,1.5-20.5,2.3c-3.5-5.9-0.2-14.6,6.3-16.6
		C238.5,313.7,236,311.6,233,310.8z"/>
	<path display="inline" fill="#46724B" d="M347.4,310.8c-4.2-8.8-8.3-17.6-12.5-26.5c-1.1-2.4-2.3-5.2-1.4-7.6
		c0.8-2.2,2.9-3.5,4.4-5.3c3.7-4.7,1.9-11.4,0.7-17.2c-1.2-5.8-0.9-13.4,4.5-15.9c3.9,3.5,9.9-0.5,12.9-4.8c3-4.3,6.5-9.7,11.7-9.2
		c3.6,0.4,6.3,3.6,9.8,4.3c5.2,1.1,9.7-3.5,14.7-5.3c5.8-2.1,12.3-0.4,18.5-1.4c14.4-2.3,23.4-18.6,37.8-21
		c3.9,4.3,5.2,10.7,3.3,16.2c-0.7,2-1.7,3.8-2.3,5.9c-0.8,2.8-0.4,5.9-0.1,8.8c0.7,6.1,1.3,12.2,2,18.3c1,9.2,2.4,19.3,9,25.8
		c2.8-2.9,8.4-0.5,9.5,3.4c1.1,3.9-1.2,8.1-4.1,10.9c-3,2.8-6.6,4.8-9.7,7.5c-8.1,7.2-10.8,19.9-6.2,29.8c1.5,3.3,3.8,6.5,3.9,10.1
		c0.1,8.5-10.7,12-19.2,12.9c1,6.5-3,13.3-9.1,15.7c-6.1,2.4-13.6,0.1-17.3-5.3c-2.6-3.7-4.6-9.4-9.1-8.9c-2.6,0.3-4.4,2.8-6.1,4.8
		c-9.1,11-26.4,14-38.6,6.7c-1.1-0.7-2.3-1.5-2.5-2.8c-0.3-1.9,1.6-3.4,3.3-4.3c4.7-2.5,9.7-4.4,15-5.4c-8.5-6.2-17-12.3-25.5-18.5
		c-2.4-1.8-5-3.7-6-6.5C336.3,320.1,342.2,314.5,347.4,310.8z"/>
	<path display="inline" fill="#46724B" d="M93.4,332.9c-6,3.9-14.1-3.4-13.7-10.5S85.6,309.6,91,305c-7.5-0.8-13.9-7.6-14.2-15.1
		c-0.1-3,0.6-5.9,0.8-8.9c0.5-8.3-3.7-16.8-10.7-21.4c1.8-0.5,3.5-1,5.3-1.5c-0.4-6.4-0.9-12.8-1.3-19.2c5.8-0.5,11.8,0.6,17,3.2
		c0.8-4.8,2.5-9.4,5-13.5c2.9,1.3,5.1,4,6,7c4.8,1.3,9.2-3.1,14-4.5c4.7-1.4,9.7,0.2,14.5,1.4c12.9,3.2,26.5,3.4,39.4,0.6
		c-0.4,2.6,1.3,5,2.4,7.4s1.4,5.8-0.9,7.1c-1.2,0.7-2.8,0.5-4.2,0.7c-5.1,0.9-7.2,7.1-6.8,12.3s2.5,10.2,1.5,15.3
		c-0.7,3.7-2.9,7-3.3,10.7c-0.8,6.9,4.7,12.8,8.8,18.4c4.2,5.6,7,14.2,2,19c-1.9,1.8-4.7,2.7-6.5,4.7c-4.6,5.2,0.2,14.4-3.9,19.9
		c-3.5,4.7-10.9,3.7-16.1,0.8c-5.1-2.8-10-7-15.8-7.2c-2.6,4.9-6.7,8.9-11.7,11.2c1.6-0.3-0.4-2.6-2.1-2.7
		c-4.6-0.2-9.3-0.3-13.9-0.5C97.9,344.4,96.7,338,93.4,332.9z"/>
	<path display="inline" fill="#46724B" d="M585,274.3c2.3,3.8,4.6,7.9,5,12.3c0.4,4.5-1.9,9.5-6.2,10.8c-2,0.6-4.2,0.3-6.3,0.8
		c-8.3,2.1-8.1,13.9-6,22.2c2.7,0.8,5.4,1.6,8.1,2.3c0.9,8.6-6.1,17.2-14.7,18.1c-0.4,4-1.5,8-3.3,11.6c-3.8,0.6-7.9,1.3-11.5-0.1
		c-3.6-1.4-6.5-5.5-5.1-9.2c-4.9,9.2-20.8,8.8-25.3-0.6c-12.2,4.8-25.5,7.1-38.6,6.6c1.9-9.2-14.7-11.5-16.9-20.5
		c-1.4-5.8,4.2-11.2,10-12.5c5.8-1.2,11.8,0.3,17.8,0.6c-1.9-5.7-2.2-11.8-1.1-17.7c-0.2-3.4-3.6-5.5-5.4-8.3
		c-1.8-2.8,0-8.2,3.1-6.8c-6.7-3.7-13.9-7.9-17.1-14.9s0.2-17.3,7.8-18.1c-5.8-4.7-8.8-12.6-7.7-19.9c4.1-0.5,7.4-3.6,10.4-6.4
		c3-2.8,6.5-5.7,10.6-5.9c4.1-0.1,8.4,4.2,6.6,7.9c2.7,1.3,5.8,1.8,8.8,1.3c1-1.9,2-3.9,3-5.8c7.7,1,15.9-3.4,19.2-10.5
		c4.2,2.8,7.6,6.7,9.9,11.2c6.7,1.8,10.1-7.4,13.4-13.4c4.8-8.5,15.6-13.2,25-10.8c4.5,3.5,5,11.1,0.9,15.1
		c-3.7,3.7-11.1,6.5-9,11.4c0.8,1.8,2.7,2.8,3.9,4.3c6.7,8.1-8.8,23.2-0.3,29.5c5.8-4.8,15.9-5.1,20.2,1.1
		C598.7,266.2,592.1,277,585,274.3z"/>
	<path display="inline" fill="#46724B" d="M650.8,255.8c5.5-0.4,10.1,4.6,12,9.8s2.1,10.9,3.8,16.2c1.5,4.6,4.3,9.3,3.4,14.1
		c-1.3,6.9-9.1,10.2-15.9,12.2c5.7,7.4,12.1,14.2,19,20.5c-4.1,4.1-5.6,10.6-3.8,16.1c0.5,1.5,1.3,3.1,0.7,4.7
		c-0.4,1.1-1.5,1.9-2.5,2.6c-7,4.9-14.2,9.9-22.3,12.5s-17.6,2.7-24.8-1.9c0.9-0.8,1.9-1.6,2.8-2.4c-6.5,1.5-13.3,2.5-19.9,1.2
		s-12.9-5.3-15.6-11.3c-1.8-4-0.6-10.3,3.8-10.5c-4.8-4.1-5.9-11.9-2.5-17.2c3.4-5.3,10.9-7.5,16.7-4.8c-7.9-4.7-14.8-11-20.2-18.4
		c-2.1-2.9-4-6.1-4.4-9.6c-0.4-3.5,1-7.5,4.2-9.2c-0.5-4,0.2-8.1,2.1-11.7c6.7-2.5,14,2.8,21.1,1.7c9.5-1.5,15.5-14.1,25.1-13.1
		c0.7,3.4,2.5,6.6,4.9,9C641.5,261.4,645.3,256.2,650.8,255.8z"/>
	<path display="inline" fill="#46724B" d="M983.1,329.6c-2.2,3.4-0.6,8-1.6,12c-1.7,7-10.3,9.7-17.6,9.8c-7.2,0.1-15.2-0.8-21,3.5
		c-2.5,1.9-5.2,4.8-8.1,3.7c-1.3-0.5-2.2-1.6-2.9-2.8c-3.9-6.8-2.8-15.5-6.1-22.7c-5.5-12.2-22.1-16.7-27.2-29.1
		c-5.2-12.6,3.6-26.6,2.5-40.2c3.1,5.2,12.4,4.4,14.6-1.2c1.9-4.7-0.8-10.5,1.6-14.9c6.2,3.2,14.6,0.9,18.4-5
		c1.9-2.9,2.7-6.5,4.9-9.1c2.3-2.6,7.2-3.5,8.8-0.4c4.7-2.9,6.4-8.9,10.2-13c3.8-4.1,12.7-4.1,13,1.4c3.6-5,7.2-10,10.9-15
		c2-2.8,4.2-5.7,7.4-6.8c6.9-2.4,13.9,7.9,9.1,13.4c2.2,0,4.5,0,6.7,0c2.3,9-0.9,19.2-8,25.2c-2.2,1.9-4.9,3.5-6.2,6.2
		c-4.6,9.7,13.6,18.6,10.2,28.8c-1.1,3.4-4.4,5.6-6.2,8.7c-3.6,6.2-0.5,14,1.9,20.8c2.4,6.8,3.5,15.7-2.3,19.9
		C992.2,325.7,985.7,325.3,983.1,329.6z"/>
	<path display="inline" fill="#46724B" d="M1073.2,358.9c-6.1,3.5-9.6,11.5-16.6,12.6c-4.1,0.7-8.2-1.4-11.9-3.5
		c-7.4-4.1-15-8.4-20.1-15.1c-3.4-4.4-5.4-9.7-7.5-14.8c-2.8-7.2-5.6-14.3-8.4-21.5c-0.8-2-1.6-4.2-1.2-6.3c0.4-2.2,2.1-4,3.1-6
		c3.3-6.1,1.1-13.5,0.6-20.4c-0.5-6.9,2.7-15.7,9.6-15.8c3,3.2,8.9,1.5,11.3-2.2c2.5-3.7,2.6-8.4,2.6-12.8c0-4.4,0.1-9.1,2.6-12.8
		c2.5,3.4,4.9,6.9,7.4,10.3c-0.3-3.2-0.6-6.5,0.4-9.6c1-3.1,3.8-5.8,7-5.7c5.4,0.1,7.6,6.7,8.5,12c1.8,11.6,3.7,23.2,5.5,34.7
		c1.4,8.8,2.8,18,0.5,26.6c-1.2,4.5-3.3,9.1-1.9,13.6c1.3,4.1,5.7,6.9,10.1,6.9c4.3,0,8.5-2.4,11.2-5.8c2.3,5.1,4.6,10.3,5,15.9
		s-1.5,11.6-6.1,14.7C1081.4,356.4,1076.9,356.8,1073.2,358.9z"/>
	<path display="inline" fill="#46724B" d="M-38.6,313.1c-1.9-10.1-3.7-20.2-4.1-30.5c-0.2-5.7,0.1-11.7,2.7-16.8s7.7-9.4,13.4-9.3
		c2,0,4.1,0.6,6,0.1c3.6-0.9,5.3-5,5.7-8.7c0.3-3.7-0.3-7.5,0.9-11c10.1-5.8,22.3-11.7,32.9-6.9c16.8,7.7,15,35.2,31,44.4
		c5.1,2.9,11.8,3.8,15,8.7c2,3.1,2,7.1,1.9,10.8c-0.5,14.2-2.1,28.4-4.9,42.3c-1.6,7.9-4,16.3-10.4,21.1c-5,3.8-11.6,4.6-17.4,7.2
		s-11.3,8.3-9.6,14.4C11,379-5.3,375.6-10.3,363c-1-2.5-1.4-5.1-2.4-7.6c-3.8-9.8-14.6-15-20.1-24
		C-36.2,325.9-37.5,319.4-38.6,313.1z"/>
	<path display="inline" fill="#46724B" d="M1217.1,330.5c-4.7,3-10.7,2.6-16.3,2.9s-11.9,2.2-14.1,7.3c-3.6,8.7,7.2,20.6,0.4,27.1
		c-10.2,0-17.4-10-27-13.4c-8.4-3-17.8-0.5-26.7-1.8s-18.2-10.1-14.1-18.1c-8.5-4-14.1-13.5-13.6-22.8c-8.7-2.2-12.2-13.8-8.7-22.1
		c3.4-8.3,11.4-13.8,19.2-18.3c3.9-6.3-6.2-15.5-1.4-21.2c1.1-1.3,2.8-2,4.3-2.9c5.3-3.3,7.9-9.5,11.9-14.4s11.7-8.1,16.3-3.8
		c1.5-5.6,7.2-9.3,12.9-9.9c5.7-0.6,11.5,1.3,16.7,3.8c7.4-3.5,12.1-11.9,11.3-20c10.6-1.3,21.4,7.7,21.8,18.4
		c0.1,2.8-0.3,5.7,0.9,8.2c1.5,3.2,5.2,4.7,7.9,7c5.2,4.5,6.5,12.9,2.7,18.7c-1.1,1.7-2.6,3.2-3.5,5.1c-3,6.5,2.8,13.4,5.9,19.8
		c4.5,9.5,3.2,20.5,1.9,30.9C1224.8,318.3,1223.3,326.6,1217.1,330.5z"/>
	<rect y="353.5" display="inline" fill="#46724B" width="12.1" height="53.5"/>
	<rect x="112.5" y="340.8" display="inline" fill="#46724B" width="12.1" height="53.5"/>
	<rect x="276.7" y="345" display="inline" fill="#46724B" width="12.1" height="53.5"/>
	<rect x="390.1" y="344.4" display="inline" fill="#46724B" width="12.1" height="53.5"/>
	<rect x="523.5" y="341.1" display="inline" fill="#46724B" width="12.1" height="53.5"/>
	<rect x="621.2" y="347.3" display="inline" fill="#46724B" width="12.1" height="53.5"/>
	<rect x="940.1" y="344.4" display="inline" fill="#46724B" width="12.1" height="53.5"/>
	<rect x="1049.3" y="347.3" display="inline" fill="#46724B" width="12.1" height="53.5"/>
	<rect x="1155.3" y="347.3" display="inline" fill="#46724B" width="12.1" height="53.5"/>
	<g display="inline">
		<g>
			<line fill="none" stroke="#FFFFFF" stroke-width="6" stroke-miterlimit="10" x1="-25" y1="538.1" x2="-17.5" y2="538.1"/>
			
				<line fill="none" stroke="#FFFFFF" stroke-width="6" stroke-miterlimit="10" stroke-dasharray="14.9046,14.9046" x1="-2.6" y1="538.1" x2="1212.1" y2="538.1"/>
			<line fill="none" stroke="#FFFFFF" stroke-width="6" stroke-miterlimit="10" x1="1219.6" y1="538.1" x2="1227.1" y2="538.1"/>
		</g>
	</g>
	<g display="inline">
		<g>
			<line fill="none" stroke="#ED1C24" stroke-width="6" stroke-miterlimit="10" x1="-10" y1="538.1" x2="-2.5" y2="538.1"/>
			
				<line fill="none" stroke="#ED1C24" stroke-width="6" stroke-miterlimit="10" stroke-dasharray="14.9046,14.9046" x1="12.4" y1="538.1" x2="1227.1" y2="538.1"/>
			<line fill="none" stroke="#ED1C24" stroke-width="6" stroke-miterlimit="10" x1="1234.6" y1="538.1" x2="1242.1" y2="538.1"/>
		</g>
	</g>
</g>
<g id="Layer_1" display="none">
	<path display="inline" fill="#F1F2F2" d="M439.1,138.7c0,0,253.5,1.3,268.4,0s80.5-32.7,14.9-36.4c-65.6-3.8-113.3,10.1-113.3,10.1
		s-20.9-33.9-77.5-33.9S439.1,101,439.1,101s-65.6-18.9-68.6-7.5S370.4,138.4,439.1,138.7z"/>
</g>
<g id="Calque_3" display="none">
	<path display="inline" fill="#F1F2F2" d="M70,166c0,0,170,2,180,0s54-52,10-58s-76,16-76,16s-14-54-52-54s-62,36-62,36S26,76,24,94
		S24,165.5,70,166z"/>
</g>
<g id="Calque_4" display="none">
	<path display="inline" fill="#F1F2F2" d="M911.4,151.5c0,0,52.4,20.5,104,0c5.5-2.2,66.8-19.2,53.7-41.2c-30.4-50.7-78.8,1-78.8,1
		s-35.5-15.1-42-17.3c-35.5-12-36.9,22.8-36.9,22.8s-33.7-11-34.9-0.6S884.8,151.2,911.4,151.5z"/>
</g>
<g id="Calque_5" display="none">
	<g display="inline">
		<circle fill="#FFFFFF" cx="696.2" cy="361.6" r="9.6"/>
		<path fill="#FFFFFF" d="M718.8,417.8c-0.5-0.7-1.3-1.1-2.1-1.4l-16.8-4.4l5.4-23l3.5,10.1c0.4,1.1,1.2,1.9,2.2,2.4l18,7.5
			c0.5,0.2,1,0.3,1.5,0.3c1.6,0,3.1-0.9,3.7-2.5c0.8-2-0.1-4.4-2.2-5.2l-16.3-6.8l-5.8-16.6c-0.5-1.4-1.7-2.4-3.2-2.6l-24.3-3.7
			c-1-0.1-2,0.1-2.8,0.6l-15.3,9.9c-0.7,0.4-1.2,1.1-1.5,1.8l-8.3,19.6c-0.9,2,0.1,4.4,2.1,5.2c2,0.9,4.4-0.1,5.2-2.1l7.8-18.5
			l10.4-6.7l-7.3,31.2c-0.4,1-0.3,2.1,0.2,3.1l10.2,20.4l-3.2,24.8c-0.3,2.2,1.3,4.2,3.4,4.5c0.2,0,0.4,0,0.5,0c2,0,3.7-1.5,4-3.5
			l3.4-26c0.1-0.8,0-1.6-0.4-2.3l-8.9-17.8l11.5,2.7l19.7,5.2l14.3,17.8c0.8,1,1.9,1.5,3.1,1.5c0.9,0,1.8-0.3,2.5-0.9
			c1.7-1.4,2-3.9,0.6-5.6L718.8,417.8z"/>
		<circle fill="#FFFFFF" cx="742.9" cy="427.3" r="9.5"/>
	</g>
</g>
<g id="Calque_6" display="none">
	<g display="inline">
		<g>
			<circle fill="#FFFFFF" cx="448.4" cy="472.3" r="9.6"/>
			<path fill="#FFFFFF" d="M433.3,475.5v-18.1l21.9-8.3c2.1-0.8,3.1-3.1,2.3-5.2c-0.8-2.1-3.1-3.1-5.2-2.3l-24.5,9.3
				c-1.6,0.6-2.6,2.1-2.6,3.7V477c0,0.1,0,0.1,0,0.2l-20.5,17.2l19,9.2l16.8-7.1l1.5,1.7c0.8,0.9,2.1,0.5,3.2,0.5
				c0.9,0,1.5-0.4,2.3-1.1c1.7-1.4,2-2.9,0.6-4.6L433.3,475.5z"/>
		</g>
		<path fill="#003E7B" d="M474.4,522.7c-7.1,0-11-2.6-14-4.7c-2.7-1.8-4.9-3.3-9.5-3.3c-4.7,0-6.8,1.5-9.5,3.3
			c-3.1,2.1-6.9,4.7-14,4.7c-7.1,0-11-2.6-14-4.7c-2.7-1.8-4.9-3.3-9.5-3.3c-4.7,0-6.8,1.5-9.5,3.3c-3.1,2.1-6.9,4.7-14,4.7
			c-2.2,0-4-1.8-4-4s1.8-4,4-4c4.7,0,6.8-1.5,9.5-3.3c3.1-2.1,6.9-4.7,14-4.7s11,2.6,14,4.7c2.7,1.8,4.9,3.3,9.5,3.3
			c4.7,0,6.8-1.5,9.5-3.3c3.1-2.1,6.9-4.7,14-4.7s11,2.6,14,4.7c2.7,1.8,4.9,3.3,9.5,3.3c2.2,0,4,1.8,4,4S476.6,522.7,474.4,522.7z"
			/>
		<path fill="#003E7B" d="M474.4,506.1c-7.1,0-11-2.6-14-4.7c-2.7-1.8-4.9-3.3-9.5-3.3s-6.8,1.5-9.5,3.3c-3.1,2.1-6.9,4.7-14,4.7
			c-7.1,0-11-2.6-14-4.7c-2.7-1.8-4.9-3.3-9.5-3.3c-4.7,0-6.8,1.5-9.5,3.3c-3.1,2.1-6.9,4.7-14,4.7c-2.2,0-4-1.8-4-4s1.8-4,4-4
			c4.7,0,6.8-1.5,9.5-3.3c3.1-2.1,6.9-4.7,14-4.7s11,2.6,14,4.7c2.7,1.8,4.9,3.3,9.5,3.3c4.7,0,6.8-1.5,9.5-3.3
			c3.1-2.1,6.9-4.7,14-4.7c7.1,0,11,2.6,14,4.7c2.7,1.8,4.9,3.3,9.5,3.3c2.2,0,4,1.8,4,4S476.6,506.1,474.4,506.1z"/>
	</g>
</g>
<g id="Calque_7" display="none">
	<g display="inline">
		<circle fill="#FFFFFF" cx="961" cy="547.7" r="9.6"/>
		<path fill="#FFFFFF" d="M986.9,602.2c1.6,0,3.2-1,3.8-2.6c0.8-2.1-0.3-4.4-2.4-5.1l-16.7-6.2l-0.2-19.8c0-1.5-0.9-2.8-2.2-3.5
			l-21.9-11.2c-0.6-0.3-1.3-0.5-2-0.4l-19.1,1c-1.1,0.1-2.1,0.5-2.8,1.4l-12.6,14.5c-1.5,1.7-1.3,4.2,0.4,5.6
			c1.7,1.5,4.2,1.3,5.6-0.4l11.5-13.2l14.4-0.8l-17,28.7c0,0,0,0.1,0,0.1l0,0l0,0c-0.3,0.7-0.5,1.5-0.4,2.3l2.8,21.9l-17.9,21.6
			c-1.4,1.7-1.2,4.2,0.5,5.6c0.7,0.6,1.7,0.9,2.5,0.9c1.2,0,2.3-0.5,3.1-1.4l19-23c0.7-0.9,1-2,0.9-3.1l-2.5-19.2l8.8,5.2l12.8,16.6
			l0.6,22.8c0.1,2.2,1.8,3.9,4,3.9c0,0,0.1,0,0.1,0c2.2-0.1,4-1.9,3.9-4.1l-0.6-24.1c0-0.9-0.3-1.7-0.8-2.3l-11.7-15.2l12.7-21.3
			l0.2,13.6c0,1.7,1.1,3.1,2.6,3.7l19.3,7.2C986,602.1,986.4,602.2,986.9,602.2z"/>
		<circle fill="#E64925" cx="985.6" cy="615.5" r="9.5"/>
	</g>
</g>
<g id="Calque_8" display="none">
	<g display="inline">
		<circle fill="#FFFFFF" cx="282.7" cy="632.3" r="9.6"/>
		<path fill="#FFFFFF" d="M315.8,669.9c-0.6-2.1-2.9-3.3-5-2.7l-17.1,5.1l-5.4-20.6c-0.3-1-0.9-1.9-1.8-2.4l-34.4-20.5
			c-1.3-0.8-2.9-0.7-4.2,0l-19.8,12.4c-1.9,1.2-2.4,3.6-1.3,5.5c1.2,1.9,3.6,2.4,5.5,1.3l17.7-11.1l10.5,6.3L237,674.8l0,0
			l-11.8,15.3l-26.1,8.2c-2.1,0.7-3.3,2.9-2.6,5c0.5,1.7,2.1,2.8,3.8,2.8c0.4,0,0.8-0.1,1.2-0.2l27.3-8.5c0.8-0.2,1.5-0.7,2-1.4
			l12.7-16.4l11,8.3c0.1,0.1,0.2,0.2,0.3,0.2l1.8,1.3l1.3,1l0,0l15,10.9l6.1,24.3c0.5,1.8,2.1,3,3.9,3c0.3,0,0.6,0,1-0.1
			c2.1-0.5,3.4-2.7,2.9-4.8l-6.4-25.8c-0.2-0.9-0.8-1.7-1.5-2.3l-16-11.7l19.2-25.6l5.3,20c0.3,1,1,1.9,1.9,2.5
			c0.6,0.3,1.3,0.5,2,0.5c0.4,0,0.8-0.1,1.2-0.2l21.1-6.3C315.2,674.2,316.4,672,315.8,669.9z"/>
	</g>
</g>
<g id="Calque_9">
	<g>
		<circle fill="#FFFFFF" cx="636.8" cy="719.1" r="9.6"/>
		<path fill="#FFFFFF" d="M598.5,760.6c0.7-0.4,1.4-0.9,2.1-1.5c2.8-2.6,8.2-7.5,10.9-9.2c1.4-0.9,7.2-3,12.1-4.4
			c1.1-0.3,2.1-0.8,3-1.4l4.6,12.5c0.6,1.6,2.1,2.6,3.8,2.6h23c2.2,0,4-1.8,4-4s-1.8-4-4-4h-20.2l-7-19c-1.7-5.4-7.4-8.4-12.8-6.9
			c-2.9,0.8-12.8,3.8-17.8,7.1c-5.2,3.4-13,10.8-13.9,11.6c-4,3.8-4.3,9.9-1,14.1c0.1,0.2,0.2,0.4,0.4,0.5l21.9,23.2l-3.2,24.7
			c-0.3,2.2,1.3,4.2,3.5,4.5c0.2,0,0.3,0,0.5,0c2,0,3.7-1.5,4-3.5l3.4-26.5c0.2-1.2-0.2-2.4-1.1-3.3L598.5,760.6z"/>
		<path fill="#231F20" d="M648.3,767.4c-15.7,0-28.5,12.8-28.5,28.5c0,15.7,12.8,28.5,28.5,28.5c15.7,0,28.5-12.8,28.5-28.5
			C676.8,780.2,664,767.4,648.3,767.4z M648.3,816.4c-11.3,0-20.5-9.2-20.5-20.5c0-11.3,9.2-20.5,20.5-20.5
			c11.3,0,20.5,9.2,20.5,20.5C668.8,807.2,659.6,816.4,648.3,816.4z"/>
		<path fill="#231F20" d="M570.9,767.4c-15.7,0-28.5,12.8-28.5,28.5c0,15.7,12.8,28.5,28.5,28.5c15.7,0,28.5-12.8,28.5-28.5
			C599.5,780.2,586.7,767.4,570.9,767.4z M570.9,816.4c-11.3,0-20.5-9.2-20.5-20.5c0-11.3,9.2-20.5,20.5-20.5
			c11.3,0,20.5,9.2,20.5,20.5C591.5,807.2,582.3,816.4,570.9,816.4z"/>
	</g>
</g>
<g id="Calque_10" display="none">
	<g display="inline">
		<circle fill="#FFFFFF" cx="417.7" cy="814.4" r="9.6"/>
		<path fill="#FFFFFF" d="M453.9,862.5l-8.1-17.9c-0.3-0.6-0.6-1.1-1.1-1.5l-17.5-14.2c-0.4-0.3-0.8-0.5-1.2-0.7l-18.9-6.4
			l-12.4-20.1l-2.1-22.4c-0.2-2.2-2.2-3.8-4.4-3.6c-2.2,0.2-3.8,2.2-3.6,4.4l2.2,23.4c0.1,0.6,0.3,1.2,0.6,1.7l13.6,22.2
			c0.1,0.2,0.2,0.3,0.3,0.4l0,0c1.5,6.9,2.9,21.3,2.9,24.8c-0.1,1.6-1.3,6.8-2.8,11.5l-8.2,19l-0.6,1.1l-12.9-2.3
			c-2.2-0.4-4.3,1.1-4.6,3.2c-0.4,2.2,1.1,4.2,3.2,4.6l10.3,1.8l-7,13.1c-1,1.9-0.3,4.4,1.6,5.4c0.6,0.3,1.3,0.5,1.9,0.5
			c1.4,0,2.8-0.8,3.5-2.1l8.3-15.4l9.5,1.7c0.2,0,0.5,0.1,0.7,0.1c1.2,0,2.3-0.5,3.1-1.5l14.7-18.2c0.2-0.3,0.4-0.5,0.5-0.8l0,0
			c0-0.1,0-0.1,0.1-0.2c0.1-0.2,0.1-0.4,0.2-0.6c1.5-4.7,4.5-14.6,4.5-20.9c0-2.6-0.2-7.1-0.5-11.3l9.3,7.5l7.7,17
			c0.7,1.5,2.1,2.4,3.6,2.4c0.6,0,1.1-0.1,1.6-0.4C453.9,866.8,454.8,864.5,453.9,862.5z M405.5,886.4l-4.7-0.8l7.4-17.1l9.3,3.1
			L405.5,886.4z"/>
		<circle fill="#ED1C24" cx="405.7" cy="782" r="9.5"/>
	</g>
</g>
</svg>
