<?xml version="1.0" encoding="utf-8"?>
<!-- Generator: Adobe Illustrator 18.0.0, SVG Export Plug-In . SVG Version: 6.00 Build 0)  -->
<!DOCTYPE svg PUBLIC "-//W3C//DTD SVG 1.1//EN" "http://www.w3.org/Graphics/SVG/1.1/DTD/svg11.dtd">
<svg version="1.1" id="Calque_1" xmlns="http://www.w3.org/2000/svg" xmlns:xlink="http://www.w3.org/1999/xlink" x="0px" y="0px"
	 viewBox="0 0 1053 860.2" enable-background="new 0 0 1053 860.2" xml:space="preserve">
<g>
	<defs>
		<rect id="XMLID_1_" x="-0.1" y="0.1" width="1053.1" height="860"/>
	</defs>
	<clipPath id="XMLID_3_">
		<use xlink:href="#XMLID_1_"  overflow="visible"/>
	</clipPath>
	<rect x="-0.8" y="1.4" clip-path="url(#XMLID_3_)" fill="#ADD0E1" width="1063" height="437.9"/>
	<g id="Layer_1" clip-path="url(#XMLID_3_)">
		<path fill="#F1F2F2" d="M409.8,267c0,0,196,1,207.6,0c11.5-1,62.3-25.3,11.5-28.1c-50.7-2.9-87.6,7.8-87.6,7.8
			s-16.2-26.2-59.9-26.2s-71.5,17.4-71.5,17.4s-50.7-14.6-53-5.8C354.5,240.8,356.7,266.7,409.8,267z"/>
	</g>
	<g id="Calque_3" clip-path="url(#XMLID_3_)">
		<path fill="#F1F2F2" d="M124.4,257.2c0,0,131.5,1.5,139.2,0c7.7-1.5,41.8-40.2,7.7-44.9s-58.8,12.4-58.8,12.4
			s-10.8-41.8-40.2-41.8s-47.9,27.8-47.9,27.8s-34-23.2-35.6-9.3C87.3,215.4,88.8,256.8,124.4,257.2z"/>
	</g>
	<g id="Calque_4" clip-path="url(#XMLID_3_)">
		<path fill="#F1F2F2" d="M850.3,278.9c0,0,40.5,15.9,80.4,0c4.3-1.7,51.7-14.8,41.5-31.9c-23.5-39.2-60.9,0.8-60.9,0.8
			s-27.5-11.7-32.5-13.4c-27.5-9.3-28.5,17.6-28.5,17.6s-26.1-8.5-27-0.5C822.4,259.6,829.7,278.7,850.3,278.9z"/>
	</g>
	<g clip-path="url(#XMLID_3_)">
		<path fill="#2A4F7E" d="M881.2,238.2l-1-1.3c-0.9,0.7-2.6,1-3.3,1c-2.7-2.1-5.8-10.4-5.8-27.4c0-0.5-0.4-0.9-0.9-0.9
			s-0.9,0.4-0.9,0.9c0,17.1-3,25.4-5.8,27.4c-0.7-0.1-2.4-0.3-3.3-1l-1,1.3c1.5,1.1,4.1,1.4,4.6,1.4v11.9h12.7v-11.9h0
			C877.1,239.6,879.7,239.4,881.2,238.2z M870.2,249c-2.2,0-3.9-1.8-3.9-3.9c0-2.2,1.8-3.9,3.9-3.9c2.2,0,3.9,1.8,3.9,3.9
			C874.1,247.3,872.4,249,870.2,249z"/>
		<g>
			<path fill="#2A4F7E" d="M878.4,261.9c-0.1-3.5-2.4-6.5-5.6-7.6c0.1-1.1,0.6-2.7,2.1-3.3h-9.4c1.5,0.6,2,2.2,2.1,3.3
				c-3.2,1.1-5.5,4-5.6,7.6h-1.1v3.1h1.1v8.4v1.4v1.6h16.4v-1.6v-1.4v-8.4h1.1v-3.1H878.4z M865.8,273.5h-3.5v-7.4
				c0-0.4,0-0.7,0.1-1c0.2-1.2,0.9-2,1.6-2c0.8,0,1.4,0.8,1.6,2c0.1,0.3,0.1,0.6,0.1,1V273.5z M873.2,273.5h-6v-7.4
				c0-0.4,0.1-0.7,0.2-1c0.4-1.2,1.5-2,2.8-2c1.3,0,2.4,0.8,2.8,2c0.1,0.3,0.2,0.6,0.2,1V273.5z M878.2,273.5h-3.5v-7.4
				c0-0.4,0-0.7,0.1-1c0.2-1.2,0.9-2,1.6-2c0.8,0,1.4,0.8,1.6,2c0.1,0.3,0.1,0.6,0.1,1V273.5z"/>
		</g>
		<path fill="#2A4F7E" d="M1049.8,363.8l0-9h-16.3l-13.9-17.2V324l-18.9,0.1v22.7l-19.4,0v14.8h-6v-22.9h-16.6v29.6h-10v-10.1
			l-14.5-14.5V339h-3.4v4.3h-3.3V339h-3.5v4.5H907v18.2h-7.6v-8.2h1.2v-11.8h-1.2v-2.3h-1.6c-0.8-18.6-9.5-40.6-21-46.9
			c-1.8-3.3-1.5-4.9,0.7-9.5h1.3c1.8,0,3.3-1.5,3.3-3.3c0-1.8-1.5-3.3-3.3-3.3h-0.4H862h-0.4c-1.8,0-3.3,1.5-3.3,3.3
			c0,1.8,1.5,3.3,3.3,3.3h1.4c2.2,4.5,2.4,6.2,0.7,9.5c-11.5,6.4-20.2,28.4-21,46.9H841v2.3h-1.2v11.8h1.2v14.3h-8.6v-9.4H823
			L810,371.9v-35.8h-20.4v22.1h-11.6v-23.8h-13.6v13.6h-11.1v23.3h-8.5v-8.8l-19-17.9H716v8.2l-8.5,9.4v23h-7.9v-47.7h-7.9v-4.3
			h-4.3v-5.7h-11.1v8.8h-17.6V381l-9.5-12.3v-22.5l-8.2-12.9h-21.6v13.1l-2.1,0v-8.9h-2v8.8h-1.9v-7.9h-2.2v7.9h-1.9v-7.1H607v7.4
			H598l-19.8,16.2V248.1h-5.1v-9.4H568v-17h-23.3v-16.2h-11.4v33.5h-6.5v7.1l-3.8,0l0.1,125.8l-16.3-0.1v-27.5h-11.4V330h-17.6v23.3
			h-15l-16.7,20.4v-23.6h-16.5v24.1h-6.1v-37.2h-20.3v32.6h-7.7V357l-12.2-14.5h-9.9L363,355.6V382h-11.8v-10.9h-2.3V382H346v-10.9
			h-2.3V382h-2.5v-10.9h-2.3V382h-6v-16.7l-17.6-13.1v7.1h-10.5l-5.1-8.2v-7.9h-3.1v-7.7H294v7.9h-4l-13.3,11.1V334
			c0-22.4-16.3-41-37.7-44.5c0.9-3.3,5-8.7,6.7-9.9h-6.8v-25.1c0-3.4-2-6.3-4.9-7.4l1.5-1.6l-4-39.3l-4,39.3l1.5,1.6
			c-2.9,1.1-4.9,4-4.9,7.4v25.1h-6.8c1.7,1.2,5.9,6.6,6.7,9.9c-21.3,3.6-37.5,22.1-37.5,44.5v48h-17v-33.2h-19.6v-22.1l-23-21.3
			l-23,19.6v44.3H88.5v-18.7L57.6,334l0-9.9h-4.8v9.4H-3.1l0,500.4h1061.7l0.1-475L1049.8,363.8z M856,339.5h-8.6
			c0.6-13.1,5.2-26.6,7.4-26.6C857.1,312.9,856.2,326.3,856,339.5z M860.4,339.5c0.5-13.5,4.7-29.3,9.8-29.3
			c5.1,0,9.3,15.8,9.8,29.3H860.4z M884.4,339.5c-0.1-13.1-1-26.6,1.2-26.6c2.2,0,6.8,13.4,7.4,26.6H884.4z"/>
		<path fill="#2A4F7E" d="M878.8,273.5h-0.2h-0.3H862h-0.2h-0.2c-0.4,0-0.7,0.3-0.7,0.7c0,0.4,0.3,0.7,0.7,0.7h0.2h0.2h16.4h0.3h0.2
			c0.4,0,0.7-0.3,0.7-0.7C879.5,273.8,879.2,273.5,878.8,273.5z"/>
	</g>
	<g clip-path="url(#XMLID_3_)">
		<line fill="none" stroke="#BD3B26" stroke-width="5" stroke-miterlimit="10" x1="653" y1="407.4" x2="653" y2="441.5"/>
		<g>
			<line fill="none" stroke="#BD3B26" stroke-miterlimit="10" x1="722.5" y1="333.4" x2="722.5" y2="441.8"/>
			<line fill="none" stroke="#BD3B26" stroke-miterlimit="10" x1="711.7" y1="370.3" x2="722.5" y2="370.3"/>
			<line fill="none" stroke="#BD3B26" stroke-miterlimit="10" x1="712.1" y1="348" x2="722.5" y2="348"/>
			<rect x="653.4" y="281.8" fill="#773B29" width="56.1" height="33.9"/>
			<polygon fill="#9C3725" points="708.7,281.8 725.9,281.8 725.9,330.3 711,350.2 711,318.6 708.7,315.6 			"/>
			<rect x="651" y="318.5" fill="#BD3B26" width="60.7" height="89.3"/>
			<polygon fill="#808285" points="653.4,281.8 667.8,264.8 695.7,264.8 708.7,281.8 			"/>
			<line fill="none" stroke="#BD3B26" stroke-width="5" stroke-miterlimit="10" x1="709.9" y1="407.8" x2="709.9" y2="441.8"/>
			<rect x="654" y="350.2" fill="#99929A" width="54.8" height="10.4"/>
			<rect x="654" y="376.9" fill="#99929A" width="54.8" height="11"/>
			<rect x="691.6" y="288.3" fill="#A56A4E" width="14.7" height="7.7"/>
			<rect x="679" y="296.3" fill="#99929A" width="17.5" height="7.7"/>
			<rect x="696.5" y="304" fill="#9C3725" width="10.7" height="8.7"/>
			<polyline fill="#A56A4E" points="651,318.5 653.4,315.6 708.7,315.6 711.7,318.6 			"/>
		</g>
	</g>
	<rect x="-0.8" y="438" clip-path="url(#XMLID_3_)" fill="#2CC07E" width="1063" height="70.4"/>
	<rect x="-0.8" y="508.4" clip-path="url(#XMLID_3_)" fill="#0084C5" width="1063" height="70.4"/>
	<rect x="-0.8" y="578.7" clip-path="url(#XMLID_3_)" fill="#616264" width="1063" height="70.4"/>
	<rect x="-0.8" y="649.1" clip-path="url(#XMLID_3_)" fill="#E64925" width="1063" height="70.4"/>
	<rect x="-0.8" y="719.5" clip-path="url(#XMLID_3_)" fill="#81878C" width="1063" height="70.4"/>
	<rect x="-0.8" y="789.8" clip-path="url(#XMLID_3_)" fill="#C5C7C9" width="1063" height="70.4"/>
	
		<line clip-path="url(#XMLID_3_)" fill="none" stroke="#FFFFFF" stroke-width="2" stroke-miterlimit="10" x1="-6.8" y1="664.6" x2="1066.5" y2="664.6"/>
	
		<line clip-path="url(#XMLID_3_)" fill="none" stroke="#FFFFFF" stroke-width="2" stroke-miterlimit="10" x1="-6.8" y1="684.3" x2="1066.5" y2="684.3"/>
	
		<line clip-path="url(#XMLID_3_)" fill="none" stroke="#FFFFFF" stroke-width="2" stroke-miterlimit="10" x1="-6.8" y1="704" x2="1066.5" y2="704"/>
	<g clip-path="url(#XMLID_3_)">
		<g>
			<line fill="none" stroke="#FFFFFF" stroke-width="4" stroke-miterlimit="10" x1="-6.8" y1="751.1" x2="-0.3" y2="751.1"/>
			
				<line fill="none" stroke="#FFFFFF" stroke-width="4" stroke-miterlimit="10" stroke-dasharray="15.0041,15.0041" x1="12.9" y1="751.1" x2="1086.7" y2="751.1"/>
			<line fill="none" stroke="#FFFFFF" stroke-width="4" stroke-miterlimit="10" x1="1093.3" y1="751.1" x2="1099.9" y2="751.1"/>
		</g>
	</g>
	<path clip-path="url(#XMLID_3_)" fill="#2CC07E" d="M250.5,376c-4.1-6.5,11.1-13.5,7.1-20c-1.5-2.4-5.1-2.9-6.6-5.3
		c-2.6-4.3,2.9-11-0.9-14.3c4-1.5,6.3-6.6,4.7-10.6c2.6-0.3,5-0.6,7.6-0.9c1.5-8.3,7.9-15.5,15.9-18.2c0.8,1.2,1.5,2.4,2.2,3.6
		c3.1-0.5,5.8-2.6,7.2-5.3c0.3,1.4,1.2,2.6,2.6,3.3c2.9-5.6,11.2-7.3,16.1-3.3c3.9,3.2,5,8.7,4.6,13.8c-0.2,2.3-0.6,4.8,0.6,6.7
		c2.9,4.6,11.1,1,15,4.9c3.6,3.6,0.3,9.4-2.9,13.2c-3.3,9-3,19.3,0.9,28c1,2.3,2.1,5.3,0.3,7c-0.7,0.7-1.7,1-2.5,1.5
		c-2.3,1.7-2.2,5-2.6,7.9c-1.3,9.5-10.7,15.3-19.2,19.9c-0.5-2.1-1-4.2-1.5-6.3c-3.2-1.8-5.1,5.3-8.7,5.2c-1.5-0.1-2.6-1.5-4-2.1
		c-2.8-1.3-6,0.5-9,1c-7.3,1.2-14.2-8-10.4-14.4c-5.3,0.6-10.6,1.2-15.9,1.8c-2.7-4.6-0.2-11.3,4.9-12.8
		C254.7,378.2,252.8,376.6,250.5,376z"/>
	<path clip-path="url(#XMLID_3_)" fill="#2CC07E" d="M338.9,376c-3.2-6.8-6.4-13.6-9.7-20.5c-0.9-1.9-1.8-4-1.1-5.9
		c0.6-1.7,2.2-2.7,3.4-4.1c2.9-3.6,1.5-8.8,0.5-13.3s-0.7-10.4,3.5-12.3c3,2.7,7.7-0.4,10-3.7c2.3-3.3,5-7.5,9-7.1
		c2.8,0.3,4.9,2.8,7.6,3.3c4,0.9,7.5-2.7,11.4-4.1c4.5-1.6,9.5-0.3,14.3-1.1c11.1-1.8,18.1-14.4,29.2-16.2c3,3.3,4,8.3,2.6,12.5
		c-0.5,1.5-1.3,2.9-1.8,4.6c-0.6,2.2-0.3,4.6-0.1,6.8c0.5,4.7,1,9.4,1.5,14.2c0.8,7.1,1.9,14.9,7,20c2.2-2.2,6.5-0.4,7.3,2.6
		c0.9,3-0.9,6.3-3.2,8.4c-2.3,2.2-5.1,3.7-7.5,5.8c-6.3,5.6-8.4,15.4-4.8,23c1.2,2.6,2.9,5,3,7.8c0.1,6.6-8.3,9.3-14.8,10
		c0.8,5-2.3,10.3-7,12.1c-4.7,1.9-10.5,0.1-13.4-4.1c-2-2.9-3.6-7.3-7-6.9c-2,0.2-3.4,2.2-4.7,3.7c-7,8.5-20.4,10.8-29.9,5.2
		c-0.9-0.5-1.8-1.2-1.9-2.2c-0.2-1.5,1.2-2.6,2.6-3.3c3.6-1.9,7.5-3.4,11.6-4.2c-6.6-4.8-13.1-9.5-19.7-14.3c-1.9-1.4-3.9-2.9-4.6-5
		C330.3,383.2,334.9,378.8,338.9,376z"/>
	<path clip-path="url(#XMLID_3_)" fill="#2CC07E" d="M142.5,393.1c-4.6,3-10.9-2.6-10.6-8.1c0.3-5.5,4.6-9.9,8.7-13.5
		c-5.8-0.6-10.7-5.9-11-11.7c-0.1-2.3,0.5-4.6,0.6-6.9c0.4-6.4-2.9-13-8.3-16.5c1.4-0.4,2.7-0.8,4.1-1.2c-0.3-4.9-0.7-9.9-1-14.8
		c4.5-0.4,9.1,0.5,13.1,2.5c0.6-3.7,1.9-7.3,3.9-10.4c2.2,1,3.9,3.1,4.6,5.4c3.7,1,7.1-2.4,10.8-3.5c3.6-1.1,7.5,0.2,11.2,1.1
		c10,2.5,20.5,2.6,30.5,0.5c-0.3,2,1,3.9,1.9,5.7c0.9,1.9,1.1,4.5-0.7,5.5c-0.9,0.5-2.2,0.4-3.2,0.5c-3.9,0.7-5.6,5.5-5.3,9.5
		c0.3,4,1.9,7.9,1.2,11.8c-0.5,2.9-2.2,5.4-2.6,8.3c-0.6,5.3,3.6,9.9,6.8,14.2c3.2,4.3,5.4,11,1.5,14.7c-1.5,1.4-3.6,2.1-5,3.6
		c-3.6,4,0.2,11.1-3,15.4c-2.7,3.6-8.4,2.9-12.5,0.6c-3.9-2.2-7.7-5.4-12.2-5.6c-2,3.8-5.2,6.9-9,8.7c1.2-0.2-0.3-2-1.6-2.1
		c-3.6-0.2-7.2-0.2-10.7-0.4C146,401.9,145.1,397,142.5,393.1z"/>
	<path clip-path="url(#XMLID_3_)" fill="#2CC07E" d="M522.7,347.7c1.8,2.9,3.6,6.1,3.9,9.5c0.3,3.5-1.5,7.3-4.8,8.4
		c-1.5,0.5-3.2,0.2-4.9,0.6c-6.4,1.6-6.3,10.7-4.6,17.2c2.1,0.6,4.2,1.2,6.3,1.8c0.7,6.7-4.7,13.3-11.4,14c-0.3,3.1-1.2,6.2-2.6,9
		c-2.9,0.5-6.1,1-8.9-0.1s-5-4.3-3.9-7.1c-3.8,7.1-16.1,6.8-19.6-0.5c-9.4,3.7-19.7,5.5-29.9,5.1c1.5-7.1-11.4-8.9-13.1-15.9
		c-1.1-4.5,3.2-8.7,7.7-9.7c4.5-0.9,9.1,0.2,13.8,0.5c-1.5-4.4-1.7-9.1-0.9-13.7c-0.2-2.6-2.8-4.3-4.2-6.4s0-6.3,2.4-5.3
		c-5.2-2.9-10.7-6.1-13.2-11.5s0.2-13.4,6-14c-4.5-3.6-6.8-9.7-6-15.4c3.2-0.4,5.7-2.8,8-4.9c2.3-2.2,5-4.4,8.2-4.6
		c3.2-0.1,6.5,3.2,5.1,6.1c2.1,1,4.5,1.4,6.8,1c0.8-1.5,1.5-3,2.3-4.5c6,0.8,12.3-2.6,14.8-8.1c3.2,2.2,5.9,5.2,7.7,8.7
		c5.2,1.4,7.8-5.7,10.4-10.4c3.7-6.6,12.1-10.2,19.3-8.4c3.5,2.7,3.9,8.6,0.7,11.7c-2.9,2.9-8.6,5-7,8.8c0.6,1.4,2.1,2.2,3,3.3
		c5.2,6.3-6.8,17.9-0.2,22.8c4.5-3.7,12.3-3.9,15.6,0.9C533.3,341.5,528.2,349.8,522.7,347.7z"/>
	<path clip-path="url(#XMLID_3_)" fill="#2CC07E" d="M573.6,333.4c4.3-0.3,7.8,3.6,9.3,7.6c1.5,4,1.6,8.4,2.9,12.5
		c1.2,3.6,3.3,7.2,2.6,10.9c-1,5.3-7,7.9-12.3,9.4c4.4,5.7,9.4,11,14.7,15.9c-3.2,3.2-4.3,8.2-2.9,12.5c0.4,1.2,1,2.4,0.5,3.6
		c-0.3,0.9-1.2,1.5-1.9,2c-5.4,3.8-11,7.7-17.2,9.7c-6.3,2-13.6,2.1-19.2-1.5c0.7-0.6,1.5-1.2,2.2-1.9c-5,1.2-10.3,1.9-15.4,0.9
		s-10-4.1-12.1-8.7c-1.4-3.1-0.5-8,2.9-8.1c-3.7-3.2-4.6-9.2-1.9-13.3c2.6-4.1,8.4-5.8,12.9-3.7c-6.1-3.6-11.4-8.5-15.6-14.2
		c-1.6-2.2-3.1-4.7-3.4-7.4c-0.3-2.7,0.8-5.8,3.2-7.1c-0.4-3.1,0.2-6.3,1.6-9c5.2-1.9,10.8,2.2,16.3,1.3c7.3-1.2,12-10.9,19.4-10.1
		c0.5,2.6,1.9,5.1,3.8,7C566.4,337.8,569.3,333.7,573.6,333.4z"/>
	<path clip-path="url(#XMLID_3_)" fill="#2CC07E" d="M830.5,390.5c-1.7,2.6-0.5,6.2-1.2,9.3c-1.3,5.4-8,7.5-13.6,7.6
		c-5.6,0.1-11.8-0.6-16.2,2.7c-1.9,1.5-4,3.7-6.3,2.9c-1-0.4-1.7-1.2-2.2-2.2c-3-5.3-2.2-12-4.7-17.6c-4.3-9.4-17.1-12.9-21-22.5
		c-4-9.7,2.8-20.6,1.9-31.1c2.4,4,9.6,3.4,11.3-0.9c1.5-3.6-0.6-8.1,1.2-11.5c4.8,2.5,11.3,0.7,14.2-3.9c1.5-2.2,2.1-5,3.8-7
		c1.8-2,5.6-2.7,6.8-0.3c3.6-2.2,4.9-6.9,7.9-10.1s9.8-3.2,10.1,1.1c2.8-3.9,5.6-7.7,8.4-11.6c1.5-2.2,3.2-4.4,5.7-5.3
		c5.3-1.9,10.7,6.1,7,10.4c1.7,0,3.5,0,5.2,0c1.8,7-0.7,14.8-6.2,19.5c-1.7,1.5-3.8,2.7-4.8,4.8c-3.6,7.5,10.5,14.4,7.9,22.3
		c-0.9,2.6-3.4,4.3-4.8,6.7c-2.8,4.8-0.4,10.8,1.5,16.1c1.9,5.3,2.7,12.1-1.8,15.4C837.6,387.5,832.5,387.2,830.5,390.5z"/>
	<path clip-path="url(#XMLID_3_)" fill="#2CC07E" d="M900.2,413.2c-4.7,2.7-7.4,8.9-12.8,9.7c-3.2,0.5-6.3-1.1-9.2-2.7
		c-5.7-3.2-11.6-6.5-15.5-11.7c-2.6-3.4-4.2-7.5-5.8-11.4c-2.2-5.6-4.3-11.1-6.5-16.6c-0.6-1.5-1.2-3.2-0.9-4.9
		c0.3-1.7,1.6-3.1,2.4-4.6c2.6-4.7,0.9-10.4,0.5-15.8s2.1-12.1,7.4-12.2c2.3,2.5,6.9,1.2,8.7-1.7c1.9-2.9,2-6.5,2-9.9
		c0-3.4,0.1-7,2-9.9c1.9,2.6,3.8,5.3,5.7,8c-0.2-2.5-0.5-5,0.3-7.4c0.8-2.4,2.9-4.5,5.4-4.4c4.2,0.1,5.9,5.2,6.6,9.3
		c1.4,9,2.9,17.9,4.3,26.8c1.1,6.8,2.2,13.9,0.4,20.6c-0.9,3.5-2.6,7-1.5,10.5c1,3.2,4.4,5.3,7.8,5.3c3.3,0,6.6-1.9,8.7-4.5
		c1.8,3.9,3.6,8,3.9,12.3c0.3,4.3-1.2,9-4.7,11.4C906.5,411.2,903.1,411.5,900.2,413.2z"/>
	<path clip-path="url(#XMLID_3_)" fill="#2CC07E" d="M40.4,377.7c-1.5-7.8-2.9-15.6-3.2-23.6c-0.2-4.4,0.1-9,2.1-13
		c2-3.9,6-7.3,10.4-7.2c1.5,0,3.2,0.5,4.6,0.1c2.8-0.7,4.1-3.9,4.4-6.7c0.2-2.9-0.2-5.8,0.7-8.5c7.8-4.5,17.2-9,25.4-5.3
		c13,6,11.6,27.2,24,34.3c3.9,2.2,9.1,2.9,11.6,6.7c1.5,2.4,1.5,5.5,1.5,8.4c-0.4,11-1.6,22-3.8,32.7c-1.2,6.1-3.1,12.6-8,16.3
		c-3.9,2.9-9,3.6-13.5,5.6c-4.5,2-8.7,6.4-7.4,11.1c-10.4,0.1-23-2.6-26.9-12.3c-0.8-1.9-1.1-3.9-1.9-5.9
		c-2.9-7.6-11.3-11.6-15.5-18.6C42.3,387.6,41.3,382.6,40.4,377.7z"/>
	<path clip-path="url(#XMLID_3_)" fill="#2CC07E" d="M1011.5,391.2c-3.6,2.3-8.3,2-12.6,2.2c-4.3,0.2-9.2,1.7-10.9,5.6
		c-2.8,6.7,5.6,15.9,0.3,21c-7.9,0-13.5-7.7-20.9-10.4c-6.5-2.3-13.8-0.4-20.6-1.4c-6.9-1-14.1-7.8-10.9-14
		c-6.6-3.1-10.9-10.4-10.5-17.6c-6.7-1.7-9.4-10.7-6.7-17.1c2.6-6.4,8.8-10.7,14.8-14.2c3-4.9-4.8-12-1.1-16.4
		c0.9-1,2.2-1.5,3.3-2.2c4.1-2.6,6.1-7.3,9.2-11.1c3.1-3.8,9-6.3,12.6-2.9c1.2-4.3,5.6-7.2,10-7.7c4.4-0.5,8.9,1,12.9,2.9
		c5.7-2.7,9.4-9.2,8.7-15.5c8.2-1,16.5,6,16.9,14.2c0.1,2.2-0.2,4.4,0.7,6.3c1.2,2.5,4,3.6,6.1,5.4c4,3.5,5,10,2.1,14.5
		c-0.9,1.3-2,2.5-2.7,3.9c-2.3,5,2.2,10.4,4.6,15.3c3.5,7.3,2.5,15.9,1.5,23.9C1017.4,381.8,1016.3,388.2,1011.5,391.2z"/>
	<rect x="70.3" y="409" clip-path="url(#XMLID_3_)" fill="#2CC07E" width="9.4" height="41.4"/>
	<rect x="157.3" y="399.2" clip-path="url(#XMLID_3_)" fill="#2CC07E" width="9.4" height="41.4"/>
	<rect x="284.3" y="402.4" clip-path="url(#XMLID_3_)" fill="#2CC07E" width="9.4" height="41.4"/>
	<rect x="372" y="401.9" clip-path="url(#XMLID_3_)" fill="#2CC07E" width="9.4" height="41.4"/>
	<rect x="475.1" y="399.4" clip-path="url(#XMLID_3_)" fill="#2CC07E" width="9.4" height="41.4"/>
	<rect x="550.7" y="404.2" clip-path="url(#XMLID_3_)" fill="#2CC07E" width="9.4" height="41.4"/>
	<rect x="797.3" y="401.9" clip-path="url(#XMLID_3_)" fill="#2CC07E" width="9.4" height="41.4"/>
	<rect x="881.7" y="404.2" clip-path="url(#XMLID_3_)" fill="#2CC07E" width="9.4" height="41.4"/>
	<rect x="963.7" y="404.2" clip-path="url(#XMLID_3_)" fill="#2CC07E" width="9.4" height="41.4"/>
	<g id="Calque_5" clip-path="url(#XMLID_3_)">
		<g>
			<circle fill="#FFFFFF" cx="608.7" cy="415.2" r="7.4"/>
			<path fill="#FFFFFF" d="M626.1,458.7c-0.4-0.5-1-0.9-1.6-1.1l-13-3.4l4.2-17.8l2.7,7.8c0.3,0.9,0.9,1.5,1.7,1.9l13.9,5.8
				c0.4,0.2,0.8,0.2,1.2,0.2c1.2,0,2.4-0.7,2.9-1.9c0.6-1.5-0.1-3.4-1.7-4l-12.6-5.3l-4.5-12.8c-0.4-1.1-1.3-1.9-2.5-2l-18.8-2.9
				c-0.8-0.1-1.5,0.1-2.2,0.5l-11.8,7.7c-0.5,0.3-0.9,0.9-1.2,1.4l-6.4,15.2c-0.7,1.5,0.1,3.4,1.6,4c1.5,0.7,3.4-0.1,4-1.6l6-14.3
				l8-5.2l-5.6,24.1c-0.3,0.8-0.2,1.6,0.2,2.4l7.9,15.8l-2.5,19.2c-0.2,1.7,1,3.2,2.6,3.5c0.2,0,0.3,0,0.4,0c1.5,0,2.9-1.2,3.1-2.7
				l2.6-20.1c0.1-0.6,0-1.2-0.3-1.8l-6.9-13.8l8.9,2.1l15.2,4l11.1,13.8c0.6,0.8,1.5,1.2,2.4,1.2c0.7,0,1.4-0.2,1.9-0.7
				c1.3-1.1,1.5-3,0.5-4.3L626.1,458.7z"/>
			<circle fill="#FFFFFF" cx="644.8" cy="466.1" r="7.3"/>
		</g>
	</g>
	<g id="Calque_8" clip-path="url(#XMLID_3_)">
		<g>
			<circle fill="#FFFFFF" cx="288.9" cy="624.6" r="7.4"/>
			<path fill="#FFFFFF" d="M314.5,653.7c-0.5-1.6-2.2-2.6-3.9-2.1l-13.2,3.9l-4.2-15.9c-0.2-0.8-0.7-1.5-1.4-1.9l-26.6-15.9
				c-1-0.6-2.2-0.5-3.2,0l-15.3,9.6c-1.5,0.9-1.9,2.8-1,4.3c0.9,1.5,2.8,1.9,4.3,1l13.7-8.6l8.1,4.9l-18.2,24.4l0,0l-9.1,11.8
				l-20.2,6.3c-1.6,0.5-2.6,2.2-2,3.9c0.4,1.3,1.6,2.2,2.9,2.2c0.3,0,0.6-0.1,0.9-0.2l21.1-6.6c0.6-0.2,1.2-0.5,1.5-1.1l9.8-12.7
				l8.5,6.4c0.1,0.1,0.2,0.2,0.2,0.2l1.4,1l1,0.8l0,0l11.6,8.4l4.7,18.8c0.4,1.4,1.6,2.3,3,2.3c0.2,0,0.5,0,0.8-0.1
				c1.6-0.4,2.6-2.1,2.2-3.7l-4.9-20c-0.2-0.7-0.6-1.3-1.2-1.8l-12.4-9l14.8-19.8l4.1,15.5c0.2,0.8,0.8,1.5,1.5,1.9
				c0.5,0.2,1,0.4,1.5,0.4c0.3,0,0.6-0.1,0.9-0.2l16.3-4.9C314,657,315,655.3,314.5,653.7z"/>
		</g>
	</g>
	<g id="Calque_10" clip-path="url(#XMLID_3_)">
		<g>
			<circle fill="#FFFFFF" cx="393.3" cy="765.4" r="7.4"/>
			<path fill="#FFFFFF" d="M421.3,802.6l-6.3-13.8c-0.2-0.5-0.5-0.9-0.9-1.2l-13.5-11c-0.3-0.2-0.6-0.4-0.9-0.5l-14.6-4.9l-9.6-15.5
				l-1.6-17.3c-0.2-1.7-1.7-2.9-3.4-2.8c-1.7,0.2-2.9,1.7-2.8,3.4l1.7,18.1c0.1,0.5,0.2,0.9,0.5,1.3l10.5,17.2
				c0.1,0.2,0.2,0.2,0.2,0.3l0,0c1.2,5.3,2.2,16.5,2.2,19.2c-0.1,1.2-1,5.3-2.2,8.9l-6.3,14.7l-0.5,0.9l-10-1.8
				c-1.7-0.3-3.3,0.9-3.6,2.5c-0.3,1.7,0.9,3.2,2.5,3.6l8,1.4l-5.4,10.1c-0.8,1.5-0.2,3.4,1.2,4.2c0.5,0.2,1,0.4,1.5,0.4
				c1.1,0,2.2-0.6,2.7-1.6l6.4-11.9l7.3,1.3c0.2,0,0.4,0.1,0.5,0.1c0.9,0,1.8-0.4,2.4-1.2l11.4-14.1c0.2-0.2,0.3-0.4,0.4-0.6l0,0
				c0-0.1,0-0.1,0.1-0.2c0.1-0.2,0.1-0.3,0.2-0.5c1.2-3.6,3.5-11.3,3.5-16.2c0-2-0.2-5.5-0.4-8.7l7.2,5.8l6,13.1
				c0.5,1.2,1.6,1.9,2.8,1.9c0.5,0,0.9-0.1,1.2-0.3C421.3,805.9,422,804.1,421.3,802.6z M383.9,821.1l-3.6-0.6l5.7-13.2l7.2,2.4
				L383.9,821.1z"/>
			<circle fill="#ED1C24" cx="384" cy="740.3" r="7.3"/>
		</g>
	</g>
	<g clip-path="url(#XMLID_3_)">
		<g>
			<line fill="none" stroke="#FFFFFF" stroke-width="6" stroke-miterlimit="10" x1="-266.5" y1="551" x2="-259.5" y2="551"/>
			
				<line fill="none" stroke="#FFFFFF" stroke-width="6" stroke-miterlimit="10" stroke-dasharray="15,15" x1="-244.5" y1="551" x2="1071.5" y2="551"/>
			<line fill="none" stroke="#FFFFFF" stroke-width="6" stroke-miterlimit="10" x1="1079.5" y1="551" x2="1086.5" y2="551"/>
		</g>
	</g>
	<g clip-path="url(#XMLID_3_)">
		<g>
			<line fill="none" stroke="#FF0000" stroke-width="6" stroke-miterlimit="10" x1="-251.5" y1="551" x2="-244.5" y2="551"/>
			
				<line fill="none" stroke="#FF0000" stroke-width="6" stroke-miterlimit="10" stroke-dasharray="15,15" x1="-229.5" y1="551" x2="1086.5" y2="551"/>
			<line fill="none" stroke="#FF0000" stroke-width="6" stroke-miterlimit="10" x1="1094.5" y1="551" x2="1101.5" y2="551"/>
		</g>
	</g>
	<g id="Calque_7" clip-path="url(#XMLID_3_)">
		<g>
			<circle fill="#FFFFFF" cx="813.4" cy="559.2" r="7.4"/>
			<path fill="#FFFFFF" d="M833.5,601.3c1.2,0,2.5-0.8,2.9-2c0.6-1.6-0.2-3.4-1.9-3.9l-12.9-4.8l-0.2-15.3c0-1.2-0.7-2.2-1.7-2.7
				l-16.9-8.7c-0.5-0.2-1-0.4-1.5-0.3l-14.8,0.8c-0.9,0.1-1.6,0.4-2.2,1.1l-9.7,11.2c-1.2,1.3-1,3.2,0.3,4.3c1.3,1.2,3.2,1,4.3-0.3
				l8.9-10.2l11.1-0.6L786.1,592v0.1l0,0l0,0c-0.2,0.5-0.4,1.2-0.3,1.8l2.2,16.9l-13.8,16.7c-1.1,1.3-0.9,3.2,0.4,4.3
				c0.5,0.5,1.3,0.7,1.9,0.7c0.9,0,1.8-0.4,2.4-1.1l14.7-17.8c0.5-0.7,0.8-1.5,0.7-2.4l-1.9-14.8l6.8,4l9.9,12.8l0.5,17.6
				c0.1,1.7,1.4,3,3.1,3h0.1c1.7-0.1,3.1-1.5,3-3.2l-0.5-18.6c0-0.7-0.2-1.3-0.6-1.8l-9-11.8l9.8-16.5l0.2,10.5c0,1.3,0.9,2.4,2,2.9
				l14.9,5.6C832.8,601.2,833.1,601.3,833.5,601.3z"/>
			<circle fill="#E64925" cx="832.5" cy="611.6" r="7.3"/>
		</g>
	</g>
</g>
</svg>
