<?xml version="1.0" encoding="utf-8"?>
<!-- Generator: Adobe Illustrator 18.0.0, SVG Export Plug-In . SVG Version: 6.00 Build 0)  -->
<!DOCTYPE svg PUBLIC "-//W3C//DTD SVG 1.1//EN" "http://www.w3.org/Graphics/SVG/1.1/DTD/svg11.dtd">
<svg version="1.1" xmlns="http://www.w3.org/2000/svg" xmlns:xlink="http://www.w3.org/1999/xlink" x="0px" y="0px"
	 viewBox="0 0 960 791.6" enable-background="new 0 0 960 791.6" xml:space="preserve">
<g id="Calque_1">
	<linearGradient id="SVGID_1_" gradientUnits="userSpaceOnUse" x1="475.2935" y1="375.6892" x2="475.2935" y2="-2.199613e-008">
		<stop  offset="0" style="stop-color:#ABDBFF"/>
		<stop  offset="0.176" style="stop-color:#A6D9FF"/>
		<stop  offset="0.3976" style="stop-color:#96D3FF"/>
		<stop  offset="0.6435" style="stop-color:#7CCAFF"/>
		<stop  offset="0.9053" style="stop-color:#59BDFF"/>
		<stop  offset="1" style="stop-color:#4AB8FF"/>
	</linearGradient>
	<rect x="-14.6" y="0" fill="url(#SVGID_1_)" width="979.9" height="375.7"/>
	<g id="Layer_1">
		<path fill="#F1F2F2" d="M363.9,244.8c0,0,180.7,0.9,191.3,0c10.6-0.9,57.4-23.3,10.6-25.9c-46.8-2.7-80.8,7.2-80.8,7.2
			s-14.9-24.2-55.2-24.2s-65.9,16-65.9,16s-46.8-13.5-48.9-5.3S315,244.6,363.9,244.8z"/>
	</g>
	<g id="Calque_3">
		<path fill="#F1F2F2" d="M100.8,235.8c0,0,121.2,1.4,128.3,0s38.5-37.1,7.1-41.3s-54.2,11.4-54.2,11.4s-10-38.5-37.1-38.5
			S100.8,193,100.8,193s-31.4-21.4-32.8-8.6C66.6,197.3,68,235.4,100.8,235.8z"/>
	</g>
	<g id="Calque_4">
		<path fill="#F1F2F2" d="M770,255.8c0,0,37.4,14.6,74.1,0c3.9-1.6,47.6-13.7,38.3-29.4c-21.7-36.1-56.2,0.7-56.2,0.7
			s-25.3-10.8-29.9-12.3C771,206.2,770,231,770,231s-24-7.8-24.9-0.4C744.2,238,751,255.6,770,255.8z"/>
	</g>
	<g>
		<path fill="#2A4F7E" d="M798.4,218.3l-1-1.2c-0.8,0.6-2.4,0.9-3.1,0.9c-2.5-1.9-5.3-9.6-5.3-25.3c0-0.4-0.4-0.8-0.8-0.8
			s-0.8,0.4-0.8,0.8c0,15.7-2.8,23.4-5.3,25.3c-0.7-0.1-2.3-0.3-3.1-0.9l-1,1.2c1.4,1.1,3.7,1.3,4.3,1.3v10.9h11.7v-10.9h0
			C794.7,219.6,797.1,219.3,798.4,218.3z M788.3,228.3c-2,0-3.6-1.6-3.6-3.6c0-2,1.6-3.6,3.6-3.6c2,0,3.6,1.6,3.6,3.6
			C791.9,226.6,790.3,228.3,788.3,228.3z"/>
		<g>
			<path fill="#2A4F7E" d="M795.9,240.1c-0.1-3.3-2.2-6-5.2-7c0.1-1,0.6-2.5,1.9-3H784c1.3,0.5,1.8,2.1,1.9,3c-3,1-5.1,3.7-5.2,7
				h-1.1v2.9h1v7.8v1.3v1.5h15.1v-1.5v-1.3V243h1v-2.9H795.9z M784.3,250.8h-3.2v-6.9c0-0.3,0-0.6,0.1-0.9c0.2-1.1,0.8-1.8,1.5-1.8
				c0.7,0,1.3,0.8,1.5,1.8c0.1,0.3,0.1,0.6,0.1,0.9V250.8z M791.1,250.8h-5.5v-6.9c0-0.3,0.1-0.6,0.2-0.9c0.4-1.1,1.4-1.8,2.6-1.8
				c1.2,0,2.2,0.8,2.6,1.8c0.1,0.3,0.2,0.6,0.2,0.9V250.8z M795.7,250.8h-3.2v-6.9c0-0.3,0-0.6,0.1-0.9c0.2-1.1,0.8-1.8,1.5-1.8
				c0.7,0,1.3,0.8,1.5,1.8c0.1,0.3,0.1,0.6,0.1,0.9V250.8z"/>
		</g>
		<path fill="#2A4F7E" d="M953.9,334.1l0-8.3h-15L926,309.9v-12.6l-17.5,0.1v20.9l-17.9,0V332h-5.5V311h-15.3v27.3h-9.2v-9.4
			l-13.4-13.4v-4.3h-3.1v4H841v-4h-3.3v4.1h-15.5v16.8h-7v-7.5h1.1v-10.9h-1.1v-2.1h-1.5c-0.7-17.1-8.7-37.4-19.4-43.3
			c-1.6-3.1-1.4-4.6,0.6-8.7h1.2c1.7,0,3-1.4,3-3c0-1.7-1.4-3-3-3h-0.4h-15.1h-0.4c-1.7,0-3,1.4-3,3c0,1.7,1.4,3,3,3h1.2
			c2,4.2,2.2,5.7,0.6,8.7c-10.6,5.9-18.7,26.1-19.4,43.3h-1.5v2.1h-1.1v10.9h1.1v13.2h-7.9v-8.6h-8.6l-12,12.3v-33h-18.8v20.4h-10.7
			v-22h-12.6v12.6h-10.2V341h-7.9v-8.1l-17.5-16.5h-8.9v7.6l-7.8,8.6v21.2H631v-43.9h-7.3v-3.9h-3.9v-5.2h-10.2v8.1h-16.2v41.1
			l-8.8-11.4v-20.7l-7.6-11.9H557V318l-1.9,0v-8.2h-1.8v8.1h-1.7v-7.3h-2v7.3h-1.7v-6.5h-2.1v6.8h-8.4L519.1,333V227.4h-4.7v-8.6
			h-4.7v-15.7h-21.5v-14.9h-10.5v30.9h-6v6.5l-3.5,0l0.1,115.9l-15-0.1V316h-10.5v-13.1h-16.2v21.5h-13.9l-15.4,18.8v-21.7h-15.2
			v22.2h-5.6v-34.3h-18.7v30.1h-7.1v-11.8l-11.3-13.3h-9.2l-9.7,12v24.3h-10.9v-10h-2.1v10h-2.7v-10H303v10h-2.3v-10h-2.1v10H293
			v-15.4l-16.2-12v6.5h-9.7l-4.7-7.6v-7.3h-2.9v-7.1h-2.4v7.3h-3.7l-12.3,10.2v-18.8c0-20.6-15-37.8-34.8-41c0.8-3.1,4.6-8,6.2-9.1
			h-6.3v-23.2c0-3.1-1.9-5.8-4.5-6.8l1.3-1.5l-3.6-36.2l-3.7,36.2l1.3,1.5c-2.6,1-4.5,3.7-4.5,6.8v23.2h-6.3
			c1.5,1.1,5.4,6.1,6.2,9.2c-19.6,3.3-34.6,20.4-34.6,41v44.2h-15.7v-30.6h-18.1v-20.4l-21.2-19.6l-21.2,18.1V339H67.8v-17.3
			l-28.5-15.2l0-9.2h-4.4v8.6h-51.5l0,461.3H962l0-437.9L953.9,334.1z M775.3,311.6h-7.9c0.5-12.1,4.7-24.5,6.8-24.5
			C776.2,287.1,775.4,299.5,775.3,311.6z M779.3,311.6c0.5-12.4,4.3-27,9-27c4.7,0,8.6,14.6,9,27H779.3z M801.4,311.6
			c-0.1-12.1-1-24.5,1.1-24.5c2.1,0,6.3,12.4,6.8,24.5H801.4z"/>
		<path fill="#2A4F7E" d="M796.3,250.8h-0.2h-0.2h-15.1h-0.2h-0.2c-0.4,0-0.6,0.3-0.6,0.6c0,0.4,0.3,0.6,0.6,0.6h0.2h0.2h15.1h0.2
			h0.2c0.4,0,0.6-0.3,0.6-0.6C796.9,251.1,796.6,250.8,796.3,250.8z"/>
	</g>
	<g>
		<line fill="none" stroke="#BD3B26" stroke-width="5" stroke-miterlimit="10" x1="588.1" y1="374.3" x2="588.1" y2="405.6"/>
		<g>
			<line fill="none" stroke="#BD3B26" stroke-miterlimit="10" x1="652.2" y1="306" x2="652.2" y2="406"/>
			<line fill="none" stroke="#BD3B26" stroke-miterlimit="10" x1="642.2" y1="340" x2="652.2" y2="340"/>
			<line fill="none" stroke="#BD3B26" stroke-miterlimit="10" x1="642.5" y1="319.4" x2="652.2" y2="319.4"/>
			<rect x="588.4" y="258.4" fill="#773B29" width="51.7" height="31.2"/>
			<polygon fill="#9C3725" points="639.4,258.4 655.3,258.4 655.3,303.2 641.5,321.5 641.5,292.4 639.4,289.6 			"/>
			<rect x="586.3" y="292.3" fill="#BD3B26" width="56" height="82.3"/>
			<polygon fill="#808285" points="588.4,258.4 601.8,242.7 627.5,242.7 639.4,258.4 			"/>
			<line fill="none" stroke="#BD3B26" stroke-width="5" stroke-miterlimit="10" x1="640.5" y1="374.6" x2="640.5" y2="406"/>
			<rect x="589" y="321.5" fill="#99929A" width="50.5" height="9.6"/>
			<rect x="589" y="346.1" fill="#99929A" width="50.5" height="10.1"/>
			<rect x="623.7" y="264.5" fill="#A56A4E" width="13.5" height="7.1"/>
			<rect x="612.1" y="271.8" fill="#99929A" width="16.1" height="7.1"/>
			<rect x="628.2" y="279" fill="#9C3725" width="9.8" height="8.1"/>
			<polyline fill="#A56A4E" points="586.3,292.3 588.4,289.6 639.4,289.6 642.2,292.4 			"/>
		</g>
	</g>
	<rect x="-14.6" y="402.4" fill="#2CC07E" width="979.9" height="64.9"/>
	<rect x="-14.6" y="467.3" fill="#0084C5" width="979.9" height="64.9"/>
	<rect x="-14.6" y="532.2" fill="#616264" width="979.9" height="64.9"/>
	<rect x="-14.6" y="597" fill="#E64925" width="979.9" height="64.9"/>
	<rect x="-14.6" y="661.9" fill="#81878C" width="979.9" height="64.9"/>
	<rect x="-14.6" y="726.8" fill="#C5C7C9" width="979.9" height="64.9"/>
	<line fill="none" stroke="#FFFFFF" stroke-width="2" stroke-miterlimit="10" x1="-20.2" y1="611.3" x2="969.3" y2="611.3"/>
	<line fill="none" stroke="#FFFFFF" stroke-width="2" stroke-miterlimit="10" x1="-20.2" y1="629.5" x2="969.3" y2="629.5"/>
	<line fill="none" stroke="#FFFFFF" stroke-width="2" stroke-miterlimit="10" x1="-20.2" y1="647.6" x2="969.3" y2="647.6"/>
	<g>
		<g>
			<line fill="none" stroke="#FFFFFF" stroke-width="4" stroke-miterlimit="10" x1="-20.2" y1="691.1" x2="-14.1" y2="691.1"/>
			
				<line fill="none" stroke="#FFFFFF" stroke-width="4" stroke-miterlimit="10" stroke-dasharray="15.0041,15.0041" x1="-2" y1="691.1" x2="987.9" y2="691.1"/>
			<line fill="none" stroke="#FFFFFF" stroke-width="4" stroke-miterlimit="10" x1="994" y1="691.1" x2="1000.1" y2="691.1"/>
		</g>
	</g>
	<path fill="#2CC07E" d="M217,345.2c-3.8-6,10.3-12.5,6.6-18.4c-1.4-2.2-4.7-2.6-6.1-4.9c-2.4-3.9,2.6-10.1-0.8-13.2
		c3.7-1.4,5.8-6.1,4.3-9.8c2.4-0.3,4.6-0.6,7-0.9c1.4-7.6,7.3-14.3,14.7-16.8c0.7,1.1,1.4,2.2,2.1,3.4c2.9-0.4,5.3-2.4,6.6-4.9
		c0.3,1.3,1.1,2.4,2.4,3.1c2.6-5.1,10.3-6.7,14.8-3.1c3.6,2.9,4.6,8.1,4.2,12.8c-0.2,2.1-0.6,4.4,0.6,6.2c2.7,4.2,10.3,0.9,13.8,4.5
		c3.3,3.3,0.3,8.7-2.7,12.2c-3.1,8.3-2.8,17.8,0.8,25.8c0.9,2.1,1.9,4.8,0.3,6.4c-0.6,0.6-1.6,0.9-2.3,1.4c-2.1,1.6-2,4.6-2.4,7.3
		c-1.2,8.8-9.9,14.1-17.7,18.3c-0.5-1.9-0.9-3.8-1.4-5.8c-2.9-1.6-4.7,4.9-8.1,4.8c-1.4-0.1-2.4-1.4-3.7-1.9
		c-2.6-1.2-5.5,0.4-8.3,0.9c-6.8,1.1-13.1-7.4-9.6-13.3c-4.8,0.6-9.8,1.1-14.6,1.6c-2.5-4.2-0.1-10.4,4.5-11.8
		C220.9,347.3,219.2,345.8,217,345.2z"/>
	<path fill="#2CC07E" d="M298.6,345.2c-3-6.3-5.9-12.5-8.9-18.9c-0.8-1.7-1.6-3.7-1-5.4c0.6-1.6,2.1-2.5,3.1-3.8
		c2.6-3.4,1.4-8.1,0.5-12.3s-0.6-9.6,3.2-11.3c2.8,2.5,7.1-0.4,9.2-3.4c2.1-3.1,4.6-6.9,8.3-6.6c2.6,0.3,4.5,2.6,7,3.1
		c3.7,0.8,6.9-2.5,10.5-3.8c4.1-1.5,8.8-0.3,13.2-1c10.3-1.6,16.7-13.3,26.9-15c2.8,3.1,3.7,7.6,2.4,11.5c-0.5,1.4-1.2,2.7-1.6,4.2
		c-0.6,2-0.3,4.2-0.1,6.3c0.5,4.3,0.9,8.7,1.4,13c0.7,6.6,1.7,13.8,6.4,18.4c2-2.1,6-0.4,6.8,2.4c0.8,2.8-0.9,5.8-2.9,7.8
		c-2.1,2-4.7,3.4-6.9,5.3c-5.8,5.1-7.7,14.2-4.4,21.2c1.1,2.4,2.7,4.6,2.8,7.2c0.1,6.1-7.6,8.6-13.7,9.2c0.7,4.6-2.1,9.5-6.5,11.2
		c-4.3,1.7-9.7,0.1-12.3-3.8c-1.9-2.6-3.3-6.7-6.5-6.3c-1.9,0.2-3.1,2-4.3,3.4c-6.5,7.8-18.8,10-27.5,4.8c-0.8-0.5-1.6-1.1-1.8-2
		c-0.2-1.4,1.1-2.4,2.4-3.1c3.4-1.8,6.9-3.1,10.7-3.8c-6.1-4.4-12.1-8.8-18.2-13.2c-1.7-1.3-3.6-2.6-4.3-4.6
		C290.7,351.9,294.9,347.9,298.6,345.2z"/>
	<path fill="#2CC07E" d="M117.5,361c-4.3,2.8-10.1-2.4-9.8-7.5c0.3-5.1,4.2-9.1,8.1-12.4c-5.3-0.6-9.9-5.4-10.1-10.8
		c-0.1-2.1,0.4-4.2,0.6-6.3c0.4-5.9-2.6-12-7.6-15.3c1.3-0.4,2.5-0.7,3.8-1.1c-0.3-4.6-0.6-9.1-0.9-13.7c4.1-0.4,8.4,0.4,12.1,2.3
		c0.6-3.4,1.8-6.7,3.6-9.6c2.1,0.9,3.6,2.9,4.3,5c3.4,0.9,6.6-2.2,10-3.2c3.4-1,6.9,0.1,10.3,1c9.2,2.3,18.9,2.4,28.1,0.4
		c-0.3,1.9,0.9,3.6,1.7,5.3c0.8,1.7,1,4.1-0.6,5.1c-0.9,0.5-2,0.4-3,0.5c-3.6,0.6-5.1,5.1-4.8,8.8c0.3,3.7,1.8,7.3,1.1,10.9
		c-0.5,2.6-2.1,5-2.4,7.6c-0.6,4.9,3.4,9.1,6.3,13.1c3,4,5,10.1,1.4,13.5c-1.4,1.3-3.4,1.9-4.6,3.4c-3.3,3.7,0.1,10.3-2.8,14.2
		c-2.5,3.4-7.8,2.6-11.5,0.6c-3.6-2-7.1-5-11.3-5.1c-1.9,3.5-4.8,6.3-8.3,8c1.1-0.2-0.3-1.9-1.5-1.9c-3.3-0.1-6.6-0.2-9.9-0.4
		C120.7,369.2,119.9,364.6,117.5,361z"/>
	<path fill="#2CC07E" d="M468,319.2c1.6,2.7,3.3,5.6,3.6,8.8c0.3,3.2-1.4,6.8-4.4,7.7c-1.4,0.4-3,0.2-4.5,0.6
		c-5.9,1.5-5.8,9.9-4.3,15.8c1.9,0.6,3.8,1.1,5.8,1.6c0.6,6.1-4.3,12.3-10.5,12.9c-0.3,2.9-1.1,5.7-2.4,8.3
		c-2.7,0.4-5.6,0.9-8.2-0.1c-2.6-1-4.6-3.9-3.6-6.6c-3.5,6.6-14.8,6.3-18-0.4c-8.7,3.4-18.2,5.1-27.5,4.7c1.4-6.6-10.5-8.2-12-14.6
		c-1-4.1,3-8,7.1-8.9c4.1-0.9,8.4,0.2,12.7,0.4c-1.4-4.1-1.6-8.4-0.8-12.6c-0.1-2.4-2.6-3.9-3.8-5.9c-1.3-2,0-5.8,2.2-4.8
		c-4.8-2.6-9.9-5.6-12.2-10.6c-2.3-5,0.1-12.3,5.6-12.9c-4.1-3.4-6.3-9-5.5-14.2c2.9-0.4,5.3-2.6,7.4-4.6c2.1-2,4.6-4.1,7.6-4.2
		c2.9-0.1,6,3,4.7,5.6c1.9,0.9,4.1,1.3,6.3,0.9c0.7-1.4,1.4-2.8,2.1-4.1c5.5,0.7,11.3-2.4,13.7-7.5c3,2,5.4,4.8,7.1,8
		c4.8,1.3,7.2-5.3,9.6-9.6c3.4-6.1,11.1-9.4,17.8-7.7c3.2,2.5,3.6,7.9,0.6,10.8c-2.6,2.6-7.9,4.6-6.4,8.1c0.6,1.3,1.9,2,2.8,3.1
		c4.8,5.8-6.3,16.5-0.2,21c4.1-3.4,11.3-3.6,14.4,0.8C477.7,313.5,473,321.2,468,319.2z"/>
	<path fill="#2CC07E" d="M514.9,306c3.9-0.3,7.2,3.3,8.6,7c1.4,3.7,1.5,7.8,2.7,11.5c1.1,3.3,3.1,6.6,2.4,10.1
		c-0.9,4.9-6.5,7.3-11.3,8.7c4.1,5.3,8.6,10.1,13.5,14.6c-2.9,2.9-4,7.6-2.7,11.5c0.4,1.1,0.9,2.2,0.5,3.4c-0.3,0.8-1.1,1.4-1.8,1.9
		c-5,3.5-10.1,7.1-15.9,8.9c-5.8,1.9-12.5,1.9-17.7-1.4c0.6-0.6,1.4-1.1,2-1.7c-4.6,1.1-9.5,1.8-14.2,0.9c-4.7-0.9-9.2-3.8-11.1-8.1
		c-1.3-2.9-0.4-7.3,2.7-7.5c-3.4-2.9-4.2-8.5-1.8-12.3s7.8-5.3,11.9-3.4c-5.6-3.4-10.6-7.8-14.4-13.1c-1.5-2.1-2.9-4.3-3.1-6.8
		c-0.3-2.5,0.7-5.3,3-6.6c-0.4-2.9,0.1-5.8,1.5-8.3c4.8-1.8,10,2,15,1.2c6.8-1.1,11-10.1,17.9-9.3c0.5,2.4,1.8,4.7,3.5,6.4
		C508.2,310,510.9,306.3,514.9,306z"/>
	<path fill="#2CC07E" d="M751.7,358.7c-1.6,2.4-0.4,5.7-1.1,8.6c-1.2,5-7.3,6.9-12.5,7c-5.1,0.1-10.8-0.6-15,2.5
		c-1.8,1.4-3.7,3.4-5.8,2.6c-0.9-0.4-1.6-1.1-2.1-2c-2.8-4.8-2-11-4.3-16.2c-3.9-8.7-15.8-11.9-19.4-20.7c-3.7-9,2.6-19,1.8-28.7
		c2.2,3.7,8.8,3.1,10.4-0.9c1.4-3.4-0.6-7.5,1.1-10.6c4.4,2.3,10.4,0.6,13.1-3.6c1.4-2.1,1.9-4.6,3.5-6.5c1.6-1.9,5.1-2.5,6.3-0.3
		c3.4-2.1,4.6-6.3,7.3-9.3c2.7-2.9,9.1-2.9,9.3,1c2.6-3.6,5.1-7.1,7.8-10.7c1.4-2,3-4.1,5.3-4.8c4.9-1.7,9.9,5.6,6.5,9.6
		c1.6,0,3.2,0,4.8,0c1.6,6.4-0.6,13.7-5.7,18c-1.6,1.4-3.5,2.5-4.4,4.4c-3.3,6.9,9.7,13.3,7.3,20.5c-0.8,2.4-3.1,4-4.4,6.2
		c-2.6,4.4-0.4,10,1.4,14.8c1.7,4.8,2.5,11.2-1.6,14.2C758.2,355.9,753.6,355.6,751.7,358.7z"/>
	<path fill="#2CC07E" d="M816,379.5c-4.3,2.5-6.8,8.2-11.8,9c-2.9,0.5-5.8-1-8.5-2.5c-5.3-2.9-10.7-6-14.3-10.8
		c-2.4-3.1-3.8-6.9-5.3-10.6c-2-5.1-4-10.2-6-15.3c-0.6-1.4-1.1-3-0.9-4.5c0.3-1.6,1.5-2.9,2.2-4.3c2.4-4.3,0.8-9.6,0.4-14.5
		c-0.4-4.9,1.9-11.2,6.8-11.3c2.1,2.3,6.3,1.1,8.1-1.6c1.8-2.6,1.9-6,1.9-9.1s0.1-6.5,1.9-9.1c1.8,2.4,3.5,4.9,5.3,7.3
		c-0.2-2.3-0.4-4.6,0.3-6.8s2.7-4.1,5-4.1c3.8,0.1,5.4,4.8,6.1,8.6c1.3,8.3,2.6,16.5,3.9,24.7c1,6.3,2,12.8,0.4,19
		c-0.9,3.2-2.4,6.5-1.4,9.7c0.9,2.9,4.1,4.9,7.2,4.9c3.1,0,6.1-1.7,8-4.1c1.6,3.6,3.3,7.3,3.6,11.3c0.3,4-1.1,8.3-4.3,10.5
		C821.8,377.8,818.6,378,816,379.5z"/>
	<path fill="#2CC07E" d="M23.4,346.9c-1.4-7.2-2.6-14.4-2.9-21.7c-0.1-4.1,0.1-8.3,1.9-12s5.5-6.7,9.6-6.6c1.4,0,2.9,0.4,4.3,0.1
		c2.6-0.6,3.8-3.6,4.1-6.2c0.2-2.6-0.2-5.3,0.6-7.8c7.2-4.1,15.9-8.3,23.5-4.9c12,5.5,10.7,25.1,22.1,31.7c3.6,2.1,8.4,2.7,10.7,6.2
		c1.4,2.2,1.4,5.1,1.4,7.7c-0.4,10.1-1.5,20.2-3.5,30.2c-1.1,5.6-2.9,11.6-7.4,15c-3.6,2.7-8.3,3.3-12.4,5.1
		c-4.1,1.9-8.1,5.9-6.8,10.3c-9.6,0.1-21.2-2.4-24.8-11.3c-0.7-1.8-1-3.6-1.7-5.4c-2.7-7-10.4-10.7-14.3-17.1
		C25.1,356,24.2,351.4,23.4,346.9z"/>
	<path fill="#2CC07E" d="M918.6,359.3c-3.4,2.1-7.6,1.9-11.6,2.1c-4,0.2-8.5,1.6-10.1,5.2c-2.6,6.2,5.1,14.7,0.3,19.3
		c-7.3,0-12.4-7.1-19.2-9.6c-6-2.1-12.7-0.4-19-1.3s-13-7.2-10.1-12.9c-6.1-2.9-10.1-9.6-9.7-16.3c-6.2-1.6-8.7-9.8-6.2-15.8
		c2.4-5.9,8.1-9.8,13.7-13c2.8-4.5-4.4-11-1-15.1c0.8-0.9,2-1.4,3.1-2.1c3.8-2.4,5.6-6.8,8.5-10.3c2.9-3.5,8.3-5.8,11.6-2.7
		c1.1-4,5.1-6.6,9.2-7.1c4.1-0.4,8.2,0.9,11.9,2.7c5.3-2.5,8.6-8.5,8.1-14.3c7.6-0.9,15.3,5.5,15.5,13.1c0.1,2-0.2,4.1,0.6,5.8
		c1.1,2.3,3.7,3.4,5.6,5c3.7,3.2,4.6,9.2,1.9,13.3c-0.8,1.2-1.9,2.3-2.5,3.6c-2.1,4.6,2,9.6,4.2,14.1c3.2,6.8,2.3,14.6,1.4,22
		C924,350.6,923,356.5,918.6,359.3z"/>
	<rect x="50.9" y="375.7" fill="#2CC07E" width="8.6" height="38.1"/>
	<rect x="131.1" y="366.6" fill="#2CC07E" width="8.6" height="38.1"/>
	<rect x="248.2" y="369.6" fill="#2CC07E" width="8.6" height="38.1"/>
	<rect x="329" y="369.2" fill="#2CC07E" width="8.6" height="38.1"/>
	<rect x="424.1" y="366.8" fill="#2CC07E" width="8.6" height="38.1"/>
	<rect x="493.8" y="371.3" fill="#2CC07E" width="8.6" height="38.1"/>
	<rect x="721.1" y="369.2" fill="#2CC07E" width="8.6" height="38.1"/>
	<rect x="798.9" y="371.3" fill="#2CC07E" width="8.6" height="38.1"/>
	<rect x="874.5" y="371.3" fill="#2CC07E" width="8.6" height="38.1"/>
	<g id="Calque_5">
		<g>
			<circle fill="#FFFFFF" cx="547.2" cy="381.5" r="6.8"/>
			<path fill="#FFFFFF" d="M563.3,421.5c-0.4-0.5-0.9-0.8-1.5-1l-12-3.1l3.8-16.4l2.5,7.2c0.3,0.8,0.9,1.4,1.6,1.7l12.8,5.3
				c0.4,0.1,0.7,0.2,1.1,0.2c1.1,0,2.2-0.6,2.6-1.8c0.6-1.4-0.1-3.1-1.6-3.7l-11.6-4.8l-4.1-11.8c-0.4-1-1.2-1.7-2.3-1.9l-17.3-2.6
				c-0.7-0.1-1.4,0.1-2,0.4l-10.9,7.1c-0.5,0.3-0.9,0.8-1.1,1.3l-5.9,14c-0.6,1.4,0.1,3.1,1.5,3.7c1.4,0.6,3.1-0.1,3.7-1.5l5.6-13.2
				l7.4-4.8l-5.2,22.2c-0.3,0.7-0.2,1.5,0.1,2.2l7.3,14.5l-2.3,17.7c-0.2,1.6,0.9,3,2.4,3.2c0.1,0,0.3,0,0.4,0
				c1.4,0,2.6-1.1,2.9-2.5l2.4-18.5c0.1-0.6,0-1.1-0.3-1.6l-6.3-12.7l8.2,1.9l14,3.7l10.2,12.7c0.6,0.7,1.4,1.1,2.2,1.1
				c0.6,0,1.3-0.2,1.8-0.6c1.2-1,1.4-2.8,0.4-4L563.3,421.5z"/>
			<circle fill="#FFFFFF" cx="580.5" cy="428.3" r="6.8"/>
		</g>
	</g>
	<g id="Calque_8">
		<g>
			<circle fill="#FFFFFF" cx="252.5" cy="574.4" r="6.8"/>
			<path fill="#FFFFFF" d="M276,601.2c-0.4-1.5-2.1-2.4-3.6-1.9l-12.2,3.6l-3.8-14.7c-0.2-0.7-0.6-1.4-1.3-1.7l-24.5-14.6
				c-0.9-0.6-2.1-0.5-3,0l-14.1,8.8c-1.4,0.9-1.7,2.6-0.9,3.9c0.9,1.4,2.6,1.7,3.9,0.9l12.6-7.9l7.5,4.5l-16.8,22.5l0,0l-8.4,10.9
				l-18.6,5.8c-1.5,0.5-2.4,2.1-1.9,3.6c0.4,1.2,1.5,2,2.7,2c0.3,0,0.6-0.1,0.9-0.1l19.5-6.1c0.6-0.1,1.1-0.5,1.4-1l9.1-11.7
				l7.8,5.9c0.1,0.1,0.1,0.1,0.2,0.1l1.3,0.9l0.9,0.7l0,0l10.7,7.8l4.3,17.3c0.4,1.3,1.5,2.1,2.8,2.1c0.2,0,0.4,0,0.7-0.1
				c1.5-0.4,2.4-1.9,2.1-3.4l-4.6-18.4c-0.1-0.6-0.6-1.2-1.1-1.6l-11.4-8.3L252,593l3.8,14.3c0.2,0.7,0.7,1.4,1.4,1.8
				c0.4,0.2,0.9,0.4,1.4,0.4c0.3,0,0.6-0.1,0.9-0.1l15-4.5C275.6,604.3,276.5,602.7,276,601.2z"/>
		</g>
	</g>
	<g id="Calque_10">
		<g>
			<circle fill="#FFFFFF" cx="348.7" cy="704.3" r="6.8"/>
			<path fill="#FFFFFF" d="M374.5,738.5l-5.8-12.8c-0.2-0.4-0.4-0.8-0.8-1.1l-12.5-10.1c-0.3-0.2-0.6-0.4-0.9-0.5l-13.5-4.6
				l-8.8-14.3l-1.5-16c-0.1-1.6-1.6-2.7-3.1-2.6c-1.6,0.1-2.7,1.6-2.6,3.1l1.6,16.7c0.1,0.4,0.2,0.9,0.4,1.2l9.7,15.8
				c0.1,0.1,0.1,0.2,0.2,0.3l0,0c1.1,4.9,2.1,15.2,2.1,17.7c-0.1,1.1-0.9,4.8-2,8.2l-5.8,13.5l-0.4,0.8l-9.2-1.6
				c-1.6-0.3-3.1,0.8-3.3,2.3c-0.3,1.6,0.8,3,2.3,3.3l7.3,1.3l-5,9.3c-0.7,1.4-0.2,3.1,1.1,3.8c0.4,0.2,0.9,0.4,1.4,0.4
				c1,0,2-0.6,2.5-1.5l5.9-11l6.8,1.2c0.1,0,0.4,0.1,0.5,0.1c0.9,0,1.6-0.4,2.2-1.1l10.5-13c0.1-0.2,0.3-0.4,0.4-0.6l0,0
				c0-0.1,0-0.1,0.1-0.1c0.1-0.1,0.1-0.3,0.1-0.4c1.1-3.4,3.2-10.4,3.2-14.9c0-1.9-0.1-5.1-0.4-8.1l6.6,5.3l5.5,12.1
				c0.5,1.1,1.5,1.7,2.6,1.7c0.4,0,0.8-0.1,1.1-0.3C374.5,741.6,375.1,740,374.5,738.5z M340,755.6l-3.4-0.6l5.3-12.2l6.6,2.2
				L340,755.6z"/>
			<circle fill="#ED1C24" cx="340.1" cy="681.2" r="6.8"/>
		</g>
	</g>
	<g>
		<g>
			<line fill="none" stroke="#FFFFFF" stroke-width="6" stroke-miterlimit="10" x1="-260" y1="507" x2="-252" y2="507"/>
			
				<line fill="none" stroke="#FFFFFF" stroke-width="6" stroke-miterlimit="10" stroke-dasharray="15,15" x1="-238" y1="507" x2="973" y2="507"/>
			<line fill="none" stroke="#FFFFFF" stroke-width="6" stroke-miterlimit="10" x1="980" y1="507" x2="988" y2="507"/>
		</g>
	</g>
	<g>
		<g>
			<line fill="none" stroke="#FF0000" stroke-width="6" stroke-miterlimit="10" x1="-246" y1="507" x2="-238" y2="507"/>
			
				<line fill="none" stroke="#FF0000" stroke-width="6" stroke-miterlimit="10" stroke-dasharray="15,15" x1="-224" y1="507" x2="987" y2="507"/>
			<line fill="none" stroke="#FF0000" stroke-width="6" stroke-miterlimit="10" x1="994" y1="507" x2="1002" y2="507"/>
		</g>
	</g>
	<g id="Calque_7">
		<g>
			<circle fill="#FFFFFF" cx="736" cy="514.1" r="6.8"/>
			<path fill="#FFFFFF" d="M754.5,553c1.1,0,2.3-0.7,2.7-1.9c0.6-1.5-0.2-3.1-1.7-3.6l-11.9-4.4l-0.1-14.1c0-1.1-0.6-2-1.6-2.5
				l-15.6-8c-0.4-0.2-0.9-0.4-1.4-0.3l-13.6,0.7c-0.8,0.1-1.5,0.4-2,1l-9,10.3c-1.1,1.2-0.9,3,0.3,4c1.2,1.1,3,0.9,4-0.3l8.2-9.4
				l10.3-0.6l-12.1,20.5v0.1l0,0l0,0c-0.2,0.5-0.4,1.1-0.3,1.6l2,15.6l-12.8,15.4c-1,1.2-0.9,3,0.4,4c0.5,0.4,1.2,0.6,1.8,0.6
				c0.9,0,1.6-0.4,2.2-1l13.5-16.4c0.5-0.6,0.7-1.4,0.6-2.2l-1.8-13.7l6.3,3.7l9.1,11.8l0.4,16.3c0.1,1.6,1.3,2.8,2.9,2.8h0.1
				c1.6-0.1,2.9-1.4,2.8-2.9l-0.4-17.2c0-0.6-0.2-1.2-0.6-1.6l-8.3-10.8l9.1-15.2l0.1,9.7c0,1.2,0.8,2.2,1.9,2.6l13.8,5.1
				C753.8,552.9,754.1,553,754.5,553z"/>
			<circle fill="#E64925" cx="753.5" cy="562.5" r="6.8"/>
		</g>
	</g>
</g>
<g id="Calque_2" display="none">
	<path display="inline" fill="#2A4F7E" d="M257,168.8c0.7-0.3,1.5-0.9,2.2-1c4-0.7,3.3-0.9,6,2c3.6,3.7,7.2,7.4,10.8,11.2
		c0.5,0.5,0.9,0.6,1.6,0.5c15.5-2.5,31-4.9,46.5-7.3c3.3-0.5,6.7-0.8,10-0.9c1.5,0,3.1,0.7,4.6,1c2.1,0.5,4.3,0.9,6.4,1.6
		c1.2,0.4,2.4,1.2,3.3,2.2c1.6,1.6,1.3,3.5-0.4,5c-1.6,1.4-3.5,2.1-5.5,2.5c-4.3,0.8-8.6,1.5-12.9,2.2c-4.3,0.7-8.6,1.4-12.9,2.1
		c-0.7,0.1-1.4,0.4-2,0.7c-6.9,3.6-13.8,7.3-20.8,10.9c-0.8,0.4-1.7,0.7-2.6,0.8c-1.7,0.3-3.5,0.6-5.2,0.8c-1.2,0.2-1.9-0.1-2.2-0.9
		c-0.4-0.8-0.1-1.6,0.8-2.4c2.6-2.2,5.2-4.4,8-6.7c-0.4,0-0.7,0-1,0c-10.1,0-20.3,0-30.4-0.1c-0.2,0-0.4,0-0.6,0
		c-1.3-0.1-2.1-0.9-2.2-2c-0.1-1.1,0.6-2,1.9-2.3c0.5-0.1,1-0.2,1.4-0.2c0.4-0.1,0.9-0.2,1.4-0.2c-0.1-0.3-0.2-0.6-0.3-0.9
		c-1.9-5.2-3.9-10.5-5.8-15.7c-0.2-0.6-0.3-1.2-0.5-1.7C256.8,169.5,256.9,169.1,257,168.8z"/>
</g>
</svg>
