<?xml version="1.0" encoding="utf-8"?>
<!-- Generator: Adobe Illustrator 18.0.0, SVG Export Plug-In . SVG Version: 6.00 Build 0)  -->
<!DOCTYPE svg PUBLIC "-//W3C//DTD SVG 1.1//EN" "http://www.w3.org/Graphics/SVG/1.1/DTD/svg11.dtd">
<svg version="1.1" id="Calque_1" xmlns="http://www.w3.org/2000/svg" xmlns:xlink="http://www.w3.org/1999/xlink" x="0px" y="0px"
	 viewBox="0 0 1299.1 1060.5" enable-background="new 0 0 1299.1 1060.5" xml:space="preserve">
<g>
	<defs>
		<rect id="XMLID_1_" x="0" y="-0.3" width="1299" height="1060.8"/>
	</defs>
	<clipPath id="XMLID_3_">
		<use xlink:href="#XMLID_1_"  overflow="visible"/>
	</clipPath>
	<rect x="-0.9" y="1.4" clip-path="url(#XMLID_3_)" fill="#ADD0E1" width="1311.1" height="540.2"/>
	<g id="Layer_1" clip-path="url(#XMLID_3_)">
		<path fill="#F1F2F2" d="M505.6,328.9c0,0,241.8,1.2,256,0c14.2-1.2,76.8-31.2,14.2-34.7c-62.6-3.6-108.1,9.6-108.1,9.6
			s-19.9-32.3-73.9-32.3c-54,0-88.2,21.5-88.2,21.5s-62.6-18-65.4-7.2C437.3,296.6,440.1,328.6,505.6,328.9z"/>
	</g>
	<g id="Calque_3" clip-path="url(#XMLID_3_)">
		<path fill="#F1F2F2" d="M153.6,316.8c0,0,162.2,1.9,171.7,0s51.5-49.6,9.5-55.3c-42-5.7-72.5,15.3-72.5,15.3s-13.4-51.5-49.6-51.5
			s-59.1,34.3-59.1,34.3s-42-28.6-43.9-11.4S109.7,316.3,153.6,316.8z"/>
	</g>
	<g id="Calque_4" clip-path="url(#XMLID_3_)">
		<path fill="#F1F2F2" d="M1048.9,343.6c0,0,50,19.6,99.2,0c5.2-2.1,63.7-18.3,51.2-39.3c-29-48.4-75.2,1-75.2,1
			s-33.9-14.4-40.1-16.5c-33.9-11.4-35.2,21.7-35.2,21.7s-32.1-10.5-33.3-0.6S1023.6,343.3,1048.9,343.6z"/>
	</g>
	<g clip-path="url(#XMLID_3_)">
		<path fill="#2A4F7E" d="M1087,293.4l-1.3-1.7c-1.1,0.8-3.2,1.2-4.1,1.3c-3.3-2.5-7.1-12.8-7.1-33.8c0-0.6-0.5-1-1-1
			c-0.6,0-1,0.5-1,1c0,21-3.8,31.3-7.1,33.8c-0.9-0.1-3-0.4-4.1-1.3l-1.3,1.7c1.8,1.4,5,1.7,5.7,1.7v14.6h15.7v-14.6h0
			C1082,295.2,1085.2,294.8,1087,293.4z M1073.5,306.8c-2.7,0-4.8-2.2-4.8-4.8c0-2.7,2.2-4.8,4.8-4.8c2.7,0,4.8,2.2,4.8,4.8
			C1078.3,304.6,1076.2,306.8,1073.5,306.8z"/>
		<g>
			<path fill="#2A4F7E" d="M1083.6,322.7c-0.1-4.4-3-8-6.9-9.4c0.2-1.3,0.8-3.4,2.6-4.1h-11.5c1.8,0.7,2.4,2.8,2.6,4.1
				c-3.9,1.3-6.8,5-6.9,9.4h-1.4v3.9h1.4v10.4v1.7v1.9h20.2v-1.9v-1.7v-10.4h1.4v-3.9H1083.6z M1068.1,336.9h-4.3v-9.2
				c0-0.4,0.1-0.8,0.1-1.2c0.3-1.4,1.1-2.5,2-2.5c0.9,0,1.7,1,2,2.5c0.1,0.4,0.1,0.8,0.1,1.2V336.9z M1077.2,336.9h-7.4v-9.2
				c0-0.4,0.1-0.8,0.2-1.2c0.5-1.4,1.9-2.5,3.5-2.5c1.6,0,2.9,1,3.4,2.5c0.1,0.4,0.2,0.8,0.2,1.2V336.9z M1083.3,336.9h-4.3v-9.2
				c0-0.4,0.1-0.8,0.1-1.2c0.3-1.4,1.1-2.5,2-2.5c0.9,0,1.7,1,2,2.5c0.1,0.4,0.1,0.8,0.1,1.2V336.9z"/>
		</g>
		<path fill="#2A4F7E" d="M1295,448.4l0-11.1h-20.1l-17.2-21.3v-16.8l-23.4,0.1v28l-23.9,0v18.2h-7.3v-28.2h-20.5v36.5h-12.3v-12.5
			l-17.9-17.9v-5.7h-4.2v5.3h-4.1v-5.3h-4.4v5.5h-20.7v22.5h-9.3v-10.1h1.5v-14.6h-1.5v-2.8h-2c-0.9-22.9-11.7-50-25.9-57.9
			c-2.2-4.1-1.9-6.1,0.8-11.7h1.7c2.3,0,4.1-1.8,4.1-4.1c0-2.3-1.8-4.1-4.1-4.1h-0.5h-20.2h-0.5c-2.3,0-4.1,1.8-4.1,4.1
			c0,2.3,1.8,4.1,4.1,4.1h1.7c2.7,5.6,3,7.6,0.8,11.7c-14.2,7.9-25,35-25.9,57.9h-2v2.8h-1.5v14.6h1.5v17.7h-10.6v-11.6h-11.6
			l-16.1,16.5v-44.1H974v27.3h-14.4v-29.4h-16.8v16.8h-13.7v28.7h-10.5v-10.8l-23.4-22.1h-11.9v10.2l-10.5,11.6v28.3H863v-58.8h-9.8
			v-5.3h-5.3v-7h-13.7v10.9h-21.7v55l-11.7-15.2v-27.7l-10.2-15.9H764v16.2l-2.5,0v-11H759v10.9h-2.3v-9.8H754v9.8h-2.3v-8.8h-2.8
			v9.1h-11.2l-24.4,20V305.7H707v-11.5h-6.3v-21H672v-19.9h-14v41.3h-8.1v8.8l-4.6,0l0.1,155.1l-20.1-0.2v-34h-14v-17.5h-21.7v28.7
			h-18.6l-20.7,25.2v-29.1h-20.3v29.8h-7.5v-45.9h-25v40.3h-9.5v-15.8L473,422.1h-12.3l-13,16.1v32.6h-14.5v-13.4h-2.8v13.4h-3.6
			v-13.4H424v13.4H421v-13.4h-2.8v13.4h-7.4v-20.7L389,434v8.8h-13l-6.3-10.2v-9.8h-3.8v-9.5h-3.2v9.8h-4.9l-16.5,13.6v-25.2
			c0-27.6-20.1-50.5-46.5-54.9c1.1-4.1,6.2-10.7,8.3-12.2h-8.4v-31c0-4.2-2.5-7.8-6-9.1l1.8-1.9l-4.9-48.4l-4.9,48.4l1.8,1.9
			c-3.5,1.3-6,4.9-6,9.1v31h-8.4c2,1.5,7.2,8.1,8.3,12.3c-26.3,4.4-46.3,27.3-46.3,54.9v59.2h-21v-41h-24.2v-27.3l-28.4-26.3
			l-28.4,24.2V455h-18.9v-23.1l-38.2-20.3l0-12.2h-5.9v11.5H-3.7l-0.1,617.2h1309.6l0.1-585.9L1295,448.4z M1056,418.3h-10.6
			c0.7-16.2,6.4-32.8,9.1-32.8C1057.3,385.6,1056.2,402.1,1056,418.3z M1061.4,418.3c0.6-16.6,5.8-36.1,12.1-36.1
			c6.3,0,11.5,19.5,12.1,36.1H1061.4z M1091,418.3c-0.2-16.2-1.3-32.8,1.5-32.8c2.8,0,8.4,16.5,9.1,32.8H1091z"/>
		<path fill="#2A4F7E" d="M1084.1,336.9h-0.2h-0.3h-20.2h-0.3h-0.3c-0.5,0-0.9,0.4-0.9,0.9c0,0.5,0.4,0.9,0.9,0.9h0.3h0.3h20.2h0.3
			h0.2c0.5,0,0.9-0.4,0.9-0.9C1085,337.3,1084.6,336.9,1084.1,336.9z"/>
	</g>
	<g clip-path="url(#XMLID_3_)">
		<line fill="none" stroke="#BD3B26" stroke-width="5" stroke-miterlimit="10" x1="805.5" y1="502.1" x2="805.5" y2="544.1"/>
		<g>
			<line fill="none" stroke="#BD3B26" stroke-miterlimit="10" x1="891.3" y1="410.9" x2="891.3" y2="544.6"/>
			<line fill="none" stroke="#BD3B26" stroke-miterlimit="10" x1="878" y1="456.4" x2="891.3" y2="456.4"/>
			<line fill="none" stroke="#BD3B26" stroke-miterlimit="10" x1="878.4" y1="428.8" x2="891.3" y2="428.8"/>
			<rect x="806" y="347.1" fill="#773B29" width="69.2" height="41.8"/>
			<polygon fill="#9C3725" points="874.2,347.1 895.5,347.1 895.5,407 877.1,431.6 877.1,392.5 874.2,388.9 			"/>
			<rect x="803.2" y="392.4" fill="#BD3B26" width="74.9" height="110.2"/>
			<polygon fill="#808285" points="806,347.1 823.9,326.2 858.3,326.2 874.2,347.1 			"/>
			<line fill="none" stroke="#BD3B26" stroke-width="5" stroke-miterlimit="10" x1="875.7" y1="502.6" x2="875.7" y2="544.6"/>
			<rect x="806.8" y="431.6" fill="#99929A" width="67.5" height="12.9"/>
			<rect x="806.8" y="464.5" fill="#99929A" width="67.5" height="13.5"/>
			<rect x="853.2" y="355.2" fill="#A56A4E" width="18.1" height="9.5"/>
			<rect x="837.7" y="365.1" fill="#99929A" width="21.6" height="9.5"/>
			<rect x="859.2" y="374.6" fill="#9C3725" width="13.2" height="10.8"/>
			<polyline fill="#A56A4E" points="803.2,392.4 806,388.9 874.2,388.9 877.9,392.5 			"/>
		</g>
	</g>
	<rect x="-0.9" y="539.8" clip-path="url(#XMLID_3_)" fill="#2CC07E" width="1311.1" height="86.8"/>
	<rect x="-0.9" y="626.6" clip-path="url(#XMLID_3_)" fill="#0084C5" width="1311.1" height="86.8"/>
	<rect x="-0.9" y="713.4" clip-path="url(#XMLID_3_)" fill="#616264" width="1311.1" height="86.8"/>
	<rect x="-0.9" y="800.2" clip-path="url(#XMLID_3_)" fill="#E64925" width="1311.1" height="86.8"/>
	<rect x="-0.9" y="887" clip-path="url(#XMLID_3_)" fill="#81878C" width="1311.1" height="86.8"/>
	<rect x="-0.9" y="973.8" clip-path="url(#XMLID_3_)" fill="#C5C7C9" width="1311.1" height="86.8"/>
	
		<line clip-path="url(#XMLID_3_)" fill="none" stroke="#FFFFFF" stroke-width="2" stroke-miterlimit="10" x1="-8.3" y1="819.3" x2="1315.6" y2="819.3"/>
	
		<line clip-path="url(#XMLID_3_)" fill="none" stroke="#FFFFFF" stroke-width="2" stroke-miterlimit="10" x1="-8.3" y1="843.6" x2="1315.6" y2="843.6"/>
	
		<line clip-path="url(#XMLID_3_)" fill="none" stroke="#FFFFFF" stroke-width="2" stroke-miterlimit="10" x1="-8.3" y1="867.9" x2="1315.6" y2="867.9"/>
	<g clip-path="url(#XMLID_3_)">
		<g>
			<line fill="none" stroke="#FFFFFF" stroke-width="4" stroke-miterlimit="10" x1="-8.3" y1="926" x2="-0.2" y2="926"/>
			
				<line fill="none" stroke="#FFFFFF" stroke-width="4" stroke-miterlimit="10" stroke-dasharray="15.0041,15.0041" x1="16.1" y1="926" x2="1340.5" y2="926"/>
			<line fill="none" stroke="#FFFFFF" stroke-width="4" stroke-miterlimit="10" x1="1348.7" y1="926" x2="1356.8" y2="926"/>
		</g>
	</g>
	<path clip-path="url(#XMLID_3_)" fill="#2CC07E" d="M309.1,463.3c-5.1-8,13.7-16.7,8.8-24.6c-1.9-3-6.3-3.5-8.1-6.6
		c-3.2-5.2,3.5-13.5-1-17.6c5-1.8,7.8-8.1,5.8-13.1c3.1-0.4,6.2-0.8,9.3-1.1c1.9-10.2,9.7-19.2,19.6-22.4c1,1.5,1.8,3,2.8,4.5
		c3.8-0.6,7.2-3.1,8.9-6.6c0.4,1.7,1.5,3.2,3.1,4.1c3.5-6.9,13.8-9,19.8-4.1c4.9,3.9,6.2,10.8,5.6,17.1c-0.3,2.9-0.8,5.9,0.8,8.3
		c3.6,5.6,13.7,1.2,18.5,6c4.4,4.4,0.4,11.6-3.6,16.3c-4.1,11.1-3.7,23.8,1,34.5c1.2,2.9,2.6,6.5,0.4,8.6c-0.9,0.9-2.1,1.2-3.1,1.9
		c-2.9,2.1-2.7,6.2-3.1,9.7c-1.6,11.7-13.3,18.9-23.7,24.5c-0.7-2.6-1.2-5.2-1.9-7.8c-3.9-2.2-6.3,6.6-10.8,6.4
		c-1.9-0.1-3.2-1.8-5-2.6c-3.4-1.6-7.3,0.6-11.2,1.2c-9.1,1.4-17.6-9.9-12.8-17.7c-6.5,0.8-13.1,1.4-19.6,2.2
		c-3.3-5.6-0.2-13.9,6-15.8C314.3,466.1,311.9,464.1,309.1,463.3z"/>
	<path clip-path="url(#XMLID_3_)" fill="#2CC07E" d="M418.2,463.3c-4-8.4-7.9-16.8-11.9-25.3c-1-2.3-2.2-5-1.3-7.2
		c0.8-2.1,2.8-3.3,4.2-5.1c3.5-4.5,1.8-10.9,0.7-16.4s-0.9-12.8,4.3-15.2c3.7,3.3,9.4-0.5,12.3-4.6c2.9-4.1,6.2-9.3,11.2-8.8
		c3.4,0.4,6,3.4,9.3,4.1c5,1,9.3-3.3,14-5.1c5.5-2,11.7-0.4,17.6-1.3c13.7-2.2,22.3-17.7,36.1-20c3.7,4.1,5,10.2,3.1,15.5
		c-0.7,1.9-1.6,3.6-2.2,5.6c-0.8,2.7-0.4,5.6-0.1,8.4c0.7,5.8,1.2,11.6,1.9,17.5c1,8.8,2.3,18.4,8.6,24.6c2.7-2.8,8-0.5,9.1,3.2
		c1,3.7-1.1,7.7-3.9,10.4c-2.9,2.7-6.3,4.6-9.3,7.2c-7.7,6.9-10.3,19-5.9,28.4c1.4,3.1,3.6,6.2,3.7,9.6c0.1,8.1-10.2,11.4-18.3,12.3
		c1,6.2-2.9,12.7-8.7,15s-13,0.1-16.5-5.1c-2.5-3.5-4.4-9-8.7-8.5c-2.5,0.3-4.2,2.7-5.8,4.6c-8.7,10.5-25.2,13.4-36.8,6.4
		c-1-0.7-2.2-1.4-2.4-2.7c-0.3-1.8,1.5-3.2,3.1-4.1c4.5-2.4,9.3-4.2,14.3-5.2c-8.1-5.9-16.2-11.7-24.3-17.6
		c-2.3-1.7-4.8-3.5-5.7-6.2C407.6,472.2,413.2,466.8,418.2,463.3z"/>
	<path clip-path="url(#XMLID_3_)" fill="#2CC07E" d="M175.9,484.4c-5.7,3.7-13.4-3.2-13.1-10s5.6-12.2,10.8-16.6
		c-7.2-0.8-13.3-7.2-13.5-14.4c-0.1-2.9,0.6-5.6,0.8-8.5c0.5-7.9-3.5-16-10.2-20.4c1.7-0.5,3.3-1,5.1-1.4
		c-0.4-6.1-0.9-12.2-1.2-18.3c5.5-0.5,11.3,0.6,16.2,3.1c0.8-4.6,2.4-9,4.8-12.9c2.8,1.2,4.9,3.8,5.7,6.7c4.6,1.2,8.8-3,13.4-4.3
		c4.5-1.3,9.3,0.2,13.8,1.3c12.3,3.1,25.3,3.2,37.6,0.6c-0.4,2.5,1.2,4.8,2.3,7.1c1,2.3,1.3,5.5-0.9,6.8c-1.1,0.7-2.7,0.5-4,0.7
		c-4.9,0.9-6.9,6.8-6.5,11.7c0.4,5,2.4,9.7,1.4,14.6c-0.7,3.5-2.8,6.7-3.1,10.2c-0.8,6.6,4.5,12.2,8.4,17.6c4,5.3,6.7,13.5,1.9,18.1
		c-1.8,1.7-4.5,2.6-6.2,4.5c-4.4,5,0.2,13.7-3.7,19c-3.3,4.5-10.4,3.5-15.4,0.8c-4.9-2.7-9.5-6.7-15.1-6.9
		c-2.5,4.7-6.4,8.5-11.2,10.7c1.5-0.3-0.4-2.5-2-2.6c-4.4-0.2-8.9-0.3-13.3-0.5C180.2,495.4,179,489.3,175.9,484.4z"/>
	<path clip-path="url(#XMLID_3_)" fill="#2CC07E" d="M644.8,428.5c2.2,3.6,4.4,7.5,4.8,11.7c0.4,4.3-1.8,9.1-5.9,10.3
		c-1.9,0.6-4,0.3-6,0.8c-7.9,2-7.7,13.3-5.7,21.2c2.6,0.8,5.2,1.5,7.7,2.2c0.9,8.2-5.8,16.4-14,17.3c-0.4,3.8-1.4,7.6-3.1,11.1
		c-3.6,0.6-7.5,1.2-11-0.1c-3.4-1.3-6.2-5.2-4.9-8.8c-4.7,8.8-19.8,8.4-24.1-0.6c-11.6,4.6-24.3,6.8-36.8,6.3
		c1.8-8.8-14-11-16.1-19.6c-1.3-5.5,4-10.7,9.5-11.9c5.5-1.1,11.3,0.3,17,0.6c-1.8-5.4-2.1-11.3-1-16.9c-0.2-3.2-3.4-5.2-5.2-7.9
		c-1.7-2.7,0-7.8,3-6.5c-6.4-3.5-13.3-7.5-16.3-14.2c-3.1-6.7,0.2-16.5,7.4-17.3c-5.5-4.5-8.4-12-7.3-19c3.9-0.5,7.1-3.4,9.9-6.1
		c2.9-2.7,6.2-5.4,10.1-5.6c3.9-0.1,8,4,6.3,7.5c2.6,1.2,5.5,1.7,8.4,1.2c1-1.8,1.9-3.7,2.9-5.5c7.3,1,15.2-3.2,18.3-10
		c4,2.7,7.2,6.4,9.4,10.7c6.4,1.7,9.6-7.1,12.8-12.8c4.6-8.1,14.9-12.6,23.8-10.3c4.3,3.3,4.8,10.6,0.9,14.4
		c-3.5,3.5-10.6,6.2-8.6,10.9c0.8,1.7,2.6,2.7,3.7,4.1c6.4,7.7-8.4,22.1-0.3,28.1c5.5-4.6,15.2-4.9,19.3,1
		C657.9,420.8,651.6,431.1,644.8,428.5z"/>
	<path clip-path="url(#XMLID_3_)" fill="#2CC07E" d="M707.6,410.9c5.2-0.4,9.6,4.4,11.4,9.3c1.8,5,2,10.4,3.6,15.5
		c1.4,4.4,4.1,8.9,3.2,13.4c-1.2,6.6-8.7,9.7-15.2,11.6c5.4,7.1,11.5,13.5,18.1,19.6c-3.9,3.9-5.3,10.1-3.6,15.4
		c0.5,1.4,1.2,3,0.7,4.5c-0.4,1-1.4,1.8-2.4,2.5c-6.7,4.7-13.5,9.4-21.3,11.9c-7.7,2.5-16.8,2.6-23.7-1.8c0.9-0.8,1.8-1.5,2.7-2.3
		c-6.2,1.4-12.7,2.4-19,1.1c-6.3-1.2-12.3-5.1-14.9-10.8c-1.7-3.8-0.6-9.8,3.6-10c-4.6-3.9-5.6-11.4-2.4-16.4
		c3.2-5.1,10.4-7.2,15.9-4.6c-7.5-4.5-14.1-10.5-19.3-17.6c-2-2.8-3.8-5.8-4.2-9.2c-0.4-3.3,1-7.2,4-8.8c-0.5-3.8,0.2-7.7,2-11.2
		c6.4-2.4,13.4,2.7,20.1,1.6c9.1-1.4,14.8-13.4,23.9-12.5c0.7,3.2,2.4,6.3,4.7,8.6C698.7,416.2,702.3,411.2,707.6,410.9z"/>
	<path clip-path="url(#XMLID_3_)" fill="#2CC07E" d="M1024.5,481.3c-2.1,3.2-0.6,7.6-1.5,11.4c-1.6,6.7-9.8,9.3-16.8,9.3
		c-6.9,0.1-14.5-0.8-20,3.3c-2.4,1.8-5,4.6-7.7,3.5c-1.2-0.5-2.1-1.5-2.8-2.7c-3.7-6.5-2.7-14.8-5.8-21.7
		c-5.2-11.6-21.1-15.9-25.9-27.8c-5-12,3.4-25.4,2.4-38.3c3,5,11.8,4.2,13.9-1.1c1.8-4.5-0.8-10,1.5-14.2c5.9,3.1,13.9,0.9,17.6-4.8
		c1.8-2.8,2.6-6.2,4.7-8.7c2.2-2.5,6.9-3.3,8.4-0.4c4.5-2.8,6.1-8.5,9.7-12.4c3.6-3.9,12.1-3.9,12.4,1.3c3.4-4.8,6.9-9.5,10.4-14.3
		c1.9-2.7,4-5.4,7.1-6.5c6.6-2.3,13.3,7.5,8.7,12.8c2.1,0,4.3,0,6.4,0c2.2,8.6-0.9,18.3-7.6,24c-2.1,1.8-4.7,3.3-5.9,5.9
		c-4.4,9.3,13,17.7,9.7,27.5c-1,3.2-4.2,5.3-5.9,8.3c-3.4,5.9-0.5,13.4,1.8,19.8c2.3,6.5,3.3,15-2.2,19
		C1033.2,477.5,1027,477.1,1024.5,481.3z"/>
	<path clip-path="url(#XMLID_3_)" fill="#2CC07E" d="M1110.5,509.2c-5.8,3.3-9.2,11-15.8,12c-3.9,0.7-7.8-1.3-11.4-3.3
		c-7.1-3.9-14.3-8-19.2-14.4c-3.2-4.2-5.2-9.3-7.2-14.1c-2.7-6.9-5.3-13.6-8-20.5c-0.8-1.9-1.5-4-1.1-6c0.4-2.1,2-3.8,3-5.7
		c3.1-5.8,1-12.9,0.6-19.5s2.6-15,9.2-15.1c2.9,3.1,8.5,1.4,10.8-2.1c2.4-3.5,2.5-8,2.5-12.2c0-4.2,0.1-8.7,2.5-12.2
		c2.4,3.2,4.7,6.6,7.1,9.8c-0.3-3.1-0.6-6.2,0.4-9.2c1-3,3.6-5.5,6.7-5.4c5.2,0.1,7.2,6.4,8.1,11.4c1.7,11.1,3.5,22.1,5.2,33.1
		c1.3,8.4,2.7,17.2,0.5,25.4c-1.1,4.3-3.1,8.7-1.8,13c1.2,3.9,5.4,6.6,9.6,6.6c4.1,0,8.1-2.3,10.7-5.5c2.2,4.9,4.4,9.8,4.8,15.2
		c0.4,5.3-1.4,11.1-5.8,14C1118.3,506.8,1114,507.2,1110.5,509.2z"/>
	<path clip-path="url(#XMLID_3_)" fill="#2CC07E" d="M50,465.5c-1.8-9.6-3.5-19.3-3.9-29.1c-0.2-5.4,0.1-11.2,2.6-16
		c2.5-4.9,7.3-9,12.8-8.9c1.9,0,3.9,0.6,5.7,0.1c3.4-0.9,5.1-4.8,5.4-8.3c0.3-3.5-0.3-7.2,0.9-10.5c9.6-5.5,21.3-11.2,31.4-6.6
		c16,7.3,14.3,33.6,29.6,42.4c4.9,2.8,11.3,3.6,14.3,8.3c1.9,3,1.9,6.8,1.8,10.3c-0.5,13.5-2,27.1-4.7,40.3
		c-1.5,7.5-3.8,15.5-9.9,20.1c-4.8,3.6-11.1,4.4-16.6,6.9s-10.8,7.9-9.2,13.7c-12.9,0.1-28.4-3.1-33.2-15.2c-1-2.4-1.3-4.9-2.3-7.2
		c-3.6-9.3-13.9-14.3-19.2-22.9C52.3,477.7,51,471.5,50,465.5z"/>
	<path clip-path="url(#XMLID_3_)" fill="#2CC07E" d="M1247.7,482.1c-4.5,2.9-10.2,2.5-15.5,2.8c-5.3,0.3-11.4,2.1-13.4,7
		c-3.4,8.3,6.9,19.6,0.4,25.8c-9.7,0-16.6-9.5-25.8-12.8c-8-2.9-17-0.5-25.5-1.7c-8.5-1.2-17.4-9.6-13.4-17.3
		c-8.1-3.8-13.4-12.9-13-21.7c-8.3-2.1-11.6-13.2-8.3-21.1c3.2-7.9,10.9-13.2,18.3-17.5c3.7-6-5.9-14.8-1.3-20.2
		c1-1.2,2.7-1.9,4.1-2.8c5.1-3.1,7.5-9.1,11.4-13.7s11.2-7.7,15.5-3.6c1.4-5.3,6.9-8.9,12.3-9.4c5.4-0.6,11,1.2,15.9,3.6
		c7.1-3.3,11.5-11.4,10.8-19.1c10.1-1.2,20.4,7.3,20.8,17.6c0.1,2.7-0.3,5.4,0.9,7.8c1.4,3.1,5,4.5,7.5,6.7c5,4.3,6.2,12.3,2.6,17.8
		c-1,1.6-2.5,3.1-3.3,4.9c-2.9,6.2,2.7,12.8,5.6,18.9c4.3,9.1,3.1,19.6,1.8,29.5C1255.1,470.5,1253.7,478.4,1247.7,482.1z"/>
	<rect x="86.8" y="504" clip-path="url(#XMLID_3_)" fill="#2CC07E" width="11.5" height="51"/>
	<rect x="194.1" y="491.9" clip-path="url(#XMLID_3_)" fill="#2CC07E" width="11.5" height="51"/>
	<rect x="350.7" y="495.9" clip-path="url(#XMLID_3_)" fill="#2CC07E" width="11.5" height="51"/>
	<rect x="458.9" y="495.4" clip-path="url(#XMLID_3_)" fill="#2CC07E" width="11.5" height="51"/>
	<rect x="586.1" y="492.2" clip-path="url(#XMLID_3_)" fill="#2CC07E" width="11.5" height="51"/>
	<rect x="679.3" y="498.1" clip-path="url(#XMLID_3_)" fill="#2CC07E" width="11.5" height="51"/>
	<rect x="983.5" y="495.4" clip-path="url(#XMLID_3_)" fill="#2CC07E" width="11.5" height="51"/>
	<rect x="1087.7" y="498.1" clip-path="url(#XMLID_3_)" fill="#2CC07E" width="11.5" height="51"/>
	<rect x="1188.8" y="498.1" clip-path="url(#XMLID_3_)" fill="#2CC07E" width="11.5" height="51"/>
	<g id="Calque_5" clip-path="url(#XMLID_3_)">
		<g>
			<circle fill="#FFFFFF" cx="750.9" cy="511.8" r="9.2"/>
			<path fill="#FFFFFF" d="M772.4,565.4c-0.5-0.7-1.2-1-2-1.3l-16-4.2l5.2-21.9l3.3,9.6c0.4,1,1.1,1.8,2.1,2.3l17.2,7.2
				c0.5,0.2,1,0.3,1.4,0.3c1.5,0,3-0.9,3.5-2.4c0.8-1.9-0.1-4.2-2.1-5l-15.5-6.5l-5.5-15.8c-0.5-1.3-1.6-2.3-3.1-2.5l-23.2-3.5
				c-1-0.1-1.9,0.1-2.7,0.6l-14.6,9.4c-0.7,0.4-1.1,1-1.4,1.7l-7.9,18.7c-0.9,1.9,0.1,4.2,2,5c1.9,0.9,4.2-0.1,5-2l7.4-17.6l9.9-6.4
				l-7,29.8c-0.4,1-0.3,2,0.2,3l9.7,19.5l-3.1,23.7c-0.3,2.1,1.2,4,3.2,4.3c0.2,0,0.4,0,0.5,0c1.9,0,3.5-1.4,3.8-3.3l3.2-24.8
				c0.1-0.8,0-1.5-0.4-2.2l-8.5-17l11,2.6l18.8,5l13.6,17c0.8,1,1.8,1.4,3,1.4c0.9,0,1.7-0.3,2.4-0.9c1.6-1.3,1.9-3.7,0.6-5.3
				L772.4,565.4z"/>
			<circle fill="#FFFFFF" cx="795.4" cy="574.4" r="9.1"/>
		</g>
	</g>
	<g id="Calque_8" clip-path="url(#XMLID_3_)">
		<g>
			<circle fill="#FFFFFF" cx="356.5" cy="770" r="9.2"/>
			<path fill="#FFFFFF" d="M388,805.8c-0.6-2-2.8-3.1-4.8-2.6l-16.3,4.9l-5.2-19.6c-0.3-1-0.9-1.8-1.7-2.3l-32.8-19.6
				c-1.2-0.8-2.8-0.7-4,0l-18.9,11.8c-1.8,1.1-2.3,3.4-1.2,5.2c1.1,1.8,3.4,2.3,5.2,1.2l16.9-10.6l10,6l-22.4,30.1l0,0l-11.3,14.6
				l-24.9,7.8c-2,0.7-3.1,2.8-2.5,4.8c0.5,1.6,2,2.7,3.6,2.7c0.4,0,0.8-0.1,1.1-0.2l26-8.1c0.8-0.2,1.4-0.7,1.9-1.3l12.1-15.6
				l10.5,7.9c0.1,0.1,0.2,0.2,0.3,0.2l1.7,1.2l1.2,1l0,0l14.3,10.4l5.8,23.2c0.5,1.7,2,2.9,3.7,2.9c0.3,0,0.6,0,1-0.1
				c2-0.5,3.2-2.6,2.8-4.6l-6.1-24.6c-0.2-0.9-0.8-1.6-1.4-2.2l-15.3-11.2l18.3-24.4l5.1,19.1c0.3,1,1,1.8,1.8,2.4
				c0.6,0.3,1.2,0.5,1.9,0.5c0.4,0,0.8-0.1,1.1-0.2l20.1-6C387.5,810,388.6,807.9,388,805.8z"/>
		</g>
	</g>
	<g id="Calque_10" clip-path="url(#XMLID_3_)">
		<g>
			<circle fill="#FFFFFF" cx="485.2" cy="943.7" r="9.2"/>
			<path fill="#FFFFFF" d="M519.8,989.6l-7.7-17.1c-0.3-0.6-0.6-1-1-1.4l-16.7-13.5c-0.4-0.3-0.8-0.5-1.1-0.7l-18-6.1l-11.8-19.2
				l-2-21.4c-0.2-2.1-2.1-3.6-4.2-3.4c-2.1,0.2-3.6,2.1-3.4,4.2l2.1,22.3c0.1,0.6,0.3,1.1,0.6,1.6l13,21.2c0.1,0.2,0.2,0.3,0.3,0.4
				l0,0c1.4,6.6,2.8,20.3,2.8,23.7c-0.1,1.5-1.2,6.5-2.7,11l-7.8,18.1l-0.6,1l-12.3-2.2c-2.1-0.4-4.1,1-4.4,3.1
				c-0.4,2.1,1,4,3.1,4.4l9.8,1.7l-6.7,12.5c-1,1.8-0.3,4.2,1.5,5.2c0.6,0.3,1.2,0.5,1.8,0.5c1.3,0,2.7-0.8,3.3-2l7.9-14.7l9.1,1.6
				c0.2,0,0.5,0.1,0.7,0.1c1.1,0,2.2-0.5,3-1.4l14-17.4c0.2-0.3,0.4-0.5,0.5-0.8l0,0c0-0.1,0-0.1,0.1-0.2c0.1-0.2,0.1-0.4,0.2-0.6
				c1.4-4.5,4.3-13.9,4.3-19.9c0-2.5-0.2-6.8-0.5-10.8l8.9,7.2l7.3,16.2c0.7,1.4,2,2.3,3.4,2.3c0.6,0,1-0.1,1.5-0.4
				C519.8,993.7,520.6,991.5,519.8,989.6z M473.6,1012.4l-4.5-0.8l7.1-16.3l8.9,3L473.6,1012.4z"/>
			<circle fill="#ED1C24" cx="473.8" cy="912.8" r="9.1"/>
		</g>
	</g>
	<g clip-path="url(#XMLID_3_)">
		<g>
			<line fill="none" stroke="#FFFFFF" stroke-width="6" stroke-miterlimit="10" x1="-329.5" y1="680" x2="-321.5" y2="680"/>
			
				<line fill="none" stroke="#FFFFFF" stroke-width="6" stroke-miterlimit="10" stroke-dasharray="15,15" x1="-306.5" y1="680" x2="1325.5" y2="680"/>
			<line fill="none" stroke="#FFFFFF" stroke-width="6" stroke-miterlimit="10" x1="1333.5" y1="680" x2="1340.5" y2="680"/>
		</g>
	</g>
	<g clip-path="url(#XMLID_3_)">
		<g>
			<line fill="none" stroke="#FF0000" stroke-width="6" stroke-miterlimit="10" x1="-314.5" y1="680" x2="-306.5" y2="680"/>
			
				<line fill="none" stroke="#FF0000" stroke-width="6" stroke-miterlimit="10" stroke-dasharray="15,15" x1="-291.5" y1="680" x2="1340.5" y2="680"/>
			<line fill="none" stroke="#FF0000" stroke-width="6" stroke-miterlimit="10" x1="1347.5" y1="680" x2="1355.5" y2="680"/>
		</g>
	</g>
	<g id="Calque_7" clip-path="url(#XMLID_3_)">
		<g>
			<circle fill="#FFFFFF" cx="1003.5" cy="689.3" r="9.2"/>
			<path fill="#FFFFFF" d="M1028.2,741.3c1.5,0,3.1-1,3.6-2.5c0.8-2-0.3-4.2-2.3-4.9l-15.9-5.9l-0.2-18.9c0-1.4-0.9-2.7-2.1-3.3
				l-20.9-10.7c-0.6-0.3-1.2-0.5-1.9-0.4l-18.2,1c-1,0.1-2,0.5-2.7,1.3l-12,13.8c-1.4,1.6-1.2,4,0.4,5.3c1.6,1.4,4,1.2,5.3-0.4
				l11-12.6l13.7-0.8l-16.2,27.4v0.1l0,0l0,0c-0.3,0.7-0.5,1.4-0.4,2.2l2.7,20.9L955,773.6c-1.3,1.6-1.1,4,0.5,5.3
				c0.7,0.6,1.6,0.9,2.4,0.9c1.1,0,2.2-0.5,3-1.3l18.1-21.9c0.7-0.9,1-1.9,0.9-3l-2.4-18.3l8.4,5l12.2,15.8l0.6,21.7
				c0.1,2.1,1.7,3.7,3.8,3.7h0.1c2.1-0.1,3.8-1.8,3.7-3.9l-0.6-23c0-0.9-0.3-1.6-0.8-2.2l-11.2-14.5l12.1-20.3l0.2,13
				c0,1.6,1,3,2.5,3.5l18.4,6.9C1027.3,741.2,1027.7,741.3,1028.2,741.3z"/>
			<circle fill="#E64925" cx="1026.9" cy="754" r="9.1"/>
		</g>
	</g>
</g>
</svg>
