<svg id="Calque_1" data-name="Calque 1" xmlns="http://www.w3.org/2000/svg" viewBox="0 0 106 60"><defs><style>.cls-1{fill:#2a4f7e;}.cls-2{fill:none;}</style></defs><title>illus-fond-avion_3</title><g id="Calque_2" data-name="Calque 2"><path class="cls-1" d="M257,168.8a10.72,10.72,0,0,1,2.2-1c4-.7,3.3-0.9,6,2,3.6,3.7,7.2,7.4,10.8,11.2a1.6,1.6,0,0,0,1.6.5c15.5-2.5,31-4.9,46.5-7.3a84.42,84.42,0,0,1,10-.9c1.5,0,3.1.7,4.6,1,2.1,0.5,4.3.9,6.4,1.6a8,8,0,0,1,3.3,2.2c1.6,1.6,1.3,3.5-.4,5a11.51,11.51,0,0,1-5.5,2.5c-4.3.8-8.6,1.5-12.9,2.2l-12.9,2.1a6.79,6.79,0,0,0-2,.7c-6.9,3.6-13.8,7.3-20.8,10.9a7.86,7.86,0,0,1-2.6.8c-1.7.3-3.5,0.6-5.2,0.8-1.2.2-1.9-.1-2.2-0.9s-0.1-1.6.8-2.4c2.6-2.2,5.2-4.4,8-6.7h-1c-10.1,0-20.3,0-30.4-.1h-0.6a2.19,2.19,0,0,1-2.2-2,2.16,2.16,0,0,1,1.9-2.3,7.84,7.84,0,0,1,1.4-.2,5.9,5.9,0,0,1,1.4-.2l-0.3-.9c-1.9-5.2-3.9-10.5-5.8-15.7-0.2-.6-0.3-1.2-0.5-1.7C256.8,169.5,256.9,169.1,257,168.8Z" transform="translate(-248 -149.6)"/></g><rect id="_Tranche_" data-name="&lt;Tranche&gt;" class="cls-2" width="106" height="60"/></svg>