<svg id="Calque_1" data-name="Calque 1" xmlns="http://www.w3.org/2000/svg" viewBox="0 0 102 81.37"><defs><style>.cls-1{fill:#fff;}.cls-2{fill:#003e7b;}</style></defs><title>illu_1e_page_nageur_solo</title><g id="Calque_6" data-name="Calque 6"><circle class="cls-1" cx="72" cy="30.97" r="9.6"/><path class="cls-1" d="M433.3,475.5V457.4l21.9-8.3a4,4,0,1,0-2.9-7.5l-24.5,9.3a4,4,0,0,0-2.6,3.7v22.6l-20.5,17.2,19,9.2,16.8-7.1,1.5,1.7c0.8,0.9,2.1.5,3.2,0.5a3.33,3.33,0,0,0,2.3-1.1c1.7-1.4,2-2.9.6-4.6Z" transform="translate(-376.4 -441.33)"/><path class="cls-2" d="M474.4,522.7a22.12,22.12,0,0,1-14-4.7c-2.7-1.8-4.9-3.3-9.5-3.3s-6.8,1.5-9.5,3.3c-3.1,2.1-6.9,4.7-14,4.7a22.12,22.12,0,0,1-14-4.7c-2.7-1.8-4.9-3.3-9.5-3.3s-6.8,1.5-9.5,3.3c-3.1,2.1-6.9,4.7-14,4.7a4,4,0,0,1,0-8c4.7,0,6.8-1.5,9.5-3.3,3.1-2.1,6.9-4.7,14-4.7a22.12,22.12,0,0,1,14,4.7c2.7,1.8,4.9,3.3,9.5,3.3s6.8-1.5,9.5-3.3c3.1-2.1,6.9-4.7,14-4.7a22.12,22.12,0,0,1,14,4.7c2.7,1.8,4.9,3.3,9.5,3.3A4,4,0,0,1,474.4,522.7Z" transform="translate(-376.4 -441.33)"/><path class="cls-2" d="M474.4,506.1a22.12,22.12,0,0,1-14-4.7c-2.7-1.8-4.9-3.3-9.5-3.3s-6.8,1.5-9.5,3.3c-3.1,2.1-6.9,4.7-14,4.7a22.12,22.12,0,0,1-14-4.7c-2.7-1.8-4.9-3.3-9.5-3.3s-6.8,1.5-9.5,3.3c-3.1,2.1-6.9,4.7-14,4.7a4,4,0,0,1,0-8c4.7,0,6.8-1.5,9.5-3.3,3.1-2.1,6.9-4.7,14-4.7a22.12,22.12,0,0,1,14,4.7c2.7,1.8,4.9,3.3,9.5,3.3s6.8-1.5,9.5-3.3c3.1-2.1,6.9-4.7,14-4.7a22.12,22.12,0,0,1,14,4.7c2.7,1.8,4.9,3.3,9.5,3.3A4,4,0,0,1,474.4,506.1Z" transform="translate(-376.4 -441.33)"/></g></svg>