<?xml version="1.0" encoding="utf-8"?>
<!-- Generator: Adobe Illustrator 18.0.0, SVG Export Plug-In . SVG Version: 6.00 Build 0)  -->
<!DOCTYPE svg PUBLIC "-//W3C//DTD SVG 1.1//EN" "http://www.w3.org/Graphics/SVG/1.1/DTD/svg11.dtd">
<svg version="1.1" xmlns="http://www.w3.org/2000/svg" xmlns:xlink="http://www.w3.org/1999/xlink" x="0px" y="0px"
	 viewBox="0 0 171 226.2" enable-background="new 0 0 171 226.2" xml:space="preserve">
<g id="Layer_1">
	<rect x="-16.4" y="-9.7" fill="#414141" width="202.6" height="239"/>
</g>
<g id="Layer_2">
	<path fill="#FFFFFF" d="M84.8,163.8c6.5-4.3,13.9-10.1,22.1-14.4c20.6-10.9,31.5-33.5,26.2-55.9c-5.4-22.8-25-38.2-48.3-38.2
		c-23.2,0-42.8,15.6-48.2,38.4c-5.3,22.4,5.7,45,26.3,55.8C71.1,153.8,78.5,159.6,84.8,163.8 M88.2,186.1
		c-14.3-12.4-26.9-23.9-40.1-34.5c-26.9-21.6-30.4-61.3-7.2-86.9c23-25.4,63.4-25.8,87.2-1c23.8,24.9,22.1,66.1-5.6,86.5
		C107.7,161.2,91.5,169.4,88.2,186.1"/>
	<rect x="25.5" y="45.4" fill="none" width="119.1" height="140.7"/>
	<path fill="none" stroke="#FFFFFF" stroke-miterlimit="10" d="M67.7,110.8l8.4,8.4l27-27 M96.3,137.3H74.7
		c-7.6,0-13.9-6.2-13.9-13.9V84.6c0-7.6,6.2-13.9,13.9-13.9h21.6c7.6,0,13.9,6.2,13.9,13.9v38.8C110.2,131.1,104,137.3,96.3,137.3z"
		/>
</g>
</svg>
