<?xml version="1.0" encoding="utf-8"?>
<!-- Generator: Adobe Illustrator 18.0.0, SVG Export Plug-In . SVG Version: 6.00 Build 0)  -->
<!DOCTYPE svg PUBLIC "-//W3C//DTD SVG 1.1//EN" "http://www.w3.org/Graphics/SVG/1.1/DTD/svg11.dtd">
<svg version="1.1" xmlns="http://www.w3.org/2000/svg" xmlns:xlink="http://www.w3.org/1999/xlink" x="0px" y="0px"
	 viewBox="0 0 171 226.2" enable-background="new 0 0 171 226.2" xml:space="preserve">
<g id="Layer_1">
	<rect x="-16.4" y="-9.7" fill="#414141" width="202.6" height="239"/>
</g>
<g id="Layer_2">
	<path fill="#FFFFFF" d="M84.8,163.8c6.5-4.3,13.9-10.1,22.1-14.4c20.6-10.9,31.5-33.5,26.2-55.9c-5.4-22.8-25-38.2-48.3-38.2
		c-23.2,0-42.8,15.6-48.2,38.4c-5.3,22.4,5.7,45,26.3,55.8C71.1,153.8,78.5,159.6,84.8,163.8 M88.2,186.1
		c-14.3-12.4-26.9-23.9-40.1-34.5c-26.9-21.6-30.4-61.3-7.2-86.9c23-25.4,63.4-25.8,87.2-1c23.8,24.9,22.1,66.1-5.6,86.5
		C107.7,161.2,91.5,169.4,88.2,186.1"/>
	<rect x="25.5" y="45.4" fill="none" width="119.1" height="140.7"/>
	<rect x="54.8" y="102.2" fill="#FFFFFF" width="15.4" height="7.2"/>
	<polygon fill="#FFFFFF" points="78.9,96.4 73.9,97.6 72.6,92.5 80.8,90 85.1,90 85.1,118.9 78.9,118.9 	"/>
	<path fill="#FFFFFF" d="M105.9,98.5L105.9,98.5c0-1.8-1.5-3.4-4.1-3.4c-2.6,0-4.1,1.6-4.1,3.3v0.1c0,2,1.6,3.5,4.1,3.5
		C104.3,101.9,105.9,100.5,105.9,98.5 M106.8,110.6L106.8,110.6c0-2.3-2.1-3.6-5-3.6c-2.9,0-5,1.3-5,3.5v0.1c0,2,1.8,3.6,5,3.6
		C104.9,114.1,106.8,112.6,106.8,110.6 M90.7,111L90.7,111c0-3.6,1.6-5.6,4.6-7c-2.2-1.4-3.7-3.2-3.7-6.3v-0.1c0-4.4,4-7.9,10.1-7.9
		c6.1,0,10.1,3.4,10.1,7.9v0.1c0,3.1-1.4,4.9-3.6,6.3c2.9,1.5,4.6,3.4,4.6,6.8v0.1c0,5.3-4.7,8.4-11.1,8.4
		C95.5,119.3,90.7,116,90.7,111"/>
</g>
</svg>
