<?xml version="1.0" encoding="utf-8"?>
<!-- Generator: Adobe Illustrator 18.0.0, SVG Export Plug-In . SVG Version: 6.00 Build 0)  -->
<!DOCTYPE svg PUBLIC "-//W3C//DTD SVG 1.1//EN" "http://www.w3.org/Graphics/SVG/1.1/DTD/svg11.dtd">
<svg version="1.1" xmlns="http://www.w3.org/2000/svg" xmlns:xlink="http://www.w3.org/1999/xlink" x="0px" y="0px"
	 viewBox="0 0 171 226.2" enable-background="new 0 0 171 226.2" xml:space="preserve">
<g id="Layer_1">
	<rect x="-16.4" y="-9.7" fill="#414141" width="202.6" height="239"/>
</g>
<g id="Layer_2">
	<g>
		<defs>
			<rect id="SVGID_11_" x="25.5" y="45.4" width="119.1" height="140.7"/>
		</defs>
		<clipPath id="SVGID_2_">
			<use xlink:href="#SVGID_11_"  overflow="visible"/>
		</clipPath>
		<path clip-path="url(#SVGID_2_)" fill="#FFFFFF" d="M84.8,163.8c6.5-4.3,13.9-10.1,22.1-14.4c20.6-10.9,31.5-33.5,26.2-55.9
			c-5.4-22.8-25-38.2-48.3-38.2c-23.2,0-42.8,15.6-48.2,38.4c-5.3,22.4,5.7,45,26.3,55.8C71.1,153.8,78.5,159.6,84.8,163.8
			 M88.2,186.1c-14.3-12.4-26.9-23.9-40.1-34.5c-26.9-21.6-30.4-61.3-7.2-86.9c23-25.4,63.4-25.8,87.2-1
			c23.8,24.9,22.1,66.1-5.6,86.5C107.7,161.2,91.5,169.4,88.2,186.1"/>
		<path clip-path="url(#SVGID_2_)" fill="#FFFFFF" d="M97.8,117.3h-9.6c0,3.7,0,7.1,0,10.6c0,5.9,0,11.8,0,17.7c0,2.1-1,3.7-3,3.7
			c-2,0-3-1.6-3-3.7c0-8,0-16,0-24c0-1.3,0-2.5,0-4.2h-9.9c1.7-3.7,3.3-6.7,4.5-9.9c0.9-2.5,1.6-5.2,1.7-7.8
			c0.3-5,0.1-10.1,0.1-15.1c0-3.7,1-4.7,4.7-4.7c8.8-0.2,8.8-0.2,8.8,8.7c0,0.2,0,0.4,0,0.6c-0.9,9.1,0.5,17.7,5.1,25.8
			C97.4,115.6,97.5,116.3,97.8,117.3"/>
		<path clip-path="url(#SVGID_2_)" fill="#FFFFFF" d="M91.7,70.5c0.1,3.3-2.7,6.2-6.1,6.3c-3.4,0.1-6.3-2.6-6.4-5.9
			c-0.2-3.5,2.7-6.5,6.2-6.5C88.7,64.4,91.6,67.2,91.7,70.5"/>
	</g>
</g>
</svg>
