<?xml version="1.0" encoding="utf-8"?>
<!-- Generator: Adobe Illustrator 19.1.0, SVG Export Plug-In . SVG Version: 6.00 Build 0)  -->
<svg version="1.1" id="Calque_1" xmlns="http://www.w3.org/2000/svg" xmlns:xlink="http://www.w3.org/1999/xlink" x="0px" y="0px"
	 viewBox="0 0 30 30" style="enable-background:new 0 0 30 30;" xml:space="preserve" fill="white">
<g>
	<path d="M2,17.6c0-1.1,0-2.1,0-3.1c2.5,0,5,0,7.6,0c0.3-1.1,0.7-2.3,1-3.4c0.2-0.8,0.5-1.6,0.7-2.4c0.5-1.5,1.9-2.1,3.3-1.5
		c1.8,0.7,3.6,1.4,5.4,2c0.1,0,0.3,0,0.3-0.1c0.9-0.9,1.8-1.7,2.6-2.6c-0.5-0.9-0.2-1.7,0.5-2.3c0.6-0.6,1.2-1.2,1.9-1.8
		c0.8-0.7,1.8-0.7,2.4,0c0.5,0.6,0.6,1.5,0,2.1c-0.8,0.8-1.6,1.6-2.4,2.4c-0.4,0.4-1,0.5-1.5,0.3c-0.1,0-0.3,0-0.4,0
		c-0.8,0.8-1.7,1.7-2.5,2.5c0.3,0.4,0.4,0.9,0.1,1.4c-0.3,0.4-0.8,0.5-1.4,0.3c-0.1,0-0.3-0.1-0.4,0c-1,1-2,2-3.1,3.1
		c0.2,0,0.4,0,0.5,0c3.4,0,6.8,0,10.2,0c0.1,0,0.2,0,0.3,0c0.2,0.1,0.6,0.1,0.7,0.3c0.2,0.3-0.1,0.6-0.4,0.7
		c-0.8,0.5-1.6,0.9-2.4,1.3c-0.2,0.1-0.4,0.1-0.6,0.1c-0.7,0-1.4,0.1-2,0.4c-0.8,0.4-1.7,0.4-2.5,0c-1.3-0.6-2.6-0.6-3.9,0
		c-0.9,0.4-1.7,0.4-2.6,0c-1.3-0.5-2.5-0.6-3.8,0c-0.9,0.4-1.8,0.4-2.7,0c-1.2-0.5-2.4-0.5-3.7,0C2.9,17.3,2.5,17.4,2,17.6z
		 M14.4,14.4c0.4,0.1,0.7,0,1-0.3c0.9-1,1.9-1.9,2.9-2.9c0.1-0.1,0.2-0.2,0.3-0.3c-1-0.4-1.9-0.7-2.8-1
		C15.3,11.4,14.8,12.9,14.4,14.4z"/>
	<path d="M27.7,19.1c0,0.7,0,1.4,0,2.3c-0.4-0.1-0.7-0.1-1.1-0.2c-0.4-0.1-0.7-0.3-1.1-0.4c-0.8-0.2-1.7-0.2-2.5,0.1
		c-1.2,0.5-2.4,0.5-3.6,0c-1-0.4-2-0.4-2.9,0c-1.2,0.5-2.3,0.5-3.5,0c-1-0.4-2-0.4-3,0c-0.5,0.2-1,0.5-1.3,0.9
		c-0.6,0.6-1.2,1.2-1.8,1.8c-0.1,0.1-0.2,0.3-0.1,0.5c0.2,0.6,0.1,1.1-0.3,1.6c-0.8,0.8-1.6,1.6-2.4,2.4c-0.6,0.6-1.6,0.5-2.2-0.1
		c-0.6-0.6-0.7-1.5-0.1-2.2c0.8-0.8,1.6-1.6,2.4-2.4c0.5-0.5,1.1-0.5,1.7-0.3c0.1,0,0.2,0.1,0.3,0C6.9,22.6,7.5,22,8,21.4
		C7.5,21.2,7,21,6.4,20.9c-0.9-0.3-1.8-0.3-2.7,0.1c-0.6,0.2-1.1,0.4-1.8,0.4c0-0.8,0-1.5,0-2.2c0.8-0.2,1.5-0.5,2.2-0.7
		c0.8-0.2,1.6-0.2,2.4,0.1c1.2,0.5,2.4,0.5,3.7,0c0.9-0.4,1.9-0.4,2.8,0c1.2,0.5,2.4,0.5,3.6,0c0.9-0.4,1.9-0.4,2.9,0
		c1.2,0.5,2.3,0.5,3.5,0c1-0.4,1.9-0.4,2.9,0C26.4,18.8,27,18.9,27.7,19.1z"/>
	<path d="M17.3,3.5c-0.7,0-1.4,0-2.1,0c-0.4,0-0.7,0.2-0.8,0.5c-0.1,0.1-0.1,0.3-0.2,0.4c-0.1,0.3-0.3,0.4-0.6,0.4
		c-0.4,0-0.8,0-1.2,0c-0.1,0-0.3-0.1-0.3-0.2c-0.3-1.3,0.6-2.7,1.9-3.1c1.3-0.4,2.8,0.4,3.2,1.7C17.3,3.3,17.3,3.4,17.3,3.5z"/>
	<path d="M16.9,4.1c0.1,1-0.5,1.8-1.4,2.2c-0.9,0.3-1.9,0-2.5-0.8c0.2,0,0.3,0,0.4,0c0.7,0.1,1.2-0.3,1.4-0.9C15,4.2,15.2,4,15.6,4
		C16,4.1,16.5,4.1,16.9,4.1z"/>
</g>
</svg>
