<?xml version="1.0" encoding="utf-8"?>
<!-- Generator: Adobe Illustrator 19.1.0, SVG Export Plug-In . SVG Version: 6.00 Build 0)  -->
<svg version="1.1" id="Calque_1" xmlns="http://www.w3.org/2000/svg" xmlns:xlink="http://www.w3.org/1999/xlink" x="0px" y="0px"
	 viewBox="0 0 30 30" style="enable-background:new 0 0 30 30;" xml:space="preserve" fill="white">
<path d="M14.9,13.4c-1.4,0-2.9,0-4.3,0c0,0.2,0,0.3,0,0.4c0,2,0,3.9,0,5.9c0,0.7-0.5,1.3-1.2,1.4c-0.7,0.1-1.4-0.2-1.6-0.9
	c-0.1-0.3-0.1-0.5-0.1-0.8c0-1.9,0-3.7,0-5.6c0-0.1,0-0.3,0-0.4c-1.8,0-3.6,0-5.4,0c0-0.3,0-0.6,0-0.9c1.8,0,3.6,0,5.4,0
	c0-0.8,0-1.6,0-2.4c0-0.5,0.1-0.8,0.5-1.2c1.2-1.1,2.3-2.3,3.5-3.4c0.6-0.6,1.1-0.7,1.9-0.3c0.3,0.2,0.6,0.4,0.8,0.6
	c0.7,0.7,1.4,1.4,2.1,2C16.6,8,16.8,8,17,8.1c0.8,0,1.6,0,2.4,0c0.1,0,0.3-0.1,0.4-0.2c2-2,4-4,6-6c0.1-0.1,0.1-0.2,0.2-0.2
	c0.1-0.1,0.3-0.2,0.4-0.1c0.1,0.1,0.2,0.3,0.2,0.4c0,0.1,0,0.1,0,0.2c0,6.9,0,13.8,0,20.7c0,0.1,0,0.2,0,0.4c-0.2,0-0.4,0-0.7,0
	c0-6.8,0-13.7,0-20.6c-0.2,0.1-0.2,0.2-0.3,0.3c-1.8,1.8-3.6,3.6-5.4,5.4C20.1,8.5,20,8.7,20,8.8c0,0.5-0.3,0.9-0.8,0.9
	c-1,0-2,0-3,0c-0.2,0-0.5-0.2-0.6-0.3c-0.5-0.4-0.9-0.9-1.4-1.4c-0.4,0.4-0.9,0.9-1.3,1.3c-0.6,0.6-1.2,1.3-1.9,1.9
	c-0.4,0.3-0.5,0.7-0.4,1.2c2.2,0,4.5,0,6.8,0c0,0.3,0,0.6,0,0.9c-0.5,0-1,0-1.5,0c0,3.3,0,6.6,0,9.9c-4.5,0-9,0-13.6,0
	c0-0.5,0-1,0-1.5c4.2,0,8.4,0,12.6,0C14.9,19,14.9,16.2,14.9,13.4z"/>
<path d="M2.2,28.5c0-0.9,0-1.6,0-2.3c0.9-0.3,1.7-0.5,2.5-0.7c0.7-0.2,1.4-0.1,2,0.2c1.2,0.6,2.4,0.5,3.7,0c0.9-0.4,1.9-0.4,2.8,0
	c1.2,0.5,2.4,0.5,3.6,0c0.9-0.4,1.9-0.4,2.8,0c1.2,0.5,2.4,0.5,3.6,0c0.9-0.4,1.9-0.4,2.9,0c0.6,0.2,1.1,0.3,1.7,0.5
	c0,0.7,0,1.5,0,2.3c-0.5-0.1-1-0.2-1.5-0.4c-1.1-0.5-2.2-0.5-3.3,0c-1,0.5-2.1,0.4-3.1,0c-1.1-0.5-2.2-0.5-3.3,0
	c-1,0.4-2.1,0.4-3.1,0c-1.1-0.5-2.2-0.5-3.3,0c-1,0.5-2.1,0.5-3.1,0c-1.1-0.5-2.2-0.5-3.3,0C3.3,28.2,2.8,28.3,2.2,28.5z"/>
<path d="M15.1,5.2c-1,0-1.8-0.8-1.8-1.8c0-1,0.8-1.8,1.8-1.8c1,0,1.8,0.8,1.8,1.8C16.9,4.4,16.1,5.2,15.1,5.2z"/>
</svg>
