<?xml version="1.0" encoding="utf-8"?>
<!-- Generator: Adobe Illustrator 19.1.0, SVG Export Plug-In . SVG Version: 6.00 Build 0)  -->
<svg version="1.1" id="Calque_1" xmlns="http://www.w3.org/2000/svg" xmlns:xlink="http://www.w3.org/1999/xlink" x="0px" y="0px"
	 viewBox="0 0 30 30" style="enable-background:new 0 0 30 30;" xml:space="preserve" fill="white">
<g>
	<path d="M16.3,25.3c2.3-0.3,5-2.3,5.9-5.1c-0.3-0.1-0.6-0.2-0.8-0.3c-0.9-0.3-1.1-1.3-0.4-1.9c1.2-1.2,2.5-2.3,3.8-3.5
		c0.3-0.3,0.7-0.4,1.1-0.3c0.4,0.1,0.6,0.5,0.7,0.9c0.3,1.7,0.5,3.3,0.8,5c0.2,1-0.6,1.6-1.5,1.3c-0.2-0.1-0.5-0.2-0.7-0.2
		c-2,4.8-5.5,7.6-10.8,7.4c-4.8-0.2-8-2.9-9.8-7.4c-0.2,0.1-0.5,0.2-0.7,0.2c-0.9,0.3-1.7-0.3-1.5-1.3c0.3-1.6,0.5-3.3,0.8-4.9
		c0.1-0.4,0.3-0.8,0.7-0.9c0.4-0.1,0.8,0,1.1,0.3c1.2,1.1,2.4,2.3,3.6,3.4C9.3,18.8,9.1,19.7,8,20c-0.2,0.1-0.5,0.2-0.7,0.2
		c0.6,2.2,3.1,4.7,6,5.1c0-0.1,0-0.2,0-0.4c0-5.4,0-10.7,0-16.1c0-0.3-0.1-0.4-0.3-0.5c-1.5-0.8-2.3-2.5-1.9-4.2
		c0.4-1.6,1.9-2.8,3.6-2.9c1.7,0,3.3,1.1,3.7,2.7c0.5,1.7-0.3,3.5-1.8,4.3c-0.2,0.1-0.3,0.3-0.3,0.5c0,5.4,0,10.7,0,16.1
		C16.3,25.1,16.3,25.2,16.3,25.3z M13.3,5.1c0,0.9,0.7,1.5,1.5,1.5c0.9,0,1.6-0.7,1.5-1.6c0-0.8-0.7-1.5-1.6-1.5
		C14,3.5,13.3,4.2,13.3,5.1z"/>
</g>
</svg>
