<?xml version="1.0" encoding="utf-8"?>
<!-- Generator: Adobe Illustrator 19.1.0, SVG Export Plug-In . SVG Version: 6.00 Build 0)  -->
<svg version="1.1" id="Calque_1" xmlns="http://www.w3.org/2000/svg" xmlns:xlink="http://www.w3.org/1999/xlink" x="0px" y="0px"
	 viewBox="0 0 30 30" style="enable-background:new 0 0 30 30;" xml:space="preserve" fill="white">
<g>
	<path d="M8.9,1.5c1.1,0.2,2,0.4,3,0.7c4,1.2,7.5,3.1,10.4,6.1c2,2.1,3.4,4.5,4,7.3c0.1,0.4,0.1,0.9,0.2,1.3
		c0.1,0.3-0.1,0.5-0.3,0.7c-2.6,1.6-5.2,3.3-7.7,4.9c-0.4,0.2-0.7,0.5-1.1,0.7C14.5,16,11.7,8.8,8.9,1.5z M18.5,12.4
		c-0.2,0-0.5,0-0.7,0c-0.9,0.1-1.8,0.3-2.7,0.4c-0.3,0-0.4,0.3-0.3,0.5c0.1,0.3,0.3,0.4,0.5,0.3c0.1,0,0.2,0,0.3,0
		c1.3-0.3,2.7-0.4,4.1-0.3c2.4,0.3,4.3,1.3,5.6,3.3c0.2,0.3,0.4,0.4,0.6,0.2c0.3-0.2,0.3-0.4,0.1-0.7c-0.6-1.1-1.4-2-2.5-2.7
		C21.9,12.7,20.2,12.4,18.5,12.4z"/>
	<path d="M27.4,26.2c0,0.7,0,1.5,0,2.3c-0.5-0.1-1.1-0.2-1.5-0.4c-1.1-0.5-2.1-0.5-3.2,0c-1,0.4-2,0.5-3,0c-1.1-0.5-2.2-0.5-3.3,0
		c-1,0.4-2,0.4-2.9,0c-1.1-0.5-2.2-0.5-3.4,0c-1,0.4-2,0.4-3,0c-1.1-0.5-2.2-0.5-3.3,0c-0.4,0.2-0.9,0.3-1.5,0.4c0-0.9,0-1.6,0-2.3
		c0.7-0.2,1.3-0.4,2-0.6c0.9-0.3,1.7-0.3,2.5,0.1c1.2,0.5,2.3,0.5,3.5,0c0.9-0.4,1.9-0.4,2.8,0c1.2,0.5,2.3,0.5,3.5,0
		c0.9-0.4,1.9-0.4,2.9,0c1.1,0.5,2.3,0.5,3.4,0c0.9-0.4,1.9-0.4,2.8,0C26.2,25.9,26.8,26,27.4,26.2z"/>
	<path d="M7.7,16.8c0.4,1,0.8,1.9,1.3,2.8c0,0.1,0.2,0.1,0.3,0.1c0.8,0,1.6,0,2.5,0c0.4,0,0.7,0.1,1,0.4c0.9,0.9,1.8,1.7,2.7,2.6
		c0.6,0.6,0.4,1.5-0.4,1.7c-0.4,0.1-0.7,0-1-0.3c-0.7-0.7-1.4-1.4-2.1-2.1c-0.2-0.2-0.4-0.3-0.7-0.3c-1.3,0-2.6,0-3.9,0
		c-0.8,0-1.3-0.3-1.6-1c-0.5-1.1-1-2.3-1.5-3.4c-0.4-1,0.3-2.2,1.4-2.2c1.1,0,2.2,0,3.3,0c0.2,0,0.3,0,0.5-0.1
		c0.7-0.3,1.4-0.6,2.1-0.9c0.4-0.2,0.9,0,1,0.3c0.2,0.4,0,0.8-0.4,1c-0.8,0.4-1.7,0.8-2.5,1.2c-0.2,0.1-0.4,0.1-0.6,0.1
		C8.7,16.8,8.2,16.8,7.7,16.8z"/>
	<path d="M3.5,13.3c0-0.8,0.7-1.5,1.5-1.5c0.8,0,1.5,0.7,1.5,1.5c0,0.9-0.7,1.5-1.5,1.5C4.1,14.9,3.5,14.2,3.5,13.3z"/>
</g>
</svg>
