<?xml version="1.0" encoding="utf-8"?>
<!-- Generator: Adobe Illustrator 19.1.0, SVG Export Plug-In . SVG Version: 6.00 Build 0)  -->
<svg version="1.1" id="Calque_1" xmlns="http://www.w3.org/2000/svg" xmlns:xlink="http://www.w3.org/1999/xlink" x="0px" y="0px"
	 viewBox="0 0 30 30" style="enable-background:new 0 0 30 30;" xml:space="preserve" fill="white">
<g>
	<path d="M23.7,19.2c-1,0.4-1.9,0.7-2.9,1.1c-0.3,0.1-0.6,0.4-0.8,0.7c-1,1.5-1.3,1.6-3,1.2c-1.9-0.5-3.9-0.5-5.8,0
		c-0.1,0-0.3,0.1-0.4,0.1c-0.9,0.3-1.6,0-2-0.8c-0.4-0.7-1-1.1-1.7-1.5c-0.9-0.4-1.7-1-2.5-1.6c-0.9-0.7-1.4-1.5-1.4-2.7
		c0-0.6-0.1-1.2,0-1.8c0.2-2.2,1.3-3.4,3.5-3.9c1.9-0.4,3.7-0.4,5.6,0c1.4,0.3,2.7,0.3,4.1,0c1.8-0.4,3.7-0.5,5.6-0.1
		c0.7,0.2,1.3,0.5,2,0.8c0-0.1,0-0.2,0-0.4c0-2.8,0-5.6,0-8.4c0-0.4,0.1-0.5,0.4-0.6c0.2,0,0.3-0.1,0.5-0.1c0.9,0,1,0.1,1,0.9
		c0,3.9,0,7.8,0,11.7c0,1.7,0,3.5,0,5.2c0,1.8,0,3.6-0.1,5.3c-0.1,1.9-1.4,3.4-3.1,3.9c-2.6,0.7-5-1.2-4.8-3.8
		c0.1-0.8,0.5-1.3,1.1-1.3c0.5,0,0.8,0.2,0.9,0.6c0.1,0.4,0.1,0.8,0.1,1.2c0.1,1.3,1.2,2,2.4,1.4c0.9-0.4,1.3-1.1,1.4-2
		c0.1-0.9,0-1.8,0-2.7c0-0.5,0-0.9,0-1.4C23.7,20,23.7,19.6,23.7,19.2z M9.4,11.1c-1.5,0-2.5,0.2-3.5,0.7c-0.6,0.3-1,0.8-1.1,1.5
		c-0.2,0.9-0.1,1.9,0.1,2.8c0.4,1.6,1.6,2.2,3,2.6c1.1,0.3,2-0.1,2.7-1c0.4-0.5,0.6-1,1-1.5c0.3-0.5,0.6-1.1,1.1-1.6
		c0.8-0.9,2.1-1,3-0.1c0.4,0.4,0.7,0.9,1,1.4c0.4,0.6,0.7,1.3,1.2,1.9c0.7,0.9,1.6,1.2,2.7,0.9c1.6-0.4,2.9-1.3,3.1-3
		c0.1-0.6,0.1-1.3,0.1-2c0-0.9-0.5-1.5-1.2-1.9c-0.7-0.4-1.5-0.6-2.3-0.7c-1.4-0.1-2.7,0.1-4,0.6c-1.3,0.4-2.6,0.4-4,0
		C11.2,11.4,10,11.3,9.4,11.1z"/>
</g>
</svg>
