<?xml version="1.0" encoding="utf-8"?>
<!-- Generator: Adobe Illustrator 19.1.0, SVG Export Plug-In . SVG Version: 6.00 Build 0)  -->
<svg version="1.1" id="Calque_1" xmlns="http://www.w3.org/2000/svg" xmlns:xlink="http://www.w3.org/1999/xlink" x="0px" y="0px"
	 viewBox="0 0 30 30" style="enable-background:new 0 0 30 30;" xml:space="preserve" fill="white">
<style type="text/css">
	.st0{stroke:#000000;stroke-width:0.5;stroke-miterlimit:10;}
</style>
<g>
	<path class="st0" d="M14.9,28.3c-7.3,0-13.3-5.9-13.3-13.3c0-7.3,6-13.2,13.4-13.2c7.2,0,13.2,6,13.2,13.2
		C28.1,22.3,22.2,28.3,14.9,28.3z M22.5,15c0-4.3-3.5-7.6-7.8-7.6c-4.1,0-7.5,3.5-7.4,7.8c0,4.1,3.5,7.5,7.7,7.4
		C19.1,22.6,22.5,19.1,22.5,15z M26.7,19.9c-1.5-0.6-2.9-1.2-4.4-1.8c-0.9,2-2.4,3.5-4.4,4.4c0.6,1.5,1.2,3,1.8,4.4
		C23,25.4,25.3,23.1,26.7,19.9z M11.8,22.4c-2-0.9-3.5-2.3-4.4-4.4C6,18.7,4.5,19.3,3,19.9c1.4,3.2,3.7,5.5,6.9,6.9
		C10.6,25.4,11.2,23.9,11.8,22.4z M19.8,3.2c-0.6,1.5-1.2,2.9-1.8,4.4c2,0.9,3.5,2.4,4.4,4.4c1.5-0.6,2.9-1.2,4.4-1.8
		C25.6,7.1,22.6,4.1,19.8,3.2z M10,3.1C6.7,4.6,4.4,6.9,3,10.1c1.5,0.6,3,1.2,4.4,1.8c0.9-2,2.3-3.5,4.3-4.4
		C11.2,6.1,10.6,4.6,10,3.1z"/>
	<path class="st0" d="M2.3,8.7c0.1-1,0-2.1,0.2-3.1C3,3.8,4.7,2.5,6.6,2.5c0.7,0,1.3,0,2.1,0C8.6,2.6,8.5,2.6,8.4,2.7
		C8.2,2.8,7.9,3,7.6,3.2C7.2,3.4,6.9,3.5,6.4,3.6C4.7,3.7,3.5,5,3.4,6.7c0,0.2-0.1,0.5-0.2,0.7C3,7.9,2.7,8.3,2.4,8.7
		C2.4,8.7,2.4,8.7,2.3,8.7z"/>
	<path class="st0" d="M21.2,2.4c1,0.1,2.1,0,3.1,0.2c1.8,0.4,3.1,2.1,3.1,4c0,0.7,0,1.4-0.1,2.1c-0.3-0.8-1-1.3-1-2.3
		c-0.1-1.7-1.5-2.9-3.2-2.9c-0.2,0-0.4-0.1-0.6-0.2c-0.5-0.2-0.9-0.5-1.3-0.8C21.1,2.5,21.2,2.5,21.2,2.4z"/>
	<path class="st0" d="M2.4,21.1c0.4,0.6,0.7,1.1,1,1.6c0.1,0.1,0.1,0.3,0.1,0.4c0,1.8,1.4,3.2,3.2,3.2c0.2,0,0.4,0.1,0.6,0.2
		c0.5,0.2,0.9,0.5,1.3,0.8c-1.4,0-2.7,0.3-4-0.5c-1.5-0.8-2.2-2.1-2.3-3.7C2.4,22.6,2.4,21.9,2.4,21.1z"/>
	<path class="st0" d="M21,27.5c0.6-0.4,1.1-0.7,1.7-1c0.3-0.1,0.6-0.1,0.9-0.1c1.5-0.2,2.6-1.5,2.7-3c0-0.4,0.1-0.7,0.3-1
		c0.3-0.4,0.5-0.8,0.7-1.2c0,1.2,0.2,2.4-0.3,3.6c-0.6,1.6-2.2,2.7-3.9,2.7C22.5,27.5,21.8,27.5,21,27.5z"/>
</g>
</svg>
