<?xml version="1.0" encoding="utf-8"?>
<!-- Generator: Adobe Illustrator 19.1.0, SVG Export Plug-In . SVG Version: 6.00 Build 0)  -->
<svg version="1.1" id="Calque_1" xmlns="http://www.w3.org/2000/svg" xmlns:xlink="http://www.w3.org/1999/xlink" x="0px" y="0px"
	 viewBox="0 0 30 30" style="enable-background:new 0 0 30 30;" xml:space="preserve" fill="white">
<path d="M1.6,28.4c0-0.9,0-1.7,0-2.4c0.9-0.3,1.8-0.5,2.6-0.8c0.7-0.2,1.4-0.1,2.1,0.2c1.3,0.6,2.5,0.6,3.8,0c1-0.4,1.9-0.4,2.9,0
	c1.3,0.5,2.5,0.5,3.7,0c1-0.4,2-0.4,2.9,0c1.3,0.5,2.5,0.6,3.7,0c1-0.4,2-0.4,3,0c0.6,0.2,1.2,0.3,1.8,0.5c0,0.7,0,1.5,0,2.4
	c-0.5-0.1-1.1-0.2-1.6-0.4c-1.2-0.5-2.3-0.5-3.5,0c-1.1,0.5-2.2,0.5-3.3,0c-1.1-0.5-2.3-0.5-3.4,0c-1.1,0.5-2.2,0.5-3.2,0
	c-1.1-0.5-2.3-0.5-3.4,0c-1.1,0.5-2.2,0.5-3.3,0c-1.1-0.5-2.3-0.5-3.4,0C2.7,28.2,2.2,28.3,1.6,28.4z"/>
<g>
	<path d="M15.6,5c-1-1.1-0.7-2.6,0.3-3.2c1-0.7,2.4-0.4,3,0.7c0.7,1.2,0.1,2.4-1.4,3.1C18.3,6,19,6.5,19.8,6.9
		c1.4,0.8,2.8,1.6,4.2,2.4c0.6,0.3,0.8,0.9,0.5,1.4c-0.3,0.5-0.9,0.6-1.5,0.3c-1.5-0.8-3-1.7-4.5-2.5c-0.1-0.1-0.2-0.1-0.3-0.2
		c-1.3,1-2.5,2.1-3.8,3.1c0.2,0.1,0.4,0.2,0.6,0.3c0.9,0.5,1.8,1,2.7,1.4c0.5,0.3,0.8,0.7,0.9,1.3c0.2,1.7,0.4,3.5,0.5,5.2
		c0.1,0.8-0.4,1.4-1.2,1.5c-0.7,0.1-1.3-0.5-1.4-1.2c-0.2-1.5-0.3-2.9-0.5-4.4c0-0.2-0.1-0.4-0.3-0.5c-1-0.5-2-1.1-3-1.7
		c-0.1-0.1-0.2-0.1-0.4-0.2c0.2,0.7,0.3,1.3,0.4,1.9c0.2,0.6,0,1.1-0.5,1.5c-1.3,1-2.5,1.9-3.8,2.9c-0.7,0.5-1.4,0.4-1.9-0.2
		c-0.5-0.6-0.3-1.4,0.3-1.9c1-0.7,1.9-1.5,2.9-2.2C10,15,10,14.9,9.9,14.7c-0.2-1-0.4-1.9-0.7-2.9c-0.2-1,0.1-1.7,0.8-2.3
		c1-0.8,2-1.7,3-2.5c0.1-0.1,0.1-0.1,0.3-0.2c-0.4-0.1-0.8-0.2-1.2-0.2C11,6.5,10,6,9.2,5.1c-0.5-0.5-1.1-1-1.6-1.5
		C7.2,3.2,7.1,2.6,7.5,2.2c0.4-0.4,1-0.4,1.5,0c0.8,0.7,1.6,1.4,2.4,2.2c0.1,0.1,0.3,0.2,0.4,0.2C13,4.7,14.2,4.9,15.5,5
		C15.5,5,15.5,5,15.6,5z"/>
	<path d="M3.9,21.1c-0.5-0.1-1-0.2-1.5-0.3c-0.4-0.1-0.6-0.3-0.5-0.5c0.1-0.3,0.3-0.4,0.7-0.3c6.1,1.2,12.2,2.1,18.3,2.8
		c2.3,0.2,4.6,0.4,6.9,0.7c0.1,0,0.1,0,0.2,0c0.1,0.1,0.3,0.2,0.3,0.3c0,0.2-0.2,0.3-0.4,0.3c-0.8-0.1-1.5-0.1-2.3-0.2
		c-6-0.5-12.1-1-18-2.1c-1-0.2-1.8,0-2.6,0.7c-0.5,0.4-1,0.7-1.5,1.1c-0.4,0.3-0.9,0.2-1-0.3c0-0.2,0-0.4,0.1-0.5
		c0.3-0.4,0.7-0.8,1-1.3C3.7,21.3,3.8,21.2,3.9,21.1z"/>
</g>
</svg>
