<?xml version="1.0" encoding="utf-8"?>
<!-- Generator: Adobe Illustrator 19.1.0, SVG Export Plug-In . SVG Version: 6.00 Build 0)  -->
<svg version="1.1" id="Calque_1" xmlns="http://www.w3.org/2000/svg" xmlns:xlink="http://www.w3.org/1999/xlink" x="0px" y="0px"
	 viewBox="0 0 30 30" style="enable-background:new 0 0 30 30;" xml:space="preserve" fill="white">
<g>
	<path d="M3.4,18.3C8.1,12.5,12.8,6.7,17.5,1c0,0,0.1,0,0.1,0c0,5.8,0,11.5,0,17.3C12.9,18.3,8.2,18.3,3.4,18.3z"/>
	<path d="M18.9,18.3c0-4.4,0-8.8,0-13.3c0.7,0.5,1.5,0.8,2.1,1.3c2.7,1.9,4.7,4.4,5.8,7.6c0.4,1.2,0.6,2.5,0.5,3.8
		c0,0.2,0,0.3-0.1,0.5C24.4,18.3,21.6,18.3,18.9,18.3z"/>
	<path d="M6.9,19.6c6.4,0,12.7,0,19.1,0c-0.5,0.7-1,1.3-1.5,1.9c-0.3,0.3-0.5,0.7-0.8,0.9c-1.1,1.1-2.5,1.3-3.9,0.7
		c-0.7-0.3-1.4-0.5-2.1-0.3c-0.3,0.1-0.6,0.1-0.9,0.3c-1.1,0.5-2.1,0.5-3.2,0c-1-0.4-1.9-0.5-2.9,0C9.4,23.6,8.2,23.5,7,23
		c-0.1,0-0.2-0.1-0.2-0.2C6.9,21.7,6.9,20.6,6.9,19.6z"/>
	<path d="M2.9,27.9c0-0.8,0-1.6,0-2.2c0.7-0.2,1.3-0.4,1.9-0.6c0.8-0.3,1.6-0.3,2.4,0.1c1.2,0.5,2.3,0.5,3.5,0
		c0.9-0.4,1.8-0.4,2.6,0c1.2,0.5,2.3,0.5,3.5,0c0.9-0.4,1.8-0.4,2.7,0c1.1,0.5,2.2,0.5,3.4,0c0.8-0.4,1.7-0.4,2.5-0.1
		c0.6,0.2,1.2,0.4,1.8,0.6c0,0.7,0,1.4,0,2.2c-0.4-0.1-0.9-0.1-1.3-0.3c-1.2-0.5-2.3-0.5-3.5,0c-0.9,0.4-1.8,0.4-2.6,0
		c-1.2-0.5-2.3-0.5-3.5,0c-0.9,0.4-1.8,0.4-2.7,0c-1.1-0.5-2.3-0.5-3.4,0c-0.9,0.4-1.8,0.4-2.7,0c-1.1-0.5-2.2-0.5-3.4,0
		C3.8,27.7,3.4,27.8,2.9,27.9z"/>
</g>
</svg>
