<?xml version="1.0" encoding="utf-8"?>
<!-- Generator: Adobe Illustrator 16.0.0, SVG Export Plug-In . SVG Version: 6.00 Build 0)  -->
<!DOCTYPE svg PUBLIC "-//W3C//DTD SVG 1.1//EN" "http://www.w3.org/Graphics/SVG/1.1/DTD/svg11.dtd">
<svg version="1.1" id="Layer_1" xmlns="http://www.w3.org/2000/svg" xmlns:xlink="http://www.w3.org/1999/xlink" x="0px" y="0px"
	 width="500px" height="500px" viewBox="0 0 500 500" enable-background="new 0 0 500 500" xml:space="preserve">
<path fill="#3A3C3D" d="M500,94.938c-18.438,8.125-38.125,13.656-58.906,16.156c21.156-12.719,37.438-32.812,45.094-56.75
	c-19.812,11.719-41.781,20.25-65.156,24.844c-18.688-19.938-45.312-32.375-74.875-32.375c-56.625,0-102.562,45.875-102.562,102.5
	c0,8.062,0.938,15.938,2.656,23.438C161,168.438,85.406,127.625,34.812,65.625c-8.875,15.094-13.875,32.719-13.875,51.562
	c0,35.625,18.125,66.969,45.625,85.375c-16.812-0.531-32.656-5.156-46.469-12.812V191c0,49.688,35.312,91.188,82.281,100.625
	c-8.625,2.312-17.688,3.562-27.031,3.562c-6.562,0-13-0.625-19.281-1.812c13.062,40.75,50.938,70.406,95.844,71.25
	C116.781,392.125,72.531,408.5,24.5,408.5c-8.281,0-16.438-0.469-24.469-1.406c45.406,29.062,99.312,46.062,157.25,46.062
	c188.688,0,291.875-156.25,291.875-291.812c0-4.469-0.125-8.875-0.312-13.281c20-14.469,37.438-32.5,51.188-53.125H500z"/>
</svg>
