<?xml version="1.0" encoding="utf-8"?>
<!-- Generator: Adobe Illustrator 18.0.0, SVG Export Plug-In . SVG Version: 6.00 Build 0)  -->
<!DOCTYPE svg PUBLIC "-//W3C//DTD SVG 1.1//EN" "http://www.w3.org/Graphics/SVG/1.1/DTD/svg11.dtd">
<svg version="1.1" xmlns="http://www.w3.org/2000/svg" xmlns:xlink="http://www.w3.org/1999/xlink" x="0px" y="0px"
	 viewBox="0 0 250 268" enable-background="new 0 0 250 268" xml:space="preserve">
<g id="Calque_1">
	<g>
		<path fill="#F7F0E4" d="M88.4,135.2c2.8,1.2,5.5,2.3,8.2,3.5c3.2,1.4,3.2,1.4,6.2-0.2c2.4-1.3,4.9-2.6,7.3-3.8
			c0.4-0.2,1.1-0.2,1.6,0c3.6,1.6,7.2,3.2,10.8,4.9c0.9,0.4,1.6,0.4,2.5,0c3.7-1.7,7.4-3.3,11.2-5c0.4-0.2,0.9-0.2,1.3,0
			c4,1.7,8,3.4,12,5.2c0.7,0.3,1.2,0.4,1.9,0c2.3-1.2,4.6-2.4,6.9-3.6c0.2-0.1,0.5-0.2,0.9-0.4c0.3,1.3,0.5,2.6,0.7,3.8
			c1,5.3,1.4,10.6,0.5,16c-0.9,6-3.2,11.4-6.9,16.2c-4.7,6.3-10.8,10.8-18.3,13.2c-7,2.3-14.2,2.5-21.3,0.5c-7.7-2.1-14-6.2-19-12.3
			c-5.6-6.9-8.5-14.9-8.4-23.9c0-4.4,0.7-8.7,1.6-13C88.2,135.8,88.3,135.6,88.4,135.2z"/>
		<path fill="#FFFFFF" d="M122.9,116.4c3,0.4,5.2,1.1,7.2,2.3c0.7,0.4,0.9,1,0.5,1.7c-1.9,3.5-3.8,7.1-5.8,10.6
			c-0.7,1.2-1.5,1.2-2.2,0c-2-3.5-3.8-7-5.7-10.5c-0.4-0.7-0.3-1.6,0.5-1.9C119.4,117.7,121.4,117,122.9,116.4z"/>
		<path fill="#FFFFFF" d="M132.5,109.4c0-3.9,3.2-7.1,7.1-7.1c3.9,0,7.1,3.2,7.1,7.1c0,3.9-3.2,7.1-7.1,7.2
			C135.8,116.6,132.5,113.3,132.5,109.4z M139.6,107c-1.6,0.3-2.5,1.3-2.7,2.7c-0.2,1.4,0.6,2.8,2,3.4c1.2,0.5,2.8,0.1,3.7-0.9
			c0.8-0.9,0.9-2.4,0.3-3.6C141.1,109.5,140.3,109.2,139.6,107z"/>
		<path fill="#FFFFFF" d="M108.8,102.3c3.9,0.1,7.1,3.4,7,7.2c-0.1,3.9-3.4,7.1-7.1,7c-4-0.1-7.2-3.4-7.1-7.3
			C101.7,105.4,104.9,102.2,108.8,102.3z M108.7,107c-1.6,0.3-2.6,1.4-2.7,2.9c-0.1,1.3,0.7,2.7,2,3.3c1.2,0.5,2.8,0.1,3.7-0.9
			c0.9-1,1-2.4,0.2-3.6C110.2,109.5,109.4,109.1,108.7,107z"/>
		<g>
			<path fill="#F75832" d="M126.1,48c2.3,0.8,4.7,1.4,6.9,2.3c3.3,1.3,6,3.5,8.6,5.9c6.9,6.6,11.8,14.6,15.9,23.2
				c4.1,8.6,6.9,17.5,9.2,26.7c0.2,0.6,0.3,1.3,0.6,2.2c-3.6-1.7-7-3.3-10.7-5.1c2.7,7.5,4,15.1,4.9,22.9c0.9-0.4,1.7-0.8,2.7-1.3
				c0.3,1,0.6,1.8,0.8,2.8c1.1,5.4,2.3,10.9,3.1,16.3c1,7.1,0.1,14-2.3,20.7c-2.2,6.1-5.6,11.4-10,15.9c-4.8,4.9-10.5,8.6-17,10.8
				c-3.7,1.3-7.4,2-11.3,2.4c-0.2,0-0.4,0.1-0.7,0.2c-1.9,0-3.7,0-5.6,0c-2.5-0.4-5.1-0.7-7.6-1.3c-7.9-1.8-14.7-5.6-20.5-11.2
				c-6.6-6.3-10.8-14-12.7-22.9c-1.1-5.1-1.2-10.3-0.6-15.5c0.7-5.7,2-11.3,3.4-16.9c0.1-0.3,0.2-0.6,0.4-1c1.4,0.6,2.7,1.1,4.2,1.7
				c-0.9-8.1-0.2-15.8,3-23.3c-3.3,1.4-6.7,2.9-10.3,4.4c0.4-1.7,0.8-3.2,1.2-4.8c1.9-7.3,4.3-14.5,7.4-21.5
				c3.2-7.3,7.1-14.2,12.1-20.3c3.4-4.2,7.3-7.9,12-10.5c2.4-1.3,4.9-2.2,7.5-2.7c0.3,0,0.5-0.2,0.8-0.2C123,48,124.5,48,126.1,48z
				 M88.4,135.2c-0.1,0.4-0.2,0.7-0.3,0.9c-0.8,4.3-1.6,8.6-1.6,13c-0.1,9,2.8,17,8.4,23.9c5,6.1,11.4,10.3,19,12.3
				c7.2,1.9,14.3,1.8,21.3-0.5c7.5-2.5,13.6-6.9,18.3-13.2c3.6-4.9,5.9-10.3,6.9-16.2c0.8-5.4,0.5-10.7-0.5-16
				c-0.2-1.2-0.5-2.5-0.7-3.8c-0.4,0.2-0.7,0.2-0.9,0.4c-2.3,1.2-4.6,2.3-6.9,3.6c-0.7,0.4-1.2,0.3-1.9,0c-4-1.8-8-3.5-12-5.2
				c-0.4-0.2-0.9-0.1-1.3,0c-3.7,1.6-7.5,3.3-11.2,5c-0.9,0.4-1.6,0.4-2.5,0c-3.6-1.7-7.2-3.3-10.8-4.9c-0.4-0.2-1.2-0.2-1.6,0
				c-2.5,1.2-4.9,2.5-7.3,3.8c-3,1.6-3,1.6-6.2,0.2C93.9,137.5,91.2,136.4,88.4,135.2z M91.6,95.2c2.5-1.1,4.7-2.1,6.9-2.9
				c0.5-0.2,1.1-0.2,1.6,0c3.4,1.6,6.8,3.3,10.2,4.9c0.5,0.2,1.2,0.3,1.7,0.1c3.7-1.6,7.3-3.4,11-5c0.4-0.2,1.1-0.2,1.5,0
				c4.3,1.7,8.5,3.5,12.7,5.1c0.4,0.2,1.1,0.1,1.5-0.1c2.4-1.2,4.8-2.2,7-3.7c2.6-1.8,5-1.8,7.5,0c0.7,0.5,1.5,0.7,2.3,1.1
				c0.1-0.1,0.2-0.2,0.3-0.3c-1.9-4.4-3.6-8.8-5.6-13.1c-2.6-5.6-5.7-10.8-9.7-15.6c-3.1-3.7-6.6-7.1-11.1-9.1c-4.6-2-9-1.5-13.3,1
				c-5.3,3.1-9.2,7.7-12.6,12.7c-4.1,6-7.3,12.5-9.9,19.2C93,91.3,92.4,93.1,91.6,95.2z M122.9,116.4c-1.5,0.6-3.5,1.3-5.5,2.2
				c-0.8,0.4-0.9,1.2-0.5,1.9c1.9,3.5,3.7,7,5.7,10.5c0.7,1.2,1.5,1.2,2.2,0c2-3.5,3.9-7,5.8-10.6c0.4-0.7,0.1-1.3-0.5-1.7
				C128.1,117.5,125.9,116.8,122.9,116.4z M132.5,109.4c0,3.9,3.2,7.2,7.1,7.1c3.9,0,7.1-3.3,7.1-7.2c0-3.9-3.3-7.1-7.1-7.1
				C135.7,102.3,132.5,105.5,132.5,109.4z M108.8,102.3c-3.9-0.1-7.1,3.1-7.2,7c-0.1,3.9,3.1,7.2,7.1,7.3c3.7,0.1,7-3.2,7.1-7
				C115.9,105.7,112.7,102.4,108.8,102.3z"/>
			<path fill="#F7F0E4" d="M91.6,95.2c0.8-2.1,1.4-3.9,2.1-5.6c2.6-6.8,5.8-13.2,9.9-19.2c3.4-5,7.2-9.6,12.6-12.7
				c4.2-2.5,8.6-3,13.3-1c4.6,2,8,5.4,11.1,9.1c4,4.7,7.1,10,9.7,15.6c2,4.3,3.7,8.8,5.6,13.1c-0.1,0.1-0.2,0.2-0.3,0.3
				c-0.8-0.4-1.6-0.6-2.3-1.1c-2.5-1.8-4.9-1.8-7.5,0c-2.2,1.5-4.6,2.5-7,3.7c-0.4,0.2-1.1,0.3-1.5,0.1c-4.3-1.7-8.5-3.5-12.7-5.1
				c-0.4-0.2-1.1-0.2-1.5,0c-3.7,1.7-7.3,3.4-11,5c-0.5,0.2-1.2,0.1-1.7-0.1c-3.4-1.6-6.8-3.3-10.2-4.9c-0.4-0.2-1.1-0.2-1.6,0
				C96.3,93.1,94.1,94.1,91.6,95.2z"/>
			<path fill="#5D5D5D" d="M139.6,107c0.7,2.2,1.4,2.5,3.3,1.6c0.7,1.2,0.6,2.7-0.3,3.6c-0.9,1-2.5,1.4-3.7,0.9
				c-1.3-0.6-2.1-2-2-3.4C137.1,108.3,138,107.3,139.6,107z"/>
			<path fill="#5D5D5D" d="M108.7,107c0.6,2.2,1.4,2.5,3.3,1.6c0.7,1.2,0.6,2.6-0.2,3.6c-0.9,1-2.5,1.4-3.7,0.9
				c-1.3-0.6-2.1-1.9-2-3.3C106.2,108.4,107.2,107.3,108.7,107z"/>
		</g>
	</g>
</g>
<g id="Calque_2">
</g>
</svg>
