<?xml version="1.0" encoding="utf-8"?>
<!-- Generator: Adobe Illustrator 17.0.0, SVG Export Plug-In . SVG Version: 6.00 Build 0)  -->
<!DOCTYPE svg PUBLIC "-//W3C//DTD SVG 1.1//EN" "http://www.w3.org/Graphics/SVG/1.1/DTD/svg11.dtd">
<svg version="1.1" xmlns="http://www.w3.org/2000/svg" xmlns:xlink="http://www.w3.org/1999/xlink" x="0px" y="0px"
	 width="392.333px" height="141px" viewBox="0 0 392.333 141" enable-background="new 0 0 392.333 141" xml:space="preserve">
<g id="Calque_1" display="none">
</g>
<g id="Calque_2">
	<rect x="-369.669" y="-218" fill="#EEE7D8" width="972.033" height="365"/>
</g>
<g id="Calque_3">
	<path fill="#F7F0E4" d="M273.91,132.559c0,0.958-0.777,1.735-1.735,1.735h-33.329c-0.958,0-1.735-0.777-1.735-1.735v-8.46
		c0-0.958,0.777-1.735,1.735-1.735h33.329c0.958,0,1.735,0.777,1.735,1.735V132.559z"/>
	<g>
		<circle fill="#345468" stroke="#345468" stroke-width="0.4501" stroke-miterlimit="10" cx="166.261" cy="12.517" r="5.12"/>
		<g>
			<path fill="#345468" d="M161.141,21.238c1.81-1.81,8.631-1.991,10.24,0c3.766,4.661,0,23.969,0,23.969h-4.332V34.911h-1.463
				v10.297h-4.445C161.141,45.207,156.904,25.475,161.141,21.238z"/>
		</g>
	</g>
	<g>
		<circle fill="#345468" stroke="#345468" stroke-width="0.4501" stroke-miterlimit="10" cx="185.253" cy="12.517" r="5.12"/>
		<g>
			<path fill="#345468" d="M180.133,21.238c1.81-1.81,8.631-1.991,10.24,0c3.766,4.661,0,23.969,0,23.969h-4.332V34.911h-1.463
				v10.297h-4.445C180.133,45.207,175.896,25.475,180.133,21.238z"/>
		</g>
	</g>
	<g>
		<circle fill="#345468" stroke="#345468" stroke-width="0.4501" stroke-miterlimit="10" cx="204.246" cy="12.517" r="5.12"/>
		<g>
			<path fill="#345468" d="M199.126,21.238c1.81-1.81,8.631-1.991,10.24,0c3.766,4.661,0,23.969,0,23.969h-4.332V34.911h-1.463
				v10.297h-4.445C199.126,45.207,194.888,25.475,199.126,21.238z"/>
		</g>
	</g>
	<g>
		<circle fill="#345468" stroke="#345468" stroke-width="0.4501" stroke-miterlimit="10" cx="223.238" cy="12.517" r="5.12"/>
		<g>
			<path fill="#345468" d="M218.118,21.238c1.81-1.81,8.631-1.991,10.24,0c3.766,4.661,0,23.969,0,23.969h-4.332V34.911h-1.463
				v10.297h-4.445C218.118,45.207,213.881,25.475,218.118,21.238z"/>
		</g>
	</g>
	<g>
		<circle fill="#345468" stroke="#345468" stroke-width="0.4501" stroke-miterlimit="10" cx="242.23" cy="12.517" r="5.12"/>
		<g>
			<path fill="#345468" d="M237.11,21.238c1.81-1.81,8.631-1.991,10.24,0c3.766,4.661,0,23.969,0,23.969h-4.332V34.911h-1.463
				v10.297h-4.445C237.11,45.207,232.873,25.475,237.11,21.238z"/>
		</g>
	</g>
	<g>
		<circle fill="#345468" stroke="#345468" stroke-width="0.4501" stroke-miterlimit="10" cx="261.223" cy="12.517" r="5.12"/>
		<g>
			<path fill="#345468" d="M256.103,21.238c1.81-1.81,8.631-1.991,10.24,0c3.766,4.661,0,23.969,0,23.969h-4.332V34.911h-1.463
				v10.297h-4.445C256.103,45.207,251.865,25.475,256.103,21.238z"/>
		</g>
	</g>
	<g>
		<circle fill="#345468" stroke="#345468" stroke-width="0.4501" stroke-miterlimit="10" cx="280.215" cy="12.517" r="5.12"/>
		<g>
			<path fill="#345468" d="M275.095,21.238c1.81-1.81,8.631-1.991,10.24,0c3.766,4.661,0,23.969,0,23.969h-4.332V34.911h-1.463
				v10.297h-4.445C275.095,45.207,270.858,25.475,275.095,21.238z"/>
		</g>
	</g>
	<g>
		<circle fill="#345468" stroke="#345468" stroke-width="0.4501" stroke-miterlimit="10" cx="299.207" cy="12.517" r="5.12"/>
		<g>
			<path fill="#345468" d="M294.087,21.238c1.81-1.81,8.631-1.991,10.24,0c3.766,4.661,0,23.969,0,23.969h-4.332V34.911h-1.463
				v10.297h-4.445C294.087,45.207,289.85,25.475,294.087,21.238z"/>
		</g>
	</g>
	<g>
		<circle fill="#345468" stroke="#345468" stroke-width="0.4501" stroke-miterlimit="10" cx="318.2" cy="12.517" r="5.12"/>
		<g>
			<path fill="#345468" d="M313.08,21.238c1.81-1.81,8.631-1.991,10.24,0c3.766,4.661,0,23.969,0,23.969h-4.332V34.911h-1.463
				v10.297h-4.445C313.08,45.207,308.842,25.475,313.08,21.238z"/>
		</g>
	</g>
	<g>
		<circle fill="#345468" stroke="#345468" stroke-width="0.4501" stroke-miterlimit="10" cx="337.192" cy="12.517" r="5.12"/>
		<g>
			<path fill="#345468" d="M332.072,21.238c1.81-1.81,8.631-1.991,10.24,0c3.766,4.661,0,23.969,0,23.969h-4.332V34.911h-1.463
				v10.297h-4.445C332.072,45.207,327.835,25.475,332.072,21.238z"/>
		</g>
	</g>
	<g>
		<circle fill="#345468" stroke="#345468" stroke-width="0.4501" stroke-miterlimit="10" cx="356.184" cy="12.517" r="5.12"/>
		<g>
			<path fill="#345468" d="M351.064,21.238c1.81-1.81,8.631-1.991,10.24,0c3.766,4.661,0,23.969,0,23.969h-4.332V34.911h-1.463
				v10.297h-4.445C351.064,45.207,346.827,25.475,351.064,21.238z"/>
		</g>
	</g>
	<g>
		<circle fill="#345468" stroke="#345468" stroke-width="0.4501" stroke-miterlimit="10" cx="375.177" cy="12.517" r="5.12"/>
		<g>
			<path fill="#345468" d="M370.057,21.238c1.81-1.81,8.631-1.991,10.24,0c3.766,4.661,0,23.969,0,23.969h-4.332V34.911h-1.463
				v10.297h-4.445C370.057,45.207,365.819,25.475,370.057,21.238z"/>
		</g>
	</g>
	<g>
		<circle fill="#345468" stroke="#345468" stroke-width="0.4501" stroke-miterlimit="10" cx="14.322" cy="12.517" r="5.12"/>
		<g>
			<path fill="#345468" d="M9.202,21.238c1.81-1.81,8.631-1.991,10.24,0c3.766,4.661,0,23.969,0,23.969H15.11V34.911h-1.463v10.297
				H9.202C9.202,45.207,4.965,25.475,9.202,21.238z"/>
		</g>
	</g>
	<g>
		<circle fill="#345468" stroke="#345468" stroke-width="0.4501" stroke-miterlimit="10" cx="33.315" cy="12.517" r="5.12"/>
		<g>
			<path fill="#345468" d="M28.195,21.238c1.81-1.81,8.631-1.991,10.24,0c3.766,4.661,0,23.969,0,23.969h-4.332V34.911H32.64v10.297
				h-4.445C28.195,45.207,23.957,25.475,28.195,21.238z"/>
		</g>
	</g>
	<g>
		<circle fill="#345468" stroke="#345468" stroke-width="0.4501" stroke-miterlimit="10" cx="52.307" cy="12.517" r="5.12"/>
		<g>
			<path fill="#345468" d="M47.187,21.238c1.81-1.81,8.631-1.991,10.24,0c3.766,4.661,0,23.969,0,23.969h-4.332V34.911h-1.463
				v10.297h-4.445C47.187,45.207,42.95,25.475,47.187,21.238z"/>
		</g>
	</g>
	<g>
		<circle fill="#345468" stroke="#345468" stroke-width="0.4501" stroke-miterlimit="10" cx="71.3" cy="12.517" r="5.12"/>
		<g>
			<path fill="#345468" d="M66.179,21.238c1.81-1.81,8.631-1.991,10.24,0c3.766,4.661,0,23.969,0,23.969h-4.332V34.911h-1.463
				v10.297h-4.445C66.179,45.207,61.942,25.475,66.179,21.238z"/>
		</g>
	</g>
	<g>
		<circle fill="#345468" stroke="#345468" stroke-width="0.4501" stroke-miterlimit="10" cx="90.292" cy="12.517" r="5.12"/>
		<g>
			<path fill="#345468" d="M85.172,21.238c1.81-1.81,8.631-1.991,10.24,0c3.766,4.661,0,23.969,0,23.969H91.08V34.911h-1.463v10.297
				h-4.445C85.172,45.207,80.934,25.475,85.172,21.238z"/>
		</g>
	</g>
	<g>
		<circle fill="#345468" stroke="#345468" stroke-width="0.4501" stroke-miterlimit="10" cx="109.284" cy="12.517" r="5.12"/>
		<g>
			<path fill="#345468" d="M104.164,21.238c1.81-1.81,8.631-1.991,10.24,0c3.766,4.661,0,23.969,0,23.969h-4.332V34.911h-1.463
				v10.297h-4.445C104.164,45.207,99.927,25.475,104.164,21.238z"/>
		</g>
	</g>
	<g>
		<circle fill="#345468" stroke="#345468" stroke-width="0.4501" stroke-miterlimit="10" cx="128.277" cy="12.517" r="5.12"/>
		<g>
			<path fill="#345468" d="M123.156,21.238c1.81-1.81,8.631-1.991,10.24,0c3.766,4.661,0,23.969,0,23.969h-4.332V34.911h-1.463
				v10.297h-4.445C123.156,45.207,118.919,25.475,123.156,21.238z"/>
		</g>
	</g>
	<g>
		<circle fill="#345468" stroke="#345468" stroke-width="0.4501" stroke-miterlimit="10" cx="147.269" cy="12.517" r="5.12"/>
		<g>
			<path fill="#345468" d="M142.149,21.238c1.81-1.81,8.631-1.991,10.24,0c3.766,4.661,0,23.969,0,23.969h-4.332V34.911h-1.463
				v10.297h-4.445C142.149,45.207,137.911,25.475,142.149,21.238z"/>
		</g>
	</g>
	<g>
		<circle fill="#345468" stroke="#345468" stroke-width="0.4501" stroke-miterlimit="10" cx="166.261" cy="57.06" r="5.12"/>
		<g>
			<path fill="#345468" d="M161.141,65.782c1.81-1.81,8.631-1.991,10.24,0c3.766,4.661,0,23.969,0,23.969h-4.332V79.454h-1.463
				v10.297h-4.445C161.141,89.751,156.904,70.019,161.141,65.782z"/>
		</g>
	</g>
	<g>
		<circle fill="#345468" stroke="#345468" stroke-width="0.4501" stroke-miterlimit="10" cx="185.253" cy="57.06" r="5.12"/>
		<g>
			<path fill="#345468" d="M180.133,65.782c1.81-1.81,8.631-1.991,10.24,0c3.766,4.661,0,23.969,0,23.969h-4.332V79.454h-1.463
				v10.297h-4.445C180.133,89.751,175.896,70.019,180.133,65.782z"/>
		</g>
	</g>
	<g>
		<circle fill="#345468" stroke="#345468" stroke-width="0.4501" stroke-miterlimit="10" cx="204.246" cy="57.06" r="5.12"/>
		<g>
			<path fill="#345468" d="M199.126,65.782c1.81-1.81,8.631-1.991,10.24,0c3.766,4.661,0,23.969,0,23.969h-4.332V79.454h-1.463
				v10.297h-4.445C199.126,89.751,194.888,70.019,199.126,65.782z"/>
		</g>
	</g>
	<g>
		<circle fill="#345468" stroke="#345468" stroke-width="0.4501" stroke-miterlimit="10" cx="223.238" cy="57.06" r="5.12"/>
		<g>
			<path fill="#345468" d="M218.118,65.782c1.81-1.81,8.631-1.991,10.24,0c3.766,4.661,0,23.969,0,23.969h-4.332V79.454h-1.463
				v10.297h-4.445C218.118,89.751,213.881,70.019,218.118,65.782z"/>
		</g>
	</g>
	<g>
		<circle fill="#345468" stroke="#345468" stroke-width="0.4501" stroke-miterlimit="10" cx="242.23" cy="57.06" r="5.12"/>
		<g>
			<path fill="#345468" d="M237.11,65.782c1.81-1.81,8.631-1.991,10.24,0c3.766,4.661,0,23.969,0,23.969h-4.332V79.454h-1.463
				v10.297h-4.445C237.11,89.751,232.873,70.019,237.11,65.782z"/>
		</g>
	</g>
	<g>
		<circle fill="#345468" stroke="#345468" stroke-width="0.4501" stroke-miterlimit="10" cx="261.223" cy="57.06" r="5.12"/>
		<g>
			<path fill="#345468" d="M256.103,65.782c1.81-1.81,8.631-1.991,10.24,0c3.766,4.661,0,23.969,0,23.969h-4.332V79.454h-1.463
				v10.297h-4.445C256.103,89.751,251.865,70.019,256.103,65.782z"/>
		</g>
	</g>
	<g>
		<circle fill="#345468" stroke="#345468" stroke-width="0.4501" stroke-miterlimit="10" cx="280.215" cy="57.06" r="5.12"/>
		<g>
			<path fill="#345468" d="M275.095,65.782c1.81-1.81,8.631-1.991,10.24,0c3.766,4.661,0,23.969,0,23.969h-4.332V79.454h-1.463
				v10.297h-4.445C275.095,89.751,270.858,70.019,275.095,65.782z"/>
		</g>
	</g>
	<g>
		<circle fill="#345468" stroke="#345468" stroke-width="0.4501" stroke-miterlimit="10" cx="299.207" cy="57.06" r="5.12"/>
		<g>
			<path fill="#345468" d="M294.087,65.782c1.81-1.81,8.631-1.991,10.24,0c3.766,4.661,0,23.969,0,23.969h-4.332V79.454h-1.463
				v10.297h-4.445C294.087,89.751,289.85,70.019,294.087,65.782z"/>
		</g>
	</g>
	<g>
		<circle fill="#345468" stroke="#345468" stroke-width="0.4501" stroke-miterlimit="10" cx="318.2" cy="57.06" r="5.12"/>
		<g>
			<path fill="#345468" d="M313.08,65.782c1.81-1.81,8.631-1.991,10.24,0c3.766,4.661,0,23.969,0,23.969h-4.332V79.454h-1.463
				v10.297h-4.445C313.08,89.751,308.842,70.019,313.08,65.782z"/>
		</g>
	</g>
	<g>
		<circle fill="#345468" stroke="#345468" stroke-width="0.4501" stroke-miterlimit="10" cx="337.192" cy="57.06" r="5.12"/>
		<g>
			<path fill="#345468" d="M332.072,65.782c1.81-1.81,8.631-1.991,10.24,0c3.766,4.661,0,23.969,0,23.969h-4.332V79.454h-1.463
				v10.297h-4.445C332.072,89.751,327.835,70.019,332.072,65.782z"/>
		</g>
	</g>
	<g>
		<circle fill="#345468" stroke="#345468" stroke-width="0.4501" stroke-miterlimit="10" cx="356.184" cy="57.06" r="5.12"/>
		<g>
			<path fill="#345468" d="M351.064,65.782c1.81-1.81,8.631-1.991,10.24,0c3.766,4.661,0,23.969,0,23.969h-4.332V79.454h-1.463
				v10.297h-4.445C351.064,89.751,346.827,70.019,351.064,65.782z"/>
		</g>
	</g>
	<g>
		<circle fill="#345468" stroke="#345468" stroke-width="0.4501" stroke-miterlimit="10" cx="375.177" cy="57.06" r="5.12"/>
		<g>
			<path fill="#345468" d="M370.057,65.782c1.81-1.81,8.631-1.991,10.24,0c3.766,4.661,0,23.969,0,23.969h-4.332V79.454h-1.463
				v10.297h-4.445C370.057,89.751,365.819,70.019,370.057,65.782z"/>
		</g>
	</g>
	<g>
		<circle fill="#345468" stroke="#345468" stroke-width="0.4501" stroke-miterlimit="10" cx="14.322" cy="57.06" r="5.12"/>
		<g>
			<path fill="#345468" d="M9.202,65.782c1.81-1.81,8.631-1.991,10.24,0c3.766,4.661,0,23.969,0,23.969H15.11V79.454h-1.463v10.297
				H9.202C9.202,89.751,4.965,70.019,9.202,65.782z"/>
		</g>
	</g>
	<g>
		<circle fill="#345468" stroke="#345468" stroke-width="0.4501" stroke-miterlimit="10" cx="33.315" cy="57.06" r="5.12"/>
		<g>
			<path fill="#345468" d="M28.195,65.782c1.81-1.81,8.631-1.991,10.24,0c3.766,4.661,0,23.969,0,23.969h-4.332V79.454H32.64v10.297
				h-4.445C28.195,89.751,23.957,70.019,28.195,65.782z"/>
		</g>
	</g>
	<g>
		<circle fill="#345468" stroke="#345468" stroke-width="0.4501" stroke-miterlimit="10" cx="52.307" cy="57.06" r="5.12"/>
		<g>
			<path fill="#345468" d="M47.187,65.782c1.81-1.81,8.631-1.991,10.24,0c3.766,4.661,0,23.969,0,23.969h-4.332V79.454h-1.463
				v10.297h-4.445C47.187,89.751,42.95,70.019,47.187,65.782z"/>
		</g>
	</g>
	<g>
		<circle fill="#345468" stroke="#345468" stroke-width="0.4501" stroke-miterlimit="10" cx="71.3" cy="57.06" r="5.12"/>
		<g>
			<path fill="#345468" d="M66.179,65.782c1.81-1.81,8.631-1.991,10.24,0c3.766,4.661,0,23.969,0,23.969h-4.332V79.454h-1.463
				v10.297h-4.445C66.179,89.751,61.942,70.019,66.179,65.782z"/>
		</g>
	</g>
	<g>
		<circle fill="#345468" stroke="#345468" stroke-width="0.4501" stroke-miterlimit="10" cx="90.292" cy="57.06" r="5.12"/>
		<g>
			<path fill="#345468" d="M85.172,65.782c1.81-1.81,8.631-1.991,10.24,0c3.766,4.661,0,23.969,0,23.969H91.08V79.454h-1.463v10.297
				h-4.445C85.172,89.751,80.934,70.019,85.172,65.782z"/>
		</g>
	</g>
	<g>
		<circle fill="#345468" stroke="#345468" stroke-width="0.4501" stroke-miterlimit="10" cx="109.284" cy="57.06" r="5.12"/>
		<g>
			<path fill="#345468" d="M104.164,65.782c1.81-1.81,8.631-1.991,10.24,0c3.766,4.661,0,23.969,0,23.969h-4.332V79.454h-1.463
				v10.297h-4.445C104.164,89.751,99.927,70.019,104.164,65.782z"/>
		</g>
	</g>
	<g>
		<circle fill="#345468" stroke="#345468" stroke-width="0.4501" stroke-miterlimit="10" cx="128.277" cy="57.06" r="5.12"/>
		<g>
			<path fill="#345468" d="M123.156,65.782c1.81-1.81,8.631-1.991,10.24,0c3.766,4.661,0,23.969,0,23.969h-4.332V79.454h-1.463
				v10.297h-4.445C123.156,89.751,118.919,70.019,123.156,65.782z"/>
		</g>
	</g>
	<g>
		<circle fill="#345468" stroke="#345468" stroke-width="0.4501" stroke-miterlimit="10" cx="147.269" cy="57.06" r="5.12"/>
		<g>
			<path fill="#345468" d="M142.149,65.782c1.81-1.81,8.631-1.991,10.24,0c3.766,4.661,0,23.969,0,23.969h-4.332V79.454h-1.463
				v10.297h-4.445C142.149,89.751,137.911,70.019,142.149,65.782z"/>
		</g>
	</g>
	<g>
		<circle fill="#345468" stroke="#345468" stroke-width="0.4501" stroke-miterlimit="10" cx="13.755" cy="101.604" r="5.12"/>
		<g>
			<path fill="#345468" d="M8.634,110.325c1.81-1.81,8.631-1.991,10.24,0c3.766,4.661,0,23.969,0,23.969h-4.332v-10.297h-1.463
				v10.297H8.634C8.634,134.294,4.397,114.562,8.634,110.325z"/>
		</g>
	</g>
	<g>
		<circle fill="#345468" stroke="#345468" stroke-width="0.4501" stroke-miterlimit="10" cx="32.747" cy="101.604" r="5.12"/>
		<g>
			<path fill="#345468" d="M27.627,110.325c1.81-1.81,8.631-1.991,10.24,0c3.766,4.661,0,23.969,0,23.969h-4.332v-10.297h-1.463
				v10.297h-4.445C27.627,134.294,23.39,114.562,27.627,110.325z"/>
		</g>
	</g>
	<g>
		<circle fill="#345468" stroke="#345468" stroke-width="0.4501" stroke-miterlimit="10" cx="51.739" cy="101.604" r="5.12"/>
		<g>
			<path fill="#345468" d="M46.619,110.325c1.81-1.81,8.631-1.991,10.24,0c3.766,4.661,0,23.969,0,23.969h-4.332v-10.297h-1.463
				v10.297h-4.445C46.619,134.294,42.382,114.562,46.619,110.325z"/>
		</g>
	</g>
	<g>
		<circle fill="#345468" stroke="#345468" stroke-width="0.4501" stroke-miterlimit="10" cx="70.732" cy="101.604" r="5.12"/>
		<g>
			<path fill="#345468" d="M65.611,110.325c1.81-1.81,8.631-1.991,10.24,0c3.766,4.661,0,23.969,0,23.969h-4.332v-10.297h-1.463
				v10.297h-4.445C65.611,134.294,61.374,114.562,65.611,110.325z"/>
		</g>
	</g>
	<g>
		<circle fill="#345468" stroke="#345468" stroke-width="0.4501" stroke-miterlimit="10" cx="89.724" cy="101.604" r="5.12"/>
		<g>
			<path fill="#345468" d="M84.604,110.325c1.81-1.81,8.631-1.991,10.24,0c3.766,4.661,0,23.969,0,23.969h-4.332v-10.297h-1.463
				v10.297h-4.445C84.604,134.294,80.367,114.562,84.604,110.325z"/>
		</g>
	</g>
	<g>
		<circle fill="#345468" stroke="#345468" stroke-width="0.4501" stroke-miterlimit="10" cx="108.716" cy="101.604" r="5.12"/>
		<g>
			<path fill="#345468" d="M103.596,110.325c1.81-1.81,8.631-1.991,10.24,0c3.766,4.661,0,23.969,0,23.969h-4.332v-10.297h-1.463
				v10.297h-4.445C103.596,134.294,99.359,114.562,103.596,110.325z"/>
		</g>
	</g>
	<g>
		<circle fill="#345468" stroke="#345468" stroke-width="0.4501" stroke-miterlimit="10" cx="127.709" cy="101.604" r="5.12"/>
		<g>
			<path fill="#345468" d="M122.588,110.325c1.81-1.81,8.631-1.991,10.24,0c3.766,4.661,0,23.969,0,23.969h-4.332v-10.297h-1.463
				v10.297h-4.445C122.588,134.294,118.351,114.562,122.588,110.325z"/>
		</g>
	</g>
	<g>
		<circle fill="#345468" stroke="#345468" stroke-width="0.4501" stroke-miterlimit="10" cx="146.701" cy="101.604" r="5.12"/>
		<g>
			<path fill="#345468" d="M141.581,110.325c1.81-1.81,8.631-1.991,10.24,0c3.766,4.661,0,23.969,0,23.969h-4.332v-10.297h-1.463
				v10.297h-4.445C141.581,134.294,137.344,114.562,141.581,110.325z"/>
		</g>
	</g>
	<g>
		<circle fill="#345468" stroke="#345468" stroke-width="0.4501" stroke-miterlimit="10" cx="165.693" cy="101.604" r="5.12"/>
		<g>
			<path fill="#345468" d="M160.573,110.325c1.81-1.81,8.631-1.991,10.24,0c3.766,4.661,0,23.969,0,23.969h-4.332v-10.297h-1.463
				v10.297h-4.445C160.573,134.294,156.336,114.562,160.573,110.325z"/>
		</g>
	</g>
	<g>
		<circle fill="#345468" stroke="#345468" stroke-width="0.4501" stroke-miterlimit="10" cx="184.686" cy="101.604" r="5.12"/>
		<g>
			<path fill="#345468" d="M179.565,110.325c1.81-1.81,8.631-1.991,10.24,0c3.766,4.661,0,23.969,0,23.969h-4.332v-10.297h-1.463
				v10.297h-4.445C179.565,134.294,175.328,114.562,179.565,110.325z"/>
		</g>
	</g>
	<g>
		<circle fill="#345468" stroke="#345468" stroke-width="0.4501" stroke-miterlimit="10" cx="203.678" cy="101.604" r="5.12"/>
		<g>
			<path fill="#345468" d="M198.558,110.325c1.81-1.81,8.631-1.991,10.24,0c3.766,4.661,0,23.969,0,23.969h-4.332v-10.297h-1.463
				v10.297h-4.445C198.558,134.294,194.321,114.562,198.558,110.325z"/>
		</g>
	</g>
	<g>
		<circle fill="#345468" stroke="#345468" stroke-width="0.4501" stroke-miterlimit="10" cx="222.67" cy="101.604" r="5.12"/>
		<g>
			<path fill="#345468" d="M217.55,110.325c1.81-1.81,8.631-1.991,10.24,0c3.766,4.661,0,23.969,0,23.969h-4.332v-10.297h-1.463
				v10.297h-4.445C217.55,134.294,213.313,114.562,217.55,110.325z"/>
		</g>
	</g>
	<rect x="247.971" y="125.183" fill="none" width="35.008" height="7.52"/>
	<text transform="matrix(1 0 0 1 247.9701 131.6916)" fill="#5D5D5D" font-family="'RobotoCondensed-Bold'" font-size="8.6773">FFG</text>
</g>
</svg>
