<?xml version="1.0" encoding="utf-8"?>
<!-- Generator: Adobe Illustrator 18.0.0, SVG Export Plug-In . SVG Version: 6.00 Build 0)  -->
<!DOCTYPE svg PUBLIC "-//W3C//DTD SVG 1.1//EN" "http://www.w3.org/Graphics/SVG/1.1/DTD/svg11.dtd">
<svg version="1.1" xmlns="http://www.w3.org/2000/svg" xmlns:xlink="http://www.w3.org/1999/xlink" x="0px" y="0px"
	 viewBox="0 0 544.6 295" enable-background="new 0 0 544.6 295" xml:space="preserve">
<g id="Calque_2">
</g>
<g id="Calque_1">
	<path fill="#EEE7D8" d="M499.9,265.3H38.5c-6.6,0-12-5.4-12-12V43.2c0-6.6,5.4-12,12-12h461.4c6.6,0,12,5.4,12,12v210.1
		C511.9,259.9,506.5,265.3,499.9,265.3z"/>
	<g>
		<path fill="#345468" d="M83.9,85.1c3.5-3.1,8.6-7.5,10.6-14.2c2-6.6,1.5-11.1,2.4-15.1c0.9-4,5.5-5.8,7.3-5.5s5.3,0.9,6,3.3
			c0.7,2.4,0.9,13.1,0.7,17.3c-0.2,4.2-1.1,8.2-1.8,10.4c3.8,0.4,11.7,1.1,15.5,1.5c3.8,0.4,7.7,0.7,10.2,2.4c2.4,1.8,3.3,4,3.3,9.7
			c0,5.8-0.8,20.5-1.4,25.2c-0.6,4.6-1.9,8.6-4.5,10.4c-2.7,1.8-11.5,4.6-17.3,4.4s-17.9-1.3-23-2.8c-4.5-1.3-10.4-2.9-10.9-6.3
			c-0.4-3.2-0.7-24.2-0.4-35.8C80.8,87.8,82.7,86.1,83.9,85.1z"/>
		<path fill="#345468" d="M72,129.6h-4.5c-2.8,0-5.1-2.3-5.1-5.1v-31c0-2.8,2.3-5.1,5.1-5.1H72c2.8,0,5.1,2.3,5.1,5.1v31
			C77.1,127.3,74.8,129.6,72,129.6z"/>
	</g>
	<g>
		<path fill="#F15A24" d="M116.7,213.9c-3.5,3.1-8.6,7.5-10.6,14.2c-2,6.6-1.5,11.1-2.4,15.1c-0.9,4-5.5,5.8-7.3,5.5s-5.3-0.9-6-3.3
			c-0.7-2.4-0.9-13.1-0.7-17.3c0.2-4.2,1.1-8.2,1.8-10.4c-3.8-0.4-11.7-1.1-15.5-1.5c-3.8-0.4-7.7-0.7-10.2-2.4
			c-2.4-1.8-3.3-4-3.3-9.7s0.8-20.5,1.4-25.2c0.6-4.6,1.9-8.6,4.5-10.4c2.7-1.8,11.5-4.6,17.3-4.4s17.9,1.3,23,2.8
			c4.5,1.3,10.4,2.9,10.9,6.3c0.4,3.2,0.7,24.2,0.4,35.8C119.9,211.2,118,212.9,116.7,213.9z"/>
		<path fill="#F15A24" d="M128.6,169.4h4.5c2.8,0,5.1,2.3,5.1,5.1v31c0,2.8-2.3,5.1-5.1,5.1h-4.5c-2.8,0-5.1-2.3-5.1-5.1v-31
			C123.6,171.7,125.9,169.4,128.6,169.4z"/>
	</g>
</g>
</svg>
