<?xml version="1.0" encoding="utf-8"?>
<!-- Generator: Adobe Illustrator 18.0.0, SVG Export Plug-In . SVG Version: 6.00 Build 0)  -->
<!DOCTYPE svg PUBLIC "-//W3C//DTD SVG 1.1//EN" "http://www.w3.org/Graphics/SVG/1.1/DTD/svg11.dtd">
<svg version="1.1" xmlns="http://www.w3.org/2000/svg" xmlns:xlink="http://www.w3.org/1999/xlink" x="0px" y="0px"
	 viewBox="0 0 300 268" enable-background="new 0 0 300 268" xml:space="preserve">
<g id="Calque_1">
	<g>
		<path fill="#F75832" d="M142.5,148c-6.1,10.7-11.5,20.4-17,30c-5.4,9.4-9.6,9.8-14.8,0.5c-3.1-5.5-6.9-7.6-13.2-7.7
			c-10.7-0.3-12.5-3.9-7.2-13.2c4.6-8.1,9-16.3,14-24.2c2.8-4.4,2.6-7.6,0.1-12.2c-8.1-15.1-7-30.3,3.3-44
			c9.8-12.9,23.3-18.2,39.3-14.9c16.9,3.5,28.2,14,31.2,30.9c1.5,8.2-0.6,17.3-2.6,25.7c-1.1,4.3-1.5,7.1,1,10.9
			c6.4,9.6,12.6,19.4,18.6,29.3c4.2,6.9,2.2,11.2-6,11.3c-7.6,0.1-12.4,2.7-16.1,9.6c-3.8,7.1-8.7,6.8-12.8-0.4
			C154.5,169.6,149,159.4,142.5,148z M139.4,134.1c17.8,0.1,32.2-14.2,32.4-31.9c0.2-17.9-14.6-32.8-32.5-32.7
			c-17.7,0.1-31.9,14.6-32,32.4C107.3,119.6,121.8,134.1,139.4,134.1z M168.5,131.6c-7,3.9-13.1,7.2-19.8,10.9
			c5.8,10.3,11.8,20.8,18.6,32.9c4-10,10.3-14,21-12.4C181,151.4,174.8,141.5,168.5,131.6z M117.7,175.6c6.8-12,12.5-22.2,18-32
			c-8-3.4-15.1-6.4-22.5-9.6c-5.2,9.1-10.5,18.4-16.6,28.9C107.2,161.8,113.7,165.7,117.7,175.6z"/>
		<path fill="#EEE7D8" d="M139.4,134.1c-17.7-0.1-32.1-14.6-32.1-32.3c0-17.8,14.3-32.3,32-32.4c17.9-0.1,32.7,14.8,32.5,32.7
			C171.6,120,157.2,134.2,139.4,134.1z M123.1,116.6c-0.3,6.4,3.3,8.9,8.2,5.8c5.7-3.7,10.5-4.5,16.2-0.1c1.5,1.2,5,1,6.8,0
			c1.2-0.7,2-4.2,1.4-5.9c-2.2-6.5-1.2-11.4,4.8-15.3c1.6-1.1,3-4.5,2.5-6.2c-0.5-1.7-3.6-3.7-5.6-3.7c-6.7-0.2-11.2-2.6-13-9.5
			c-0.4-1.7-3-3.7-4.7-3.8c-1.7-0.1-4.7,1.8-5,3.3c-1.7,7.4-6.3,9.6-13.4,10.1c-6.1,0.4-8,5.4-3.5,9.1
			C123.8,105.1,127,110,123.1,116.6z"/>
		<path fill="#EEE7D8" d="M168.5,131.6c6.3,9.9,12.5,19.8,19.8,31.4c-10.7-1.6-17,2.4-21,12.4c-6.8-12.1-12.8-22.6-18.6-32.9
			C155.4,138.9,161.5,135.5,168.5,131.6z"/>
		<path fill="#EEE7D8" d="M117.7,175.6c-4-10-10.5-13.9-21.1-12.7c6-10.6,11.3-19.8,16.6-28.9c7.5,3.2,14.5,6.2,22.5,9.6
			C130.2,153.4,124.5,163.6,117.7,175.6z"/>
		<path fill="#F75832" d="M123.1,116.6c3.9-6.6,0.6-11.5-5.3-16.4c-4.5-3.7-2.6-8.7,3.5-9.1c7.1-0.5,11.7-2.7,13.4-10.1
			c0.4-1.5,3.3-3.4,5-3.3c1.7,0.1,4.3,2.1,4.7,3.8c1.8,7,6.2,9.3,13,9.5c2,0.1,5.1,2,5.6,3.7c0.5,1.7-0.9,5.2-2.5,6.2
			c-6,4-7,8.8-4.8,15.3c0.6,1.7-0.1,5.2-1.4,5.9c-1.8,1-5.3,1.1-6.8,0c-5.7-4.3-10.5-3.6-16.2,0.1
			C126.5,125.5,122.9,123,123.1,116.6z M149.1,115.4c-4.6-7.9,0.3-12.8,4-16.5c-5.1-3.5-9.8-6.8-14.5-10.1
			c-0.6,6.3-6.8,7.9-14.1,9.1c7.8,4.2,7.5,10.4,5.5,18.1C136.6,111.1,142.3,110.1,149.1,115.4z"/>
		<path fill="#EEE7D8" d="M149.1,115.4c-6.8-5.2-12.5-4.3-19.1,0.6c2-7.8,2.3-13.9-5.5-18.1c7.3-1.2,13.5-2.9,14.1-9.1
			c4.7,3.3,9.4,6.6,14.5,10.1C149.4,102.6,144.6,107.4,149.1,115.4z"/>
	</g>
</g>
<g id="Calque_2">
</g>
</svg>
