<svg id="Calque_1" data-name="Calque 1" xmlns="http://www.w3.org/2000/svg" viewBox="0 0 509.55 562.32"><defs><style>.cls-1{fill:#2b4c7e;}.cls-2{fill:#821640;opacity:0.7;}.cls-2,.cls-4{isolation:isolate;}.cls-3{fill:none;stroke:#821640;stroke-miterlimit:10;}.cls-4{font-size:17.49px;font-family:Source Sans Pro;}</style></defs><title>bateau_points</title><g id="bateau"><path class="cls-1" d="M361.8,453a7.57,7.57,0,0,0-1.1-.16c-3.86-.22-7.73-0.41-11.59-0.64l-13.68-.83a0.8,0.8,0,0,1-1-.54,0.89,0.89,0,0,1,.77-1h0c0.91-.2,1.83-0.37,2.74-0.56a7.25,7.25,0,0,0,1.35-.34c0.76-.32.78-0.64,0.16-1.5-0.43.25,0.16,0.7-.19,1a2.61,2.61,0,0,1-1.06.33c-1,.21-1.92.39-2.88,0.57a2.71,2.71,0,0,1-1.38,0,1.12,1.12,0,0,1-1-1.22V448a2.56,2.56,0,0,0-1.34-2.57c-1.25-.9-2.47-1.84-3.77-2.67a4.79,4.79,0,0,1-2-2.73q-4.41-13.42-8.84-26.84-6.77-20.45-13.52-40.9-9-27.16-17.92-54.33l-17.09-51.87-16.51-50L232.4,156.85l-10.2-31-15-45.43L193,37.42q-2.84-8.64-5.67-17.28a8.56,8.56,0,0,1-.52-2.24,4.51,4.51,0,0,1,.82,1.56l14.25,35.43q10.64,26.4,21.26,52.82l34.15,85,26.38,65.67q14.45,36,28.93,72Q324,358.6,335.35,386.83l25.58,63.74c0.23,0.56.49,1.1,0.77,1.64a0.42,0.42,0,0,0,.77-0.33,13,13,0,0,0-.49-1.45l-23.7-59.22q-18.6-46.53-37.24-93.12l-68-170L214.45,81.64l-26.84-67c-0.33-.82-0.65-1.6-0.94-2.44-0.16-.45-0.36-1.1-0.76-1.1h-3.12c-0.4,0-1.14.86-1.88,1-3.59.6-7.17,1.18-10.77,1.67-6.79.93-13.55,2-20.34,2.93-5.35.75-10.71,1.42-16.07,2.12-1.53.2-3.06,0.35-4.58,0.58a10.63,10.63,0,0,1-2.68.5c-0.75-.06-0.94.51-0.56,1.25a0.66,0.66,0,0,1,.14.63c-1,.06-1.25,1-1.53,1.81q-3.71,11.3-7.47,22.57a2.54,2.54,0,0,0,.28,2.72c0.56,0.68.34,0.92-.63,1a0.85,0.85,0,0,0-.7,1.42c0.55,0.88.58,1-.3,1.34a2.34,2.34,0,0,0-1.23,1.75C112.73,60,111,65.62,109.33,71.26c-2.08,7.11-4.06,14.26-6.09,21.39-0.25.85-.4,1.56,0.45,2.23,0.56,0.44.39,0.88-.24,1.15-1.44.61-1.5,0.91-.31,1.9a0.73,0.73,0,0,1-.2.32c-1.27.43-1.64,1.46-2,2.64q-8,29.79-14.94,59.83c-4.47,19.25-8.69,38.56-12.78,57.9-1.61,7.62-3.26,15.22-4.86,22.84Q63.64,264.19,59,286.93q-3.09,15-6.06,30-5,25.24-9.88,50.5-4.18,21.62-8.3,43.26Q32.24,423.88,29.61,437c-0.47,2.37-1.14,4.72-1.57,7.09a1.53,1.53,0,0,1-1.41,1.48,2.51,2.51,0,0,0-.92.31,1.3,1.3,0,0,1-1.67-.15,2.45,2.45,0,0,0-1.56-.5c-0.93-.08-1.85-0.19-2.78-0.29a1.19,1.19,0,0,1-1.17-1.16c-0.17-1.19-.4-2.36-0.6-3.55a5.59,5.59,0,0,0-.42,2.29,48,48,0,0,0,.15,12.4,1.22,1.22,0,0,0,1.09,1.34H19a19.3,19.3,0,0,1,2.57.66,0.68,0.68,0,0,1,.59.47c-0.28.42-.64,0-0.92,0.15a0.53,0.53,0,0,0,0,.25A4.08,4.08,0,0,1,22,460a2.62,2.62,0,0,1,0,.83,0.63,0.63,0,0,1-.58.52,0.55,0.55,0,0,1-.55-0.53c-0.13-.5-0.23-1-0.37-1.49a0.83,0.83,0,0,0-.84-0.78,0.8,0.8,0,0,0-.76,1c0.09,0.86-.16,1.79.46,2.56a0.94,0.94,0,0,1,.1.8c-0.69.17-.83-0.52-1.34-0.78a2.68,2.68,0,0,0-.45,1.53,70.67,70.67,0,0,0-.42,15.07,18.43,18.43,0,0,0,.08,2.1c0.07,1.15.26,1.33,1.4,1.53a2.78,2.78,0,0,0,2-.32,3.82,3.82,0,0,1,.45,1.68C22,489.2,23,494.6,24.13,500c0.21,1,.07,2.24,1.47,2.58-0.12.81,0.63,1.51,0.3,2.34-1.24,3.18-.77,6.54-0.93,9.82a119.74,119.74,0,0,0,.62,15.4c0.18,2.27.3,5,.44,7h2.24c1.58,0,2.25-2,2.59-3.58a89.29,89.29,0,0,0,1.39-9.07Q33,517.76,33.74,511a4.36,4.36,0,0,1,.11-0.71c0.22-1.23.3-1.36,1.52-1.36,3.68,0,7.36-.25,11-0.41,3.16-.14,6.33-0.09,9.49-0.4,1.81-.18,3.64,0,5.46,0,4-.13,8-0.32,12-0.48,2.79-.12,5.58-0.14,8.38-0.38,4.13-.35,8.27-0.47,12.42-0.54,4.52-.08,9-0.34,13.55-0.48,3.31-.11,6.62-0.16,9.92-0.39l3.63-.23a26.63,26.63,0,0,1,7.08.53c5.21,1.11,10.39.41,15.53-.66a29.23,29.23,0,0,0,3-.71c4-1.29,8.16-1.34,12.29-1.73,3-.27,5.93-0.6,8.9-0.91a54,54,0,0,0,7-1,2.16,2.16,0,0,1,1.27.06c-1.61.88-3.29,1.31-4.67,2.43a1,1,0,0,0,1.2-.06c0.73-.31,1.43-0.68,2.17-1,1.22-.47,1.58-0.29,1.84,1a30.74,30.74,0,0,1,.45,3.46c0.32,3.3.71,6.58,1.34,9.83,0.24,1.24.38,2.49,0.6,3.73a1.74,1.74,0,0,0,.89,1.47,1.12,1.12,0,0,0,.25-1.15c-0.27-3.62-.56-7.24-1-10.85l-1-7.35c-0.2-1.47,0-1.75,1.44-1.91q13.07-1.5,26.06-3.39c11.57-1.67,23.14-3.46,34.66-5.49,14.51-2.55,29-5.18,43.51-7.7,12-2.09,24-4.08,36-6.12,2.21-.37,4.39-0.85,6.56-1.41a3.82,3.82,0,0,0,3.12-3.45,79.75,79.75,0,0,0,1.37-11.65,17.66,17.66,0,0,1,.16-2,1.24,1.24,0,0,1,1.41-1.38l14.89-1.6,10.68-1.3a7,7,0,0,1,.75,0c-0.22.59-.92,0.49-1.16,1,0.17,0.3.39,0.09,0.56,0,1.16-.5,2.28-1.07,3.48-1.46a0.91,0.91,0,0,0,.78-1A0.89,0.89,0,0,0,361.8,453ZM181.91,202.42c0.24-4.14.44-8.28,0.67-12.43s0.49-8.19.71-12.28c0.24-4.28.45-8.57,0.68-12.85s0.48-8.84.72-13.26c0.11-2,.22-4.1.32-6.14,0.23-4.89.42-9.78,0.67-14.67,0.33-6.42.64-12.84,0.85-19.28a1.5,1.5,0,0,1,.24-1.08,0.73,0.73,0,0,1,.48.74c0.72,2.32,1.42,4.64,2.13,7a8.19,8.19,0,0,1,.32,2.35c0.14,15.25.23,30.49,0,45.74-0.13,7.87-.47,15.75-0.85,23.61-0.35,7.26-.84,14.52-1.36,21.77-0.6,8.27-1.32,16.53-2.48,24.84l-1.41-4.8c-0.89-3-1.77-6.09-2.68-9.13a3.52,3.52,0,0,1-.12-1.24Q181.37,211.84,181.91,202.42Zm-1.32,21.87a1.24,1.24,0,0,1,.56,1c1.15,3.93,2.28,7.88,3.44,11.81a8.15,8.15,0,0,1,.23,3.3q-1.43,12.64-3.2,25.23c-1.6,11.39-3.44,22.75-5.4,34.09a4.4,4.4,0,0,1-.21.94h-0.19ZM158.19,478a2.18,2.18,0,0,0,2.11-3,1.45,1.45,0,0,0-1-.88,0.56,0.56,0,0,1-.47-0.46,0.63,0.63,0,0,1,.56-0.54,4.61,4.61,0,0,1,.53-0.18,1.73,1.73,0,0,0,1.27-1.65c0.08-.79.21-1.57,0.33-2.35a6.92,6.92,0,0,1,.16-0.82,0.45,0.45,0,0,1,.39-0.35,0.46,0.46,0,0,1,.48.41,4,4,0,0,1,.08,1.53c0,0.42-.12.81-0.15,1.25a0.78,0.78,0,0,0,.48,1h0a1,1,0,0,0,1.12-.63,3.89,3.89,0,0,0,.21-1c0.23-1.41.43-1.5,1.68-.72,0.36,0.22.72,0.43,1.06,0.67,0.73,0.52.69,1.06-.14,1.42a10.39,10.39,0,0,1-1.35.41,0.4,0.4,0,0,0-.4.32c0.28,0.43.93,0,1.19,0.52a0.48,0.48,0,0,1-.23.48c-0.85.64-1.32,1.68-2.26,2.2a1,1,0,0,1-.29-0.15c-0.24-.3-0.24-0.9-0.82-0.78a1.14,1.14,0,0,0-.74.94,2.58,2.58,0,0,0-.15,1.24,0.84,0.84,0,0,0,1.17.81,10.9,10.9,0,0,1,4.41-.5,4.1,4.1,0,0,0,3.49-1.64c1.47-1.83,1.21-2.13,3.53-.55a3.66,3.66,0,0,1,1.43,1.19c-1.21.67-2.61,0.37-3.75,1a14.06,14.06,0,0,0-2.35.22c-3,.5-6,0.92-9,1.48a5,5,0,0,1-4-.71,1.63,1.63,0,0,1,1.36-.23h0Zm1.41,5a3,3,0,0,0-2.28-.85,6.38,6.38,0,0,1-1.25-.08,0.89,0.89,0,0,1-.84-0.81,1,1,0,0,1,.65-1.12,1.53,1.53,0,0,1,.53-0.15,30.36,30.36,0,0,0,3.83-.77c1.13-.24,1.34,0,1.15,1.14a3.32,3.32,0,0,1-1.8,2.64h0Zm0.51,1.2a1.39,1.39,0,0,1-1,1.16,0.52,0.52,0,0,1-.67-0.63,2.17,2.17,0,0,1,1.19-1.72c0.62,0.18.62,0.64,0.46,1.2h0Zm-8.65-5.45,3-8.1c0.26-.7.48-1.41,0.72-2.11a3.73,3.73,0,0,1,1.44-2.06c0.08,1.09-.3,1.94.13,2.73a0.36,0.36,0,0,1,0,.27c-1,2.53-.78,5.29-1.31,7.91-0.49,2.44-.54,2.56-3,2.7-1.3.08-1.45-.08-1-1.33h0Zm3.16,2.42a15.26,15.26,0,0,1-.44,1.89,0.91,0.91,0,0,1-.52.61,1.23,1.23,0,0,1-1.19.06,1,1,0,0,1-.16-1,9,9,0,0,1,.14-1.29,1.35,1.35,0,0,1,1.26-1.12,0.68,0.68,0,0,1,.88.86h0ZM138.54,469.8c2.36-.85,4.45-2.29,6.78-3.2a9.46,9.46,0,0,1,.92-0.3c0.22-.06.48-0.17,0.62,0.1a0.67,0.67,0,0,1-.14.65,1.43,1.43,0,0,1-1,.66l-1.77.39a5.11,5.11,0,0,0-3,1.7,4.35,4.35,0,0,1-1.83,1.34h0a1,1,0,0,1-1-.67,0.54,0.54,0,0,1,.38-0.66h0Zm4.29,1.64a9.94,9.94,0,0,1-1.63,1.76,0.63,0.63,0,0,1-.86.19,1.61,1.61,0,0,1-.79-1.09,0.47,0.47,0,0,1,.45-0.45,12.62,12.62,0,0,1,2.8-.41h0Zm-9.63-.6a0.54,0.54,0,0,1,.57-0.32,10.74,10.74,0,0,0,2.38-.3,1,1,0,0,1,1,.35c0.85,1,1.69,2.09,2.52,3.15a0.4,0.4,0,0,1,0,.51,0.49,0.49,0,0,1-.64,0,23,23,0,0,1-3.77-1.77,14.81,14.81,0,0,0-1.64-1,0.56,0.56,0,0,1-.45-0.65h0Zm-1.84,7.74c0.1-2.19.18-4.28,0.3-6.37,0-.82.32-1,0.92-0.59a38,38,0,0,0,5.33,2.72c1.15,0.55,1.19.77,0.25,1.68-1.87,1.81-3.76,3.6-5.64,5.4a0.81,0.81,0,0,1-.82.42,0.73,0.73,0,0,1-.35-0.84v-2.41h0Zm-9.26-8.88c0.46-.07.92-0.08,1.4-0.12a7.55,7.55,0,0,1,1.53.15,0.44,0.44,0,0,1,.29.25,0.34,0.34,0,0,1-.25.41h0a12.15,12.15,0,0,1-2.89.44h0a0.53,0.53,0,0,1-.58-0.46,0.57,0.57,0,0,1,.46-0.66h0.05Zm-9.56-9.2a3.93,3.93,0,0,0,1.35-.32,1.87,1.87,0,0,1,1.75,0c0.61,0.45,1.21-.27,1.72,0s0.65,1,1.26,1.27,1.39,0.48,2.22.76c-0.52.49-1,.22-1.38,0.47,0.23,0.28.65,0,.88,0.31-1.41,1-2.21.87-2.71-.47-1.39.73-1.4,0.74-3,0a10.93,10.93,0,0,0-5.61-.75c-2.46.17-4.93,0.33-7.39,0.45-2.14.11-3.18,1.22-3,3.4,0.07,1.21.24,2.41,0.37,3.62a3.9,3.9,0,0,1,0,1.39,0.68,0.68,0,0,1-.69.58,0.55,0.55,0,0,1-.53-0.55c-0.11-.74-0.19-1.48-0.29-2.22-0.15-1.16-.3-1.31-1.44-1.52s-2.2-.43-3.3-0.6-1.79.23-1.73,1.49,0.23,2.6.38,3.89a2.21,2.21,0,0,0,1.19,1.72,7.25,7.25,0,0,1-.68.33c-1.39.53-1.51,0.47-1.44-1,0.12-2.52-.22-5-0.33-7.54a2.87,2.87,0,0,0-.22-0.62,5.91,5.91,0,0,0,0,2.17,13.8,13.8,0,0,0,.14,2,15.23,15.23,0,0,1,0,4.46,2.87,2.87,0,0,1-2.74,2.29,0.61,0.61,0,0,1-.66-0.56h0a14.43,14.43,0,0,1-.24-1.52c-0.22-2.69-.44-5.38-0.64-8.08-0.09-1.15,0-1.24,1.17-1.44a15,15,0,0,1,1.53-.15,1.71,1.71,0,0,0,1.18-.35,3.84,3.84,0,0,1,3.1-1c2.9,0.06,5.75-.59,8.64-0.54a0.75,0.75,0,0,0,.28,0c2.26-.88,4.67-0.67,7-1a21.19,21.19,0,0,1,3.84-.31h0Zm-21.93,17a0.65,0.65,0,0,1,.64-0.83c2.58-.61,4.84-1.2,7.43-1.76,0.83-.18,1,0.06,1.21.77a0.84,0.84,0,0,1-.73,1.14,2.33,2.33,0,0,1-.59.07,35.54,35.54,0,0,0-3.84.27c-1.56.12-4.12-.09-4.12,0.34h0ZM88,476.85a2.72,2.72,0,0,0-.53.17,0.41,0.41,0,0,1-.55-0.18h0a0.39,0.39,0,0,1,.27-0.44q0.49-.24,1-0.44c3.27-1.21,6.54-2.38,9.82-3.59,0.9-.32,1.31.83,1.33,0.83h0a1.91,1.91,0,0,1-1,1.17c-1.22.29-2.44,0.57-3.67,0.83A61.38,61.38,0,0,0,88,476.83v0Zm-1.07-15.39a3.68,3.68,0,0,1,1.84,0,0.7,0.7,0,0,1-.19,1.11c-0.4.1-.82,0.14-1.13,0.19a0.82,0.82,0,0,1-.92-0.41,0.78,0.78,0,0,1,.38-0.91Zm2.83-.55a1.26,1.26,0,0,1,1.08-.93c0.37-.09.43,0.27,0.43,0.55a0.8,0.8,0,0,1-.7.89H90.43c-0.33-.07-0.76-0.12-0.69-0.53Zm10.7-1.64a0.54,0.54,0,0,1,.81.26,2,2,0,0,1,.19,1.32,2.19,2.19,0,0,1-1.13-.75,0.51,0.51,0,0,1,.11-0.85Zm-10.87-3.43c0.32,0,.65-0.1,1-0.11l7.71-.36a16.31,16.31,0,0,0,3.57-.22,3.62,3.62,0,0,1,2.07.1,0.58,0.58,0,0,1,.42.51,0.5,0.5,0,0,1-.41.5,7,7,0,0,1-1,.2L91.59,458a14.46,14.46,0,0,1-1.81.14c-0.82,0-1.14-.39-1.25-1.33S89,455.93,89.59,455.84Zm-4.35.63c0.41-.08.83-0.12,1.11-0.16h0a1.9,1.9,0,0,1,2,2.4,0.42,0.42,0,0,1,0,.13c-0.67,1-1.75.65-2.66,0.85a1,1,0,0,1-1.21-.86,7.84,7.84,0,0,1-.21-0.8c-0.26-1.08-.08-1.36,1-1.56h0ZM84,470.35a0.57,0.57,0,0,1,0,.77,0.41,0.41,0,0,1-.58,0h0a2.9,2.9,0,0,1-1.13-1.2,1.79,1.79,0,0,1,1.73.43h0ZM80.15,464a6.85,6.85,0,0,1,.3,3.38,5.08,5.08,0,0,1-.32-3.38h0Zm-2.8-3a4.71,4.71,0,0,1,.21,2.64,2.79,2.79,0,0,1-.23-2.65h0Zm0.24,10.26v0.27L62.14,473v-0.28c5.11-.53,10.25-1.11,15.45-1.45h0ZM28.17,496.13a20.89,20.89,0,0,1-.26,2.71c-0.57-1-.21-2-0.86-2.79a1.14,1.14,0,0,0-.46,1.08c-0.11.92-.2,1.85-0.31,2.78a0.55,0.55,0,0,1-.53.55,0.59,0.59,0,0,1-.6-0.49,4.52,4.52,0,0,1-.11-1,53.29,53.29,0,0,0-1-7.34c-0.06-.38.13-1.12-0.81-0.92-0.42.09-.32-0.49-0.36-0.76-0.44-2.62-.84-5.25-1.26-7.87-0.31-1.93-.67-3.85-1-5.79-0.22-1.39,0-1.66,1.43-1.7h1.82c1.39,0,1.62.2,1.87,1.55,0.39,2.15.72,4.32,1.09,6.48,0.34,2,.37,4.08,1.12,5.89C29.08,491.13,28.07,493.6,28.17,496.13Zm6.68,2.58c-0.18,1.62-.18,1.63-1.86,1.68-1.07,0-2.14.07-3.2,0-0.88,0-1-.41-0.56-1.16a3.78,3.78,0,0,1,3.64-2.11h0a9,9,0,0,1-1.23,0,0.35,0.35,0,0,1-.4-0.26,0.47,0.47,0,0,1,.21-0.45,4.52,4.52,0,0,1,3.09-.38,0.79,0.79,0,0,1,.42.82,17.48,17.48,0,0,1-.11,1.83h0v0Zm-0.26-3.48a3.76,3.76,0,0,1-1.1.15,4,4,0,0,0-3.76,2.18,9.26,9.26,0,0,1-.72,1h0c0.21-1.26-.33-2.52.28-3.67a5.89,5.89,0,0,0,2.77-.58,19,19,0,0,1,2.12-.67,0.68,0.68,0,0,1,1,.5,0.88,0.88,0,0,1-.59,1.09h0ZM32.2,492.9a2.75,2.75,0,0,1-1.4-.91,0.42,0.42,0,0,1-.12-0.5,0.46,0.46,0,0,1,.47-0.22,3.07,3.07,0,0,1,1.49.43c-0.74.15-.78,0.58-0.42,1.2h0Zm3-.83a5.81,5.81,0,0,0-.88-2.21,0.49,0.49,0,0,1,0-.69h0a0.57,0.57,0,0,1,.78.2v0.08a3.17,3.17,0,0,1,0,2.68h0ZM83,497.24a5.39,5.39,0,0,1,2.11-.58c2.23-.41,4.48-0.78,6.72-1.15a2.59,2.59,0,0,1,2.71.81c-3.82.53-7.54,0.59-11.53,0.93h0Zm22.46-3a1.47,1.47,0,0,1-2.34,1c-0.52-.3-1.44-0.47-1.31-1.21,0.09-.55,1-0.41,1.47-0.5a8.47,8.47,0,0,1,2.85-.31c-0.09.54-.58,0.48-0.66,1.06h0v0Zm6.94-7a0.42,0.42,0,0,1-.33.18,0.44,0.44,0,0,1-.28-0.26q-0.26-.87-0.48-1.75a1.41,1.41,0,0,0-1.49-1.19,23.84,23.84,0,0,0-3.36.06,22.07,22.07,0,0,1-2.23.19,3.94,3.94,0,0,0-2.33.82,1.45,1.45,0,0,0,.09,2.61,3.78,3.78,0,0,0,4.53-.41,1.27,1.27,0,0,1,1-.71,5.34,5.34,0,0,1,1.9.42,0.42,0.42,0,0,1,.25.46,0.43,0.43,0,0,1-.38.36,13.88,13.88,0,0,0-1.79.25,14.86,14.86,0,0,0,3.49,0c1-.12,1.35,0,1.44.63a1.19,1.19,0,0,1-.95,1.39h-0.23c-0.87.16-1.74,0.26-2.9,0.42,1.28,0.32,2.38,0,3.37.43-7.76,1.77-15.73,1.3-23.56,2.42,1.2,0.15,2.53-.15,3.45.92A0.59,0.59,0,0,1,91,495c-2.43.44-4.86,0.88-7.3,1.3-1,.16-1.17,0-1.33-0.93-0.28-1.63-.72-1.38-1.89-1.41s-2.42.19-3.63,0.24-1.09,0-1.36-1a1,1,0,0,0-.24.11c-0.3.24-.37,0.88-0.92,0.63a1,1,0,0,1-.26-1,10.48,10.48,0,0,1,.2-2.64c0.18-.77.39-0.86,1-0.34a0.92,0.92,0,0,0,1.56-1,9.6,9.6,0,0,0-.28-1.23,0.94,0.94,0,0,0-.9-0.75,7.07,7.07,0,0,1-1.37-.25,1.74,1.74,0,0,0-1.88,1.81,2.1,2.1,0,0,1,.08,1.22,0.66,0.66,0,0,0,.28.85c0.85,0.57.54,1.4,0.49,2.17a2,2,0,0,1-1.13,1.91,8.93,8.93,0,0,0-1.83,1.7c-0.37.36-.7,0.75-1.07,1.1a1.62,1.62,0,0,1-2.26.37l-0.12-.09c-1.08-.65-2.14-1.33-3.18-2a2.23,2.23,0,0,0-1.42-.46c-2.33.16-4.65,0.29-7,.44a1.16,1.16,0,0,0-.82.37c1,1.21,2.7,1.43,3.74,2.5a0.59,0.59,0,0,1-.7.41l-11,.61c-2.61.15-5.21,0.35-7.81,0.5a18.89,18.89,0,0,1-2.24,0c-0.68,0-.83-0.33-0.46-0.91a13.82,13.82,0,0,1,1.26-1.68,3.59,3.59,0,0,0,.62-0.91c0.41-1,.33-1.12-0.66-1.33-1.2-.25-1.45-1-0.64-1.9a4.18,4.18,0,0,1,.71-0.49,0.91,0.91,0,0,1-.78-1.21,0.67,0.67,0,0,0,0-.14c0.19-2.64.19-2.65-2.26-3.44a1.82,1.82,0,0,1-1.12-1c-0.46-.92-0.94-1.82-1.37-2.75-0.56-1.21-.41-1.65.73-2.44a0.72,0.72,0,0,0,.53-0.66c-0.55-.29-1.39.27-1.83-0.54-0.09-.16-0.38.16-0.55,0.3a1.2,1.2,0,0,1-1.43.14A1,1,0,0,1,28.8,480a12.39,12.39,0,0,0-.29-4.3q-0.48-2.83-1-5.65a3.08,3.08,0,0,0-.92-2,0.5,0.5,0,0,0-.92.34c-0.1.48,0.48,1-.08,1.43a2.83,2.83,0,0,1-1.77.24H21.44a1.07,1.07,0,0,1-1.14-1h0c-0.17-1.25-.39-2.49-0.54-3.74-0.12-1,.2-1.35,1.26-1.31,0.37,0,.74.14,1.11,0.13,1.59,0,2.84.37,3.31,2.1a0.56,0.56,0,0,0,.62.49h0.12a0.68,0.68,0,0,0,.33-0.84,5.33,5.33,0,0,0-.21-1.1c-0.92-4.14-1.79-8.3-2.8-12.42a7.34,7.34,0,0,1,.88-5c0.31-.68.68-0.69,1.16-0.14a4.31,4.31,0,0,1,.4.57c0.62,1,.54,1.15-0.59,1.23a1.2,1.2,0,0,0-1.14,1.7,6.2,6.2,0,0,1,.31,2.87,0.89,0.89,0,0,0,.93,1.11h1a1,1,0,0,1,1,1s0,0,0,.06V465a2.91,2.91,0,0,0,.19,1.37,0.72,0.72,0,0,0,.68.4,0.56,0.56,0,0,0,.56-0.51,6.48,6.48,0,0,0,.12-1.53c0-2.8-.09-5.6-0.1-8.4,0-1.44.18-1.63,1.6-1.64H38a29.53,29.53,0,0,1,6.34,1c0.9,0.2,1,.56.49,1.27-2,2.56-3.87,5.14-5.93,7.61a32.5,32.5,0,0,1-3.29,3,2.34,2.34,0,0,1-2.07.58,9.65,9.65,0,0,1-3-.62,1,1,0,0,0-1.36.31c-0.46.57-.32,1.07,0.41,1.21a9.58,9.58,0,0,0,1.54.09c3.59,0.08,7.18-.06,10.76.28a2.37,2.37,0,0,1,1.8.59,0.64,0.64,0,0,1,.23.74,0.61,0.61,0,0,1-.6.28,31.64,31.64,0,0,1-4.33-.15,8.26,8.26,0,0,0-3.2.09c-1.07.3-1.21,0.53-.84,1.6,0.53,1.54,1.13,3.07,1.65,4.61a1.66,1.66,0,0,0,1.68,1.2c2.7,0.16,5.39.37,8.09,0.54,1.62,0.1,1.81-.08,2.12-1.68a1.18,1.18,0,0,1,.09-0.55c0.14-.47.41-0.46,0.71-0.15a2.58,2.58,0,0,1,.62,1.53,13.19,13.19,0,0,0,.25,1.51,1.28,1.28,0,0,0,1.06,1,1,1,0,0,0,1.33-1,10.22,10.22,0,0,0-.21-2.36,9.31,9.31,0,0,1,.16-3.61,2.32,2.32,0,0,1,.42-1,1.11,1.11,0,0,1,1.08-.51,0.89,0.89,0,0,1,.69.79c0.15,0.63.32,1.27,0.43,1.91,0.45,2.62,1.42,5.12,1.87,7.74a0.89,0.89,0,0,0,.81.83,0.7,0.7,0,0,1,.58.51c0.63,1.5.65,1.51-.84,2.61a36.71,36.71,0,0,0,6.69-1.88,5.52,5.52,0,0,0-1.93.29,0.67,0.67,0,0,1-.89-0.33h0v-0.06a41.92,41.92,0,0,0-2.82-4.81,42.8,42.8,0,0,1-5-13.41c-0.07-.41-0.15-0.82-0.2-1.24s-0.1-1,.53-1.1a1.26,1.26,0,0,1,1.48.48,1.3,1.3,0,0,1,.19.52c0.23,2.21,1.25,4.18,1.91,6.26A41.82,41.82,0,0,0,63,482.35a2.51,2.51,0,0,0-.54-1.54c-0.29-.47-0.55-1-1-1.67a1.83,1.83,0,0,1,1,.92,5.86,5.86,0,0,1,.61.94,2,2,0,0,0,1.79,1.12,21.84,21.84,0,0,1,2.43.31c-0.83.47-1.67,0.3-2.2,0.69-0.23.61,1.16,0,.49,0.88-0.14.19,0.19,0.25,0.36,0.22A4.18,4.18,0,0,0,67,484c1.37-.66,3-0.75,4.23-1.68a0.87,0.87,0,0,1,1.16.11,1.09,1.09,0,0,0,1.28,0,14.18,14.18,0,0,1,5.13-1.15,3.46,3.46,0,0,1,1.89.41,3,3,0,0,0,1.88.48c2.18-.17,4.36-0.34,6.55-0.46,3.49-.2,7-0.33,10.45-0.71,2.54-.28,5.06-0.47,7.61-0.62a51.77,51.77,0,0,1,7.67-.34,3.39,3.39,0,0,0,3.64-2.38c0.72-1.68,1.73-3.19,2.43-4.87,0.46-1.09,1-1.34,2.12-.83a3.39,3.39,0,0,0,3.08-.09,2.87,2.87,0,0,1,.52-0.19c0.87-.22,1.21,0,1.25.94a9.07,9.07,0,0,1-.1,1.67c-0.16,1.15-.22,1.19-1.46,1.38a0.47,0.47,0,0,0-.57.47,0.49,0.49,0,0,0,.66.51,2.68,2.68,0,0,0,.54-0.14,0.45,0.45,0,0,1,.6.54c-0.17,1.57-.21,3.16-0.53,4.72a1.39,1.39,0,0,1-1.48,1c-1.11.1-2.22,0.27-3.34,0.28-2,0-4,.49-6,0.58-0.5,0-.6.52-1,0.5a12.54,12.54,0,0,0-1.26.07h0c-0.55-.6-1.17-0.31-1.81-0.17a3.17,3.17,0,0,1,.29,3.25h0Zm-7.75-.61h0a0.58,0.58,0,0,1-.64.51h0a0.59,0.59,0,0,1-.71-0.44h0v0a0.52,0.52,0,0,1,.45-0.58h0.16a0.7,0.7,0,0,1,.83.54h-0.08Zm-68.77,9.86a0.63,0.63,0,0,1,.55-0.7h0.12a0.38,0.38,0,0,1,.45.4,0.75,0.75,0,0,1-.67.73h0a0.4,0.4,0,0,1-.44-0.43h0Zm89.21-10.06c-0.94.26-1,.26-1-0.56a4.07,4.07,0,0,0-.31-1.63,0.92,0.92,0,0,0-1.13-.58,0.76,0.76,0,0,0-.62.88h0v0.35c0,0.5,0,1-.6,1a1,1,0,0,1-1-.85c-0.37-1-.16-1.47.77-1.67a2.74,2.74,0,0,1,.7-0.07c1.35,0.06,2.67-.46,4.26-0.2-1.86,1.15-2,1.53-1.08,3.28h0v0.05Zm-5.68.63c-1.17-.18-1.49-0.88-1.24-2.63a18.83,18.83,0,0,0,1.25,2.62h0Zm-4.93-.73c0.17,0.38-.15.66-0.63,0.81a4.67,4.67,0,0,1,.07-2.93c0,0.8.61,0.88,1.28,1-0.65.13-1.06,0.34-.71,1.11h0Zm1.31,3.73-1.24.07c-0.49,0-1,0-1.09-.57a1.16,1.16,0,0,1,.59-1.42,3.82,3.82,0,0,1,1.36-.3c2.74-.25,5.46-0.49,8.19-0.76a2.74,2.74,0,0,1,1.62.29c0.81,0.43.83,0.89,0.08,1.44a2.61,2.61,0,0,1-1.18.39c-2.75.45-5.57,0.61-8.32,0.85h0Zm9.66,0.12c0.07,0.39-.33.39-0.58,0.39-1.34,0-2.66.42-4.06,0l3.94-.69a0.57,0.57,0,0,1,.71.25h0v0Zm2.64,1.48c-1.86.07-3.67,0.59-5.54,0.77,1.39,0.35,3.11-.55,4.13,1.12a0.7,0.7,0,0,1-.74.37c-1.94.18-3.88,0.36-5.83,0.52a3.31,3.31,0,0,1-1-.06,0.72,0.72,0,0,1-.57-0.7,0.64,0.64,0,0,1,.54-0.71,7.91,7.91,0,0,0,1.26-.31c-0.49-.06-1-0.11-1.48-0.19a0.4,0.4,0,0,1-.31-0.34,0.39,0.39,0,0,1,.34-0.38,21.69,21.69,0,0,1,3.58-.49c1.66-.21,3.33-0.31,5-0.45a2.88,2.88,0,0,1,.56,0,0.69,0.69,0,0,1,.84.49v0c0,0.44-.48.3-0.78,0.31h0Zm1.47-7.86a1.75,1.75,0,0,1-1-.63h0a1.23,1.23,0,0,1,1.21-.43,0.48,0.48,0,0,1,.5.66,0.51,0.51,0,0,1-.58.43h-0.14v0Zm1.07-2.84a1.22,1.22,0,0,1-1.37,1.38,0.54,0.54,0,0,1-.61-0.59,3.51,3.51,0,0,1,.09-0.69q0.76-3.81,1.54-7.62a0.36,0.36,0,0,1,.34-0.32h0a9,9,0,0,1,.25,2.58c-0.19,1.73-.15,3.49-0.23,5.25h0Zm5.65,11.36h0a0.42,0.42,0,0,1-.58.14h0a1.63,1.63,0,0,1-.88-0.8,1.16,1.16,0,0,1,1.26-.08h0.1a0.47,0.47,0,0,1,.12.65h0Zm0.36-1.51a5.09,5.09,0,0,1-2.59.32c-0.69.06-1.38,0.13-2.07,0.18-0.32,0-.71,0-0.74-0.41a0.51,0.51,0,0,1,.54-0.48h0l4.7-.45a0.39,0.39,0,0,1,.51.32,0.56,0.56,0,0,1-.36.5v0Zm-0.09-1.44c-1.56.18-3.12,0.33-4.68,0.49-0.28,0-.6,0-0.62-0.36a0.44,0.44,0,0,1,.46-0.42h0a53.27,53.27,0,0,1,5.89-.43,1.21,1.21,0,0,1-1,.72h0ZM138.4,487a1.3,1.3,0,0,1-1.12.7c-1.66.17-3.31,0.35-5,.51a0.91,0.91,0,0,1-1.17-.48c-0.18-.61.89-1,1.39-1.15,0.69-.26,0-0.5,3-0.43h0c0,0.4,1.76-.19,3,0,0.76,0.07.25,0.3,0,.86h-0.1Zm-0.25-4c-0.36.59-.6,1.25-0.91,1.87a0.47,0.47,0,0,1-.54.33,0.56,0.56,0,0,1-.34-0.4c-0.7-1.59-.1-2.7,1.61-2.82a4.83,4.83,0,0,1,2.39.07c-0.77.65-1.77,0.25-2.16,1h0Zm1.6-1.66a8.73,8.73,0,0,1-1.79.16c0.34-1,2.66-3.29,4.66-4.59-0.54,1.32-1,2.35-1.39,3.38a1.49,1.49,0,0,1-1.43,1.06h-0.05Zm3.09,0.8a17.32,17.32,0,0,1-1.31,2h0a2.58,2.58,0,0,1,.73-2.39,0.41,0.41,0,0,1,.51-0.09,0.34,0.34,0,0,1,.14.46h0Zm0.07-1.31c-0.62-.33-0.09-0.91.09-1.34,0.48-1.16,1.13-2.26,1.51-3.45,0.76-2.38,2.7-3.69,4.33-5.3l0.28,0.18c-0.48.89-.94,1.79-1.44,2.68-1.22,2.15-2.44,4.29-3.68,6.42-0.2.42-.41,1.13-1,0.83Zm6.93,8.57c-0.68.12-1.37,0.22-2,.32H147a0.27,0.27,0,0,1-.28-0.25,0.41,0.41,0,0,1,.19-0.32,8,8,0,0,1,2.86-.33,0.41,0.41,0,0,1,.28.26,0.32,0.32,0,0,1-.2.34v0ZM148,488.26a0.54,0.54,0,0,1-.3-0.24,0.25,0.25,0,0,1,.07-0.23,3.12,3.12,0,0,1,2.66-.09,3.72,3.72,0,0,1-2.37.58Zm2.44-1.83a2.17,2.17,0,0,1-1.07.19,0.84,0.84,0,0,1-1-.37,1,1,0,0,1,.32-1,2,2,0,0,1,1.76-.56,0.5,0.5,0,0,1,.49.51h0a1.27,1.27,0,0,1-.49,1.2H150.4Zm1-4.31c-0.06,0-.12.81-0.23,1.25a1.14,1.14,0,0,1-.88.82,0.65,0.65,0,0,1-.65-0.06,0.54,0.54,0,0,1-.06-0.64c0.22-.56.44-1.12,0.68-1.68,0.14-.34.27-0.83,0.74-0.73s0.38,1,.42,1h0Zm0.63,3.36a1,1,0,0,1,.88-1.1h0a0.49,0.49,0,0,1,.51.54,1.24,1.24,0,0,1-1,1.34c-0.43,0-.49-0.36-0.45-0.76H152Zm13,4.64c-0.45,0-.94.15-1.37,0.17-3,.16-6,0.51-9,0.78a4.35,4.35,0,0,1-.84,0,0.75,0.75,0,0,1-.62-1.22c0.37-.44.53-0.59-0.17-0.67a0.42,0.42,0,0,1-.28-0.27,0.36,0.36,0,0,1,.3-0.4,2.71,2.71,0,0,1,.4-0.11l7.53-1.46a1.1,1.1,0,0,1,.81.42c1,1,2.37-.21,3.27,2.79h0Zm9-1.9a0.5,0.5,0,0,1-.39,0c-0.87-.69-1.75-1.37-2.59-2.09-0.37-.31-0.2-0.62.22-0.67,1.15-.14,2.3-0.22,3.45-0.34,0.65-.07.4,0.58,0.68,0.79h0a7.83,7.83,0,0,1-1.32,2.32h0ZM185.35,482a55.72,55.72,0,0,1-6.62,1,14.83,14.83,0,0,0-2.15.56,61.77,61.77,0,0,1-6.19,1.09,3.87,3.87,0,0,1-2.42-.41h0l5.62-1.08q5.83-1.09,11.67-2.14c0.47-.08,1.22-0.44,1.34.2s-0.71.69-1.2,0.79h-0.05Zm38.54-6.38v-0.35l13.23-2.58,0.06,0.32ZM288.42,461c-2.41.55-4.82,1.07-7.23,1.6l-20.6,4.54-1,.22c-0.31,0-.57,0-0.61-0.32a0.42,0.42,0,0,1,.32-0.42,10.29,10.29,0,0,1,1.2-.36l27.84-6.1c0.37-.08,1-0.42,1.09.1s-0.53.65-1,.75h0Zm2.37-5.63c-0.17.87-.42,1.73-0.54,2.6a2,2,0,0,1-1.84,1.79c-1.87.37-3.74,0.78-5.61,1.18l-22,4.82a17.19,17.19,0,0,1-1.8.28c-0.37,0-.8,0-0.86-0.47a0.77,0.77,0,0,1,.59-0.84c0.35-.13.71-0.21,1.09-0.33-0.18-.4-0.46-0.13-0.67-0.15a0.66,0.66,0,0,1-.7-0.83,5,5,0,0,1,.86-2.85,1.37,1.37,0,0,0-1,0,0.61,0.61,0,0,0-.5.7v0.09a14.33,14.33,0,0,1-.89,4.63,1.5,1.5,0,0,1-1.35.85l-4.53.89a2.87,2.87,0,0,0-1.48.5,42.36,42.36,0,0,0,4.42-.69c0.55-.08,1.1-0.2,1.66-0.27a0.48,0.48,0,0,1,.59.25c0.11,0.37-.21.48-0.46,0.57a7.14,7.14,0,0,1-1,.23l-21.55,4.18c-2.33.45-4.65,1-7,1.36-0.56.1-1.51,0.7-1.67-.16s1-.64,1.56-0.79c0.81-.22,1.65-0.33,2.46-0.51a0.81,0.81,0,0,0,.76-0.45c-1.12.21-2.16,0.42-3.21,0.6a15.44,15.44,0,0,1-1.8.25c-0.86,0-.91-0.14-0.76-1,0.24-1.35.37-2.72,0.52-4.08a0.41,0.41,0,0,0,0-.09,0.4,0.4,0,0,0-.4-0.39,0.49,0.49,0,0,0-.55.51c0.09,1.47-.58,2.82-0.68,4.26a1.92,1.92,0,0,1-1,1.61c0.58,0.33.59,0.72,0,1a4,4,0,0,1-1.19.36l-10.7,2.21a6.9,6.9,0,0,0-2,.59,33.87,33.87,0,0,0,4.12-.69c0.34,0,.71-0.32,1,0.26,0.17,0.32.78,0,1.18,0,1.91-.39,3.82-0.8,5.74-1.18a3.68,3.68,0,0,1,1.6-.18,1.13,1.13,0,0,1-.86.37L207,478.89c-0.48.09-1,.52-1.42-0.24a5.91,5.91,0,0,1,2.07-.5h0a12.31,12.31,0,0,0-2.91.23c-4.66,1-9.31,1.8-14,2.74-0.4.08-1.24,0.06-1.24,0.11h0a0.42,0.42,0,0,1-.31-0.23,0.54,0.54,0,0,1,.12-0.38,2.71,2.71,0,0,1,1.54-.59c6.4-1.31,12.79-2.6,19.19-3.92a22.74,22.74,0,0,0,4.62-1.11c-2.84.28-5.6,1-8.38,1.54-5.08,1-10.14,2-15.21,3.08-0.59.12-1.19,0.26-1.79,0.33-1.1.13-1.23,0-1-1.12s0.14-2.59.44-3.86c0.12-.5-0.17-0.71-0.64-0.6s-0.87.27-1.63,0.51a1.18,1.18,0,0,1,1.17,1.63c-0.17.78,0,1.72-1,2.15-0.31.13,0,.25,0.13,0.37,0.49,0.74.37,1.18-.45,1.45a12.3,12.3,0,0,1-1.64.35l-21.73,4c-0.46.08-1.11,0.47-1.34-.21a1.42,1.42,0,0,1,.67-1.57,3.28,3.28,0,0,1,1.46-.45l4-.64a1.72,1.72,0,0,0-1.25-.14c-0.92.14-1.84,0.32-2.76,0.44-1.5.18-1.58,0.09-1.28-1.34a3.79,3.79,0,0,0,.09-0.41,1.94,1.94,0,0,1,1.91-1.86c1.85-.26,3.69-0.57,5.53-0.87a7.49,7.49,0,0,0,2.14-.54,5.07,5.07,0,0,0,.83,0,77.31,77.31,0,0,1,10.3-.74c1-.06,1.38-0.77,2-1.38a1.68,1.68,0,0,1-1-1c-0.64-2-.4-2.09,1.36-2.1a16.71,16.71,0,0,0,3.07-.19,0.83,0.83,0,0,0,.79-1.07c-0.07-.37-0.1-0.74-0.15-1.11a1.47,1.47,0,0,0-1.83-1.57c-1.07,0-2.14.16-3.21,0.18-1.61,0-1.71,0-2.19-1.54-0.14-.44-0.29-0.88-0.43-1.33a1.37,1.37,0,0,0-1.46-1,48.72,48.72,0,0,0-5.86.38,2.63,2.63,0,0,0-1.8,1.23c-1.59,2.09-1.77,1.91-3.83.58a8.42,8.42,0,0,0-2.6-1.34,0.52,0.52,0,1,1,.1-1c1.63-.1,3.26-0.27,4.88-0.26,4.66,0,9.32-.22,14-0.4,6.47-.26,12.94-0.49,19.4-1,3.58-.27,7.16-0.41,10.75-0.62a19.6,19.6,0,0,1,3.48-.25,22.37,22.37,0,0,0,8.26-.63,53.45,53.45,0,0,1,7.5-.79c6-.59,12.07-1.15,18.09-1.8,6.9-.75,13.8-1.58,20.69-2.4l14.3-2a9.1,9.1,0,0,1,2.5,0c0.85,0.19.92,0.29,0.75,1.18h0Zm13.44,1.37a3.73,3.73,0,0,0-2.31.86,1.11,1.11,0,0,1-.51.21c-2.93.78-5.85,1.56-8.78,2.32-0.32.08-.82,0.38-1-0.14s0.4-.55.72-0.7a2.88,2.88,0,0,0,1-.39,2.51,2.51,0,0,0-1.27,0c-0.52,0-.94,0-1-0.69A1,1,0,0,1,292.2,457c3,0.42,5.79-.64,8.69-0.92a0.47,0.47,0,0,0,.44-0.31,0.62,0.62,0,0,0-.83-0.29h0c-1.75.56-3.59,0.42-5.38,0.68-0.69.09-1.38,0.2-2.08,0.23-0.94.06-1.3-.18-1.41-0.78a1.82,1.82,0,0,1,.85-1.9,2.73,2.73,0,0,1,2.55,0,0.64,0.64,0,0,0,.75.19A0.76,0.76,0,0,0,296,453c-0.08-.31-0.27-0.59-0.38-0.9a13.57,13.57,0,0,1-.45-1.45,0.62,0.62,0,0,1,.78-0.83,5,5,0,0,1,2.28.57,2.16,2.16,0,0,0,1.74.28,5,5,0,0,1,1.94.07c3.67,0.62,7.34,1.26,11,1.82,1,0.16,1.9.78,3,.75a85.84,85.84,0,0,1-11.57,3.33h0v0.06Zm20-7.41C324.88,448,324,447.1,324,446a2,2,0,0,0-.27,1.4,3.24,3.24,0,0,1-.54,1.84,2.5,2.5,0,0,1-2.45,1.26c-1.86-.17-3.72-0.22-5.58-0.33a0.89,0.89,0,0,1-1-.39,0.86,0.86,0,0,1,.46-0.8l6.11-6.73a7.13,7.13,0,0,0,1.26-1.63,1.65,1.65,0,0,0-1.21.76c-2.23,2.44-4.5,4.86-6.66,7.36a3,3,0,0,1-2.78,1.21c-2-.17-4-0.63-6.08-0.93-3.27-.5-6.53-1.11-9.8-1.57a2.36,2.36,0,0,1-2.14-1.83c-7.07-20.89-14.15-41.77-21-62.72Q263,354.55,254,326.09q-11.85-37.25-23.45-74.57c-7.46-24-14.69-48.06-22-72.1l-18-59c-1.18-3.88-2.36-7.76-3.58-11.63a6.85,6.85,0,0,1-.25-2.35c0.18-5.08.39-10.15,0.55-15.23,0.48-14.91.76-29.83,0.53-44.75-0.1-6.66-.35-13.33-0.59-20a28.51,28.51,0,0,1,0-4.92q2.18,6.49,4.33,13Q195.79,47.42,200,60.3c2.28,6.91,4.52,13.82,6.8,20.73,2.51,7.61,5.06,15.22,7.58,22.83q5.94,17.92,11.86,35.85l8.58,26,17.79,53.92q4.21,12.75,8.41,25.5l15.12,46,8.41,25.4q9.73,29.56,19.47,59.11l16,48.21q2.56,7.77,5.09,15.55a2.09,2.09,0,0,1,.27,1.33c-0.29.21-.54-0.16-0.81,0a0.54,0.54,0,0,0,0,.24c1.68,1,2,2.81,2.55,4.49,0.19,0.58-.3,1.11-0.2,1.47s0.88,0.6,1,1.2,0.32,0.88.44,1.33c0.25,0.91.1,1.14-.87,1.32a7.59,7.59,0,0,1-2.1.06c-1-.14-1.57-0.71-1.11-1.56h0Zm2.18,3.42c1.81-.64,3-0.13,3.38,1.62a8.56,8.56,0,0,0-3.36-1.61h0Zm5.23,3.84c-0.91-1-1-2.27-1.54-3.6a5.25,5.25,0,0,1,1.55,3.6h0Zm-0.14-6.61a9.8,9.8,0,0,1-1.22.3,1.65,1.65,0,0,1-1.59-1.71h0v-0.11a0.39,0.39,0,0,1,.42-0.36h0.09a8.42,8.42,0,0,1,2.43,1,0.45,0.45,0,0,1-.12.86h0v0Zm-0.3-1.72c-0.83-.29-1.64-0.65-2.45-1a1.17,1.17,0,0,1-.69-0.65c-0.24-.65-0.5-1.3-0.71-2a2.42,2.42,0,0,1-.26-1.45,22.76,22.76,0,0,1,4.65,3.12,2.27,2.27,0,0,1,.55,1c0.2,0.82-.24,1.27-1.07,1h0Zm13.64,7.08-8.73,1-0.56.07c-1.71.15-2.52-.5-2.71-2.19a0.92,0.92,0,0,1,1-1.24,23.26,23.26,0,0,1,2.93,0c2.09,0.12,4.18.36,6.27,0.43,2.84,0.1,5.66.45,8.51,0.34a6.77,6.77,0,0,1,2.78.4Z"/><path class="cls-1" d="M18,440.24h0Z"/><path class="cls-1" d="M57.46,486.7h0Z"/><polygon class="cls-1" points="57.45 486.68 57.45 486.68 57.45 486.68 57.45 486.68"/><path class="cls-1" d="M182,525.57a4.65,4.65,0,0,0-4.5-2.49c-1.57,0-1.77.23-2,1.82-0.39,2.47-.67,5-1.9,7.24-0.45.83-.15,1.21,0.81,1.27s1.2,0,3.2,0h0v-1h0v0.91s2.65,0.09,4,0c1.62-.15,2.18-0.81,2.29-2.44a5.88,5.88,0,0,0-.26-1.93A15.58,15.58,0,0,0,182,525.57Z"/><path class="cls-1" d="M18,440.25h0Z"/><path class="cls-1" d="M18.54,439.32c0.08-.92.2-1.84,0.25-2.77,0.12-2.41.21-4.81,0.32-7.22a1.85,1.85,0,0,1,1.1-2.07c-1.3,0-1.62.18-1.72,1.45-0.21,2.73-.35,5.46-0.49,8.2a18.43,18.43,0,0,0,0,3.31A1.13,1.13,0,0,0,18.54,439.32Z"/><path class="cls-1" d="M24.89,429.25c0,0.38-.06.75-0.08,1.12-0.14,2.51-.28,5-0.39,7.52a1.52,1.52,0,0,0,.42,1.49,20,20,0,0,0,.3-3.6q0.29-3.62.43-7.24c0-1.39-.4-1.73-2.11-1.62A2,2,0,0,1,24.89,429.25Z"/><path class="cls-1" d="M88.37,486a0.78,0.78,0,0,0-.68,1,1.26,1.26,0,0,1-.1,1.11,2.29,2.29,0,0,1-2.52.06,17.79,17.79,0,0,0-1.38-1.37,1.61,1.61,0,0,0-2.16,0,7.07,7.07,0,0,0-1.2,2.5c-0.15.49,0.19,0.67,0.63,0.67a1.84,1.84,0,0,0,1-.4,2,2,0,0,1,1.74-.22,6.29,6.29,0,0,0,2.84.21h1c2.29-.14,2.61-0.64,1.83-2.77a0.88,0.88,0,0,0-1-.79h0Z"/><path class="cls-1" d="M94.47,485.59a0.71,0.71,0,0,0-.64.77h0v0.7a0.74,0.74,0,0,1-.6.82,0.83,0.83,0,0,1-.93-0.46c-0.2-.36-0.3-0.78-0.49-1.15a0.84,0.84,0,0,0-1.08-.39,0.73,0.73,0,0,0-.5.88c0.06,1.5,1.08,2.33,3.09,2.34a7,7,0,0,0,.9-0.16,1.81,1.81,0,0,0,1.25-2.81A0.87,0.87,0,0,0,94.47,485.59Z"/><path class="cls-1" d="M98.48,485.2a10.7,10.7,0,0,0-1.24.18,1,1,0,1,0,0,2.09,3.17,3.17,0,0,1,2.08.91,0.78,0.78,0,0,0,1.32-.37,3.67,3.67,0,0,0-.55-2.39C99.79,485.06,99.14,485.26,98.48,485.2Z"/><path class="cls-1" d="M68.93,487.4a1.59,1.59,0,0,0-.68.1,0.42,0.42,0,0,0-.39.33,0.49,0.49,0,0,0,.27.44c0.21,0.16.76,0,.66,0.29-0.42,1.08,1,1,1.07,1.84,0.07,0.45.77,0.38,1.22,0.24a0.74,0.74,0,0,0,.47-0.89C71.59,487.6,71,487.13,68.93,487.4Z"/><path class="cls-1" d="M57.46,486.7h0Z"/><path class="cls-1" d="M51.92,488c-1.44.09-2.86,0.34-4.32,0.35a31.28,31.28,0,0,0-3.33.33,38.52,38.52,0,0,0,6.41,0,15.41,15.41,0,0,0,6.74-2,10,10,0,0,0-3.48.79A6.62,6.62,0,0,1,51.92,488Z"/><path class="cls-1" d="M78,486.78a0.69,0.69,0,0,0-.54.81h0a6.55,6.55,0,0,0,.42,1.87,0.8,0.8,0,0,0,1,.52,0.77,0.77,0,0,0,.62-0.89h0V489a6.93,6.93,0,0,0-.43-1.82A0.83,0.83,0,0,0,78,486.78Z"/><path class="cls-1" d="M122.59,475.13a3.69,3.69,0,0,0,2,.06,3.4,3.4,0,0,0-1.81-.82,0.38,0.38,0,0,0-.46.2A0.46,0.46,0,0,0,122.59,475.13Z"/><path class="cls-1" d="M192.59,477.72a28.07,28.07,0,0,0,5.16-1.36l-5.25,1.06Z"/><path class="cls-1" d="M246.86,468.49l-4.35.85A8.28,8.28,0,0,0,246.86,468.49Z"/><polygon class="cls-1" points="235.26 470.74 235.31 471.02 239.72 470.17 239.67 469.89 235.26 470.74"/></g><circle id="point_mat" data-name="point mat" class="cls-2" cx="167.97" cy="50.91" r="50.91"/><circle id="point_greement" data-name="point greement" class="cls-2" cx="326.41" cy="454.04" r="33.39"/><circle id="point_quille" data-name="point quille" class="cls-2" cx="178.62" cy="528.25" r="33.39"/><circle id="point_safran" data-name="point safran" class="cls-2" cx="28.98" cy="523.06" r="28.98"/><circle id="point_cabine" data-name="point cabine" class="cls-2" cx="121.58" cy="461.42" r="15.58"/><g id="legende"><circle class="cls-3" cx="459.3" cy="512.07" r="49.75"/><circle class="cls-3" cx="459.3" cy="545.41" r="16.41"/><circle class="cls-3" cx="459.3" cy="531.5" r="30.32"/><circle class="cls-3" cx="459.3" cy="521.78" r="40.03"/><text class="cls-4" transform="translate(454.96 544.46)">3</text><text class="cls-4" transform="translate(454.96 516.67)">7</text><text class="cls-4" transform="translate(454.96 496.87)">8</text><text class="cls-4" transform="translate(450.61 477.08)">11</text></g></svg>