<svg id="boat_times" xmlns="http://www.w3.org/2000/svg" viewBox="0 0 86.2 139.28"><defs><style>.cls-1{fill:#2b4c7e;}</style></defs><title>boat_times</title><rect class="cls-1" x="64.67" y="13.88" width="1.09" height="113.33" transform="translate(-16.98 20.82) rotate(-16.08)"/><path class="cls-1" d="M52.27,2.57H49.83S22,31.65,12.62,111.33H52.27V2.57Z"/><rect class="cls-1" x="16.1" y="80.28" width="36.52" height="0.83"/><rect class="cls-1" x="25.6" y="45.54" width="27.02" height="0.83"/><rect class="cls-1" x="36.1" y="20.95" width="16.52" height="0.83"/><rect class="cls-1" x="10.47" y="111.33" width="41.8" height="0.84"/><rect class="cls-1" x="7.54" y="85.07" width="79.48" height="0.72" transform="translate(-43.41 121.61) rotate(-82.79)"/><rect class="cls-1" x="51.78" width="0.99" height="122.82"/><path class="cls-1" d="M34.1,129.22v10s4.49,0.48,4.49-4v-6.52Z"/><path class="cls-1" d="M3.47,126V139h-2s-1.68-8.85-1.2-13.82C0.24,125.15,2.43,124.07,3.47,126Z"/><path class="cls-1" d="M86.2,122.82l-0.72,3c-0.06.26-.12,0.5-0.2,0.73a2.25,2.25,0,0,0-.12.35c-0.06.16-.12,0.31-0.18,0.44l-0.11.23c-0.83,1.27-2.83,1.56-3.78,1.63l-24.68.93c-24,1-52.52-2.15-52.52-2.15v-5.14H86.2Z"/><path class="cls-1" d="M3.89,127.48a3.21,3.21,0,0,0-2-1.26A2,2,0,0,1,0,124.07c0-1.2,3.89-1.26,3.89-1.26v4.67Z"/></svg>