<svg id="svgCoupe" xmlns="http://www.w3.org/2000/svg" viewBox="0 0 52.62 51.7"><defs><style>.cls-1{fill:#2b4c7e;}</style></defs><title>coupe</title><path id="coupe" class="cls-1" d="M30.89,34a0.1,0.1,0,0,0,.1-0.1,19,19,0,0,0,8.8-7.9c20.5-12.7,11.9-22.7,5.1-20.9,0.4-3,.6-5.1.6-5.1H7.09s0.2,2.1.6,5.1c-6.8-1.8-15.3,8.2,5.1,20.9a19,19,0,0,0,8.8,7.9,0.35,0.35,0,0,0,.2.1,3.54,3.54,0,0,1,1.9,2.8v4.6c0,7.3-7.4,7.1-7.4,7.1h-1v3.2h22.1V48.5h-1s-7.4.2-7.4-7.1V36.8A3.42,3.42,0,0,1,30.89,34Zm10.7-11.5a19.31,19.31,0,0,0,1.2-4.1c0.7-3.6,1.3-7.2,1.7-10.2C50.39,7.1,54,12.4,41.59,22.5ZM8.19,8.2c0.4,3.1,1,6.7,1.7,10.2a27.69,27.69,0,0,0,1.2,4.1C-1.21,12.4,2.39,7.1,8.19,8.2Z"/></svg>