<svg id="Calque_1" data-name="Calque 1" xmlns="http://www.w3.org/2000/svg" viewBox="0 0 439.41 242.13"><defs><style>.cls-1{fill:#2b4c7e;}.cls-2{fill:#821640;opacity:0.7;}.cls-2,.cls-4{isolation:isolate;}.cls-3{fill:none;stroke:#821640;stroke-miterlimit:10;}.cls-4{font-size:9px;font-family:Source Sans Pro;}</style></defs><title>map_lieux</title><g id="map"><path class="cls-1" d="M439.37,61.67v-1a3.66,3.66,0,0,1-1.5.73l-0.25,0a1.38,1.38,0,0,0-.92,1.72l0.71-1a2.16,2.16,0,0,0,2-.52Z"/><path class="cls-1" d="M425.89,45.59c-0.4-.5-0.68-0.93,0-1.3a3.44,3.44,0,0,0-.22-0.87l1.67,0.17,0.72-1.06a25.31,25.31,0,0,0-2.27-2,3.1,3.1,0,0,0-1.54-.38h-0.19A1,1,0,0,0,423,41a2.17,2.17,0,0,0-1.4-2.19,17.47,17.47,0,0,1-2.31-1.54,11.22,11.22,0,0,0-1-.81,3.27,3.27,0,0,1-1.27-.93,2.94,2.94,0,0,0-1.34-1.2c-0.54-.14-1.13-0.67-1.8-0.23a0.7,0.7,0,0,1-.56-0.2,4.38,4.38,0,0,0-3.06-1.13c-1.36,0-2.68-.13-4-0.2a1.74,1.74,0,0,0,.18,1.25,1.26,1.26,0,0,1,.11.82,2.3,2.3,0,0,1-2.17,1l-1-2.08a2.35,2.35,0,0,1-2.38.14,2.29,2.29,0,0,0-1,0,1.75,1.75,0,0,1-.59.1c-0.57-.57-1.28-0.32-1.92-0.32-1.09,0-2.06.26-2.3,1.51a13.44,13.44,0,0,1-1-1.31A1,1,0,0,1,394,33a0.84,0.84,0,0,0-.45-1,3.37,3.37,0,0,0-3.35-.89c-1,.23-2.18-0.45-3.18.23-0.65-.45-1.33-0.06-2,0.13-0.26-.57-0.35-1.22-1.19-1.3l-0.6,1.38H381l-0.08-.26c0.71,0.1,1.35,0,1.35-.68L381,30c0.39-.42,1,0.12,1.11-0.49s-0.44-.74-0.87-0.9h-0.13c-2-.58-2.11-0.56-3.17,1.1a1.48,1.48,0,0,1-1.39.8c0.25-.64.18-1.34,1.13-1.34a1.4,1.4,0,0,0,.32-0.53c-0.88-.31-1.8.52-2.58-0.41l1-.2V27.79l-5-1v0.57l-1.21.21v2.59a1,1,0,0,1-1-.36c-0.3-.29-0.61-0.12-0.72.3a2.37,2.37,0,0,0-.12.5c-1.07.27-1.67-.46-2.36-0.9a1.48,1.48,0,0,0-1.94-.06,4.4,4.4,0,0,1-1,.47l-0.79-1.28c-0.89,1.11-.43,2.72-1.81,3.55V31.55l-2.83-1.2,0.48-.69c-0.9.17-1.11-.59-1.57-1a3.2,3.2,0,0,0-2-.28l-0.17-.7-1.23.34a1.42,1.42,0,0,0-.09-0.66,2.77,2.77,0,0,1-.16-0.54c1.4-.54,1.4-0.54,1.8-1.42-0.52-.29-1-0.55-1.52-0.87a1.94,1.94,0,0,0-2.15.1,0.7,0.7,0,0,0-.14,1.17,7.56,7.56,0,0,0,1.33.74,1.26,1.26,0,0,1-1.82.84,6.32,6.32,0,0,0-2-.49,5.2,5.2,0,0,1-2.9-.91V24.84a14.11,14.11,0,0,1-2.4-.26,2.43,2.43,0,0,0-2.64.59,3.27,3.27,0,0,1-.52.36l-0.54-.64c-0.82.61-1.38,0.67-1.82,0a1,1,0,0,0-1.31-.22h-0.07a1,1,0,0,0-.23,1.39h0l-4.86,1.58A12.19,12.19,0,0,1,334,25.83a1.9,1.9,0,0,0,1.1-1.11c0.13-1.09.87-1.21,1.65-1.4,0.58-.14,1.16-0.25,1.72-0.41,0.75-.22,1.47-0.48,2.32-0.75l-0.67-1.32c0.6-.2.69-0.67,0.38-1-0.47-.52-0.56-1.5-1.56-1.44a0.62,0.62,0,0,1-.38-0.44c-0.11-.72-0.54-0.75-1.11-0.62a2.59,2.59,0,0,1-.75.19,3,3,0,0,0-2.74.86,1.62,1.62,0,0,1-.66.18V17.45l-2-.43,0.26-.62c-0.92-1.15-2-.58-3-0.58-1.37-.05-1.71,1.18-2.66,1.73l0.53,0.9a0.41,0.41,0,0,1-.14.06H326.1c-0.92-.12-1.81-0.3-2.6.53a2.37,2.37,0,0,1-2.36.9l0.36-1.53h-1.28l-0.08.66c-1.53-.34-2.9.39-4.34,0.66-0.86.16-1.75,0.2-2.59,0.41a22.76,22.76,0,0,0-2.28.8l-0.7,1.36L309.39,22l-0.1.16,0.56,0.52-0.72.51c1,1,1.22,1.45.72,2.11A0.76,0.76,0,0,0,309,24.4c-1.35.11-2.71,0.17-4.07,0.3-1.65.16-1.69,0.22-2,1.83-0.24,1.25,0,1.6,1.26,2a4.62,4.62,0,0,1,1.68,1,2.35,2.35,0,0,1-.2,1.14,0.35,0.35,0,0,0,0,.13,3.81,3.81,0,0,1,.22,1.35,3.9,3.9,0,0,1-.71,1.11h-0.08v0l-1-.43c0.31-1.11.17-2.3,1.39-3.21a9.25,9.25,0,0,1-2.13-.27,18.28,18.28,0,0,1-1.53-1.08,1.62,1.62,0,0,0-2.15.16,2,2,0,0,1,.13.86c-0.16.28-.46,0.23-0.74,0a1.4,1.4,0,0,0-.46-0.21c-0.72-.23-0.77-0.23-1,0.77l1.5,1a7.37,7.37,0,0,1-2.26.38,0.62,0.62,0,0,1-.47-0.33c0.06-.82-0.88-1.53-0.28-2.41-0.31-.5.11-1.28-0.7-1.72a6,6,0,0,1,.08,1.2,6,6,0,0,1-.35,1.5,16.84,16.84,0,0,1-1,1.69,2.43,2.43,0,0,1,.7,1.66,3.31,3.31,0,0,0,.28,2.19,4.89,4.89,0,0,0,1.27-.34c0.74-.44,1.4,0,2.08.1a1.39,1.39,0,0,1,.89,1.13,7.23,7.23,0,0,0,.55,1c-0.94,1-.86,1.27.38,1.73L301.2,39a1.16,1.16,0,0,1-1-.06c-0.43-.32-0.68.21-1,0.15h-0.1a0.74,0.74,0,0,1-.55-0.89,6.23,6.23,0,0,0,.12-1.26c-0.09-1.66-.6-2-2.09-1.42l-0.47.19h0a0.89,0.89,0,0,0-.62,1.09h0a3.11,3.11,0,0,1-.24,2.08,1.48,1.48,0,0,1-1.35,1.3,4.16,4.16,0,0,0-1.08.44,1.34,1.34,0,0,1,.46,1.7,1.85,1.85,0,0,0-2.11-1.18,1.21,1.21,0,0,1-1.4-.94,8.24,8.24,0,0,0,1.8.06,9.67,9.67,0,0,0,1.77-.75,4.9,4.9,0,0,0,.73-1.3,8.83,8.83,0,0,0,0-2,2.54,2.54,0,0,1-.68-3.11,1.51,1.51,0,0,0-.47-1.6,1,1,0,0,1-.21-1.25,11.05,11.05,0,0,0,.66-2.39,1.75,1.75,0,0,0-.45-1.35c-0.88-.77-3-0.15-3.62.85a9,9,0,0,1-1.8,2.33,1.19,1.19,0,0,0-.5,1.57,1.55,1.55,0,0,1-.2,1.84,1.34,1.34,0,0,0,0,.7l1,0.46a5,5,0,0,0,.2,1.26c0.4,0.88.43,0.86-.28,1.64a13.56,13.56,0,0,0-1.22-1.28,4.68,4.68,0,0,0-1.4-.89,4.61,4.61,0,0,1-1.32-.76,5,5,0,0,0-1.48-.63,1.71,1.71,0,0,0-.69,0,2.8,2.8,0,0,1-.84.13,1.67,1.67,0,0,0-1.57.49c0.7,2,.64,2.19-0.85,2.14l-0.36.82-0.68-1.58-1.78.8a1.88,1.88,0,0,0-2.39,0,3.15,3.15,0,0,1-2,.57,0.46,0.46,0,0,1-.17-0.09l0.55-.35-0.88-1.09a5.2,5.2,0,0,1-1.06.84c-1.27.52-2.58,1-3.86,1.45-0.89.34-1.69,0.76-1.56,1.93a1.25,1.25,0,0,1-.14.36l-1.78.53c-0.74-1.81-.74-1.81,1.08-2.41-0.44-1.82-1.8-2.28-3.59-2.4,0.54,0.57,1.16,1,.54,1.77h-0.06a1.15,1.15,0,0,0-.14,1.62,0.6,0.6,0,0,1,0,.48c-0.25.57-.53,1.12-0.77,1.63l-1.57-1.06-2.45,2,1.12,1.63c-1.48.31-2.26-.93-3.4-1.28l-0.44,1.14a4.11,4.11,0,0,1,.84.76,1.45,1.45,0,0,1,.21,1,0.89,0.89,0,0,1-.8.3c-0.58-.19-1.39,0-1.66-0.85a1.81,1.81,0,0,0-.78-0.22c-0.07-.88-0.11-1.75-0.24-2.61a1.15,1.15,0,0,0-.5-0.65,3.84,3.84,0,0,0-.83-0.28,3.18,3.18,0,0,1-1.71-2.29A23.94,23.94,0,0,0,252.63,41a3.37,3.37,0,0,0,3.66-1,1.25,1.25,0,0,0,0-2,9.68,9.68,0,0,0-1.3-1,23,23,0,0,0-7.86-3.31l0.22-.67a8.55,8.55,0,0,0-3.15.08,1.6,1.6,0,0,1-.64-0.22l1.94-1-2.17-1.39-1,.56,0.38-.89-0.84-.38-1.11,1.8-0.22-.1v-1l-1.59,2.2-0.2-.11L239.5,31l-1.41-.46-0.18.75-0.41-.23L236,32.41c-0.24-.21-0.39-0.35-0.55-0.47-0.6-.43-1.35-0.43-1.35,0l0.64,0.61c-0.73,0-1.25.81-1.95,0-0.22.81-.74,0.7-1.34,0.43l0.14,0.82-1.35.88c-0.18.88-.39,1.73-1.47,1.94l0.38,0.81-1-.12,0.36,1.28-2.73,2.23v0.9c-0.43.83-1.69,0.6-1.69,1.76a1.54,1.54,0,0,1-.32.11,2,2,0,0,0-.61.3c-0.64.59-1.27,1.25-2,2L222,46.18a0.92,0.92,0,0,1-.26.27c-0.68-.2-1.36-0.42-2.11-0.66l0.24,1-1.78.78c0.48,1-.65.64-1,0.92,0.21,0.59.12,0.63-.19,0.72a7.13,7.13,0,0,1-.94.15c-0.39.06,0.15,0.54-.39,0.73s-0.47.5,0.06,0.9a0.49,0.49,0,0,1,.19.2c-0.15.41-.32,0.81-0.5,1.24l1.5,0.94-1.28,1.22,1.29,0.31-0.6,1.24v0.1a1.8,1.8,0,0,0,2.42.79h0c1.24-.6,2.45-1.24,3.63-1.84,0.21,0.51.4,0.93,0.57,1.37a0.76,0.76,0,0,1,.09.47,1.15,1.15,0,0,0,.42,1.22c0.53,0.72,1.28,1.38.72,2.47a2.42,2.42,0,0,0,.12,1.12c0.61,0,1.45.29,1.61-.38V61.37a1.37,1.37,0,0,1,1.61-1.08h0c1,0,1-.18,1-1.26a3.4,3.4,0,0,1,.15-0.74c0.09-.49.22-1,0.27-1.49,0.17-1.1.11-1.1,1.17-1.35a2.13,2.13,0,0,0,1.53-1.78,2.17,2.17,0,0,0-1.39-1.6A1.08,1.08,0,0,0,229.6,52a7.16,7.16,0,0,1-.17-1.26c0.07-.86-0.06-1.93.4-2.53,0.77-1,1.48-2.17,2.9-2.54a1.62,1.62,0,0,0,1.19-1.87,1.7,1.7,0,0,1,.21-0.94c0.37-.58.83-1.1,1.24-1.63,1,0.15,2-.15,2.9.55-0.21.52,0.41,1-.14,1.52a8.21,8.21,0,0,0-.75.94A6.41,6.41,0,0,1,236,45.84a12.23,12.23,0,0,0-1.77,1.76,3.24,3.24,0,0,1,.47,2.47c-0.2.77,0,1,.86,1.35a5.26,5.26,0,0,1,.78.54c-0.25.35-1,.33-0.47,1l0.5-.32c0.79,0.7.94,0.7,1.79,0.09a3.42,3.42,0,0,1,.85-0.5c1-.33,1.94-0.61,2.86-0.9a1.6,1.6,0,0,0,1.62,1.14,2.62,2.62,0,0,1,.91.41,7.6,7.6,0,0,0-1.07.37c-0.56.32-1.37,0.07-1.74,0.79a3.16,3.16,0,0,0-1.93.06c-0.93.15-1.86,0.36-2.69,0.52a2.63,2.63,0,0,0,.15,2.09,4.47,4.47,0,0,1-.12,2c-1.13.54-1.43-.43-2-1.21a4.89,4.89,0,0,0-1.51,4.71c-1,.06-1,0.06-1.33,1.06a1.39,1.39,0,0,1-1.42.71V63.47a5,5,0,0,0-2.39.7,4,4,0,0,1-3.41.23,1.52,1.52,0,0,0-2,.29,2.06,2.06,0,0,1-.53.3,4.91,4.91,0,0,1-1.24-.94,6.14,6.14,0,0,1-.52-1.63l1.11,0.38-0.13-1h0l-0.86.15,1-1.58a6.8,6.8,0,0,1-.47-1.48c0-.45.72-0.88,0.17-1.45-0.84.46-1.68,1-2.5,1.46a1.18,1.18,0,0,0-.2.42,2,2,0,0,1,.52,0,2.68,2.68,0,0,1,.53.33l-1.17.43a6,6,0,0,0,.32,2,5.11,5.11,0,0,1,.53,2.69,1.22,1.22,0,0,1-.32,1,5.94,5.94,0,0,1-2,.38A2.6,2.6,0,0,0,214.5,68l-0.28.69-3.27,1.07L210.81,71a14.78,14.78,0,0,1-1.4,1.12,3.52,3.52,0,0,1-1,.37,0.66,0.66,0,0,1-.76-0.49,1.08,1.08,0,0,0-.49,0l0.28,1.89-3.68.11v1.18c1.15,0.49,2.32.86,2.8,2.22a4,4,0,0,0,.94,1,1.63,1.63,0,0,1,.58.78A19.55,19.55,0,0,1,208,82a1.08,1.08,0,0,1-1.37,1c-1-.16-2.08-0.36-3.08-0.49a10.58,10.58,0,0,1-2.13-.14c-1.34-.46-2.06.49-3,0.84a6.89,6.89,0,0,1,.21,5.51,2.07,2.07,0,0,0-.16,1.57,18.89,18.89,0,0,1,.4,2.45,4.48,4.48,0,0,0,1.52.14,1.21,1.21,0,0,1,1.53.7c0.47,0.81.57,0.82,1.4,0.43a3.06,3.06,0,0,1,1.9-.38,1.34,1.34,0,0,0,1.51-.69,3.5,3.5,0,0,1,.92-0.83,3,3,0,0,0,.58-0.45c0.4-.58.76-1.19,1.17-1.85L209.07,89a7.72,7.72,0,0,1,3.37-3.34,1,1,0,0,0,.54-1.27A1.13,1.13,0,0,1,213.5,83a1.68,1.68,0,0,1,2.11,0,1,1,0,0,0,1.27.07l2.49-1.91a2.73,2.73,0,0,1,2,1.86,4.67,4.67,0,0,0,.42,1.06,5.11,5.11,0,0,0,2.46,2.42,4.49,4.49,0,0,1,2,1.47,6.2,6.2,0,0,1,1,1.07,2.48,2.48,0,0,1,0,2.08,0.64,0.64,0,0,0,0,.9l0.14,0.1,0.76-1.09a1.45,1.45,0,0,0,0-2c-0.42-.47,0-0.84.34-1.23L230,88.6a2.38,2.38,0,0,0-.17-0.73c-0.65-1-2.08-1.1-2.56-2.29a0.37,0.37,0,0,0-.24-0.06,2.39,2.39,0,0,1-2-1.72,2.76,2.76,0,0,0-1.49-1.62,0.81,0.81,0,0,1-.43-1.24,9.82,9.82,0,0,0,.3-1.29l1-.34,0.4,1.81L226,80a3.76,3.76,0,0,0,.1.78c0.29,0.73.34,1.69,1.19,2a12,12,0,0,1,2.32,1.45l2.28,1.45a11.58,11.58,0,0,0-.18,1.47,2,2,0,0,0,.23,1.07,10.3,10.3,0,0,1,1.86,3,1.37,1.37,0,0,0,.64.29c-0.43.36-.43,0.36-0.14,1.79a2.23,2.23,0,0,0,2.11-.51l-0.09-.56c0.35,0,.76.39,0.82-0.29a1.9,1.9,0,0,1,.73-0.45l-1.81-1.35a2.55,2.55,0,0,0,0-.76c-0.13-.39-0.37-0.74-0.51-1.13a1.17,1.17,0,0,1,.28-0.47l0.57,0.65,0.83-.44-0.33-1h1.74a1,1,0,0,1,1.27,1.3,7.18,7.18,0,0,1-.1.83c0.93,0.5,1,1.31.26,2.21,0.89,0.24.76,1,.89,1.46l3,2.1,1.22-1.2a5.57,5.57,0,0,1,1.27.62,2,2,0,0,0,2.46.06c0.58-.3,1.18-0.57,1.67-0.81,0.08,1,.21,1.8.21,2.65a5,5,0,0,1-.07,1.47c-0.2.76-.52,1.49-0.78,2.24-0.83,2.41-.53,2.32-2.83,2.32a1.55,1.55,0,0,1-1.19-.18,0.79,0.79,0,0,0-.56.07,7.17,7.17,0,0,1-4.35.13,21.23,21.23,0,0,1-3.44-1.2,11.83,11.83,0,0,1-2.15-.89,1.88,1.88,0,0,0-2.54,0c-0.3.32-.54,0.66-0.83,1a3.58,3.58,0,0,1,.35.72,1.15,1.15,0,0,1-.92,1.34l-0.22,0c-1.56-.3-3.18-0.48-4.34-1.79a4.57,4.57,0,0,0-3.28-1.61,3.38,3.38,0,0,1-1.32-.67,7,7,0,0,1-.66-0.56c-0.72-.52-0.76-0.55-0.25-1.29a1.58,1.58,0,0,0,.38-1.62,1.29,1.29,0,0,1,.28-1.75,1.39,1.39,0,0,0,.15-0.43,3.38,3.38,0,0,0-3-.42,0.9,0.9,0,0,1-.25,0,3.63,3.63,0,0,1-1.66,0c-0.7-.37-1.14.18-1.7,0.11h-0.37c-1.24,0-2.49.06-3.73,0.12a1.93,1.93,0,0,0-.68.3,12.62,12.62,0,0,1-1.67.85,3.62,3.62,0,0,0-1.73.94,1,1,0,0,1-.91.3,4.35,4.35,0,0,0-2.19,0,1.72,1.72,0,0,1-.9-0.3,2.74,2.74,0,0,1-.54-0.64,1.65,1.65,0,0,0-1,1.44,3.58,3.58,0,0,1-2,2.43,3.75,3.75,0,0,0-2,4.24,2.58,2.58,0,0,1-.3,1.93,8.5,8.5,0,0,1-2.92,2.92,7.87,7.87,0,0,0-2.26,2.88c-0.93,1.68-1.72,3.45-2.59,5.17a1.71,1.71,0,0,0-.09,1.79,3.09,3.09,0,0,1,.36,1.93,2.82,2.82,0,0,0,0,.75,8.88,8.88,0,0,1-.75,6.08,0.79,0.79,0,0,0-.12.46q0.34,1.47.73,2.92a1,1,0,0,0,.32.54,10.19,10.19,0,0,1,1.08,1.15c1.22,1.08,1.64,2.57,2.27,4a5.88,5.88,0,0,0,1.38,2.27,25.84,25.84,0,0,1,3,2.72c1.19,1.3,2.3,1.6,3.52.6a2.67,2.67,0,0,1,2.84-.32,2.39,2.39,0,0,0,1.72,0c0.92-.31,1.85-0.57,2.77-0.85,0.48-.15,1-0.29,1.48-0.47a13.57,13.57,0,0,0,1.43-.64,2.58,2.58,0,0,1,2.3-.07c0.68,0.34,1.65.65,1.44,1.9a1,1,0,0,0,1.39,1c0.37-.06.67-0.22,1-0.29a1.93,1.93,0,0,1,.79-0.06h0.08a2.22,2.22,0,0,1,1.74,2.61,13.82,13.82,0,0,0-.55,2.39,8,8,0,0,1-.74,3.21c0.39,0.61.79,1.34,1.28,2,0.69,0.93,1.46,1.8,2.17,2.72a3.21,3.21,0,0,1,.45.9c0.31,0.9.59,1.81,0.9,2.71a5.49,5.49,0,0,1,.46,3.05,4.22,4.22,0,0,0,.28,2,3.5,3.5,0,0,1-.33,3.36,9,9,0,0,0-.91,2c-0.24.62-.42,1.25-0.64,1.88-0.48,1.36-.11,2.73-0.11,4.1a1.38,1.38,0,0,0,.47.57,2.49,2.49,0,0,1,.82,1.77,2.42,2.42,0,0,0,.45,1.29,6.7,6.7,0,0,1,1.24,4.2,6.68,6.68,0,0,0,.09,1.14c0.09,0.7.17,1.4,0.31,2.09,0.28,1.37.11,2.92,1.58,3.8a0.72,0.72,0,0,1,.17.33c0.61,1.46,1.28,2.91,1.81,4.4a1.88,1.88,0,0,1-.09,1.55,1.54,1.54,0,0,0-.13,1.51,7.75,7.75,0,0,0,.32,1.18,13,13,0,0,0,1.31.49,1.92,1.92,0,0,0,.94,0,3.39,3.39,0,0,1,1.89-.49,5.31,5.31,0,0,0,2-.45,0.72,0.72,0,0,1,.48,0,1.85,1.85,0,0,0,1.81-.07c0.84-.29,1.85-0.26,2.49-1a28,28,0,0,0,3.45-4c0.57-1,.88-2.23,2.11-2.62a2.9,2.9,0,0,1,0-1.2c0.68-1.11.22-2.22,0.13-3.43a10,10,0,0,1,.91-0.55c0.52-.24,1-0.43,1.52-0.65a1.37,1.37,0,0,0,.93-1.57,18,18,0,0,0-.93-4.78,1.3,1.3,0,0,1,.39-1.58,13.14,13.14,0,0,0,1.57-1.92,19.52,19.52,0,0,0,3.07-1.46c1.16-.8,2.2-1.78,1.84-3.51a12,12,0,0,1,.2-2c0-1.3-.14-2.61-0.25-3.91a1.4,1.4,0,0,0-.34-0.79,3.47,3.47,0,0,1-.67-3.42,1.22,1.22,0,0,0-.3-1.36,1.37,1.37,0,0,1-.34-1.62c0.32-.9.48-1.86,0.82-2.75a5.13,5.13,0,0,1,1-1.42,7.36,7.36,0,0,0,1.54-1.88,10.12,10.12,0,0,1,3.45-4.43,15.48,15.48,0,0,0,3.68-4,16.21,16.21,0,0,0,1.4-3.2,12.07,12.07,0,0,1,.79-2,10.33,10.33,0,0,0,1.36-5.32c-1.23.29-2.4,0.55-3.56,0.86-0.89.24-1.7,1.07-2.7,0.52a1,1,0,0,0-.48.12l-0.18.07a1.44,1.44,0,0,1-1.82-.91c-0.15-.25-0.28-0.51-0.42-0.76,0.55-1,.53-1.07-0.13-1.76a8.33,8.33,0,0,0-.78-1c-0.76-.59-1.1-1.52-1.91-2.1a2.83,2.83,0,0,1-1.56-2.52,3.33,3.33,0,0,0-1.42-2.94,2,2,0,0,1-.83-2.08,4.11,4.11,0,0,0-1.27-3.88,1,1,0,0,1-.36-0.5c-0.19-1.88-1.18-3.43-2-5.06a23.16,23.16,0,0,0-1.55-3.4,1.29,1.29,0,0,1-.09-0.52l0.18-.08,1.24,1.88c1.27-.56,1.53-0.46,2,0.64,0.13,0.31.35,0.57,0.48,0.88,0.43,1.07,1.56,1.73,1.56,3a1,1,0,0,0,.45.58,2.85,2.85,0,0,1,1.16,2.91c-0.14,1,.35,1.89.45,2.89a1.42,1.42,0,0,0,.73,1,2.79,2.79,0,0,1,1.59,2,8.33,8.33,0,0,0,1,1.86,3.58,3.58,0,0,1,.64,1.45,19.14,19.14,0,0,0,.59,4.46v0.06a0.85,0.85,0,0,0,.92.77h0a6.74,6.74,0,0,0,1.53-.4,4.12,4.12,0,0,1,.73-0.43,7.27,7.27,0,0,0,2.09-.73c1.38-.53,2.59-1.35,3.92-2a2.12,2.12,0,0,0,1.19-1,1.58,1.58,0,0,1,1.52-1.27c1.35-.21,2-1.56,3.29-1.83a0.32,0.32,0,0,0,.15-0.2,2,2,0,0,1,1.66-1.11,2.57,2.57,0,0,1,.62-2.24,25.07,25.07,0,0,0,1.43-2.8,4,4,0,0,0-2.57-2.57,1.81,1.81,0,0,1-.49-0.39,3.07,3.07,0,0,1-1.1-2.81,18,18,0,0,1-1.66,1.88c-0.58.45-1.08,1.22-2,.73-0.61-.34-1.51.65-2-0.51a2.73,2.73,0,0,0-.08-1.85c-0.4.29-.56,0.82-1.08,0.72a4.86,4.86,0,0,0-.45-1.84,16.08,16.08,0,0,1-2.12-3.69,0.92,0.92,0,0,1,0-1.15,1.3,1.3,0,0,1,1.26-.41l1.24,0.22a3,3,0,0,1,.29.52,13.23,13.23,0,0,0,2.21,3.8l0.08,0.12a2.63,2.63,0,0,0,3.66.66c0.32-.18.66-0.34,0.94-0.48a1.63,1.63,0,0,1,1,1.34,1.31,1.31,0,0,0,1.25,1.29c1.94,0.19,3.83.69,5.83,0.34,1.07-.19,2.14-0.35,3.27-0.53a3.72,3.72,0,0,0,.51,1.19c0.82,0.81,1.94,1.34,2.35,2.56a1.14,1.14,0,0,0,.78.34,7.44,7.44,0,0,0,1.14,0c-0.1,1-1.16.63-1.56,1.35l2,2.15a4.84,4.84,0,0,0,1.4-.94,4.85,4.85,0,0,0,.43-1.6c0.27,1.12.87,2.16,0.27,3.29a1.62,1.62,0,0,0,.08.84,4.78,4.78,0,0,0,.19,1c0.36,1.68.69,3.37,1.08,5.05,0.21,0.9.48,1.79,0.76,2.67,0.23,0.71.48,1.41,0.77,2.1a12.7,12.7,0,0,1,1.25,2.87c0.16,1.09.87,1.71,1.22,2.66,1.46-.7,1.57-2.34,2.87-3a2.57,2.57,0,0,1,.15-2.59,2,2,0,0,0,.22-1c0-1.17,0-2.34-.06-3.51a1.09,1.09,0,0,1,.79-1.22c0.66-.32,1.53-0.51,1.71-1.51a1.45,1.45,0,0,1,.77-0.55,4.41,4.41,0,0,0,2-1.65,3.59,3.59,0,0,1,1.91-1.69,1.58,1.58,0,0,0,1.1-1.53,1.21,1.21,0,0,1,1.64-1.08,1.14,1.14,0,0,0,.93-0.06,8.73,8.73,0,0,1,1.24-.4l0.46-1.6a2.14,2.14,0,0,1,1.54,1.89,5.37,5.37,0,0,0,1,2.58l0.84-.23a12.5,12.5,0,0,0,.72,2.42,2.31,2.31,0,0,1,.14,2A6.5,6.5,0,0,0,318,125c1.52,0.65,2.19-.26,2.76-1.26,0.69,0.49.55,0.55,1.11,1.74,0.66,1.39.8,2.9,1.33,4.31,0.17,0.43,0,1,.17,1.43,0.56,1.13.15,2.21-.09,3.27a2.28,2.28,0,0,0,.59,2.42,3.76,3.76,0,0,1,1.17,2.44,17.32,17.32,0,0,0,.69,3.2,6.41,6.41,0,0,0,1,2.11A9.34,9.34,0,0,0,328.5,146l1.17-.66c-1-1.07-.94-2.31-1-3.58a3.13,3.13,0,0,0-.9-1.88c-0.77-.76-1.15-1.89-2.22-2.37a1.12,1.12,0,0,1-.32-0.53,8.31,8.31,0,0,0-.58-1.22,2.23,2.23,0,0,1-.3-2.37,4,4,0,0,0,.2-1c0.18-1.1.34-2.21,0.52-3.4a1.74,1.74,0,0,1,.73.24c0.8,0.93,1.58,1.87,2.32,2.87a2.75,2.75,0,0,0,1.34,1.23,0.93,0.93,0,0,1,.62,1.1,8.61,8.61,0,0,0,.15,1.51c1.1-.11.76-1.46,1.71-1.54-0.09-.18-0.19-0.36-0.27-0.54a0.2,0.2,0,0,1,0-.1,4.54,4.54,0,0,0,1-.24c1.34-.66,2.72-1.21,2.79-3.14a8.62,8.62,0,0,0-.27-1.8,10.53,10.53,0,0,0-3-5.41,4.49,4.49,0,0,1-1.09-1.66,2.28,2.28,0,0,1,.22-1.78,10.5,10.5,0,0,1,2.47-2.46,1.38,1.38,0,0,1,1.68-.13c0,1.36.22,1.69,1,1.69a1.77,1.77,0,0,1,.12-0.92,5.63,5.63,0,0,1,2.1-1.33,2.84,2.84,0,0,0,2-1.26,1.72,1.72,0,0,0,.83.22c0.77-.38,2.06,0,2.26-1.38a1.16,1.16,0,0,1,.38-0.32,5.18,5.18,0,0,1,1.41-1.32,4.14,4.14,0,0,0,1.36-1.33,0.75,0.75,0,0,0,.3-0.95h0a1,1,0,0,1,.48-1.33,4,4,0,0,0,.79-0.91c0.34-.42.65-0.86,1-1.35a1.79,1.79,0,0,1,0-.92c0.65-.37.34-1.09,0.81-1.57l-1.47-.42,0.89-1-2.13-4a8,8,0,0,1-.52-1,1.9,1.9,0,0,1,.27-2,5.65,5.65,0,0,1,2.87-2.28h0a0.7,0.7,0,0,0,.46-0.88h0c-0.78-.13-1.53-0.3-2.3-0.38a1.44,1.44,0,0,0-.81.26c-1.23.75-1.23,0.76-2.09-.47a1.83,1.83,0,0,1-.36-0.54c-0.11-.41-0.15-0.84-0.23-1.32,0.83,0,1.45,0,1.78-.77a2.72,2.72,0,0,1,.67-0.56,6.18,6.18,0,0,0,.93-1c0.68-1,.89-1.07,2-0.34-0.43,1-1.28,1.76-.81,3a8.83,8.83,0,0,1,1-.81,7.39,7.39,0,0,1,1.29-.79,1.83,1.83,0,0,1,1.84.5h0a1.11,1.11,0,0,1-.36,1.53h0a0.88,0.88,0,0,0-.15.37,2.87,2.87,0,0,0,.8,1,4.49,4.49,0,0,0,1.56,0,18.91,18.91,0,0,1,.08,2.72,9.8,9.8,0,0,0-.47,2.67,1,1,0,0,0,.42,0,8.1,8.1,0,0,1,1.74-.93,1.55,1.55,0,0,0,1.18-1.48,4.77,4.77,0,0,0-.65-2.9,9.45,9.45,0,0,1-.58-1.09c-0.26-.51-0.58-1-1-1.71a2.08,2.08,0,0,1,.36-0.78A13.09,13.09,0,0,1,358,87.57a1.13,1.13,0,0,0,.59-1.27,1.18,1.18,0,0,1,.53-1.3c0.77-.63,1.49-1.32,2.34-2.09,0.22,0.23.46,0.48,0.68,0.74,0.73,0.84,1.24.85,2,0,0.22-.25.45-0.51,0.66-0.77,1.12-1.41,2.24-2.81,3.34-4.22a2.46,2.46,0,0,0,.47-0.89,7.73,7.73,0,0,1,1.71-2.9,2.18,2.18,0,0,0,.46-0.86,5,5,0,0,0,.3-2.68,2.86,2.86,0,0,1,.1-0.71c0-1.1,1.15-1.91.35-3.1l1-.15A11.84,11.84,0,0,1,371,66.18c-1.12-1.18-1.4-1.23-2.58-.18-0.15.13-.31,0.24-0.57,0.44v-1.1L367,65.7l-0.08-1.4-1.67-.17a4.19,4.19,0,0,1,1.45-1.83,6.53,6.53,0,0,0,1.73-1.76,6.82,6.82,0,0,1,2.11-2.4,3.82,3.82,0,0,0,1.4-1.72,3.36,3.36,0,0,1,1-1.44,4.24,4.24,0,0,1,1.8-1.06,10.14,10.14,0,0,1,2.5.08,0.73,0.73,0,0,1,.83.61,0.51,0.51,0,0,0,.21.13l0.65-.51v0.23l2.5,0.35,0.25-.91h3l0.51,0.84-1,.22c0,0.71.35,0.93,0.9,0.78a10.68,10.68,0,0,1,3-.78,1.2,1.2,0,0,0,.47-0.43,0.67,0.67,0,0,0-.14-0.18l-1-.1a2.06,2.06,0,0,1,1.12-1.93,2.51,2.51,0,0,0,1.26-1.15c0.44-1,2.58-1.63,3.44-1.28a12.53,12.53,0,0,0,1.27.37l-0.47,1,0.64,1c0.39-.41.75-0.76,1.07-1.14,0.6-.74,1.16-1.47,2.48-0.74-0.43-1-.35-1.59.31-2,0.34-.24.78-0.38,1,0a4.89,4.89,0,0,0-.67,1,11.46,11.46,0,0,0-.33,1.76,0.74,0.74,0,0,1-.77.68c-0.53.07-1.06,0.19-1.36,0.25a15.89,15.89,0,0,1-1.13,1.87c-0.66.81-1.42,1.54-2.12,2.32a4.83,4.83,0,0,1-2.56,1.43l-0.2,1.54a3.08,3.08,0,0,0-1,.88,6.14,6.14,0,0,0-.35,3.71,22.2,22.2,0,0,1,.38,2.36c0.22,1.28.46,2.55,0.7,3.82a1.9,1.9,0,0,0,.22.43c1-.63,1.85-1.16,1.85-2.45a1.23,1.23,0,0,1,.56-0.72A2.65,2.65,0,0,1,393.5,67V66.36a2,2,0,0,1,2-2,2.91,2.91,0,0,0,1-.62,1.82,1.82,0,0,1-.48-2.16c0.3-.82,1.43,0,1.74-0.88-1.19-.92-1.21-1.15-0.41-2.45a2.66,2.66,0,0,0,.19-0.72L397,57.3c-0.8-.26-1-0.66-0.53-1.26,0.63-.92,1.31-1.81,2-2.74l1.06,0.2,1.39-1,0.19,1.16,0.36,0.22c0.2-.35.39-0.68,0.6-1,0.8-1.19,1.49-1.46,2.87,0a8.23,8.23,0,0,0,.76.64,6.65,6.65,0,0,1,1.06-1.42,21.39,21.39,0,0,1,3.43-2.23c1.12-.53,2.19-1.35,3.54-1.24a12.28,12.28,0,0,1,1.35.23,0.74,0.74,0,0,0,.9-1,18.75,18.75,0,0,0-1.16-2,3.59,3.59,0,0,0-.83-0.65l0.33-.58a9.11,9.11,0,0,0,2,0,2.12,2.12,0,0,0,1-.84h0a0.77,0.77,0,0,0,0-1.09h0c-0.29-.32-0.13-0.91.52-1.32L418,43a1.38,1.38,0,0,0,1.74.09,0.92,0.92,0,0,1,1.5.29c0.31,1,.71,1.63,1.85,1.53a1.68,1.68,0,0,1,.52.33A3,3,0,0,0,425.89,45.59ZM224.07,56h0c0.62-.24,1.29-0.35,1.44-1a1.92,1.92,0,0,0-.38-0.85,1.92,1.92,0,0,1,.37.9C225.37,55.7,224.69,55.81,224.07,56Zm1.49,71.64h0a0.84,0.84,0,0,0,.68.45,0.83,0.83,0,0,1-.68-0.43v0Zm25.34,14.76a1.2,1.2,0,0,0-.1.55A1.17,1.17,0,0,1,250.9,142.44Zm-5.62,3.37h0Zm-2.37,3.53a1.39,1.39,0,0,0,.28-0.31,1.48,1.48,0,0,0,.07-0.39h0a1.48,1.48,0,0,1-.07.42,1.39,1.39,0,0,1-.28.31l-0.15-.1Zm1.71,9.54a3.19,3.19,0,0,1-1.54-2c-0.14-1.09-.23-2.19-0.3-3.29a3.35,3.35,0,0,1,.3-0.9h0a3.35,3.35,0,0,0-.29.88c0.07,1.1.16,2.2,0.3,3.29a3.19,3.19,0,0,0,1.53,2h0v0Zm0-12.63,0.12,0.11,0.52-.55-0.51.56-0.13-.12h0Zm0.12,13.65c0-.31-0.09-0.6-0.11-0.88h0a5.76,5.76,0,0,1,.09.81c0.09,0.68.51,0.59,1.18,0.53h0c-0.6.13-1,.24-1.14-0.46h0ZM246,151a16.28,16.28,0,0,0,0-1.94v0.05a16.25,16.25,0,0,1,0,1.94,1.53,1.53,0,0,0,0,.78,1.54,1.54,0,0,1,0-.79Zm3.18,16.81a23.6,23.6,0,0,1,0-4.57,2.35,2.35,0,0,0-.06-0.75,4,4,0,0,0-.28-0.65l-0.19.21h0l0.21-.25h0a4,4,0,0,1,.33.59,2.35,2.35,0,0,1,.06.75,23.6,23.6,0,0,0,.06,4.74,0.24,0.24,0,0,1-.11-0.07h0Zm-2.07-19.87h0.61a1.65,1.65,0,0,0,.34-0.13l1.16,1.46h0c-0.1.79-.73,1.54-0.29,2.38h0c-0.43-.87.2-1.61,0.3-2.39l-1.13-1.41a1.65,1.65,0,0,1-.34.13h-0.61c-0.68,0-1,.12-1.06.54,0.09-.48.33-0.53,1-0.58h0Zm7.23-92.36-0.63,1.12,0.58-1.12a2,2,0,0,0-.87-0.29,1.86,1.86,0,0,1,.94.29h0Zm-2.85-5.09c0-.67-1-1.24-0.7-2C250.64,49.25,251.6,49.82,251.5,50.49Zm-0.86-2.32a0.78,0.78,0,0,1,.17.28h0a0.78,0.78,0,0,0-.17-0.28L249.75,48h-0.06Zm-0.28.66a4.46,4.46,0,0,1-.88,1h0a4.46,4.46,0,0,0,.89-1h0Zm-1.05-3L249.2,46a0.55,0.55,0,0,0,.74.56c-0.5.15-.67-0.13-0.78-0.55Zm-2,5.87a1.05,1.05,0,0,1-.72.67,1,1,0,0,0,.69-0.66c-0.68-1.31-1.22-2-1.84-2,0.68,0,1.23.67,1.92,2h-0.05Zm-1.26.87a2,2,0,0,0-.41.21h0a2.07,2.07,0,0,1,.46-0.2h-0.05Zm-4.55,3.94h-0.07l-0.11-.12Zm1.39,30.24c-0.71.31-1.56,0.17-2.07,0.95h0c0.5-.78,1.36-0.63,2.07-1a0.47,0.47,0,0,1,.07.2,0.47,0.47,0,0,0-.05-0.15h0ZM243,87a0.47,0.47,0,0,0,0-.09h0A0.45,0.45,0,0,1,243,87Zm14.16-1.3a2.11,2.11,0,0,1-1.8.91c-0.69,0-1.34.06-2,.09s-1.07-.88-1.85-0.49a0.61,0.61,0,0,1-.42-0.17,3.86,3.86,0,0,0-4.58-.26,4.42,4.42,0,0,1-2.44.74c-1.34,0-2.3-.33-2.71-1.85,0.2-.35.49-0.81,0.74-1.3,0.15-.29.24-0.61,0.37-0.91,0.19-.46.38-0.91,0.58-1.36a2.28,2.28,0,0,0,.34-0.63c0.06-1,.92-1.58,1.47-2.29a2.71,2.71,0,0,1,1.25-.41,0.93,0.93,0,0,0,.92.94l0.2,0a11.11,11.11,0,0,1,1.13,0L248.42,79l-1.34.8c0.63,0.39,1.36.67,1,1.76l3.5-1.3V80a2.84,2.84,0,0,0-.78-0.07H250l-1.38-1.46c1.76,0.12,3.06-.85,4.52-1.32a2.22,2.22,0,0,1,1.27-.09l-1.51,1.09,0.51,0.57L252.21,80c1.25,1.07,2.28,2.55,3.9,3.38a2.55,2.55,0,0,1,.69.55,1.45,1.45,0,0,1,.36,1.75v0Zm1.75,5.3c-0.41-.46-0.76-0.52-1.16,0h0c0.41-.53.77-0.48,1.18,0h0Zm3.39,1.82a2.8,2.8,0,0,0-1.46-1.49h0a2.8,2.8,0,0,1,1.46,1.47,0.93,0.93,0,0,1,.12.25,1,1,0,0,0-.12-0.22h0Zm8-6-0.4,1.66,0.76-.09a3.66,3.66,0,0,0,.42,1h0A1.15,1.15,0,0,1,271.2,91a1.5,1.5,0,0,0,0,.85c0,0.45.14,0.9,0.14,1.31l-2.45.53c-0.92-.08-1.51-1.45-2.84-1.3-0.35-.85-1-1.67-0.35-2.67,0.46-.75.15-1.9,1.15-2.29-1.28-1.88-3.28-3.29-3-5.88l-0.93-.32c0.29-.92.55-1.8,0.85-2.6a0.66,0.66,0,0,1,.45-0.35c0.93,0.47,1.23-.55,1.87-0.77a20.89,20.89,0,0,0,2.23-1.1A18.66,18.66,0,0,1,270.76,78a5.39,5.39,0,0,1,1.08,1.7,1.83,1.83,0,0,1-.23.82l-2-.71-1.51.91,0.4,0.69h-1.1c0.92,0.84,1.13,2.31,2.52,2.52l-0.25,1.69,0.25,0.1a5.79,5.79,0,0,1,.58-0.55,0.6,0.6,0,0,1,1,.17l0.8,1.21c-0.8.9-.8,0.9-2,0.3v0Zm7.4-4.15a1.5,1.5,0,0,1,.58-0.06,4.44,4.44,0,0,0-.58,0v0Zm-0.2-3.46a0.86,0.86,0,0,0-.17-0.19,0.83,0.83,0,0,0-.23,0,3.5,3.5,0,0,0-.6,3.33,3.5,3.5,0,0,1,.6-3.34,0.83,0.83,0,0,1,.26,0,0.85,0.85,0,0,1,.17.19c0.28-.28.54-0.59,0.84-0.87C278.08,78.65,277.81,79,277.5,79.25Zm2.72-1.65h0Zm0.4,3.26a2.82,2.82,0,0,1-.45-0.38,3,3,0,0,0,.45.38h0Zm18.93,2.59-1.77.39h0l1.82-.4h-0.05Zm0.53-6.65a0.94,0.94,0,0,1-.29.31,3,3,0,0,1-1.25,0,2.25,2.25,0,0,0-2.16.48c-0.86.63-1.94,1-2.35,2.25h0c0.41-1.2,1.49-1.62,2.35-2.25A2.25,2.25,0,0,1,298.5,77a3,3,0,0,0,1.25,0,0.82,0.82,0,0,0,.26-0.29,3.46,3.46,0,0,1-.79.09,3.46,3.46,0,0,0,.79-0.1h0.07c0.81,0.1.84,0.09,1-.72h0c-0.08.89-.08,0.89-1,0.78h0Zm5.09-43.07a0.72,0.72,0,0,0,.93,0l0.13,0.06c-0.49.25-.88,0.25-1-0.06h0ZM306.68,34l-0.1-.22L306.7,34h0Zm22.56-14.41h0l-0.38.61h0Zm-0.49.68-2.11.36-0.14.63,0.76,0.38-0.76-.38,0.17-.63,2.15-.36h-0.07Zm0,49.36h0a3.59,3.59,0,0,0,.83.31,3,3,0,0,1-.76-0.31h-0.07Zm6.76-5.51a0.45,0.45,0,0,1,0,.25,21.32,21.32,0,0,1-1.8,2.48c-0.8.85-2.09,1.31-2.7,2.28a1.82,1.82,0,0,1-.67.69,2.15,2.15,0,0,0,.67-0.73c0.7-1.09,1.9-1.43,2.7-2.28a21.33,21.33,0,0,0,1.8-2.48,0.45,0.45,0,0,0,0-.25h0v0Zm4.29-36.93h0l0.32-.51-0.25-.16h0l0.26,0.18ZM361.65,81h0V80.84L361.72,81h-0.07Z"/><path class="cls-1" d="M166.5,154.85a1.3,1.3,0,0,1-.69-0.44c-1.11-1.13-2.23-2.21-4-2.29a12.68,12.68,0,0,1-2-.58,2.17,2.17,0,0,0-1,.09,2.46,2.46,0,0,0-.64.6,3,3,0,0,0-1.81-2.61c-1-.41-1.86-1.39-3-0.48a2.36,2.36,0,0,0-.46-1.06c-0.5-.23-1-0.74-1.61-0.48,0.06-.38.12-0.77,0.18-1.18-1.15-.26,0-0.83-0.23-1.2a2.9,2.9,0,0,1-.64-0.93,14.78,14.78,0,0,0-.64-2,9.75,9.75,0,0,0-1.5-2,4,4,0,0,0-3.4-1.36,2.5,2.5,0,0,1-2.31-.55c-0.65-.65-0.91-0.54-1.78.15l0.52-1.34c-1-1.24-2-2.11-3.71-1.56a1.31,1.31,0,0,0,.81-1.54c-0.51-.11-1-0.16-1.41-0.29-0.76-.23-0.14-0.76-0.14-1.31-0.87.26-1.62,0.52-2.39,0.69a2.4,2.4,0,0,1-1.56.09,2.85,2.85,0,0,0-2.37-.41,12.8,12.8,0,0,0-1.33-1.28,10,10,0,0,0-1.44-.72,0.41,0.41,0,0,0-.09.12l0.41,0.73-0.35.13c-1.39.43-1.39,0.43-.86,1.77,0.27,0.69.15,0.94-.58,1.27-0.72-1-.72-1,0-2L126,131.83l0.79-1c-0.35-.48-0.7-0.52-1-0.14a5.4,5.4,0,0,1-2.37,1.53c-0.71.31-1.69,0.47-1.55,1.66a1.45,1.45,0,0,1-.33.66l-1,1.81a19.74,19.74,0,0,1-1.84-1.61l-0.08-.13a1.13,1.13,0,0,0-1.57-.29c-0.91.35-1.79,1-2.69,0.47-0.44-.58-0.86-1.06-1.18-1.58a3.64,3.64,0,0,1-.79-1.68,39.29,39.29,0,0,1,.52-4,2.08,2.08,0,0,0,0-1.2,3.55,3.55,0,0,0-1.37-1.2,4.44,4.44,0,0,0-1.7-.2c-0.34,0-.67.17-1,0.17h-2.25a6.1,6.1,0,0,0,.71-3.38,0.4,0.4,0,0,1,.09-0.3c0.63-.09.43-0.66,0.53-1,0.25-.84.36-1.72,0.6-2.57a1.1,1.1,0,0,0-.06-1.29,1.26,1.26,0,0,0-1.53,0,5,5,0,0,1-1.12.56,1.13,1.13,0,0,0-.91,1,4.91,4.91,0,0,1-1.47,2.9,1.91,1.91,0,0,0-1.72.27,1.59,1.59,0,0,1-1.78.21l-1.39-.89c-0.47-.69-1-1.37-1.39-2.08a4.09,4.09,0,0,1-.91-3.14,5.12,5.12,0,0,0-.06-1.5c-0.1-1.11-.53-2.25.53-3.19a1.12,1.12,0,0,0,.07-0.83,6.3,6.3,0,0,0-.35-0.94,2,2,0,0,1,.82-2.52,5.11,5.11,0,0,0,1.69-1.19,2.56,2.56,0,0,1,1.61-1,2.78,2.78,0,0,1,2.73.38c1,0.71,1,.73,1.66-0.37l1.39,0.9c-0.2-.59.06-1.35-0.75-1.59a1.64,1.64,0,0,1,1.57-.4,13.66,13.66,0,0,0,1.46-.08,2.49,2.49,0,0,1,1,.13,5.91,5.91,0,0,1,1.1.78A0.94,0.94,0,0,0,112,104a1.19,1.19,0,0,1,.47-0.12,3,3,0,0,1,1,3.23H114a6.43,6.43,0,0,0,.2,1.35,6.51,6.51,0,0,0,.75,1.27c0.28,0.44.62,0.85,1,1.35a3.93,3.93,0,0,0,.44-3.4,29,29,0,0,1-.84-2.78,6.64,6.64,0,0,1-.36-2.29c0.17-2,1.62-3.1,3-4.1a5.65,5.65,0,0,0,2.35-3l1-.2-0.61-.7a1.48,1.48,0,0,0,.28-0.68,7.25,7.25,0,0,0-.77-1.06,1,1,0,0,0,0-1.34,3.56,3.56,0,0,1,.41-2.57,1.76,1.76,0,0,1,.69-0.15c-0.35.87-.94,1.57-0.5,2.43l1,0.45a2.35,2.35,0,0,0,.13-2.42c1.49,0.08,2.2-.91,1.86-2.35a2.36,2.36,0,0,1,2-1.48c0.66-.18,1.24-0.74,2.24-0.4l-0.73-.83,1-2.26a3,3,0,0,0,.71-0.07,5.45,5.45,0,0,0,.62-0.54,0.88,0.88,0,0,1,.47-0.09,1.06,1.06,0,0,0,1.11-.41,6.85,6.85,0,0,0,.35-1.06c1.36,0.42,1.92-.66,2.68-1.58l-0.09,1,1.38,0.1a2,2,0,0,1-.59.49c-1.27-.48-1.63.77-2.37,1.25a0.9,0.9,0,0,0,0,.87,1.3,1.3,0,0,0,2.24-.31h0a0.61,0.61,0,0,1,.67-0.54,3.54,3.54,0,0,0,1.23-.49l0.27-.09a1.41,1.41,0,0,0,.73-1.85,0.54,0.54,0,0,0-.23-0.12l-0.72.52c-0.43-.36-0.91-0.57-1.43-1s-1.05-.64-0.71-1.43c-0.81-.39-0.08-1.09-0.3-1.68l-1.24.26-0.08-.52A1.82,1.82,0,0,0,135,73.43a0.82,0.82,0,0,0-.71-1.26,2.69,2.69,0,0,0-2.07.31c-0.93.61-1.82,1.31-2.7,2-0.27.21-.48,0.33-0.74-0.12a10.72,10.72,0,0,1,.87-1A9.46,9.46,0,0,0,131.95,71a1.54,1.54,0,0,1,1-.43,4.83,4.83,0,0,1,1.14,0,32.42,32.42,0,0,1,4.26,0,2.64,2.64,0,0,0,3-1.66,1.82,1.82,0,0,1,1.41-1.06c1.86-.53,2-0.68,2-2.53a0.3,0.3,0,0,0,0-.15c-0.49-.29-0.9-0.58-1.34-0.79a2.9,2.9,0,0,0-.75-0.13h-0.05c0.21-.47.3-1.21-0.19-1.21a1.13,1.13,0,0,1-1.25-.62c-1.06.1-1.48-.76-2.17-1.28a10.16,10.16,0,0,1-1.51-1.62l1.12-.64c-1.09-.58-1-1.79-1.71-2.49l-0.65-.65c0.64-.3.24-0.68,0-1a8.37,8.37,0,0,1-1-1.18,7,7,0,0,1-.32-1.57,1.5,1.5,0,0,0-.24-0.36c-0.94,1.44-1.19,3.28-2.84,4.11-0.41-.24-0.55-0.86-1.15-0.65a1.26,1.26,0,0,0-1.13-.85h0a0.83,0.83,0,0,1-.62-1h0a5.2,5.2,0,0,1,.38-2.46c-0.4-.22-1.08.16-1.08-0.62a0.67,0.67,0,0,0-.52-0.21,1.25,1.25,0,0,1-1.35-.69,8.39,8.39,0,0,0-.92-1,1.21,1.21,0,0,0-1.69-.18,2.41,2.41,0,0,1-1,.26,12.28,12.28,0,0,1-2-.2,1.33,1.33,0,0,0-1.46.45c0.69,0.46.54,1,.09,1.56a0.63,0.63,0,0,0-.14.46c0.15,0.68.35,1.36,0.56,2.14l-1.68,1.92a7.32,7.32,0,0,1,2.12,2.44c0.59,0.93.1,2,.59,2.83a9.17,9.17,0,0,1-2.9,2.77h0a1,1,0,0,0-.08,1.41c0.62,1,.27,2.15.48,3.15a1.16,1.16,0,0,1-.21.59c-0.45.95-1.24,1-2.06,0.34a4,4,0,0,1-1.22-2.11c-0.4,0-.4-0.19-0.4-0.48v-3.4a6.86,6.86,0,0,0-1.9-.45,4.21,4.21,0,0,1-2.15-.58c-0.35-.18-0.64-0.18-0.92-0.33a4.35,4.35,0,0,1-1.5-1,2.34,2.34,0,0,0-1.14-1,11.46,11.46,0,0,1-1.92-.92,1.53,1.53,0,0,0-1.44-.17,2.84,2.84,0,0,1-.7.08,14.08,14.08,0,0,0-.57-1.61c-0.22-.46-0.5-1-0.76-1.46h-1.33a3.2,3.2,0,0,1,0-3c0.59-1.3,1.79-2,2.44-3.25,0.69-.15.94-1,1.79-1,0.66,0,.73-0.47.33-1.31,0.25-.3.94-0.31,0.71-1a0.62,0.62,0,0,1,.3-0.45,1.09,1.09,0,0,1,1.16-.21,1.1,1.1,0,0,0,1.29-.21,2.19,2.19,0,0,0,.33-0.85c0.09-.23.2-0.44,0.37-0.82l-3.2-.28c1.21-1.24,2.39-.48,3.69.28l0.69-2c0.43-.4.73,0.19,1.13,0.45,0.58,0.33,1,.17,1.15-0.67a1,1,0,0,0,1.29-.23,5,5,0,0,1,1.51-.88c1.31-.57,1.39-0.94.31-1.8-0.66-.52-0.69-0.88-0.17-1.76a0.49,0.49,0,0,0,.08-0.31c-0.61-.47.16-0.71,0.16-1.06V34L114.67,34a3,3,0,0,0-1-1.09c-0.83,0-1.68-.5-2.6,0,0.16,0.47.33,1.09,0.46,1.47s0.23,0.73-.27.94a0.74,0.74,0,0,0-.36.32q-0.57,1.18-1.09,2.39c-0.32.65-1,1.08-1.32,0.73a4.43,4.43,0,0,1-1.19-1.57,2,2,0,0,1,.37-1.49,1,1,0,1,0-1.44-.68,8.49,8.49,0,0,1-.56,1.5,3.1,3.1,0,0,1-.61-1.22,1.79,1.79,0,0,0-1.48-1.64,2.68,2.68,0,0,1-.92-0.65l0.9-.81-0.44-.6,1.38-.29-4.42-2.82,0.7-1.26-0.41-.81,2-.25c1.64-.21,2.09-0.62,2.56-2.39-1.16-.28-2.32-0.57-3.48-0.83a1.27,1.27,0,0,0-.62,0c-0.54.16-1.07,0.36-1.63,0.56a2.12,2.12,0,0,0-.1,2.17,8,8,0,0,1,.34,1.79,2.92,2.92,0,0,1-.35,1c-0.3.81-1.25,1.43-.91,2.43-0.54.63-.36,1.08,0.32,1.46a2,2,0,0,1-.1.59,0.77,0.77,0,0,0,.19.25l1-.84,0.72,1.22,1-.19c0.37,1.25-.87.4-1.07,0.94V35.5h0.82A8,8,0,0,0,98.4,38L99,39.46l-1.66-1.2A8.94,8.94,0,0,0,97.5,37a1.54,1.54,0,0,0-.23-0.57c-0.78.39-1-.76-1.91-0.53l-0.1,1.26a2.36,2.36,0,0,1-1.92.18,17.74,17.74,0,0,0-2,.13c-1,0-1.69-1-2.69-.76-0.15-.85-0.82-0.08-1.15-0.31a1.27,1.27,0,0,1-.16-0.4c-0.36-1.14-.39-1.17-1.6-1.09-0.62,0-1.24.08-1.87,0.14l-0.64,1.54,2.21-.68v0.23l-1.15.7c-0.54.33-1,.7-0.54,1.42a1.25,1.25,0,0,1,.16.71,2.24,2.24,0,0,1-.43.67,4.89,4.89,0,0,0-2.38-2.84c-1.61.58-3.19,1.17-4.87,0.58L76.1,37l1.14-1c-0.6-1.13-1-1.3-2.16-.87a0.69,0.69,0,0,1-.46,0,40.54,40.54,0,0,1-4.18-1.69c-1.3-.69-2.52-1.25-3.82.11L66,31.88l-0.51,2a12.26,12.26,0,0,0-2.42-2.18c-0.94-.45-1.15-1.83-2.41-1.83a5.28,5.28,0,0,1-.12,1.4,1.87,1.87,0,0,1-2.18,1.08,1.44,1.44,0,0,0,.87-1L57.9,31.2l-0.49.89a2.08,2.08,0,0,0-2.1.8,0.56,0.56,0,0,1-1,0,1.84,1.84,0,0,0-.52-0.28,1.43,1.43,0,0,1-1.58,1.11c-0.66.87-1.26,0.08-1.83-.13a20.6,20.6,0,0,1-1.88-1,1.73,1.73,0,0,0-.94-0.26,3.73,3.73,0,0,1-2.42-.54,2.69,2.69,0,0,0-2-.15,1.55,1.55,0,0,1-.71.07,18.12,18.12,0,0,0-4.11-.54A6.41,6.41,0,0,1,37,30.84a1.81,1.81,0,0,0-1-.12,3.22,3.22,0,0,1-2.35,0,5.35,5.35,0,0,0-2.94-.44,0.4,0.4,0,0,1-.35-0.09c-0.39-.53-0.83.07-1.22,0-0.56-.8-1.1-1.09-1.62-0.69a5.41,5.41,0,0,1-2.65.94,12.4,12.4,0,0,0-2.35.76,3.37,3.37,0,0,0-.78.61c-0.85.7-1,1.79-1.47,2.79L17.07,35l-0.13,1.25c1,0.86,2.45,1.06,3,2.34,1.18-.21,1.17-0.2,2,0.6a1.67,1.67,0,0,0,.57.25c0.19,0.07.39,0.11,0.59,0.17v0.16L21.81,40l0.89,0.48a5.31,5.31,0,0,1-2.63.18c-0.7-.22-0.24-1-0.79-1.37a0.65,0.65,0,0,0-.32,0,5.17,5.17,0,0,0-1.58,1c-0.5.59-1.27,0-1.7,0.59a5.16,5.16,0,0,1-.68.62l1.42,0.38a1.79,1.79,0,0,0-.07.74,1.76,1.76,0,0,0,1.74,1c0.37,0,.74-0.21,1.11-0.21,0.65-.07,1.26-0.29,1.65.23l2.36-.46a4.28,4.28,0,0,0-.17.68,4,4,0,0,0,.06.61c0.18,1.12.17,1.12-1,1.41a2,2,0,0,0-.68.29,1.14,1.14,0,0,1-1.39.1c-0.63-.36-1-0.16-1.23.54a4.44,4.44,0,0,1-.34,1,17.82,17.82,0,0,1-1.21,1.45c0.65,1.07,1.68,1,2.55,1.33a1.2,1.2,0,0,1-.63.09,6.11,6.11,0,0,1-.9-0.17c0.58,0.78,1,1.38,1.46,1.93l0.09,0.09a0.74,0.74,0,0,0,1-.09,3.82,3.82,0,0,0,.56-0.85l0.91,3.22c1.84-1,2-1,3.17,0l2.31-.32a15.73,15.73,0,0,0-1,2.1,3.83,3.83,0,0,1-2,2.34A11.27,11.27,0,0,0,23.42,60c-1.3-.45-1.83.74-2.49,1.74,1,0.33,1-.85,1.49-1.17a1.25,1.25,0,0,0,.5.33,9.7,9.7,0,0,0,2.55-1c1.45-1.16,2.68-2.57,4.11-3.75a7.35,7.35,0,0,0,1.92-2l-0.88-.48a11,11,0,0,1,.73-1c0.25-.27.57-0.47,0.84-0.72,0.82-.76,1.59-1.56,2.43-2.28,0.53-.46,1-0.23,1.29.48-1.38,0-1.56.29-1.91,1.55-0.18.67,0.3,1.41-.41,2a2,2,0,0,0,1.68-.47C36,52.74,36.5,51.92,37.64,52c0.59,0.09.82-.66,0.43-1.16-0.14-.18-0.26-0.36-0.5-0.69,1,0,2-.4,2.59.48s1.66,1.07,2.54,1.51a1.48,1.48,0,0,0,1.08.16,2.57,2.57,0,0,1,1.72.13c0.7,0.13,1.36.29,2,.46a1.33,1.33,0,0,1,.4.31,2.59,2.59,0,0,0,.74.56,2.2,2.2,0,0,0,.86-0.07,1.76,1.76,0,0,0,1,1.8,3.85,3.85,0,0,1,1,.76c0.6,0.83,1.11,1.69,1.71,2.58a3.64,3.64,0,0,0,.87.65L54.75,60c0.33-.49,1.07-0.77.55-1.49S54.5,59,54,58.69a0.94,0.94,0,0,1,0-.49c0.67-.72.68-0.72,0.22-1.72l-0.65-.63h0l0.66,0.64h0c0.54-.28.62,0.22,0.78,0.51a7.55,7.55,0,0,1,.56,1.38,1,1,0,0,0,.76,1L56.13,60a1,1,0,0,0-1,0l2.26,2.67,0.22-.09L57.5,61.41l0.61,0.19,0.21,1.22,0.91-.53L58.5,63.42c0.79,0.5,0,1.71,1,2.14l0.68-.29c0.11,0.56-.42,1.08.34,1.5,1.51,0.81,1.59,1.94.32,3.17L61.32,71h1.41a1.61,1.61,0,0,0,.32.65,2.89,2.89,0,0,1,1.77,1.24,2.64,2.64,0,0,0,1.26.57,9,9,0,0,0,1.53.12c-0.81.68-1.67,0-2.48,0.23a1.16,1.16,0,0,0,0,.52A4.67,4.67,0,0,1,66,77.91c-0.18,1.42-.21,2.85-0.29,4.28a4.42,4.42,0,0,0,0,1.62,5.28,5.28,0,0,1,.09,3.3,0.59,0.59,0,0,0,0,.36c0.56,1.21,1,2.42,1.56,3.62l0.77-.28-0.41,1.12,0.76,0.56C68.11,94.29,70.11,95,70,96.6a4.7,4.7,0,0,1,3.16,1.66,4.2,4.2,0,0,1,.58,1.08c0.47,1.07.9,2.15,1.4,3.2a1.58,1.58,0,0,0,.7.71,2.52,2.52,0,0,1,1.32,2.27c0.1,0.69-.13,1.08-1.13,1.22,0.9,0.63,1.54,1.18,2.23,1.63a1.89,1.89,0,0,1,1.09,1.46,4.31,4.31,0,0,0,1.59,2.86,10.15,10.15,0,0,1,.95,1.35A0.71,0.71,0,0,0,82,112.8a3.88,3.88,0,0,1-1.21-2.37,2.52,2.52,0,0,0-.31-0.69c-0.65-1.44-1.29-2.87-2-4.3-0.26-.55-0.56-1.09-0.87-1.62-0.42-.72-0.9-1.41-1.29-2.14a2.15,2.15,0,0,1,0-.89,3.83,3.83,0,0,1,1.63.32,3.75,3.75,0,0,1,.6,1.46,1.29,1.29,0,0,0,.12.22c0.72,1.16,1.4,2.35,2.19,3.46,0.61,0.86,1.35,1.62,2.14,2.55,0,0.17-.54.53,0,1a18,18,0,0,1,3.73,4.88,3,3,0,0,1,.51,2.85c-0.38,1,.27,1.76,1,2.4,0.54,0.43,1.06,1,1.59,1.43a3.27,3.27,0,0,0,.59.44q0.76,0.42,1.55.78l2.57,1.17c0.3,0.15.66,0.28,1,.43a4,4,0,0,0,3.09.44,2.84,2.84,0,0,1,3.34.76A9.6,9.6,0,0,0,105,128a7.41,7.41,0,0,0,3.13.55,2.09,2.09,0,0,0,.16.67c0.42,0.68.93,1.31,1.31,2a2.17,2.17,0,0,1,.4,1.39,1.14,1.14,0,0,0,.6,1.33l0.48-.44a10.6,10.6,0,0,1,1,.8,1,1,0,0,1,.38.59,0.79,0.79,0,0,0,.69.88h0.18a3.43,3.43,0,0,1,2.37,1.12,0.68,0.68,0,0,0,.64,0,0.86,0.86,0,0,0,.15-0.63,1,1,0,0,0-.27-0.37l1.23-1,1.35,1.38c-0.44,1.13-.16,1,1,1.81a29.14,29.14,0,0,1-.46,3.62,1.24,1.24,0,0,0,.35,1.22,15.16,15.16,0,0,0-1.17,1,1.48,1.48,0,0,0-.52.67,2.59,2.59,0,0,1-1.18,1.87,17,17,0,0,1-.76,2.83,2.72,2.72,0,0,0,.36,3.33,6.51,6.51,0,0,0-1.23,1.93,5.8,5.8,0,0,0,.3,2.08l2.58,3a5.75,5.75,0,0,1,1.38,2.52,17.19,17.19,0,0,0,1.59,4.34,2.35,2.35,0,0,1,.34,1.07,3.87,3.87,0,0,0,1.41,2.78,14.59,14.59,0,0,0,3.53,2.19A3.59,3.59,0,0,1,128.2,175a11.71,11.71,0,0,1-.11,4.36,23.52,23.52,0,0,0-.36,2.48c-0.09,1.25,0,2.51-.16,3.74-0.18,1.59-.53,3.06-0.79,4.59a1.14,1.14,0,0,0,0,.71,2.24,2.24,0,0,1,0,1.71,2.23,2.23,0,0,0-.15.85,6.78,6.78,0,0,1-.53,4.5,5.05,5.05,0,0,0-.6,2,4.88,4.88,0,0,1-.79,2.55,3.79,3.79,0,0,0-.46,1.47,21.62,21.62,0,0,0,.3,2.22,2.28,2.28,0,0,1-.09,1.09,4.1,4.1,0,0,0-.42,2.8,0.68,0.68,0,0,1-.09.44,4.47,4.47,0,0,0-.32,2.53c0.76-.39.76-0.39,0.7-1.19-0.08-1.1,0-1.45.85-1.82-0.49,1.63-.1,3.28-0.87,4.79a4.22,4.22,0,0,0-.18,1.61v1.66l-1.07-.43H123a0.71,0.71,0,0,0-.94.89,0.61,0.61,0,0,0,.32.48,6.24,6.24,0,0,0,1.18.08l-0.41,3.24-0.56-1.45c-0.73.48-1.15,0.91-.87,1.71a1.26,1.26,0,0,1,.08.84c-0.32.63,0.16,0.8,0.51,1.07l1.14,0.6-0.5.53,0.17,0.2h0l-0.15-.17c-0.82.25-.91,0.55-0.45,1.49h0a1,1,0,0,0,.6-1.27l0.76,1.21-1.82.41c0.28,1.54.79,2.13,1.79,2.29,0-.37-0.63-0.47-0.3-1a2.69,2.69,0,0,0,0-1.21l1,0.34-0.7.19,0.15,2.46c0.33,1,1.48.67,2.11,1.19l-0.61.47,2.21,0.62c0.07,0.38-.19,1,0.43,1a5.69,5.69,0,0,0,1.16-.16l0.46,0.72v-1.23l0.93,0.36c0.46-1.14,1.67-.62,2.67-1.14a14.32,14.32,0,0,1-1.4-.43,3.46,3.46,0,0,1-2.18-2.25,0.94,0.94,0,0,0-.91-0.94,1.69,1.69,0,0,1-.52-0.47l1.24-.36a0.81,0.81,0,0,0,0-.2c-0.93-1.77-.84-2.11.79-3.34a1.81,1.81,0,0,0,.38-0.84,2.77,2.77,0,0,1,.25-0.88c0.58-.65,1.23-1.24,1.87-1.88l-0.23-1.2a13.94,13.94,0,0,1-1.58-1.1,0.86,0.86,0,0,1,0-1.41c0.58-.64,1.06-1.38,2.06-1.38,0.2-.92.34-1.76,0.57-2.58a1.36,1.36,0,0,1,1.28-1.06,0.51,0.51,0,0,0,.55-0.76,3.13,3.13,0,0,1-1.41-.48c-0.21-.6-0.89-1.31,0-2a4.62,4.62,0,0,1,.51.3,1.27,1.27,0,0,0,2.21-.81c0.1-.86.48-1.78-0.23-2.56,0.86-.12,1.63-0.26,2.4-0.32,2-.15,3.48-0.87,4.17-2.87,0.18-.54.39-0.92-0.27-1.24a0.82,0.82,0,0,1-.44-0.55c0.28-.79-0.32-1.12-0.72-1.58a1.62,1.62,0,0,1-.42-1.62,4.38,4.38,0,0,0,3.47,1.57c0.92-.07,1.62-0.06,2-1s1.38-1.57,1.27-2.8a3.09,3.09,0,0,1,.79-1.4c0.27-.41.57-0.81,0.9-1.28l0.77,0.52a6.63,6.63,0,0,1,1.65-2.93,1.66,1.66,0,0,0,.38-1.15c0-.91-0.16-1.82-0.22-2.74a1.6,1.6,0,0,1,.75-1.6c0.77-.49,1.47-1.2,2.21-1.62s1.72-.38,2.19-1.31a1,1,0,0,1,.82-0.22c0.58,0.07,1-.49,1.66-0.25,0.27,0.1,1.07-1.09,1.07-1.52a5,5,0,0,1,.17-1.07c0.51-1.57,2-2.66,2-4.5a1.5,1.5,0,0,1,.31-0.39,0.66,0.66,0,0,0,.13-0.45,2.31,2.31,0,0,1,.22-1.69,4.63,4.63,0,0,0,.1-1.5,17.18,17.18,0,0,0-.19-2.14,3.83,3.83,0,0,1,.72-2.09c1,0,1-.82,1.3-1.46a3.68,3.68,0,0,1,1.6-2,2.58,2.58,0,0,0,.85-0.91,4.89,4.89,0,0,0,.64-4.35C168.5,156.22,168.14,154.95,166.5,154.85ZM142.29,64.22a1,1,0,0,0-.81.31h-0.07A1,1,0,0,1,142.29,64.22ZM129.41,66.1h0l-0.1-.06Zm-0.56.5,0.23,0.12,0.07-.11-0.07.13-0.24-.12h0v0Zm-3.29,2.15h0ZM121.5,81h0l-1.78.24,0.5,0.77h0l-0.5-.77Zm-3.19.78a2,2,0,0,0-1.09.76,6.37,6.37,0,0,0,3.86-.32,6.37,6.37,0,0,1-3.87.32,1.94,1.94,0,0,1,1.1-.75h0Zm-2.81-1.56,1.16,0.54h0l-1.2-.51Zm0.93,2.9a3.41,3.41,0,0,1,1.4-.1h0a3.41,3.41,0,0,0-1.4.1c-1.19.44-2.09,1.53-3.47,1.53a0.57,0.57,0,0,0-.07.17h0a0.57,0.57,0,0,1,.08-0.2C114.34,84.69,115.24,83.6,116.43,83.16Zm-2.75-4.75-0.13.18a1.67,1.67,0,0,0,.38.24h0a1.67,1.67,0,0,1-.4-0.25Zm-1.12,3.15a2.18,2.18,0,0,0,.08-2,2.14,2.14,0,0,1,0,2,0.52,0.52,0,0,0,0,.23l0.84-.29L114,82.88a0.65,0.65,0,0,0,.21,0,0.63,0.63,0,0,0,.18-0.09,0.64,0.64,0,0,1-.44.16l-0.55-1.38-0.84.29A0.52,0.52,0,0,1,112.56,81.56Zm-4.06,3.53a0.45,0.45,0,0,1-.52-0.36,4.94,4.94,0,0,1-.15-3c0.21-.66.88-1.22,0.29-2.08a1,1,0,0,1,.23-0.75,1,1,0,0,0-.19.71c0.59,0.86-.08,1.42-0.29,2.08a4.94,4.94,0,0,0,.15,3,0.45,0.45,0,0,0,.27.34,0.44,0.44,0,0,0,.44-0.07A0.44,0.44,0,0,1,108.5,85.09Zm-0.41-8.28a1.18,1.18,0,0,0,1.64.31h0a9.09,9.09,0,0,1,1-.29l1.53,1.2h-0.07l-1.5-1.17c-0.27.09-.65,0.16-1,0.29l-0.15.09a1.18,1.18,0,0,1-1.58-.54h0a2,2,0,0,0-.92-0.33h0a2,2,0,0,1,.91.33Zm-1.21-5.43a3.18,3.18,0,0,0,.79.55l0.2-.2-0.35-1,0.36,1-0.2.2a3.18,3.18,0,0,1-.8-0.56h0Zm-0.16,4.51a3.06,3.06,0,0,1,.92-0.4l0.13,0.25h0l-0.13-.25A3.06,3.06,0,0,0,106.72,75.89Zm-3,.11h0a3.43,3.43,0,0,0-.48.64,2.11,2.11,0,0,1,.64,0,2.42,2.42,0,0,0,2.52-.44,2.42,2.42,0,0,1-2.56.48,2.11,2.11,0,0,0-.64,0,3.43,3.43,0,0,1,.52-0.64v0Zm-50-19.18h0L52.29,56l1-.73h0l-1,.72Zm2.76,3.59h0v0l0.33-.43,0,0.11Zm1.91-27.82L57.27,33a2.34,2.34,0,0,0-1,.47,12.42,12.42,0,0,0-.9,1.54H55.28a12.42,12.42,0,0,1,1-1.64,2.34,2.34,0,0,1,1-.47c0.35-.14.71-0.26,1.07-0.39v0.07h0v0.11ZM62.75,70l-1-.09h0.07l1,0.12h0Zm4.87,3.27a2.33,2.33,0,0,0-1.2-1.91A6,6,0,0,1,64.65,70h0a6,6,0,0,0,1.76,1.3,2.33,2.33,0,0,1,1.21,1.94h0v0ZM66.85,39.89a3.39,3.39,0,0,1,1.81.5A3.87,3.87,0,0,0,66.85,39.89Zm2,3.52a1.43,1.43,0,0,1-.36,0l-0.42-.09L68.5,43.4a1.43,1.43,0,0,0,.36,0c0.55-1,.77-1.27,1.22-1.19-0.42-.07-0.65.24-1.18,1.2H68.85Zm2.31-1.66h0l0.34,0.82ZM70.8,39.62v0.23h0V39.61l0.91-.45A1.75,1.75,0,0,0,71,38.85a1.76,1.76,0,0,1,.75.32Zm2.28,2.3h0l0.42-1.5ZM74,49.65c0.78,0,1.09,1.07,2.09.81h0c-1,.26-1.31-0.81-2.09-0.81l2.88-1.5-1-2h0l1,2Zm3,0.6a1.6,1.6,0,0,0,1-.63,1.58,1.58,0,0,1-1,.63h0Zm1.93,34.86a0.67,0.67,0,0,0-.21.13h0A0.67,0.67,0,0,1,79,85.11h0Zm0.33-37.39h0a2,2,0,0,0,.92-0.52A3.53,3.53,0,0,1,82,46.13a3.53,3.53,0,0,0-1.73,1.06,2,2,0,0,1-.92.53h0Zm5.33,5.52-1.73-.13-2.12,2.32,0.17,0.26h0l-0.18-.27,2.12-2.32,1.75,0.13h0ZM90.06,56h0a1,1,0,0,1-.19-0.39,1.18,1.18,0,0,1,.31-0.29,0.58,0.58,0,0,1,0,.06,1.18,1.18,0,0,0-.31.29A1,1,0,0,0,90.06,56Zm1.38,1.36a1.38,1.38,0,0,0-.28-1.17,4.76,4.76,0,0,0-.78,1.58,4.34,4.34,0,0,1,.78-1.63h0a1.37,1.37,0,0,1,.28,1.27v0Zm1.89,7.73L93,65.4V65.35l0.33-.28v0.06h0ZM94,66.49a1.28,1.28,0,0,0-.28-1,1.27,1.27,0,0,1,.28,1v0ZM97,66.91c-0.43-1-.81-2-1.2-3C96.23,65,96.63,66,97,67v0Zm-2.48-2a3,3,0,0,0,1.07,1.38c0.86,0.38,1,1.33,1.54,2a4,4,0,0,1,.23,1.62,4,4,0,0,0-.23-1.6c-0.49-.7-0.68-1.64-1.54-2A3,3,0,0,1,94.56,65V64.91Zm16.57,66.69a1,1,0,0,1-.58-0.18,1,1,0,0,0,.74.12l-1-1.16h0l1,1.2Zm16.69,100.12a0.73,0.73,0,0,1-.18-0.18,0.72,0.72,0,0,1-.12-0.29,0.72,0.72,0,0,0,.31.42v0.06a1.85,1.85,0,0,1-.78-2.3l0.79,1h0l-0.75-.95a1.85,1.85,0,0,0,.73,2.31v-0.07Zm21.68-81.79a0.92,0.92,0,0,1-.24-0.7,1,1,0,0,0,.25.55,4.17,4.17,0,0,0,1.73-2h0A4.17,4.17,0,0,1,149.5,149.93Z"/><path class="cls-1" d="M150.24,5.59h0Z"/><path class="cls-1" d="M182.93,33.38c0.42-.39.8-0.84,1.24-1.3a6.09,6.09,0,0,1-1.61-.2,2.43,2.43,0,0,0-2.18-.06,0.67,0.67,0,0,1-1.06-.46c0.31-.29,1,0,0.93-0.64a1.44,1.44,0,0,0-.6-0.46l0.3-.16a1.88,1.88,0,0,0,.45-0.21c0.68-.62.73-0.66,1.12,0a3,3,0,0,0,3.27,1.74,2.52,2.52,0,0,0-1.09-2.84,0.65,0.65,0,0,1,0-.32l1,0.09-0.15-2-2-1.34a3.48,3.48,0,0,0,3.72-.9l-0.88-.79a1,1,0,0,0,.26-0.26,2.64,2.64,0,0,0,.08-0.58c0.45,0.2.71,0.35,1.19,0.53s0.78,0,.93-0.61h-1.68l-0.67-1.89,1.35,0.21a2.36,2.36,0,0,0-.2-2c-0.19-.61-0.45-0.89-1.09-0.47a1,1,0,0,1-.55,0l0.83-1.4,2.87,0.52L188,15.9l-1.82.18,0.15-.82h0.87c-0.59-1.06-1.92-.31-2.54-1.19,0.62-.56,1.15.18,1.83,0l1.4-2.94c0.87,0.2,1.26-.55,1.72-1.24C188.5,9,187.5,9.6,186.5,10l-0.31-.77c0.9-.33.9-0.33,2.54,0,0.81,0.16,1.7.31,2.17-.5a5.11,5.11,0,0,1,2.25-1.8,17.92,17.92,0,0,1,1.91-.78,0.9,0.9,0,0,0-1-.62l-2-.15a5.74,5.74,0,0,0-3.66.37,2.5,2.5,0,0,1-1.91.1,1.12,1.12,0,0,0-.66,0,4.15,4.15,0,0,0-1.33.7c-0.89.89-1.94,0.55-3,.45,1-.56,2.53-0.49,2.51-2.18-0.86.25-1.86-.53-2.38,0.68a0.7,0.7,0,0,1-.46.13c-0.58,0-1.16.1-1.84,0.1,0.07-.79-0.35-0.87-0.93-0.87h-4.61V4.58A5.9,5.9,0,0,1,175,4.3c2.9,0,5.79.15,8.69,0a4.15,4.15,0,0,0,2.37-1.13L181.64,2.1a1.57,1.57,0,0,0-.09-0.2C181,1,180.89.9,179.89,1.39a10.21,10.21,0,0,1-1.19.38l-0.2-.29,1-.7c-1.63-.13-3.12-0.8-4.69-0.36a1.53,1.53,0,0,1-1-.1c-1-.5-2.16-0.08-3.31-0.28a13,13,0,0,0-2,0,24.87,24.87,0,0,0-2.59,0,3.8,3.8,0,0,0-1.6.57c-0.72.52-1.41,1.07-2,1.52-0.93.08-.79-1.14-1.6-1-0.63.11-1.25,0.24-1.85,0.36C158.73,2.67,158.32,3,157.38,3c-0.74,0-1.47.15-2.35,0.24A9.29,9.29,0,0,0,158.1,6l-1.52.56a2.84,2.84,0,0,1-2.08-1.77,2.63,2.63,0,0,0-2.79-1.41L151.5,6.22l-1.25-.64,0.56-.44L148,3.86l-0.18.26a10.41,10.41,0,0,0,1.08.86,12.85,12.85,0,0,0,1.3.61h0c-0.91-.13-1.8-0.57-2.8.35-0.06-.93-0.06-1.67-0.77-2.17a1.92,1.92,0,0,0-.79.25,1.8,1.8,0,0,1-1.55.34,9.22,9.22,0,0,0-4.36.75l0.08,0.65-1.39-.89-0.84,1.86a6.79,6.79,0,0,0-1.72,0c-1.25.34-2.48,0.79-3.71,1.23a1,1,0,0,0-.67,1.45h3.6c0,1.94-.7,2.63-2.57,2.55a6.92,6.92,0,0,0-1.41.09c-1.53.25-3.07,0.5-4.59,0.81a3.76,3.76,0,0,0-1,.56,4.53,4.53,0,0,0,2.1,1.93,1.42,1.42,0,0,0,1.82-.56,1.64,1.64,0,0,0,2,.49,2.64,2.64,0,0,1,2,.16,6.25,6.25,0,0,1-.85.25,21.72,21.72,0,0,0-3.22.35c-0.84.22-1.57,0.87-2.51,0.35a0.49,0.49,0,0,0-.22.11,0.46,0.46,0,0,0,0,.23c0.49,0.88,1.8,1,2.07,2.08a0.67,0.67,0,0,0,.44.18,9.26,9.26,0,0,0,1.38.16,0.59,0.59,0,0,0,.22-0.08l0.28-.9a1.81,1.81,0,0,0,.85.23l0.14-.1a1.11,1.11,0,0,1,1.53.36h0c0.89-.27,1.67-0.54,2.48-0.72a1.29,1.29,0,0,1,.61.37,2.76,2.76,0,0,1,1-.29c1.54,0.15,2.64,1.37,4.12,1.69a0.85,0.85,0,0,1,.28.25l2.35,2.23-0.07.49L146,25.13c0.47,0.81.46,0.81-.3,1.48a0.51,0.51,0,0,0-.14.28c-0.13.65-.24,1.3-0.35,1.93,1.1,0.48,1.1.48,1.9-.39L151,29.67a1.52,1.52,0,0,0-.12,2.09c-1.6-.58-2.92-1.73-4.77-0.86l1.17,0.87-1.15.18-0.65,1.93L146.57,34l-0.41.62c1.34,0.48,2.34-.1,3.34-0.93l-1.79-1.91,0.14-.22a3.83,3.83,0,0,0,3.12,1,5.69,5.69,0,0,0-.17,1.32c0,0.4.76,0.53,0.48,1.18l-0.78-.24a2.85,2.85,0,0,0,.15.72,4.48,4.48,0,0,0,.13.7,12.46,12.46,0,0,1-1.58.31c-0.76,0-.53.86-1,1.13a0.78,0.78,0,0,0-.34,1.24c-0.68.64,0.32,0.89,0.32,1.31l-0.54,1.37a3.68,3.68,0,0,1,2,3l1.43-.66,0.1,0.22a5.07,5.07,0,0,1-.86.79,0.69,0.69,0,0,0-.26,1.15c0.61,0.73,1.14,1.52,1.8,2.23,0.4,0.44.68,0,.82,0.07l1.77,3.15,1.85-.92a2,2,0,0,0,.64.86c0.72,0,.89.58,1.31,0.89a7.53,7.53,0,0,0,1.44.65,2.1,2.1,0,0,0,.26-0.83,2.63,2.63,0,0,1,.41-2.09,3.82,3.82,0,0,0,.4-1,4.76,4.76,0,0,1,.45-1.65,6,6,0,0,0,1-1.32c0.49-1,1.2-2,.49-3.11l1.07-1.1,2.47-.42,0.4,0.61,0.87-.94,0.75,0.22c0.46-1.72,2.37-2,3.27-3.32,1-.2.93-0.79,0.38-1.69a2.25,2.25,0,0,0,2.68.06,1.93,1.93,0,0,1,1.14-.28A6.54,6.54,0,0,0,179.5,35a6.71,6.71,0,0,1,2.6-1A1.91,1.91,0,0,0,182.93,33.38ZM190.38,7.8L189.77,8l0.57-.22c-0.76-.52-1.45-0.07-2.14.11,0.69-.19,1.37-0.64,2.18-0.13h0Zm-6,15.43L185,23.72l-0.15.18h0l0.12-.15-0.55-.46V23.23Zm-3.5,3,0.34,0.07-0.34-.06h0Zm1.52,0.33,0.08,1h-1L181,26.5l0.53,1h0.91l-0.08-1h0Zm-0.5-1.72-0.15-.26h0l0.16,0.27-1.5.89h0ZM150.59,38.73c0.37-.11.33-0.41,0.26-0.77h0C150.92,38.33,151,38.64,150.59,38.73Zm24.68-37a3,3,0,0,0-1.77.39,3,3,0,0,1,1.77-.39h0ZM178.9,26l0.79,0.83-0.12.14h0l0.11-.12-0.79-.83h0v0Zm-0.7,3c0.67,0.11,1.44-.16,2,0.21-0.81-.79-1.82-0.48-2.77-0.58h0c0.95,0.1,2-.21,2.78.58h0C179.64,28.9,178.88,29.18,178.2,29Z"/><path class="cls-1" d="M384.82,186.6a2.09,2.09,0,0,0-.16-1.11,11.37,11.37,0,0,0-1.46-2,1.85,1.85,0,0,1-.74-1.51,0.94,0.94,0,0,0-.69-1l-0.76-.34a1.59,1.59,0,0,0-.53-2,0.52,0.52,0,0,1-.15-0.43c0.19-.83-0.59-1-1-1.36a3.75,3.75,0,0,0-1.21-.58,0.93,0.93,0,0,1-.67-0.94,5.14,5.14,0,0,0-.87-3.24,1,1,0,0,1-.16-0.72,2.2,2.2,0,0,0-1-2.23l-1.07.32c0.56-2.11-.59-3.48-1.59-4.94a15.55,15.55,0,0,0-.76,5,7.7,7.7,0,0,1-.7,3.86,1.29,1.29,0,0,1-.61.66,0.85,0.85,0,0,1-1-.38,27.07,27.07,0,0,0-2.56-2.18c-0.62-.47-1.32-0.83-1.92-1.2a3.74,3.74,0,0,1,1-2.61,3.23,3.23,0,0,0,.48-1.08,0.47,0.47,0,0,0-.54-0.6,10.64,10.64,0,0,1-3.21-.41l-2-.66a2.12,2.12,0,0,0,.18.36c0.28,0.35,1,.5.75,1s-0.75.07-1.13,0.07a3.14,3.14,0,0,0-1.3.31l-0.11.06a0.73,0.73,0,0,0-.24,1,1.91,1.91,0,0,0-.3.28c-0.32.68-1.25,1.21-.32,2.21l-1.8-.39a4.7,4.7,0,0,1-.44-0.77c-0.71-.9-0.94-0.94-1.81-0.14a7.29,7.29,0,0,0-2,2.79l-0.83-.12-0.09,1.73-0.7-1c-0.86.35-.76,1.12-0.86,1.76a3.5,3.5,0,0,1-2.31,2.63,3.49,3.49,0,0,0-2.09,1,2.15,2.15,0,0,1-1.27.47,2.82,2.82,0,0,0-1.82.91,11.11,11.11,0,0,1-1.35,1.33,2.84,2.84,0,0,1-1,.21c-0.27.78,0.57,2-.36,2.67,0.21,0.66.36,1.21,0.55,1.73a1.39,1.39,0,0,1-.37,1.7l-0.39-.47a18.52,18.52,0,0,1,2.7,11.28l-1,.27a8,8,0,0,0,1.9,1.6,2.1,2.1,0,0,0,2.16,0c0.26-.21.31-0.68,0.88-0.54a5.15,5.15,0,0,0,.94-0.52,15.9,15.9,0,0,1,2.47-.33c0.94-.1,1.94.12,2.46-1a1.2,1.2,0,0,1,.49-0.38,5.43,5.43,0,0,1,3.33-1.19,1.72,1.72,0,0,0,.48-0.14l2.92-.7a1.46,1.46,0,0,1,1.8.41,2,2,0,0,0,.8.11c0.71,0.16,1.44.31,1.53,1.25a0.59,0.59,0,0,0,.16.41,1.17,1.17,0,0,1,.75,1.16A4.35,4.35,0,0,0,365,199l2.42-2,0.2,0.12-1,2.92c0.93,0.18.7-.9,1.33-1.42l0.49,2.24,0.83-.06a7.21,7.21,0,0,1,.48,1.85,2.32,2.32,0,0,0,1.68,2.39,8.15,8.15,0,0,1,2.25,1.12,2.29,2.29,0,0,0,.45.18c0.43-.56.94-1.14,1.43-1.7a1,1,0,0,1,.39-0.11l-0.15.74,1.49,1.36a3.7,3.7,0,0,0,1.76-2.18,6.85,6.85,0,0,0,1,0,2.64,2.64,0,0,0,1.13-.34l0.08-.08a0.65,0.65,0,0,0-.08-0.92h0a0.29,0.29,0,0,1,0-.24l0.85-2.46a14.71,14.71,0,0,0,.71-2.28,2.06,2.06,0,0,1,.74-1.4,4.58,4.58,0,0,0,1.61-3.61c0.07-.82.21-1.64,0.29-2.46a1.86,1.86,0,0,0,0-1.08A4.25,4.25,0,0,1,384.82,186.6Z"/><path class="cls-1" d="M116.82,18.74h0Z"/><path class="cls-1" d="M101.63,8.1l-1.79.28c0.3,0.44-.44.41-0.28,1a2.21,2.21,0,0,0,1.39,1.86l-0.14.61a6.31,6.31,0,0,0,1.06.1,7.15,7.15,0,0,0,.81-0.24,7,7,0,0,1,.82-0.07v0.05l-1.27.54L102.95,14c0.9,0.41,1.78-.55,2.69-0.06a0.17,0.17,0,0,0,.11,0,8.57,8.57,0,0,1,1.69-1.16c0.63-.24,1.12-1,2.12-0.54-0.48.69-2,.38-1.48,1.83,0.6-.07,1.22-0.12,1.8-0.21s1.15-.24,1.69-0.36c-0.14,1-.1,1.06,1,1.41a6.2,6.2,0,0,1,.75.37,1.82,1.82,0,0,1-2.19,0,2.93,2.93,0,0,0-3.45-.44l1,1.11c-1,.44-2.34.21-2.92,1.36,0.16,1,1.18.54,1.72,0.92a1.92,1.92,0,0,0,.72-0.41c0.59,0.12,1.17.25,1.84,0.37s1.33,0.3,1.67-.59a0.72,0.72,0,0,1,.61-0.15,1.12,1.12,0,0,0,1.18.22c0.81,0,1.62-.13,2.49-0.2,0.1,0.59,0,1.32.87,1.2a2.64,2.64,0,0,1,1-.87,1.92,1.92,0,0,0,1.52-.89l-1.71-1.18c1.55-.27,1.55-0.27,1.86-1.27a2.6,2.6,0,0,0,2.7-.71,2.35,2.35,0,0,1,1.15-.8,1.13,1.13,0,0,0,.27-0.51,11.84,11.84,0,0,1-1.39-.44,1.43,1.43,0,0,1-.38-0.53,1.87,1.87,0,0,1,.74-0.1,9.73,9.73,0,0,1,1.27.6c0.27-1.3-.94-0.69-1.27-1.18a1,1,0,0,1,.34-0.24h2.1a1.05,1.05,0,0,0,1-.44,3.8,3.8,0,0,1,1.25-.76l-0.2-.32a3.93,3.93,0,0,0,1,0c0.51-.14.72-0.72,1.44-0.72a4.37,4.37,0,0,0,1.64-.88,4.31,4.31,0,0,1,1-.43c0.67-.15,1.36-0.18,2-0.36a2,2,0,0,0,1.64-1.21,1.19,1.19,0,0,1,.67-0.53c0.67-.3,1.35-0.51,2-0.81a2.81,2.81,0,0,0,.61-0.56c-1.23-.46-2.31-0.88-3.4-1.27-1.55-.56-3-0.53-4.14.85l0.77-1.3A11,11,0,0,0,131,1.69h-2.13c-0.76,0-1.58-.47-2.16.45a1.48,1.48,0,0,1-.59.14c-0.43.14-.85,0.31-1,0.36L122,2.46a2.57,2.57,0,0,0-2.14.52,1.34,1.34,0,0,1-.94.21,0.84,0.84,0,0,0-.89.28,0.58,0.58,0,0,1-.42.23c-0.85,0-1.7-.13-2.58-0.21l-0.62,1.29c-1.1-1.4-2.71-1-4-1.89V3.73L108.5,4l0.93,0.85c-0.32.08-.62,0.49-1,0.06-0.56-.69-1.12-0.41-1.66,0-0.23.18-.44,0.38-0.73,0.64a2,2,0,0,0-2.2,0,1.27,1.27,0,0,0,1.5.53,2.2,2.2,0,0,1,.72,0,3.35,3.35,0,0,0-1.8.93l1.24-.19-0.87.86c0.73-.06,1.16-0.13,1.59-0.13a7.58,7.58,0,0,1,2.13.07c0.63,0.17,1.27-.23,1.93.29A1.27,1.27,0,0,0,112,7.59a0.66,0.66,0,0,1,.44-0.11c0.62-.07,1.19,0,1.85-0.07s1.33-.14,2-0.23l2.86-.41a4.55,4.55,0,0,0,.9-0.19c0,1.16-1.09.64-1.52,1.16l0.89,0.16a8.55,8.55,0,0,1-2.18.41l-2.42.2L115,9.72l1.51,0.55c-1.06-.06-1.73-0.06-2-1.06a1.57,1.57,0,0,0-1.13-.86,22.76,22.76,0,0,0-3,0c-0.19.68-.16,1.35-0.92,1.35-0.12-.95-0.21-1.07-1.12-1.16a22.28,22.28,0,0,0-2.7,0A1.42,1.42,0,0,1,104,7.48a1.71,1.71,0,0,0-1.51-1.16c-0.58-.06-1.15-0.24-1.73-0.31a2.9,2.9,0,0,0-2,.09c1.67,0.35,1.67.35,1.83,1l-1.87-.2C99.3,8.1,100.63,7.27,101.63,8.1Zm0,1.72h0V9.66l-0.75-.1h0l0.77,0.1V9.82h0Zm19.87,0.56,0.66,0.19-0.06.2V10.58l-0.64-.2V10.6l0.21,0.08-0.24-.08Zm-12-5.45h0.12a1.8,1.8,0,0,0,1.58-.17h0.25A1.83,1.83,0,0,1,109.5,4.93Zm4.29,7.38h0c-0.56-.32-1.3,0-1.82-0.58h0c0.53,0.57,1.25.24,1.81,0.58h0Zm-1-.85h0c-1.13-.52-1.5.24-2.3,0.69h0c0.82-.45,1.19-1.23,2.33-0.69h0Z"/><path class="cls-1" d="M126.07,28.94c-0.67.46-.67,0.46-1.29,0l-0.49.4a1.72,1.72,0,0,1-.21-0.45c0.74-.66.18-1.23-0.08-1.84a0.79,0.79,0,0,0-.93-0.62l-0.16.05a3,3,0,0,1-2.2-.26l-1.58-.53,1.37-.55-0.43-.75c-0.43-1-.63-1.16-1.7-0.91a1.21,1.21,0,0,1-.6.13c-0.91-.43-1.6.07-2.29,0.57a2.11,2.11,0,0,0-2.5-.09,6.85,6.85,0,0,0-1.88,1.33c-0.68.66-.63,1.1,0.32,1.47a0.78,0.78,0,0,1,.2.21l-1.3.28,1,0.9L111,29.51a3.5,3.5,0,0,1-1.36-3c0.13-1.45.51-2,1.92-2.24,0.3-.06.58-0.16,1.16-0.33a3.19,3.19,0,0,0-.75-0.27c-1.26.06-2.52,0.11-3.77,0.25a1.54,1.54,0,0,0-1,.54c-0.69,1.22-1.32,2.5-2,3.76,0.86,0.62,1.21,1.77,2.52,1.34-0.66,1.23.74,1.17,0.81,1.8l0.91-.48c0.28,0.3.51,0.6,0.79,0.85a1,1,0,0,0,.59.32,1.9,1.9,0,0,1,1.43.09,9.16,9.16,0,0,0,2.69.3,2.31,2.31,0,0,1,1.64.26L116,31.36a2.52,2.52,0,0,1,1.2,0l0.08,0.08a1.66,1.66,0,0,0,2.35-.08h0a0.74,0.74,0,0,1,.36,0l0.37,0.9,0.75-.25,1.72,1.8c-0.51.82-.51,0.82,0.23,1.57l1.39-1c0,0.65-.15,1.14.56,1.42a1.57,1.57,0,0,1,.46.83c0.16,0.38.28,0.79,0.41,1.17a1.78,1.78,0,0,0-.55.73c0.23,0.7-.33,1-0.62,1.4a10.16,10.16,0,0,1-.85.93l1.5,2-5.53.78-0.45,2a1.55,1.55,0,0,0,2,.36,2,2,0,0,1,1.91-.44c-0.09-.27-0.11-0.37-0.16-0.49s-0.11-.24-0.28-0.61a2.22,2.22,0,0,0,.69.54,2.51,2.51,0,0,1,2.3,1.6,0.32,0.32,0,0,1,.07.24,0.7,0.7,0,0,0,.87.47l0.13-.05a1,1,0,0,1,.38.22l-0.65.44v0.26c0.65,0.06,1.29.17,1.94,0.17h1.33c1.12,0.1,2.23.23,3.43,0.36l0.15-.61c-1.26-1-2.9-1.3-4.09-2.82L134,46a1.11,1.11,0,0,1,.26-1.09c0.3-.6.11-0.88-0.51-1.19a5.28,5.28,0,0,1-1.62-1.09,4.55,4.55,0,0,0-1.11-1.1,0.85,0.85,0,0,1-.15-0.37l0.5-.06,0.51-1c0.67,0.45,1.25.82,1.81,1.22a5.43,5.43,0,0,1,1.22,1,2.78,2.78,0,0,0,1.73.89l-0.14-1.3,0.78-.33A1.41,1.41,0,0,1,137.8,40a1.55,1.55,0,0,1,.71,0l0.44-.88c-0.45-.76-0.45-0.74-1.35-0.56a1.77,1.77,0,0,1-.66-0.17,1.55,1.55,0,0,0-.45-0.1c-0.33,0-.67.1-0.88,0.1a2.67,2.67,0,0,0-.56-1,0.92,0.92,0,0,1-.76-0.6l-1.47.53a3.29,3.29,0,0,0-2.51-1.84c0.36-.48,1.12-0.76.47-1.39l1.31-.29-1.8-.84,0.77-.41a0.54,0.54,0,0,0,.19-0.86,0.45,0.45,0,0,0-.79,0c-0.21.32-.49,0.23-0.58,0a1.59,1.59,0,0,1,.14-0.74ZM116,27.83a2.13,2.13,0,0,1-.42.68h0a2.13,2.13,0,0,0,.41-0.67,0.77,0.77,0,0,1,0-.17,0.72,0.72,0,0,1,0-.11A0.76,0.76,0,0,0,116,27.83Zm0.77-.91h0Zm-0.23-.61a5.1,5.1,0,0,1,1.08-.1A5.24,5.24,0,0,0,116.5,26.31Zm1.71,1.14h0l0.55-.78Zm8.73,17h0l1.23-.3h0Zm3-4.48c-0.44-1-1.74-.58-2.28-1.53-0.66,1.1.07,1.72,0.23,2.36l2.13-.67h0l-2.13.67c-0.17-.65-0.89-1.27-0.23-2.37,0.54,0.89,1.84.52,2.28,1.5v0Z"/><path class="cls-1" d="M93,31.63a2,2,0,0,1-2.6-.9c-0.69.47-.79,0.51-1.11,0a26.11,26.11,0,0,1-1.41-2.62A1,1,0,0,0,87,27.32,2.56,2.56,0,0,1,86.37,27h0V27.2l-1.26.25a2.3,2.3,0,0,1-1,1c-0.51-.62.44-1.06,0.09-1.8-0.33-.36-0.58-1.19-1.47-1.19l-0.9,1-2-1.61-0.21,2.49c-1.48-.41-1.62-0.55-1.62-2a2.48,2.48,0,0,0,0-.25c-0.13-.7-0.65-1-1.13-0.52a4.4,4.4,0,0,1-2.36,1,2.12,2.12,0,0,0-1.47,1,2.87,2.87,0,0,1-.86,1.28,8.74,8.74,0,0,1-.68.78,15.69,15.69,0,0,0,1.44.89,0.8,0.8,0,0,0,.72,0c0.55-.64,1.15-0.1,1.73-0.1l-2.28.75v0.3a4.13,4.13,0,0,0,1,.26c1.12,0,2.24-.11,3.34,0,0.79,0.08,1.62-.46,2.39.14a1.22,1.22,0,0,0,.58-0.13c-0.21,1-1,.94-1.68.94a9.12,9.12,0,0,0-1.49-.1c-1,.14-1.91.38-3,0.61a2.4,2.4,0,0,0,.26,1,2.29,2.29,0,0,0,1.83,1h0.22a1.18,1.18,0,0,1,1.23,1.13h0a2.32,2.32,0,0,0,2.46.06,2.45,2.45,0,0,1,.87-0.08A8.23,8.23,0,0,0,83,35a13.28,13.28,0,0,0,3.77-2,1.11,1.11,0,0,1,.41-0.09v0.86C89.94,35,90.56,35,91.94,34l-0.3-1.58,1.64,1Zm-2.39,2a0.81,0.81,0,0,0,.58-0.3l-1-.5,1,0.51a0.75,0.75,0,0,1-.58.33v0Z"/><path class="cls-1" d="M376.75,156c-0.37-1.06-.31-1.16-1.72-2a37.45,37.45,0,0,0-4.51-2.21,34.13,34.13,0,0,0-3.38-1L364.65,153c-0.48-.77-1.26-1.22-1.2-2.22,0.07-1.35,0-1.35-1.38-1.53a1.65,1.65,0,0,0-.48-0.13,5.79,5.79,0,0,0-1.39.5,1.2,1.2,0,0,0-.27.63,7,7,0,0,0,1.31,1,5.4,5.4,0,0,0,1.45.23v0.2l-1.6.38,1,1.48,0.76-.5c0.37,0.38.67,0.71,1,1a1.28,1.28,0,0,0,.73.39c1.3-.08,2,1.23,3.14,1.41a1.66,1.66,0,0,1,.47.93c0.14,0.43.23,1,.32,1.32s0.2,0.71.29,1l-1.3.91,0.17,0.28c0.43-.1.86-0.21,1.3-0.29l0.16-.06a1.1,1.1,0,0,1,1.35.78h0a0.81,0.81,0,0,0,.49.52,9.79,9.79,0,0,0,2.6-.08,3.47,3.47,0,0,0,1-1.31c1.07,0.06,2.46-.21,3,1.49a1.48,1.48,0,0,0,.41.47,4.36,4.36,0,0,0,2.89,1.58c0.37,0,.7.46,1.19,0.08l-1.56-1.76-1.75-2a1,1,0,0,1,.13-1.58c0.37-.4.36-1.14-0.07-1.14C377.91,157,377.61,155.88,376.75,156Z"/><path class="cls-1" d="M335.26,145.4a3.3,3.3,0,0,0,.5,4.64,1.73,1.73,0,0,1,.3.68c0.13,0.4.25,0.81,0.36,1.21V152a0.75,0.75,0,0,0,.93.51,1.07,1.07,0,0,1,.77.09,1.18,1.18,0,0,0,1.26.29,2.94,2.94,0,0,1,2.34.41,4.33,4.33,0,0,0,1.32-.73,7.76,7.76,0,0,0,1.36-3.3c0.17-.68.23-1.38,0.34-2.11l0.59-.24,0.45-.23a4.71,4.71,0,0,1-.91-1.32,27.4,27.4,0,0,1-.44-3,3.81,3.81,0,0,0,1-.56c-0.15-.82.83-0.66,1-1.27a3.56,3.56,0,0,1-1.17-1.15,1.79,1.79,0,0,0-1.37-1.2c-0.42.58-.84,1.14-1.25,1.72a0.63,0.63,0,0,0-.16.44c0.18,0.49,0,.68-0.46.86a3.52,3.52,0,0,0-1.94,1.83,1.19,1.19,0,0,1-1.08.73h-0.16a1.36,1.36,0,0,0-1.35,1.37h0a1.39,1.39,0,0,1-.41.57l-1.63-.52Z"/><path class="cls-1" d="M265.6,166.13c-0.59.71,0,2-1.22,2.4-0.93,1.94-.93,1.94-2.69,2.57a4,4,0,0,0-2,1.66c-0.51.7-.11,1.29,0,1.93a3.21,3.21,0,0,0,.19.86,1.85,1.85,0,0,1-.36,2.08,3.93,3.93,0,0,0-1,2.87c0.11,0.73.44,1.42,0.59,2.14a3.18,3.18,0,0,0,2.13,2.6,2.94,2.94,0,0,0,2.48-2.69,4.1,4.1,0,0,1,.22-0.85c1-2.46,1.08-5.09,2.21-7.46a4.28,4.28,0,0,0,.37-1.57,16.47,16.47,0,0,0-.12-2l0.76,0.41a11.59,11.59,0,0,0,.12-1.55c0-.41-0.27-0.8-0.27-1.21A2.41,2.41,0,0,0,265.6,166.13Z"/><path class="cls-1" d="M203,60.17l-0.36.68L203.4,61V63l1.91-.1c-0.46.85,0.37,0.89,0.7,1.24l-0.43,1.36-1.48-.34-0.22,1.33c0.34,0.11.63,0.34,0.21,0.81-0.19.21-.49,0.33-0.69,0.54a0.68,0.68,0,0,0-.2.52,0.58,0.58,0,0,0,.46.25h2.52a1.8,1.8,0,0,1-.63.53c-1.27-.28-1.94.4-2.48,1.4a3.64,3.64,0,0,1-.75.71,2.13,2.13,0,0,0,.69.2,3.11,3.11,0,0,1,2-.82c0.56-.15,1.09-0.19,1.62-0.3a7.84,7.84,0,0,1,3-.34,2.64,2.64,0,0,0,1.11-.58l-0.9-.51c1.34-1.14,1.34-1.14,1.45-2.14a1.07,1.07,0,0,0-1.49-.26c-0.22-1-.18-1.91-1.09-2.6a3.92,3.92,0,0,1-1.4-1.87,5.61,5.61,0,0,0-1.2-1.47,3.21,3.21,0,0,1,.61-1.9,2.34,2.34,0,0,0,.21-1.07c-0.83-.47-1.63-0.06-2.48-0.06q0.34-.6.74-1.17a1,1,0,0,0,.12-0.78,0.87,0.87,0,0,0-.66-0.16,7.3,7.3,0,0,0-1.07.28c-0.4,1.18-1.31,2.24-1,3.63A3.68,3.68,0,0,0,203,60.17Z"/><path class="cls-1" d="M268.87,29.68l1.38-.3,1.19,0.84-0.66,1.51h2.82a1.2,1.2,0,0,0,1-.54c0.21-.27.79,0.6,1.21,0l0.12-.21a5.64,5.64,0,0,1-.59-0.18l-0.2-.06a2.51,2.51,0,0,1-1.58-3.18h0c0.1-.55.32-1,0.42-1.55a1.61,1.61,0,0,0-.17-0.63,0.86,0.86,0,0,0,.38-0.15c0.81-.84,1.61-1.7,2.42-2.56a1.64,1.64,0,0,1,.61-0.57,10.1,10.1,0,0,0,2.8-1.29,3.54,3.54,0,0,1,.83-0.32c1.54-.36,3.1-0.66,4.63-1.06a7.74,7.74,0,0,0,1.85-.77,0.71,0.71,0,0,0,.19-1.17c-0.37-.51-0.65-0.51-1.43-0.13a18,18,0,0,1-2.74,1.19,2.62,2.62,0,0,1-2.41,0,0.59,0.59,0,0,0-.93.32,1.16,1.16,0,0,1-.66.36c-0.63.21-1.28,0.36-1.9,0.6a6.06,6.06,0,0,1-1.69.78,4.06,4.06,0,0,0-2.92,1.34c-0.75.7-1.62,1.31-2.46,2,0.86,0.23.54,0.93,0.62,1.3a3.22,3.22,0,0,0-1.13.83,8.26,8.26,0,0,0-.32,1.87C268.3,28.29,268.25,28.46,268.87,29.68Z"/><path class="cls-1" d="M331.2,155.39c-0.23-1.11.48-2.25,0-3.41h0a1.14,1.14,0,0,0-.37-0.47c-1-.16-1.08-1-1.2-1.75l-1.22-.57c0.36-1.13.17-2.42-.64-2.69a3.79,3.79,0,0,1-1.64-1.35,1,1,0,0,0-.44-0.39,1,1,0,0,1-.84-0.79,5.25,5.25,0,0,0-.73-1.12,14.4,14.4,0,0,0-1.06-1c-0.82-.79-1.23-2.21-2.82-1.88a2.85,2.85,0,0,1-.53-0.31,8.91,8.91,0,0,0-1.18-.1,9,9,0,0,0,.73,1.68c0.86,1.17,2.17,2,2.68,3.46,1.11,0.26,1,1.28,1.34,2.06a10,10,0,0,0,1,1.6,23.43,23.43,0,0,1,1.31,2c0.61,1.19,1.13,2.44,1.7,3.65a2,2,0,0,0,.51.7,4.56,4.56,0,0,0,1.46,1,4.62,4.62,0,0,0,1.64-.13A1.41,1.41,0,0,0,331.2,155.39Z"/><path class="cls-1" d="M365.44,95.67a9.35,9.35,0,0,0-2.94.37c-0.89.46-1.61,1.27-2.55,1.76A8.85,8.85,0,0,0,358.5,99l0.73,1.7L359,102l1.13,0.53,1-2.75L360.22,98l1.44-.28,1.58-.35h0c-0.46.58-1.51,0.53-1.58,1.66l0.78,1.29c0.29-.88.47-1.38,1.29-1.38a2.34,2.34,0,0,0,.6-0.86c-0.44-.21-0.45-0.86-1-0.73a1.34,1.34,0,0,1,1.38-.09c-0.13.59-.33,1.24,0.51,1.59a2.45,2.45,0,0,0,1.5-1.9,1.82,1.82,0,0,0,2,.11,1.35,1.35,0,0,1,.7.16l0.83-1,0.3,0.58,0.37-.16a3,3,0,0,0,.4-1.35c-0.35-1.33.31-2.58,0.19-3.88a1.33,1.33,0,0,1,.42-0.55,2.74,2.74,0,0,0,.23-3.5,5.93,5.93,0,0,0-1.09-1,6,6,0,0,0-.63,1,3.42,3.42,0,0,0-.14,1.1,3.29,3.29,0,0,1,.12.82,8.08,8.08,0,0,1-3.46,4.47l-0.29-.13,0.27-1.18C365.84,93.55,366,95,365.44,95.67Z"/><path class="cls-1" d="M103.24,22.54c1.23-.16,2.41.28,3.13-0.72a2.29,2.29,0,0,0,.87.67c0.9,0,1.77-.08,2.69-0.08,1.6,0.08,3.2-.34,4.82-0.13a3.9,3.9,0,0,0,1.25-.15,1,1,0,0,0,.51-0.31c0.32-.41.6-0.86,0.94-1.35-1-1.06-2.33-1-3.51-1.33a8,8,0,0,0-3.91.4,6.7,6.7,0,0,1-3.88-.2,11.51,11.51,0,0,1-1.13-.5l0.78-.54-0.61-.4h-0.06c-1-.3-1.81-1-2.91-0.54A2.85,2.85,0,0,1,101.5,17c-1-.22-1.89-0.41-2.89-0.55a1.28,1.28,0,0,0-.59.33,2.88,2.88,0,0,0,3.18,1.52,1.84,1.84,0,0,1,2.06,2.11A17.87,17.87,0,0,0,103.24,22.54Z"/><path class="cls-1" d="M65.62,28.33a2.55,2.55,0,0,0,.56.5c0.38,0.32.43,1.17,1.12,1a4.44,4.44,0,0,0,1.29-.88l0.2-.13c1.43,0.42,1.84.21,2.37-1.2a2.22,2.22,0,0,1,.44-0.74,6,6,0,0,1,3.78-2.07,5.11,5.11,0,0,0,.91-0.29A3.42,3.42,0,0,0,73,23a5.56,5.56,0,0,1-3-.63A1.34,1.34,0,0,0,69.3,22c-1.17.38-2.45,0.4-3.45,1.15,0,1.55.25,3-.41,4.35A1,1,0,0,0,65.62,28.33Z"/><path class="cls-1" d="M223.87,13c0.75,1,.61,1.15,1.75.57a4.78,4.78,0,0,0,.68-0.48l2.33,1.23c-1.17,0-2.12.12-3.12,0.12-0.63,0-.72.12-0.54,0.94h1.39v0.94l-1.19-.12a0.87,0.87,0,0,0,.59,1.08l0.14,0a2.92,2.92,0,0,1,2,1.15c0.22,0.36.62,0.21,0.84-.25a1.09,1.09,0,0,1,.33-0.53c0.9,0,1.12-.94,1.76-1.31a1.7,1.7,0,0,0,.48-1.21c0.07-1,.06-1,0.94-1.33l1-.29a3.84,3.84,0,0,0-.56-0.26A2,2,0,0,1,230.94,12a5.89,5.89,0,0,0-.69-1,1.34,1.34,0,0,0-1.27-.87,1.62,1.62,0,0,1-.65-0.4,2.51,2.51,0,0,0-1.3,2l-0.91-1.32-0.94.86-0.18-.1,0.25-.91a13,13,0,0,1-1.61.21,0.5,0.5,0,0,0-.5.66C223.87,11.6,223.35,12.44,223.87,13Z"/><path class="cls-1" d="M191.41,44.78a25.56,25.56,0,0,0,2.25-1.49l-0.16-1.06-1.11-.36c0.18-1.08-.87-1.14-1.45-1.8-0.66,1.31-2,.72-2.88,1.25l-0.21-.64-1.18.77-0.44-.33-1.18,1.6a10.39,10.39,0,0,0-.42-1.56c-0.2-.48-0.55-0.78-1-0.27L184,41.61l-1.1-.61-1,1.66,1.76-.51V43a2.27,2.27,0,0,0-1.51.78c1.44,0,2.18.36,2.09,0.86l-0.92.75h1.1c0.71,0,1.53-.29,1.93.66a12.1,12.1,0,0,0,2,.09,2,2,0,0,0,.6-0.81C189.85,45.78,190.63,45.19,191.41,44.78Z"/><path class="cls-1" d="M75.22,19.22a0.41,0.41,0,0,1-.07.19l-0.65.12c0.49,0.51,0,.74-0.31,1.15L76.86,21c0.08-.38.16-0.78,0.26-1.18a0.57,0.57,0,0,1,.23-0.07l0.08,0.86a2.84,2.84,0,0,0,1.27,0c0.79-.49,1.46-0.11,2.2.07-1,.69-2.49.38-3.49,1.6a4.47,4.47,0,0,0,1,.49,2.21,2.21,0,0,0,1.9-.77,2.09,2.09,0,0,1,1.19-.6c0.83-.11,1.63-0.65,2.5-0.17a9.77,9.77,0,0,1,2.5-.4,0.66,0.66,0,0,0,.45-0.4A4.7,4.7,0,0,0,86.84,19a5,5,0,0,0-.8-1.22l-0.28,1.65-1-1.43h0A1.45,1.45,0,0,1,83,16.84c-0.14-.42-0.27-0.62-0.71-0.42-0.51,1.22.28,2.15,0.75,3.22a5.39,5.39,0,0,1-3.27-.6,6.51,6.51,0,0,0-2.29-.82,5.84,5.84,0,0,0-1.85,0C75,18.28,75,18.34,75.22,19.22Z"/><path class="cls-1" d="M408,209a2.28,2.28,0,0,0-.68.84c0,1-.73,1.6-1,2.42a4.47,4.47,0,0,1-2.41,2.46,5.56,5.56,0,0,0-3.14,3.52l1.43,0.61h0a2.42,2.42,0,0,1,.61.16,1.6,1.6,0,0,0,2.13-.47,7.2,7.2,0,0,0,1.43-3c0.57-.24,1-0.48,1.57-0.74a0.38,0.38,0,0,0,.2-0.25c-0.19-.58.34-0.79,0.56-1.17,0.56-1,1.36-1.82,1.26-3.13l-1.31-.14Z"/><path class="cls-1" d="M346.33,153.36h0a0.79,0.79,0,0,1,.11,1.11,1.51,1.51,0,0,0,0,1.64l1.2-.22a3.77,3.77,0,0,1,0-1.7c0.29-.39-0.32-1.33.74-1.39,0.2,0.74.4,1.46,0.58,2.18,0.12,0.45.35,0.58,0.74,0.31s0.74-.58,1.11-0.88l-0.63,1.19,0.6,0.71a1.65,1.65,0,0,0,0-1.91h0a2.57,2.57,0,0,1-.71-0.85c-0.2-.92-1-1.47-1.39-2.26a7.29,7.29,0,0,1,1.18-.54,5.14,5.14,0,0,1,1.17,0c-0.4-.38-0.68-0.7,0-1.28-1,.09-1.72.13-2.41,0.22h0a0.9,0.9,0,0,1-1-.75,7.75,7.75,0,0,1,.08-1.25,5.2,5.2,0,0,1,1-.14c0.75,0,1.5.15,2.25,0.21a1.21,1.21,0,0,0,1.36-.44c0.24-.46,1-0.76.52-1.57a3.45,3.45,0,0,1-4.18.76,1.51,1.51,0,0,0-1.9,1.46,6.08,6.08,0,0,1,0,1.12c-0.23,1-.58,1.89-0.8,2.89A1.09,1.09,0,0,0,346.33,153.36Z"/><path class="cls-1" d="M98.05,26.12a1.72,1.72,0,0,1-.8.17A15.07,15.07,0,0,1,95.89,25a5.08,5.08,0,0,0,.61-0.21A1.11,1.11,0,0,0,97,24.45a0.86,0.86,0,0,0-.3-0.61,2.46,2.46,0,0,0-.59-0.35V22.9a0.75,0.75,0,0,0-.19-0.08l-2,1.1c-1.15-.37-1.28-0.31-1.67,1l1.22,0.47-0.16.73c-1.12.78-1.8-.46-2.8-0.46,0.08,1.13.76,2.09,1.39,1.86a1,1,0,0,1,1.27.39l1.88,1.74a0.28,0.28,0,0,0,.2,0,20,20,0,0,0,2.3-1.23,1.91,1.91,0,0,0,.65-1.12A3.39,3.39,0,0,0,98.05,26.12Z"/><path class="cls-1" d="M231.1,10.62a1.24,1.24,0,0,0,1.4.36,6.22,6.22,0,0,1,1.38-.16V11l-1.81.41a1,1,0,0,0,1.1.55l1.62,0.21c1.07,0.13,2.15.28,3.23,0.39,0.74,0.08,1-.76,1.61-1a2.41,2.41,0,0,0,1.59-1.81c-1.14.23-2.15-1.17-3.28,0L237.58,9l-1.27.85L232.83,8.3l-0.68,1.28-1.41-.35-0.08.24,1,0.51Z"/><path class="cls-1" d="M408.69,200.3h0Z"/><path class="cls-1" d="M414.38,205a1.75,1.75,0,0,0-.34.16c-1.17.49-1.73,0.18-2-1.1a2.66,2.66,0,0,0-.33-0.63c-0.78.45-.91,0.29-1-0.18s-0.15-1-.22-1.47a1.74,1.74,0,0,0-1.79-1.42,9.4,9.4,0,0,0,.46,1.24,9.16,9.16,0,0,1,1.13,2.25,2.86,2.86,0,0,1-1.06,3.45c0.48,0.44,1,.83,1.48,1.3s-0.16,1.24-.16,1.88l1.24,0.55a1.72,1.72,0,0,0,.31-0.52c0.23-1,1.3-1.55,1.23-2.68a0.85,0.85,0,0,1,.49-0.5c0.8-.36.81-1.2,1.11-1.85C415.06,205.16,414.75,204.9,414.38,205Z"/><path class="cls-1" d="M143.74,68.58a5.26,5.26,0,0,0-.87,3.48l-1.11.92c0.51,0.49-.06.68-0.26,1a0.66,0.66,0,0,0-.16.56,0.67,0.67,0,0,0,.52.19c0.62,0,1.24-.13,1.86-0.13h2.66l0.12,1.24,1.22-1c0.29-.26.43-0.06,0.55,0.17L149,73.23l-1.15.24-0.27-1.83-2.15.16c-0.45-1-.45-1-1.7-0.59l1.31-2.88A1.07,1.07,0,0,0,143.74,68.58Z"/><path class="cls-1" d="M320.58,10L318,11.75c1.48,0.33,2.68.65,3.89,0.86a3,3,0,0,0,3.08-.91,2.54,2.54,0,0,0,.21-0.39l-0.66-.92-0.41.83c-0.27-1.18-1.19-1.54-1.59-2.31a7,7,0,0,0-2-1.75c-0.54.3-1,.53-1.4,0.78a1.17,1.17,0,0,0-.57.45c-0.14.68-.75,0.73-1.42,1C318.17,10,318.17,10,320.58,10Z"/><path class="cls-1" d="M69.93,19.18a0.38,0.38,0,0,0,.35-0.06,4.14,4.14,0,0,0,1.31-1.42c0.21-.65.75-0.7,1-1.28C72.75,17,72,17.61,73,17.85c0.3-.53,1.37-0.44,1.3-1.44a0.54,0.54,0,0,1,.38-0.19h0.17a0.83,0.83,0,0,0,.64-1v0a1.62,1.62,0,0,0-.81-1h-0.1a0.73,0.73,0,0,0-.9.51h0a3,3,0,0,1-.31.43,4.37,4.37,0,0,0-.75-0.2,3,3,0,0,0-2.08.31L66.12,18l1,1.13C68.08,19.28,69,18.7,69.93,19.18Z"/><path class="cls-1" d="M341.42,160.22h0.08l-0.76-1.64-1.51-.21L339,157.2c-0.3-.07-0.55-0.11-0.78-0.19a2.9,2.9,0,0,0-2,0,2.39,2.39,0,0,1-1.88-.4,2.39,2.39,0,0,0-1.37-.47h-2l-0.48,1.27a3.83,3.83,0,0,0,1.19.74c1.13,0.17,2.1,1.07,3.37.71a2.71,2.71,0,0,1,1.21.26c0.37,0.09.72,0.24,1.09,0.32,1.08,0.23,2.25.13,3.25,0.73A2,2,0,0,0,341.42,160.22Z"/><path class="cls-1" d="M198.68,66.1l-1.18,2.14a1.5,1.5,0,0,0,1.92.63c0.64-.37,1.24-0.83,1.86-1.25a1.33,1.33,0,0,0,.56-1.54c-0.28-1.4-.25-1.44.88-2.17l-0.35-1.28-1.13-.32c-0.65-.18-1.45,0-1.45.53-0.07,1-.67,1.06-1.45,1.06a0.71,0.71,0,0,0-.23.21l0.22,0.51-0.87.94Z"/><path class="cls-1" d="M372.74,78.68l0.76-.88,1.17,1.12a4,4,0,0,0-.25-1,4.3,4.3,0,0,1-.34-3.75c0.4-1.44.46-1.53,2-.68-0.48-.58-0.75-0.93-1-1.29a1.53,1.53,0,0,1-.38-0.63,14.42,14.42,0,0,1,0-3c0.2-1.29-.45-2.41-0.45-3.65a0.6,0.6,0,0,0-.22-0.11c-0.81.39-.15,1-0.29,1.65-1.16.57-.89,1.74-0.89,2.74,0,1.55.15,3.1,0.21,4.65v2.49A18.69,18.69,0,0,1,372.74,78.68Z"/><path class="cls-1" d="M94.84,17.21a3.7,3.7,0,0,1-.23.41C94,16.49,94,16.49,93.4,17l0.47,0.38-0.6.42A1.22,1.22,0,0,1,93.65,19c-0.74-.3-0.9-1.4-1.74-1.69l-0.27.18,0.54,1.87H91.32l-0.37,1c1,0.29,1.65-.9,2.48-0.21L93.06,21.4c1.32,0,2.43-.07,3.54-0.17,0.49,0,.54-0.45.42-0.86a14.51,14.51,0,0,1-.59-2A3.15,3.15,0,0,0,95,16.53,5.38,5.38,0,0,1,94.84,17.21Z"/><path class="cls-1" d="M372,83.21a0.8,0.8,0,0,1-.22.21L371,83.14a1.92,1.92,0,0,0-.27,2.67l1-.41-0.81-.89,1.51-.27a1.15,1.15,0,0,0,1.69.61c0.3-.75.65-1.43,1.72-1.18a2,2,0,0,0,.9-0.31c0-1.13-1-1.15-1.55-1.62-1,.38-1.22-0.4-1.59-1a7.3,7.3,0,0,0-.71-1,1.74,1.74,0,0,0-.62-0.28,1.26,1.26,0,0,0-.09.65c0.52,0.59.14,1.21,0.09,1.8A7.65,7.65,0,0,1,372,83.21Z"/><path class="cls-1" d="M346.8,125a5.21,5.21,0,0,0,.87,1.74c0.59,0.5,0,1.5,1,1.73a1.08,1.08,0,0,1,1.28-.06,1.74,1.74,0,0,1,1,.57,2.38,2.38,0,0,0,.71.6l0.18-.11-0.49-1.85-2.25-.21a2.54,2.54,0,0,1,.24-2.67,1.94,1.94,0,0,0,.36-2.38,2,2,0,0,1,0-1l-1.72-.25c-0.09.78-.12,1.58-0.28,2.34C347.59,124,347.73,124.75,346.8,125Z"/><path class="cls-1" d="M120.74,116.45a6.57,6.57,0,0,0-2.4-1.28,1.52,1.52,0,0,1-.64-0.38,5.09,5.09,0,0,0-4.31-.85,4,4,0,0,0-1.12.79,1.62,1.62,0,0,0-.2.72l0.22,0.14a8.23,8.23,0,0,1,1.07-.8,1.79,1.79,0,0,1,1.13-.32,5.53,5.53,0,0,1,2,1,2.64,2.64,0,0,0,1.71.82L120,118l-0.34.85c1.35-.36,2.63-0.09,4-0.79A28.16,28.16,0,0,1,120.74,116.45Z"/><path class="cls-1" d="M353.69,134.68a0.58,0.58,0,0,0-.21.11c-0.07.1-.1,0.23-0.16,0.33-0.29.42-1.8,1.25-2,1-0.39-.49-0.6-0.19-1,0a2,2,0,0,0-1,1.86,2.18,2.18,0,0,1,2.34-.24c-0.49,1.33-.1,1.75,1.65,2.19a20.34,20.34,0,0,1,.9-2.49A2.2,2.2,0,0,0,353.69,134.68Z"/><path class="cls-1" d="M378.91,209.34c-0.81.94-1.7,0.48-2.6,0.09a10.49,10.49,0,0,0-1.29-.34,9.22,9.22,0,0,0,.3,1.31,6.81,6.81,0,0,1,.72,1.83,3.15,3.15,0,0,0,1,1.43,2,2,0,0,0,1,.2l0.23-.87,0.72,0.09C378.6,211.81,380.06,210.67,378.91,209.34Z"/><path class="cls-1" d="M88.07,14l0.66-.25a3.54,3.54,0,0,1,3.33.18c0.62,0.42,1.21.89,1.84,1.3A0.67,0.67,0,0,0,95,14.64a1.85,1.85,0,0,0-1.06-1.43,3.22,3.22,0,0,1-1.68-.72A1.76,1.76,0,0,0,91.08,12,1.17,1.17,0,0,1,90,11.8c-0.5-.41-0.72,0-0.9.37-1.26-1-1.8-1-2.33-.17C87.21,12.64,88.41,12.71,88.07,14Z"/><path class="cls-1" d="M114.93,44.94l-1.07.11c-0.75-1.25-1.45-2.44-3.16-2.25a2.72,2.72,0,0,0,.12-0.44,1.22,1.22,0,0,0-.06-0.31H110.5a4.69,4.69,0,0,0-.25,2.71,4.57,4.57,0,0,0-.74.51,2.24,2.24,0,0,0-.31.61,1.08,1.08,0,0,0,.5.23c0.71-.2.47,0.57,0.89,0.8h0.06a1.16,1.16,0,0,0,1.07-1.24h0a2.11,2.11,0,0,1,.2-0.83,1.54,1.54,0,0,1,.63-0.32c0.07,0.24.15,0.48,0.21,0.72a3.08,3.08,0,0,1,0,.4l2,0.49Z"/><path class="cls-1" d="M324.85,14.69a7.75,7.75,0,0,1,3.42-.66,5.61,5.61,0,0,0,1.65-.53c0-.87.11-0.84-0.58-1.17s-1.38-.66-2-1-0.69-.35-1,0.23c-0.54,1.07-1.09,2.07-1.63,3.07A0.2,0.2,0,0,0,324.85,14.69Z"/><path class="cls-1" d="M124.44,121.16c0.9,0,1.85-.26,2.52.36,1.13-.72,2.39-0.56,3.65-0.86-0.57-1.09-1.69-1-2.47-1.47s-1.87-.22-2.87-0.3l0.55,1.8-2.43-.23v0.06a0.86,0.86,0,0,0,1,.64h0Z"/><path class="cls-1" d="M301.31,134.16h-0.23a8.52,8.52,0,0,1-.3,1.78,4.72,4.72,0,0,0,.13,2.73,0.86,0.86,0,0,0,1.45.55h0a1.48,1.48,0,0,0,.68-2v0A32,32,0,0,0,301.31,134.16Z"/><path class="cls-1" d="M370.09,22.8c0.1-.14.15-0.3,0.25-0.44,0.79-1.12.72-1.65-.35-2.47a9.53,9.53,0,0,0-.82-0.51c-1.39,1-1.67,2.08-1,3.34C368.73,23.7,369.5,23.73,370.09,22.8Z"/><path class="cls-1" d="M95.37,33.47c-0.21.34-.43,0.68-0.72,1.13,0.55,0.47,1.48.31,1.88,1.09a0.8,0.8,0,0,0,.58,0c0.52-.19,1.06-0.41,1.52-0.6V34.93a1.94,1.94,0,0,0-1.74-2.12A1.19,1.19,0,0,0,95.37,33.47Z"/><path class="cls-1" d="M78.5,14.89c-0.08,1.26,0,1.51.94,1.74a2.84,2.84,0,0,0,2.3-.71A1.67,1.67,0,0,0,81.81,15l1-.87C81.05,13.53,79.87,14.56,78.5,14.89Z"/><path class="cls-1" d="M237.43,16.36c-1.21.4-1.72-1.4-3.1-.69l0.17-1.21a1.94,1.94,0,0,0-2.23.1l1.26,1-0.12,1.73A2.25,2.25,0,0,1,234.5,17c0.81,0.58,1.52,0,2.26-.09C237,16.92,237.43,17,237.43,16.36Z"/><path class="cls-1" d="M97.72,15.21l1.86-.62c-0.2-1-.2-1-1-1.38L95.94,12.1l-0.2,1.44C96.89,13.66,96.87,15,97.72,15.21Z"/><path class="cls-1" d="M262,9.24a0.4,0.4,0,0,0,.33-0.14,2.55,2.55,0,0,1,1.83-.66,1.15,1.15,0,0,0-.1,1.23,1.52,1.52,0,0,0,1.85-.12,0.58,0.58,0,0,1,.45-0.14c0.84,0.21,1.43-.56,2.21-0.56a1.77,1.77,0,0,0,.35-0.58c-0.75,0-1.45-.26-1.75,0a2.38,2.38,0,0,1-3,.18h0c0.49-.16,1,0.35,1.61-0.16a6.19,6.19,0,0,0-4.24-.47c-1,.15-2.16.14-3,1C259.67,9.75,260.89,8.58,262,9.24Z"/><path class="cls-1" d="M336.74,119.48a3.62,3.62,0,0,0-2.1,1,0.87,0.87,0,0,0,0,1.38,5,5,0,0,0,.86.5,2.81,2.81,0,0,0,1.79-2.2A0.45,0.45,0,0,0,336.74,119.48Z"/><path class="cls-1" d="M374.56,26V26a1.53,1.53,0,0,0-1-1.92h0c-1-.46-1.61-0.13-2.7,1.42Z"/><path class="cls-1" d="M101,20.85c0-1-1.27-1.78-1.83-1.2a2.25,2.25,0,0,0-1.06,1.79l2.67,0.93A8.78,8.78,0,0,0,101,20.85Z"/><path class="cls-1" d="M348.5,115.69c1.07-1.2.84-2.71,1.33-4.08a0.46,0.46,0,0,0-.23-0.38,0.65,0.65,0,0,0-.52.19,22.59,22.59,0,0,0-1.27,2.59v0.08A1.24,1.24,0,0,0,348.5,115.69Z"/><path class="cls-1" d="M380,21.74a2.47,2.47,0,0,0,3-.71c-0.77-.65-1.29-0.71-3.77-0.71C379.13,21.25,379.26,21.49,380,21.74Z"/><path class="cls-1" d="M383.19,156.77a17.39,17.39,0,0,0,1.18-1.41c0.77-.88.77-0.87-0.23-1.7l0.14,0.68c-0.4.44-.63,0.73-0.87,1s-0.56,1.24-1.43.74a0.52,0.52,0,0,0-.31.08l-1.47.58A2.25,2.25,0,0,0,383.19,156.77Z"/><path class="cls-1" d="M90.88,18a1.63,1.63,0,0,0-.61-0.58,4.83,4.83,0,0,1-.71-0.54A1.08,1.08,0,0,0,89,17l0.2,0.76-0.62.39c0.56,0.39.61,1.07,1.31,1L89.38,20.2l1.91-.78C91.3,18.93,91.69,18.35,90.88,18Z"/><path class="cls-1" d="M91.33,19.4h0v0.06h0V19.4Z"/><path class="cls-1" d="M219.16,89.47a0.88,0.88,0,0,0,.5.61,0.81,0.81,0,0,0,.67-0.42,6.3,6.3,0,0,0,.33-2,3.5,3.5,0,0,0-.63-1.22l-1.22.82C218.93,88,219,88.73,219.16,89.47Z"/><path class="cls-1" d="M352,162.15a4.43,4.43,0,0,1-1.85,1.67,2.17,2.17,0,0,0,0,.45,22.27,22.27,0,0,0,5.37-3.54C354,161,352.86,161.13,352,162.15Z"/><path class="cls-1" d="M80.21,13.61a1.08,1.08,0,0,1,1.16-.1,4.91,4.91,0,0,0,1.45-.07,0.76,0.76,0,0,0,.39-0.54,0.57,0.57,0,0,0-.3-0.47A1.55,1.55,0,0,0,82,12.32a10.24,10.24,0,0,0-1.43.71c-1.29-.45-1.79-0.39-2.54.35l1.74,0.31A0.59,0.59,0,0,0,80.21,13.61Z"/><path class="cls-1" d="M3.74,28.8c-0.57-.12-1.14-0.22-1.88-0.36L0.5,29.59l0.14,0.33H4.36A0.73,0.73,0,0,0,3.74,28.8Z"/><path class="cls-1" d="M280,9.47V8.71l1.16-.45c-0.7-1-1.35-1.26-2-.86a2.65,2.65,0,0,0-.85,1,2.18,2.18,0,0,0,0,.9Z"/><path class="cls-1" d="M226.78,91.75h-3.42a7.6,7.6,0,0,0,3.13,2Z"/><path class="cls-1" d="M420,31.66c-0.41-1.47-1.82-.84-2.52-1.54l-1.6,1.24,0.12,0.3h4Z"/><path class="cls-1" d="M30.34,57.33a1,1,0,0,0,1,.91,2,2,0,0,0,1.79-1C32.4,56.33,32.4,56.33,30.34,57.33Z"/><path class="cls-1" d="M87,26.26c-0.5-.66-1-1.28-1.59-2-0.7,1.4-.49,2,0.66,2.46a1.25,1.25,0,0,1,.29.29C87.17,27,87.5,26.92,87,26.26Z"/><path class="cls-1" d="M401.84,181l-3.34-3.32c-0.08,1.26.87,1.9,1.48,2.63A1.74,1.74,0,0,0,401.84,181Z"/><path class="cls-1" d="M56.83,64.15H55.5A5.64,5.64,0,0,0,56.92,67a0.75,0.75,0,0,0,.23-1.25A1.77,1.77,0,0,1,56.83,64.15Z"/><path class="cls-1" d="M102.5,15.17a4.93,4.93,0,0,0-4.08.38C99.81,15.56,101.2,16.51,102.5,15.17Z"/><path class="cls-1" d="M315.7,11.67c0.64-.28,1.53.26,2.23-0.69a7.16,7.16,0,0,0-1.12-.62,1.57,1.57,0,0,0-1.11-.12l-0.12.12a0.93,0.93,0,0,0,.12,1.31h0Z"/><path class="cls-1" d="M356.36,144.78a1.67,1.67,0,0,0-.75,1.7,11.83,11.83,0,0,0,.18,1.56,1.11,1.11,0,0,0,.21.33l0.22-.92L357,147.6h0v-1.44h-0.57Z"/><path class="cls-1" d="M219.92,86.11a2.77,2.77,0,0,0,.12-2.58c-0.54.45-1.2,0.69-1,1.58A1,1,0,0,0,219.92,86.11Z"/><path class="cls-1" d="M223.73,62.18a3,3,0,0,0,0-1.22,0.34,0.34,0,0,0-.64-0.16c-0.26.73-1,.59-1.46,1l1.49,1.13A2.56,2.56,0,0,0,223.73,62.18Z"/><path class="cls-1" d="M285.35,7a2.15,2.15,0,0,0-2.85.8l0.73,0.61Z"/><path class="cls-1" d="M350.77,132.61L349.69,134l0.88,0.75c0.26-.3.42-0.46,0.56-0.64a7.76,7.76,0,0,0,.73-1,1.17,1.17,0,0,0-.27-0.48C351.25,133.2,351,132,350.77,132.61Z"/><path class="cls-1" d="M352.63,129.84a0.72,0.72,0,0,0-.22.68,1.54,1.54,0,0,1,.29,1.55,2.4,2.4,0,0,0,.36,1.2l0.35-.09a27.91,27.91,0,0,0-.1-2.89C353.28,129.9,353,129.63,352.63,129.84Z"/><polygon class="cls-1" points="428.09 46.59 426.37 46.91 426.46 47.59 427.97 47.18 429.17 48.46 429.67 47.74 428.09 46.59"/><path class="cls-1" d="M346.73,132.22l-0.37-.15a22.19,22.19,0,0,0-1,2c-0.28.68-1.37,0.73-1.37,1.8A5.3,5.3,0,0,0,346.73,132.22Z"/><path class="cls-1" d="M274.32,9.73c0.54,0,1,.36,1.31-0.16a0.39,0.39,0,0,1,.3-0.15c0.78,0.57,1-.16,1.7-0.59a3.43,3.43,0,0,0-1.39-.28C275.74,9.13,274.76,8.73,274.32,9.73Z"/><path class="cls-1" d="M350.5,160.91c-2.94-.49-2.94-0.49-3.58.07A4.35,4.35,0,0,0,350.5,160.91Z"/><path class="cls-1" d="M277.18,33c0.66,0.24,1.23,1,2.42.48L277.33,32C276.86,32.31,276.78,32.87,277.18,33Z"/><path class="cls-1" d="M386.77,156c0,1.59.44,2.26,1.65,2.35C388.34,157.17,387.13,156.86,386.77,156Z"/><path class="cls-1" d="M273.81,6l0.63,0.56-0.33.58c1.26,0.17,1.31.13,1.87-1.33h-2.12A0.57,0.57,0,0,0,273.81,6Z"/><path class="cls-1" d="M374.83,22a3.6,3.6,0,0,0,.85-0.48,1,1,0,0,0,.27-0.74,0.85,0.85,0,0,0-.56-0.36,7,7,0,0,0-1-.13C374.5,21,374.06,21.62,374.83,22Z"/><path class="cls-1" d="M134.7,71.17c1,0.93,1.86,1.66,3.1,1.61A4,4,0,0,0,134.7,71.17Z"/><path class="cls-1" d="M12.7,45.3a2.08,2.08,0,0,0-2,.14,1.11,1.11,0,0,0,0,.47c1.14-.57,2,0,2.75.78L13.92,46a2.2,2.2,0,0,1-.58-0.18A6.58,6.58,0,0,1,12.7,45.3Z"/><path class="cls-1" d="M139.65,228.1a1.26,1.26,0,0,0,.09.43l2.44-1.23-1.45-.63Z"/><path class="cls-1" d="M121.95,37.82a0.83,0.83,0,0,0,.6-1,1.68,1.68,0,0,0-.5-0.73h-0.16a0.92,0.92,0,0,0-.72,1.08,0.64,0.64,0,0,0,.61.67Z"/><path class="cls-1" d="M139.3,78l0.53-1.63c-1-.22-1,0.85-1.41,1.43a0.7,0.7,0,0,0,.33,1.12l0.57-.94Z"/><path class="cls-1" d="M118.79,120.9c0.68,0.7,1.44,1.19,2.44.43C120.23,120.43,119.59,120.33,118.79,120.9Z"/><path class="cls-1" d="M247.83,97c0.43-.19,1-0.34.74-1.19l-2.07.58C247,97,247.4,97.26,247.83,97Z"/><path class="cls-1" d="M239.68,96.56a1.33,1.33,0,0,0-.39-0.44c-0.9-.1-1.8-0.15-2.7-0.22A3.21,3.21,0,0,0,239.68,96.56Z"/><path class="cls-1" d="M344.63,160.92l-1-.15c0.1,1,.63,1,2.63.27l-1.55-.77Z"/><path class="cls-1" d="M265.79,34c-0.28.36-.1,0.8,0.54,1.29,0.41-.33.91-0.64,0.56-1.29h0a0.75,0.75,0,0,0-1.06,0Z"/><path class="cls-1" d="M148.28,75h0l-0.15.82a1.24,1.24,0,0,1,.6-0.17c0.2,0.12.13,0.67,0.57,0.4l0.13-.08A0.65,0.65,0,0,0,149.5,75a2.33,2.33,0,0,1-.15-0.82l-1.1.76h0Z"/><path class="cls-1" d="M356.5,152.71c0.84,0.53,1.83.24,2.75,0.42C358.5,152.27,357.5,152.59,356.5,152.71Z"/><path class="cls-1" d="M227.07,36.31a1,1,0,0,0,1.55-.3,1.75,1.75,0,0,0,.16-0.61h-1.11Z"/><path class="cls-1" d="M15.65,52.19c0.75,0.43,1.27.79,1.88,0.3A0.6,0.6,0,0,0,17.71,52a0.58,0.58,0,0,0-.49-0.26A15.56,15.56,0,0,0,15.65,52.19Z"/><path class="cls-1" d="M425,52.65a0.5,0.5,0,0,0,.08.85,1,1,0,0,0,1.3-.52l-0.07-.11A0.94,0.94,0,0,0,425,52.65Z"/><path class="cls-1" d="M138.82,226.81l-0.6,1.49c0.74-.47,1.5-0.62,1.7-1.49h-1.1Z"/><path class="cls-1" d="M76.65,14.87a2.8,2.8,0,0,0,.85-0.5,3.49,3.49,0,0,0-1-.72,0.51,0.51,0,0,0-.66.55,0.67,0.67,0,0,0,.66.68h0.15Z"/><polygon class="cls-1" points="72.9 20.26 73.5 18.6 73.22 18.45 71.73 20.15 72.9 20.26"/><path class="cls-1" d="M187.69,21.19a1.63,1.63,0,0,0,1.6-.36L187.83,20Z"/><path class="cls-1" d="M235.07,56.91h0.16a1,1,0,0,0,.84-1.14h0l-1.88.48A2.59,2.59,0,0,0,235.07,56.91Z"/><path class="cls-1" d="M350.5,131.69l-1-.29-0.3,1.6C350,132.79,350.5,132.54,350.5,131.69Z"/><path class="cls-1" d="M231.5,57.58c-1.27.59-1.42,1-.73,1.86Z"/><path class="cls-1" d="M431.3,53.37l0.11,0.15a1.08,1.08,0,0,0,1.53.07h0a1.73,1.73,0,0,0,.07-0.81Z"/><path class="cls-1" d="M330.71,150.72c0.12,0.25.22,0.42,0.31,0.64s0.14,0.44.21,0.66l0.72,0.39C331.87,151,331.71,150.86,330.71,150.72Z"/><path class="cls-1" d="M331.24,152h0Z"/><path class="cls-1" d="M346.27,162.53c1.07,1,1.16,1,1.92.54A1.91,1.91,0,0,0,346.27,162.53Z"/><path class="cls-1" d="M135.18,76.79c0.22,1.35,1.51.68,2.18,1.18C137,77,135.67,77.63,135.18,76.79Z"/><path class="cls-1" d="M111.77,48.54A2.45,2.45,0,0,0,113.84,47l-2.21,1.27Z"/><path class="cls-1" d="M433.76,64.38l1.88-.63C434.34,63.33,434.27,63.38,433.76,64.38Z"/><path class="cls-1" d="M413.7,175.11l1.64,0.15C414.83,174.17,414.5,174.16,413.7,175.11Z"/><path class="cls-1" d="M123.92,215.88c-0.57.16-1,.2-0.86,0.83a5,5,0,0,1,0,1,0.83,0.83,0,0,1,.16-0.29C124.12,217.18,123.75,216.51,123.92,215.88Z"/><path class="cls-1" d="M353.87,153l1.63,0.3C355,152.44,354.89,152.42,353.87,153Z"/><path class="cls-1" d="M398.56,54.86a1.06,1.06,0,0,0-.8,1.47C398,55.84,398.88,55.68,398.56,54.86Z"/><path class="cls-1" d="M105.25,15.48c0.31-.44.28-0.85-0.37-1-0.43.31-.65,0.68-0.26,1.12A0.68,0.68,0,0,0,105.25,15.48Z"/><path class="cls-1" d="M298.87,27.86l1.46-.57C299.5,26.65,299.3,26.72,298.87,27.86Z"/><path class="cls-1" d="M347.62,128.74l1.29,1.66C348.62,128.74,348.62,128.74,347.62,128.74Z"/><path class="cls-1" d="M133.6,120.9h-1.46C132.65,121.79,133,121.8,133.6,120.9Z"/><path class="cls-1" d="M202.12,55.86c-0.7.14-.7,0.14-0.91,1.45C201.92,56.9,201.92,56.9,202.12,55.86Z"/><path class="cls-1" d="M378.9,81c0.6-.48,1.65-0.41,1.83-1.73C380.09,80.1,379.17,80.19,378.9,81Z"/><path class="cls-1" d="M222.5,63.87a1.36,1.36,0,0,0,1.39-.83l-1.69.32A1.2,1.2,0,0,0,222.5,63.87Z"/><path class="cls-1" d="M230.19,34.68h0Z"/><path class="cls-1" d="M229.28,34.89l0.87-.2V33.57C229.5,33.89,229,34.15,229.28,34.89Z"/><path class="cls-1" d="M125.88,86.47a1.14,1.14,0,0,0-1.51.57h0l1.79-.39A1.14,1.14,0,0,0,125.88,86.47Z"/><path class="cls-1" d="M291.5,25a2.51,2.51,0,0,0-.46-0.87l-0.46,1.38,0.23,0.16A3.16,3.16,0,0,0,291.5,25Z"/><path class="cls-1" d="M18.5,63.22l1.6-.59C19.08,62.2,19,62.23,18.5,63.22Z"/><path class="cls-1" d="M140.41,77.65l-1.07.37,0.45,1C140.13,78.56,140.68,78.36,140.41,77.65Z"/><path class="cls-1" d="M139.33,78h0Z"/><path class="cls-1" d="M363.36,158.45c1-.92,1-1.21.36-1.8Z"/><path class="cls-1" d="M301.5,25.85a1.57,1.57,0,0,0-.61-0.42,1.41,1.41,0,0,0-.47.46,1.45,1.45,0,0,0,.52.41A1.52,1.52,0,0,0,301.5,25.85Z"/><path class="cls-1" d="M271.3,9.46c-0.48-.75-0.48-0.75-1.39-0.2A1.33,1.33,0,0,0,271.3,9.46Z"/><path class="cls-1" d="M95.28,10.25L94.5,9C94.3,10,94.3,10,95.28,10.25Z"/><path class="cls-1" d="M88.36,15.72l0.27-.13-0.47-1.1-0.33.16A1,1,0,0,0,88.36,15.72Z"/><path class="cls-1" d="M230.66,33.2a1.13,1.13,0,0,0,.84-1.31l-1,1.09Z"/><path class="cls-1" d="M402.31,171.86l0.43,1.13C403.31,172.15,403.31,172.15,402.31,171.86Z"/><polygon class="cls-1" points="102.18 149.57 102.92 149.09 102.27 148.23 102.18 149.57"/><polygon class="cls-1" points="402.17 218.91 402.05 220.41 402.93 220.24 402.17 218.9 402.17 218.91"/><path class="cls-1" d="M416.5,172.23l-1.68,1C416.1,173.18,416.1,173.18,416.5,172.23Z"/><path class="cls-1" d="M118.39,32.65l-1.6.44C117.94,33.6,117.94,33.6,118.39,32.65Z"/><path class="cls-1" d="M278.31,10.6a0.49,0.49,0,0,0,0-.45c-0.35-.5-0.64-0.19-1,0.13C277.64,10.66,277.9,11,278.31,10.6Z"/><path class="cls-1" d="M334,152a9.88,9.88,0,0,0-1,.35,0.64,0.64,0,0,0,.12.41C333.5,152.86,333.83,152.77,334,152Z"/><path class="cls-1" d="M274.92,177.7a0.8,0.8,0,0,0,.36.21l0.36-.84C275,177.12,274.82,177.3,274.92,177.7Z"/><path class="cls-1" d="M213,88.3l-0.1,1.17C213.65,88.91,213.65,88.91,213,88.3Z"/><path class="cls-1" d="M235.88,30l-1.38.62C235.08,31,235.5,30.78,235.88,30Z"/><path class="cls-1" d="M404.5,33.19l0.07-.24A2.13,2.13,0,0,0,404,32.5a1,1,0,0,0-.51.14,0.86,0.86,0,0,0,.15.42A4.21,4.21,0,0,0,404.5,33.19Z"/><path class="cls-1" d="M135.93,46.73h-1.08C135.26,47.43,135.26,47.43,135.93,46.73Z"/><path class="cls-1" d="M15.75,65.5l0.89-.85C15.65,64.27,16,65.27,15.75,65.5Z"/><path class="cls-1" d="M314.11,7.54l1.45-.29C314.67,6.86,314.67,6.86,314.11,7.54Z"/><path class="cls-1" d="M242.72,13l1.1,0.09C243.17,12.65,243.17,12.65,242.72,13Z"/><path class="cls-1" d="M117.44,49.34l0.18-.94-0.27-.06C117.28,48.64,116.68,48.79,117.44,49.34Z"/><path class="cls-1" d="M342.18,159.92a6.46,6.46,0,0,0-.75-0.29,1.26,1.26,0,0,0,0,.29,2.88,2.88,0,0,1,.11.31,2.22,2.22,0,0,0,.56.09A0.77,0.77,0,0,0,342.18,159.92Z"/><path class="cls-1" d="M341.5,160.26h0Z"/><path class="cls-1" d="M274.87,4.38l-1.11.46C274.5,5,274.5,5,274.87,4.38Z"/><path class="cls-1" d="M392.63,162.58l1.06,0.25,0.09-.25A0.7,0.7,0,0,0,392.63,162.58Z"/><path class="cls-1" d="M339.37,23.11l-0.88.84C339.15,24.11,339.43,24,339.37,23.11Z"/><path class="cls-1" d="M104.41,17l0.73,0.81a3.09,3.09,0,0,0,0-.81C105,16.57,104.72,16.7,104.41,17Z"/><polygon class="cls-1" points="429.36 66.87 429.59 67.02 430.26 66.1 429.98 65.87 429.36 66.87"/><path class="cls-1" d="M92.85,14.93l-1.14-.48C91.79,15.2,92.06,15.3,92.85,14.93Z"/><path class="cls-1" d="M114.85,66.18l1.1,0.28C115.28,65.64,115.27,65.62,114.85,66.18Z"/><path class="cls-1" d="M114.85,66.18h0Z"/><path class="cls-1" d="M323.78,150.76l-0.56-1.33C323.19,150.34,323.19,150.34,323.78,150.76Z"/><polygon class="cls-1" points="382.38 78.58 382.13 78.39 381.5 79.17 381.78 79.41 382.38 78.58"/><path class="cls-1" d="M351.23,130.64a0.79,0.79,0,0,0-.33,0l-0.08.3,0.82,0.24A0.72,0.72,0,0,0,351.23,130.64Z"/><path class="cls-1" d="M356.6,28.63h0Z"/><path class="cls-1" d="M357,28.1a0.45,0.45,0,0,0-.75-0.28l0.34,0.77C357,28.72,357,28.32,357,28.1Z"/><path class="cls-1" d="M357,144.35l-0.2.08,0.19,0.82a1.24,1.24,0,0,0,.3-0.34A4.14,4.14,0,0,0,357,144.35Z"/><path class="cls-1" d="M32.36,55.89l0.87-.17C32.64,55.24,32.64,55.24,32.36,55.89Z"/><path class="cls-1" d="M138.29,132.37l0.31,1c0.34-.56.38-0.86,0-1.09Z"/><path class="cls-1" d="M116.79,18.78h0Z"/><path class="cls-1" d="M117.79,18.66l-0.92.11C117.38,19.25,117.4,19.24,117.79,18.66Z"/><path class="cls-1" d="M268.37,10.75c0.21-.11.42-0.22,0.62-0.35a0.53,0.53,0,0,0-.08-0.2,3.32,3.32,0,0,0-.68.15Z"/><path class="cls-1" d="M367.55,63.61a1.38,1.38,0,0,0,.4.5,1.59,1.59,0,0,0,.3-0.54,0.49,0.49,0,0,0-.3-0.32A0.67,0.67,0,0,0,367.55,63.61Z"/><polygon class="cls-1" points="393.89 161.18 394.24 162.09 394.5 161.98 394.09 161.15 393.89 161.18"/><path class="cls-1" d="M124.15,36.8a0.45,0.45,0,0,0-.35-0.23,0.4,0.4,0,0,0-.27.3,1.11,1.11,0,0,0,.38.36A1.08,1.08,0,0,0,124.15,36.8Z"/><path class="cls-1" d="M235.9,31.24a1,1,0,0,0,.36.25,1.2,1.2,0,0,0,.45-0.15L236.5,31a0.77,0.77,0,0,0-.37-0.1A0.92,0.92,0,0,0,235.9,31.24Z"/><path class="cls-1" d="M122.36,224.64c-0.43.12-.52,0.37-0.3,0.78C122.62,225.25,122.61,225,122.36,224.64Z"/><path class="cls-1" d="M122.34,224.6h0Z"/><path class="cls-1" d="M391.61,159.54a0.9,0.9,0,0,0-.32.11l0.74,0.66C392.34,159.69,391.85,159.69,391.61,159.54Z"/><path class="cls-1" d="M390,160.24c0.06,0.21.14,0.41,0.21,0.62l0.29-.12c-0.1-.19-0.19-0.39-0.3-0.58A0.83,0.83,0,0,0,390,160.24Z"/><polygon class="cls-1" points="394.72 163.83 395.41 164.24 395.54 164.04 394.89 163.54 394.72 163.83"/><path class="cls-1" d="M366.14,168.78a0.4,0.4,0,0,0,.24.31,1.15,1.15,0,0,0,.47-0.2,1.21,1.21,0,0,0-.39-0.39A0.45,0.45,0,0,0,366.14,168.78Z"/><path class="cls-1" d="M232.67,52.81l-0.6-.36a1.56,1.56,0,0,0-.14.3,5.89,5.89,0,0,0,.57.29Z"/><path class="cls-1" d="M272.58,178.86a3.84,3.84,0,0,0,.46.38l0.21-.26-0.5-.41A1.09,1.09,0,0,0,272.58,178.86Z"/><polygon class="cls-1" points="378.88 208.05 379.19 208.58 379.48 208.43 379.09 207.9 378.88 208.05"/><path class="cls-1" d="M343.28,160.91l0.15-.63-0.3-.08a5,5,0,0,0-.16.6A1.5,1.5,0,0,0,343.28,160.91Z"/><path class="cls-1" d="M235.5,54.66a4.72,4.72,0,0,0-.32.45,1.94,1.94,0,0,0,.24.19l0.27-.52Z"/><path class="cls-1" d="M359.25,148.4a1.15,1.15,0,0,0-.28.35h1v-0.17A6.72,6.72,0,0,0,359.25,148.4Z"/><path class="cls-1" d="M226.92,62.59l-0.42-.4-0.15.17c0.14,0.13.28,0.26,0.43,0.38Z"/><path class="cls-1" d="M114,116.14V115.5a0.8,0.8,0,0,0-.22,0l-0.09.66Z"/><path class="cls-1" d="M371.17,24a1.52,1.52,0,0,0,.26-0.23l-0.28-.37a0.75,0.75,0,0,0-.27.3A0.6,0.6,0,0,0,371.17,24Z"/><polygon class="cls-1" points="339.48 157.6 340.26 157.6 340.26 157.42 339.5 157.3 339.48 157.6"/><path class="cls-1" d="M76.59,17a0.37,0.37,0,0,0,.24-0.24,0.62,0.62,0,0,0-.16-0.29l-0.42.28A0.92,0.92,0,0,0,76.59,17Z"/><path class="cls-1" d="M431.33,66a1,1,0,0,0-.07.37h0.15l0.38-.54-0.14-.08A1.24,1.24,0,0,0,431.33,66Z"/><path class="cls-1" d="M351.86,134a2.54,2.54,0,0,1,.67-0.06,0.46,0.46,0,0,0,0-.21c-0.22-.07-0.44-0.12-0.66-0.17V134h0Z"/><polygon class="cls-1" points="321.88 146.61 321.97 146.5 321.32 145.91 321.88 146.61"/><polygon class="cls-1" points="407.99 199.69 408.65 200.26 408.29 199.46 407.99 199.69"/><polygon class="cls-1" points="366.78 200.98 366.78 201.28 367.58 201.22 367.58 200.98 366.79 200.98 366.78 200.98"/><path class="cls-1" d="M2,40.11c-0.49.7-.5,0.71-0.06,1.31C2.5,40.54,2.5,40.54,2,40.11Z"/><path class="cls-1" d="M2,41.44H2Z"/><path class="cls-1" d="M438.5,41l-1.19-.56a2.87,2.87,0,0,1-.14.56A1.58,1.58,0,0,0,438.5,41Z"/><path class="cls-1" d="M437.29,40.41h0v0Z"/><path class="cls-1" d="M305,33.21h0Z"/></g><circle id="cap_bonne_esperence" data-name="cap bonne esperence" class="cls-2" cx="229.68" cy="199.46" r="10.71"/><circle id="cap_leeuwin" data-name="cap leeuwin" class="cls-2" cx="341.8" cy="199.46" r="10.71"/><circle id="new_zealand" data-name="new zealand" class="cls-2" cx="401.84" cy="220.41" r="21.22"/><path id="golf_gascogne" data-name="golf gascogne" class="cls-2" d="M207.41,52.94a25.53,25.53,0,1,0,25.53,25.53h0A25.53,25.53,0,0,0,207.41,52.94Zm0.07,42.21a16.33,16.33,0,1,1,16.33-16.33,16.33,16.33,0,0,1-16.33,16.33v0Z"/><circle id="sables_olonne" data-name="sables olonne" class="cls-2" cx="207.41" cy="78.48" r="10.76"/><g id="legende"><circle class="cls-3" cx="26.1" cy="216.03" r="25.6"/><circle class="cls-3" cx="26.2" cy="231.03" r="10.6"/><circle class="cls-3" cx="25.8" cy="225.53" r="15.6"/><circle class="cls-3" cx="25.8" cy="220.73" r="20.6"/><text class="cls-4" transform="translate(23.68 228.58)">2</text><text class="cls-4" transform="translate(23.68 218.4)">3</text><text class="cls-4" transform="translate(23.68 208.21)">4</text><text class="cls-4" transform="translate(23.68 198.03)">5</text></g></svg>