<svg id="Calque_1" data-name="Calque 1" xmlns="http://www.w3.org/2000/svg" viewBox="0 0 350 192.46">
    <defs>
        <style>.cls-1,.cls-5{fill:#2b4c7e;}.cls-2,.cls-6{fill:#fff;}.cls-2,.cls-3{opacity:0.8;isolation:isolate;}.cls-3{fill:none;stroke:#fff;stroke-miterlimit:10;stroke-width:2px;}.cls-4,.cls-5{font-size:12px;font-family:Source Sans Pro;}</style>
    </defs>
    <title>podium1</title>
    <g id="_1marche2" data-name="1marche2" transform="translate(4, 0)">
        <path id="bck2" class="cls-1" d="M88.5,192.46H4.5v-78.2a1.79,1.79,0,0,1,1.8-1.8H86.7a1.79,1.79,0,0,1,1.8,1.8v78.2h0Z" />
        <path id="number2" class="cls-2" d="M42.6,135.86c2.8-2.6,4.7-4.5,4.7-6a1.4,1.4,0,0,0-1.5-1.6,2.52,2.52,0,0,0-1.9,1.1l-1.4-1.3a4.75,4.75,0,0,1,3.6-1.7,3.36,3.36,0,0,1,3.6,3.4c0,1.8-1.7,3.8-3.5,5.6a10.87,10.87,0,0,1,1.8-.1h2.2v2.1H42.6v-1.5h0Z" />
        <circle id="border2" class="cls-3" cx="46.35" cy="132.16" r="13.7" />
        <text class="cls-4" transform="translate(45, 80)" text-anchor="middle">Armel le Cléac’h</text>
        <text class="cls-5" transform="translate(45 95)" text-anchor="middle">78 j 5 h 33 min 52 s</text>
    </g>
    <g id="_1marche3" data-name="1marche3" transform="translate(-4, 0)">
        <path id="bck3" class="cls-1" d="M334.74,192.46h-84v-38.2a1.79,1.79,0,0,1,1.8-1.8h80.4a1.79,1.79,0,0,1,1.8,1.8v38.2Z" />
        <path id="number3" class="cls-6" d="M288.57,175.56a3.39,3.39,0,0,0,2.4,1.1c1.1,0,1.8-.5,1.8-1.3,0-1-.6-1.5-2.9-1.5v-1.8c1.9,0,2.5-.6,2.5-1.4a1.18,1.18,0,0,0-1.3-1.2,3,3,0,0,0-2,1l-1.3-1.5a5.44,5.44,0,0,1,3.4-1.4c2.2,0,3.7,1.1,3.7,3a2.51,2.51,0,0,1-1.8,2.4v0.1a2.68,2.68,0,0,1,2.1,2.6c0,2-1.8,3.1-4,3.1a4.79,4.79,0,0,1-3.8-1.5Z" />
        <circle id="border3" class="cls-3" cx="291.27" cy="173.16" r="13.7" />
        <text class="cls-4" transform="translate(292 120)" text-anchor="middle">Alex Thomson</text>
        <text class="cls-5" transform="translate(292 135)" text-anchor="middle">80 j 19 h 23 min 43 s</text>
    </g>
    <g id="_1marche1" data-name="1marche1">
        <path id="bck1" class="cls-1" d="M208.94,192.46h-84V73.26a1.79,1.79,0,0,1,1.8-1.8h80.4a1.79,1.79,0,0,1,1.8,1.8v119.2Z" />
        <path id="number1" class="cls-6" d="M163.59,95.26h2.3V89h-2v-1.5a6.62,6.62,0,0,0,2.7-1h1.8v8.8h2v2h-6.9v-2h0.1Z" />
        <circle id="border1" class="cls-3" cx="166.94" cy="92.16" r="13.7" />
        <text class="cls-4" transform="translate(165 40)" text-anchor="middle">François Gabart</text>
        <text class="cls-5" transform="translate(165 55)" text-anchor="middle">78 j 2 h 16 min 40 s</text>
    </g>
</svg>