<svg id="skipper" xmlns="http://www.w3.org/2000/svg" viewBox="0 0 120.56 286.8"><defs><style>.cls-1{fill:#2b4c7e;}</style></defs><title>skipper</title><path id="body" class="cls-1" d="M28.67,99.58l-1.36,47.08s43.46,4.53,64.73,0l0.45-49.79,4.07,7.7,17.2-5S104.26,72.42,97,64.73s-21.27-3.17-21.27-3.17S68.5,80.12,60.36,87.82c0,0-14-12.67-16.3-26.71a17.74,17.74,0,0,0-14.94,2.26c-7.24,5-19.46,25.8-21.73,36.21l15.84,6.79Z" transform="translate(0)"/><g id="arms"><path class="cls-1" d="M8.75,175.18c10-1.36,8.6-8.6,8.6-20.82s4.07-43,4.07-43l-16.3-5.88C-3,136.25-1.21,176.54,8.75,175.18Z" transform="translate(0)"/><path class="cls-1" d="M99.13,111.35s4.07,30.78,4.07,43-1.36,19.46,8.6,20.82,11.77-38.93,3.62-69.71Z" transform="translate(0)"/></g><g id="legs"><path class="cls-1" d="M93.24,170.54c-0.71-11.37-1.2-18.9-1.2-18.9a106.82,106.82,0,0,1-13.75,2.49C80.79,161.54,87.81,167.15,93.24,170.54Z" transform="translate(0)"/><path class="cls-1" d="M27.76,151.64s-0.45,7.77-1.11,19.41c5.56-3.36,13.27-9.23,15.83-17.1A148.61,148.61,0,0,1,27.76,151.64Z" transform="translate(0)"/><path class="cls-1" d="M98.38,274.76c0.31-12.79-2.82-66.42-4.79-98.53A32.4,32.4,0,0,1,74,154.56a161.23,161.23,0,0,1-27.3-.19,32.42,32.42,0,0,1-20.38,22.16c-1.84,32.9-4.78,87.78-4.47,96.87,0.45,13.13,29.42,17.65,29,2.72s4.53-100.49,4.53-100.49h10s4.07,83.74,5.43,98.23S97.93,293.32,98.38,274.76Z" transform="translate(0)"/></g><circle id="head" class="cls-1" cx="59.9" cy="27.16" r="27.16"/></svg>